<svg width="364" height="281" viewBox="0 0 364 281" fill="none" xmlns="http://www.w3.org/2000/svg">
<rect width="364" height="281" rx="15" fill="#2C2C2C"/>
<rect x="77" y="20" width="195" height="120.319" rx="3.58456" fill="white"/>
<path d="M143.101 79.4763V80.2104H142.321V84.8904C142 84.9822 141.548 85.1275 140.967 85.3263C140.386 85.5098 140.042 85.6169 139.935 85.6475C138.925 85.8922 137.786 86.0145 136.517 86.0145C134.605 86.0145 132.938 85.2192 131.515 83.6287C130.17 82.0075 129.504 80.0192 129.52 77.6639C129.535 75.2934 130.223 73.3281 131.584 71.7681C132.93 70.2845 134.574 69.5428 136.517 69.5428C137.832 69.5428 138.864 69.6345 139.614 69.8181C139.92 69.8792 140.485 70.0704 141.311 70.3916V73.9934H140.623C140.516 72.6628 140.149 71.6916 139.522 71.0798C138.895 70.4681 137.931 70.1928 136.631 70.2539C133.649 70.4375 132.158 72.9457 132.158 77.7787C132.158 79.9657 132.548 81.7475 133.328 83.1239C134.108 84.4851 135.148 85.1734 136.448 85.1887C137.213 85.2039 138.046 85.0357 138.948 84.6839C139.744 84.4087 140.18 84.1334 140.256 83.8581C140.333 83.7051 140.371 83.3992 140.371 82.9404V80.2104H137.778V79.4763H143.101ZM160.016 84.4545L155.634 78.1916H154.234L154.28 84.9822H156.414V85.6934H150.036V84.9822H152.17V70.5981H150.036V69.8869H156.987C158.838 69.8869 160.245 70.2539 161.209 70.9881C162.172 71.7222 162.654 72.701 162.654 73.9245C162.654 75.1481 162.226 76.1422 161.369 76.9069C160.543 77.5951 159.457 77.9851 158.111 78.0769L162.814 84.4545C163.059 84.7604 163.602 84.9516 164.443 85.0281V85.7163C163.327 85.6704 161.56 85.6704 159.144 85.7163L159.167 84.9822H159.809C160.023 84.9363 160.13 84.8598 160.13 84.7528C160.13 84.6304 160.092 84.531 160.016 84.4545ZM156.23 77.5263C159.014 77.5263 160.375 76.3257 160.314 73.9245C160.253 71.7069 159.052 70.5981 156.712 70.5981H154.28L154.234 77.5263H156.23ZM186.036 84.9822V85.6934H180.071V84.9822H181.906L180.346 80.4628H174.817L173.946 82.5275C173.67 83.231 173.533 83.751 173.533 84.0875C173.533 84.4087 173.578 84.6381 173.67 84.7757C173.762 84.9134 174.244 84.9822 175.116 84.9822V85.6934H170.114V84.9822C170.91 84.9975 171.483 84.8981 171.835 84.6839C172.202 84.4545 172.6 83.7357 173.028 82.5275L178.006 69.451H178.924L184.338 84.9822H186.036ZM175.138 79.591H180.025L177.754 72.8692L175.138 79.591ZM202.875 80.6463C202.875 82.4204 202.164 83.7739 200.742 84.7069C199.518 85.5175 197.981 85.9228 196.131 85.9228C195.014 85.9228 193.768 85.6628 192.391 85.1428L192.414 81.4951H193.102C193.194 82.7034 193.554 83.5751 194.181 84.1104C194.471 84.3551 194.9 84.5616 195.465 84.7298C196.031 84.8981 196.544 84.9745 197.002 84.9592C198.058 84.9439 198.983 84.661 199.778 84.1104C200.558 83.5445 200.964 82.7875 200.994 81.8392C200.994 80.8451 200.642 80.0498 199.939 79.4534C199.251 78.8569 198.295 78.4898 197.071 78.3522C193.814 77.9545 192.185 76.5934 192.185 74.2687C192.185 72.6475 192.804 71.4163 194.043 70.5751C195.098 69.841 196.383 69.4739 197.897 69.4739C198.341 69.4739 198.868 69.5428 199.48 69.6804C200.092 69.8028 200.482 69.8639 200.65 69.8639C200.834 69.8639 200.956 69.7492 201.017 69.5198H201.66V73.6263H200.971C200.864 72.4945 200.52 71.6763 199.939 71.1716C199.373 70.6669 198.524 70.4222 197.392 70.4375C195.16 70.4681 194.058 71.4698 194.089 73.4428C194.12 75.2016 195.343 76.2034 197.76 76.4481C201.17 76.8151 202.875 78.2145 202.875 80.6463ZM219.684 80.6463C219.684 82.4204 218.973 83.7739 217.551 84.7069C216.327 85.5175 214.79 85.9228 212.94 85.9228C211.823 85.9228 210.577 85.6628 209.2 85.1428L209.223 81.4951H209.911C210.003 82.7034 210.363 83.5751 210.99 84.1104C211.28 84.3551 211.708 84.5616 212.274 84.7298C212.84 84.8981 213.353 84.9745 213.811 84.9592C214.867 84.9439 215.792 84.661 216.587 84.1104C217.367 83.5445 217.773 82.7875 217.803 81.8392C217.803 80.8451 217.451 80.0498 216.748 79.4534C216.06 78.8569 215.104 78.4898 213.88 78.3522C210.623 77.9545 208.994 76.5934 208.994 74.2687C208.994 72.6475 209.613 71.4163 210.852 70.5751C211.907 69.841 213.192 69.4739 214.706 69.4739C215.15 69.4739 215.677 69.5428 216.289 69.6804C216.901 69.8028 217.291 69.8639 217.459 69.8639C217.643 69.8639 217.765 69.7492 217.826 69.5198H218.468V73.6263H217.78C217.673 72.4945 217.329 71.6763 216.748 71.1716C216.182 70.6669 215.333 70.4222 214.201 70.4375C211.968 70.4681 210.867 71.4698 210.898 73.4428C210.928 75.2016 212.152 76.2034 214.568 76.4481C217.979 76.8151 219.684 78.2145 219.684 80.6463Z" fill="#134B93"/>
<path d="M145.696 95.1323H147.44V95.4822H145.696V95.1323ZM145.765 96.8242H145.352V93.5838H147.641V93.9279H145.765V96.8242ZM148.638 96.8242L150.135 93.5838H150.542L152.039 96.8242H151.626L150.267 93.8075H150.41L149.045 96.8242H148.638ZM149.269 95.9869L149.389 95.6542H151.236L151.356 95.9869H149.269ZM155.782 95.941C155.782 96.1207 155.732 96.2794 155.633 96.417C155.537 96.5547 155.396 96.6636 155.208 96.7439C155.025 96.8204 154.797 96.8586 154.526 96.8586C154.277 96.8586 154.038 96.8204 153.809 96.7439C153.583 96.6675 153.406 96.57 153.276 96.4514L153.448 96.1302C153.566 96.2411 153.723 96.3329 153.918 96.4055C154.117 96.4744 154.323 96.5088 154.537 96.5088C154.836 96.5088 155.048 96.4572 155.174 96.3539C155.304 96.2469 155.369 96.1207 155.369 95.9754C155.369 95.853 155.333 95.7575 155.26 95.6886C155.187 95.616 155.092 95.5586 154.973 95.5166C154.855 95.4707 154.725 95.4325 154.583 95.4019C154.442 95.3713 154.3 95.3369 154.159 95.2986C154.017 95.2604 153.885 95.2088 153.763 95.1438C153.645 95.0788 153.549 94.9927 153.476 94.8857C153.408 94.7786 153.373 94.6372 153.373 94.4613C153.373 94.2854 153.421 94.1286 153.516 93.991C153.612 93.8533 153.752 93.7444 153.935 93.6641C154.119 93.5838 154.344 93.5436 154.612 93.5436C154.803 93.5436 154.99 93.5685 155.174 93.6182C155.361 93.6641 155.522 93.7348 155.656 93.8304L155.507 94.163C155.369 94.0675 155.222 94.0005 155.065 93.9623C154.908 93.9202 154.753 93.8992 154.6 93.8992C154.318 93.8992 154.109 93.9527 153.975 94.0598C153.845 94.163 153.78 94.2911 153.78 94.4441C153.78 94.5664 153.817 94.6639 153.889 94.7366C153.962 94.8054 154.058 94.8627 154.176 94.9086C154.295 94.9507 154.425 94.987 154.566 95.0176C154.711 95.0482 154.855 95.0826 154.996 95.1208C155.138 95.1591 155.268 95.2107 155.386 95.2757C155.505 95.3369 155.6 95.421 155.673 95.528C155.746 95.6351 155.782 95.7727 155.782 95.941ZM157.608 96.8242V93.5838H158.021V95.0061H159.988V93.5838H160.401V96.8242H159.988V95.356H158.021V96.8242H157.608ZM162.582 96.8242V93.5838H162.995V96.8242H162.582ZM166.587 96.8586C166.258 96.8586 165.962 96.7879 165.698 96.6464C165.434 96.5011 165.226 96.3042 165.073 96.0557C164.924 95.8033 164.849 95.5185 164.849 95.2011C164.849 94.8838 164.924 94.6008 165.073 94.3523C165.226 94.1038 165.434 93.9069 165.698 93.7616C165.962 93.6163 166.258 93.5436 166.587 93.5436C166.919 93.5436 167.216 93.6163 167.476 93.7616C167.74 93.9069 167.946 94.1038 168.095 94.3523C168.248 94.6008 168.325 94.8838 168.325 95.2011C168.325 95.5185 168.248 95.8033 168.095 96.0557C167.946 96.3042 167.74 96.5011 167.476 96.6464C167.216 96.7879 166.919 96.8586 166.587 96.8586ZM166.587 96.503C166.843 96.503 167.07 96.4476 167.269 96.3367C167.468 96.222 167.625 96.0672 167.74 95.8722C167.854 95.6733 167.912 95.4497 167.912 95.2011C167.912 94.9526 167.852 94.7308 167.734 94.5358C167.619 94.3408 167.462 94.1879 167.264 94.077C167.069 93.9623 166.843 93.905 166.587 93.905C166.334 93.905 166.107 93.9623 165.904 94.077C165.705 94.1879 165.549 94.3408 165.434 94.5358C165.319 94.7308 165.262 94.9526 165.262 95.2011C165.262 95.4497 165.319 95.6733 165.434 95.8722C165.549 96.0672 165.705 96.222 165.904 96.3367C166.107 96.4476 166.334 96.503 166.587 96.503ZM170.178 96.8242V93.5838H170.516L172.719 96.3138H172.558V93.5838H172.971V96.8242H172.627L170.425 94.0885H170.591V96.8242H170.178ZM177.972 95.1323H179.716V95.4822H177.972V95.1323ZM178.041 96.8242H177.628V93.5838H179.916V93.9279H178.041V96.8242ZM183.055 96.8586C182.726 96.8586 182.43 96.7879 182.166 96.6464C181.902 96.5011 181.694 96.3042 181.541 96.0557C181.392 95.8033 181.317 95.5185 181.317 95.2011C181.317 94.8838 181.392 94.6008 181.541 94.3523C181.694 94.1038 181.902 93.9069 182.166 93.7616C182.43 93.6163 182.726 93.5436 183.055 93.5436C183.388 93.5436 183.684 93.6163 183.944 93.7616C184.208 93.9069 184.414 94.1038 184.564 94.3523C184.717 94.6008 184.793 94.8838 184.793 95.2011C184.793 95.5185 184.717 95.8033 184.564 96.0557C184.414 96.3042 184.208 96.5011 183.944 96.6464C183.684 96.7879 183.388 96.8586 183.055 96.8586ZM183.055 96.503C183.311 96.503 183.539 96.4476 183.738 96.3367C183.937 96.222 184.093 96.0672 184.208 95.8722C184.323 95.6733 184.38 95.4497 184.38 95.2011C184.38 94.9526 184.321 94.7308 184.202 94.5358C184.088 94.3408 183.931 94.1879 183.732 94.077C183.537 93.9623 183.311 93.905 183.055 93.905C182.803 93.905 182.575 93.9623 182.373 94.077C182.174 94.1879 182.017 94.3408 181.902 94.5358C181.788 94.7308 181.73 94.9526 181.73 95.2011C181.73 95.4497 181.788 95.6733 181.902 95.8722C182.017 96.0672 182.174 96.222 182.373 96.3367C182.575 96.4476 182.803 96.503 183.055 96.503ZM186.646 96.8242V93.5838H187.902C188.185 93.5838 188.426 93.6277 188.625 93.7157C188.828 93.8036 188.984 93.9317 189.095 94.1C189.206 94.2644 189.262 94.4651 189.262 94.7022C189.262 94.9316 189.206 95.1304 189.095 95.2986C188.984 95.4669 188.828 95.595 188.625 95.6829C188.426 95.7708 188.185 95.8148 187.902 95.8148H186.876L187.059 95.6313V96.8242H186.646ZM188.866 96.8242L188.017 95.6485H188.47L189.313 96.8242H188.866ZM187.059 95.6714L186.899 95.4764H187.885C188.199 95.4764 188.438 95.4095 188.602 95.2757C188.766 95.138 188.849 94.9469 188.849 94.7022C188.849 94.4536 188.766 94.2625 188.602 94.1286C188.438 93.9948 188.199 93.9279 187.885 93.9279H186.899L187.059 93.7329V95.6714ZM193.086 96.8242L194.582 93.5838H194.99L196.487 96.8242H196.074L194.714 93.8075H194.858L193.493 96.8242H193.086ZM193.716 95.9869L193.837 95.6542H195.684L195.804 95.9869H193.716ZM198.079 96.8242V93.5838H198.492V96.4801H200.299V96.8242H198.079ZM201.922 96.8242V93.5838H202.335V96.4801H204.141V96.8242H201.922Z" fill="#134B93"/>
<g filter="url(#filter0_d_451_3075)">
<rect x="90.5156" y="112.547" width="195" height="120.319" rx="3.58456" transform="rotate(11.18 90.5156 112.547)" fill="white"/>
<g clip-path="url(#clip0_451_3075)">
<rect x="108.461" y="151.17" width="51.6176" height="51.6176" rx="3.58456" transform="rotate(11.18 108.461 151.17)" fill="white"/>
<rect x="111.147" y="155.18" width="2.13296" height="2.13296" transform="rotate(11.18 111.147 155.18)" fill="#134B93"/>
<rect x="113.241" y="155.594" width="2.13296" height="2.13296" transform="rotate(11.18 113.241 155.594)" fill="#134B93"/>
<rect x="115.332" y="156.006" width="2.13296" height="2.13296" transform="rotate(11.18 115.332 156.006)" fill="#134B93"/>
<rect x="117.425" y="156.42" width="2.13296" height="2.13296" transform="rotate(11.18 117.425 156.42)" fill="#134B93"/>
<rect x="119.519" y="156.834" width="2.13296" height="2.13296" transform="rotate(11.18 119.519 156.834)" fill="#134B93"/>
<rect x="121.609" y="157.248" width="2.13296" height="2.13296" transform="rotate(11.18 121.609 157.248)" fill="#134B93"/>
<rect x="123.702" y="157.66" width="2.13296" height="2.13296" transform="rotate(11.18 123.702 157.66)" fill="#134B93"/>
<rect x="132.073" y="159.316" width="2.13296" height="2.13296" transform="rotate(11.18 132.073 159.316)" fill="#134B93"/>
<rect x="134.164" y="159.729" width="2.13296" height="2.13296" transform="rotate(11.18 134.164 159.729)" fill="#134B93"/>
<rect x="136.258" y="160.143" width="2.13296" height="2.13296" transform="rotate(11.18 136.258 160.143)" fill="#134B93"/>
<rect x="140.441" y="160.969" width="2.13296" height="2.13296" transform="rotate(11.18 140.441 160.969)" fill="#134B93"/>
<rect x="142.535" y="161.383" width="2.13296" height="2.13296" transform="rotate(11.18 142.535 161.383)" fill="#134B93"/>
<rect x="144.626" y="161.797" width="2.13296" height="2.13296" transform="rotate(11.18 144.626 161.797)" fill="#134B93"/>
<rect x="146.72" y="162.211" width="2.13296" height="2.13296" transform="rotate(11.18 146.72 162.211)" fill="#134B93"/>
<rect x="148.812" y="162.623" width="2.13296" height="2.13296" transform="rotate(11.18 148.812 162.623)" fill="#134B93"/>
<rect x="150.903" y="163.037" width="2.13296" height="2.13296" transform="rotate(11.18 150.903 163.037)" fill="#134B93"/>
<rect x="152.997" y="163.451" width="2.13296" height="2.13296" transform="rotate(11.18 152.997 163.451)" fill="#134B93"/>
<rect x="110.734" y="157.271" width="2.13296" height="2.13296" transform="rotate(11.18 110.734 157.271)" fill="#134B93"/>
<rect x="123.289" y="159.754" width="2.13296" height="2.13296" transform="rotate(11.18 123.289 159.754)" fill="#134B93"/>
<rect x="127.474" y="160.58" width="2.13296" height="2.13296" transform="rotate(11.18 127.474 160.58)" fill="#134B93"/>
<rect x="129.566" y="160.994" width="2.13296" height="2.13296" transform="rotate(11.18 129.566 160.994)" fill="#134B93"/>
<rect x="131.66" y="161.408" width="2.13296" height="2.13296" transform="rotate(11.18 131.66 161.408)" fill="#134B93"/>
<rect x="135.844" y="162.234" width="2.13296" height="2.13296" transform="rotate(11.18 135.844 162.234)" fill="#134B93"/>
<rect x="140.028" y="163.062" width="2.13296" height="2.13296" transform="rotate(11.18 140.028 163.062)" fill="#134B93"/>
<rect x="152.583" y="165.543" width="2.13296" height="2.13296" transform="rotate(11.18 152.583 165.543)" fill="#134B93"/>
<rect x="110.32" y="159.365" width="2.13296" height="2.13296" transform="rotate(11.18 110.32 159.365)" fill="#134B93"/>
<rect x="114.505" y="160.191" width="2.13296" height="2.13296" transform="rotate(11.18 114.505 160.191)" fill="#134B93"/>
<rect x="116.598" y="160.605" width="2.13296" height="2.13296" transform="rotate(11.18 116.598 160.605)" fill="#134B93"/>
<rect x="118.691" y="161.02" width="2.13296" height="2.13296" transform="rotate(11.18 118.691 161.02)" fill="#134B93"/>
<rect x="122.876" y="161.846" width="2.13296" height="2.13296" transform="rotate(11.18 122.876 161.846)" fill="#134B93"/>
<rect x="131.246" y="163.5" width="2.13296" height="2.13296" transform="rotate(11.18 131.246 163.5)" fill="#134B93"/>
<rect x="133.337" y="163.914" width="2.13296" height="2.13296" transform="rotate(11.18 133.337 163.914)" fill="#134B93"/>
<rect x="135.431" y="164.328" width="2.13296" height="2.13296" transform="rotate(11.18 135.431 164.328)" fill="#134B93"/>
<rect x="139.614" y="165.154" width="2.13296" height="2.13296" transform="rotate(11.18 139.614 165.154)" fill="#134B93"/>
<rect x="143.799" y="165.98" width="2.13296" height="2.13296" transform="rotate(11.18 143.799 165.98)" fill="#134B93"/>
<rect x="145.893" y="166.395" width="2.13296" height="2.13296" transform="rotate(11.18 145.893 166.395)" fill="#134B93"/>
<rect x="147.985" y="166.809" width="2.13296" height="2.13296" transform="rotate(11.18 147.985 166.809)" fill="#134B93"/>
<rect x="152.17" y="167.637" width="2.13296" height="2.13296" transform="rotate(11.18 152.17 167.637)" fill="#134B93"/>
<rect x="109.907" y="161.457" width="2.13296" height="2.13296" transform="rotate(11.18 109.907 161.457)" fill="#134B93"/>
<rect x="114.091" y="162.285" width="2.13296" height="2.13296" transform="rotate(11.18 114.091 162.285)" fill="#134B93"/>
<rect x="116.185" y="162.697" width="2.13296" height="2.13296" transform="rotate(11.18 116.185 162.697)" fill="#134B93"/>
<rect x="118.277" y="163.111" width="2.13296" height="2.13296" transform="rotate(11.18 118.277 163.111)" fill="#134B93"/>
<rect x="122.462" y="163.939" width="2.13296" height="2.13296" transform="rotate(11.18 122.462 163.939)" fill="#134B93"/>
<rect x="126.646" y="164.766" width="2.13296" height="2.13296" transform="rotate(11.18 126.646 164.766)" fill="#134B93"/>
<rect x="128.739" y="165.18" width="2.13296" height="2.13296" transform="rotate(11.18 128.739 165.18)" fill="#134B93"/>
<rect x="135.017" y="166.42" width="2.13296" height="2.13296" transform="rotate(11.18 135.017 166.42)" fill="#134B93"/>
<rect x="139.201" y="167.246" width="2.13296" height="2.13296" transform="rotate(11.18 139.201 167.246)" fill="#134B93"/>
<rect x="143.385" y="168.074" width="2.13296" height="2.13296" transform="rotate(11.18 143.385 168.074)" fill="#134B93"/>
<rect x="145.479" y="168.488" width="2.13296" height="2.13296" transform="rotate(11.18 145.479 168.488)" fill="#134B93"/>
<rect x="147.572" y="168.902" width="2.13296" height="2.13296" transform="rotate(11.18 147.572 168.902)" fill="#134B93"/>
<rect x="151.756" y="169.729" width="2.13296" height="2.13296" transform="rotate(11.18 151.756 169.729)" fill="#134B93"/>
<rect x="109.493" y="163.549" width="2.13296" height="2.13296" transform="rotate(11.18 109.493 163.549)" fill="#134B93"/>
<rect x="113.678" y="164.377" width="2.13296" height="2.13296" transform="rotate(11.18 113.678 164.377)" fill="#134B93"/>
<rect x="115.771" y="164.791" width="2.13296" height="2.13296" transform="rotate(11.18 115.771 164.791)" fill="#134B93"/>
<rect x="117.864" y="165.205" width="2.13296" height="2.13296" transform="rotate(11.18 117.864 165.205)" fill="#134B93"/>
<rect x="122.048" y="166.031" width="2.13296" height="2.13296" transform="rotate(11.18 122.048 166.031)" fill="#134B93"/>
<rect x="128.326" y="167.271" width="2.13296" height="2.13296" transform="rotate(11.18 128.326 167.271)" fill="#134B93"/>
<rect x="134.604" y="168.512" width="2.13296" height="2.13296" transform="rotate(11.18 134.604 168.512)" fill="#134B93"/>
<rect x="138.787" y="169.34" width="2.13296" height="2.13296" transform="rotate(11.18 138.787 169.34)" fill="#134B93"/>
<rect x="142.972" y="170.166" width="2.13296" height="2.13296" transform="rotate(11.18 142.972 170.166)" fill="#134B93"/>
<rect x="145.065" y="170.58" width="2.13296" height="2.13296" transform="rotate(11.18 145.065 170.58)" fill="#134B93"/>
<rect x="147.158" y="170.994" width="2.13296" height="2.13296" transform="rotate(11.18 147.158 170.994)" fill="#134B93"/>
<rect x="151.343" y="171.82" width="2.13296" height="2.13296" transform="rotate(11.18 151.343 171.82)" fill="#134B93"/>
<rect x="109.08" y="165.643" width="2.13296" height="2.13296" transform="rotate(11.18 109.08 165.643)" fill="#134B93"/>
<rect x="121.635" y="168.123" width="2.13296" height="2.13296" transform="rotate(11.18 121.635 168.123)" fill="#134B93"/>
<rect x="125.819" y="168.951" width="2.13296" height="2.13296" transform="rotate(11.18 125.819 168.951)" fill="#134B93"/>
<rect x="132.097" y="170.191" width="2.13296" height="2.13296" transform="rotate(11.18 132.097 170.191)" fill="#134B93"/>
<rect x="138.374" y="171.432" width="2.13296" height="2.13296" transform="rotate(11.18 138.374 171.432)" fill="#134B93"/>
<rect x="150.929" y="173.914" width="2.13296" height="2.13296" transform="rotate(11.18 150.929 173.914)" fill="#134B93"/>
<rect x="108.666" y="167.734" width="2.13296" height="2.13296" transform="rotate(11.18 108.666 167.734)" fill="#134B93"/>
<rect x="110.76" y="168.148" width="2.13296" height="2.13296" transform="rotate(11.18 110.76 168.148)" fill="#134B93"/>
<rect x="112.851" y="168.561" width="2.13296" height="2.13296" transform="rotate(11.18 112.851 168.561)" fill="#134B93"/>
<rect x="114.943" y="168.975" width="2.13296" height="2.13296" transform="rotate(11.18 114.943 168.975)" fill="#134B93"/>
<rect x="117.037" y="169.389" width="2.13296" height="2.13296" transform="rotate(11.18 117.037 169.389)" fill="#134B93"/>
<rect x="119.128" y="169.803" width="2.13296" height="2.13296" transform="rotate(11.18 119.128 169.803)" fill="#134B93"/>
<rect x="121.222" y="170.217" width="2.13296" height="2.13296" transform="rotate(11.18 121.222 170.217)" fill="#134B93"/>
<rect x="125.405" y="171.043" width="2.13296" height="2.13296" transform="rotate(11.18 125.405 171.043)" fill="#134B93"/>
<rect x="129.592" y="171.871" width="2.13296" height="2.13296" transform="rotate(11.18 129.592 171.871)" fill="#134B93"/>
<rect x="133.776" y="172.697" width="2.13296" height="2.13296" transform="rotate(11.18 133.776 172.697)" fill="#134B93"/>
<rect x="137.961" y="173.523" width="2.13296" height="2.13296" transform="rotate(11.18 137.961 173.523)" fill="#134B93"/>
<rect x="140.054" y="173.938" width="2.13296" height="2.13296" transform="rotate(11.18 140.054 173.938)" fill="#134B93"/>
<rect x="142.145" y="174.352" width="2.13296" height="2.13296" transform="rotate(11.18 142.145 174.352)" fill="#134B93"/>
<rect x="144.238" y="174.766" width="2.13296" height="2.13296" transform="rotate(11.18 144.238 174.766)" fill="#134B93"/>
<rect x="146.331" y="175.18" width="2.13296" height="2.13296" transform="rotate(11.18 146.331 175.18)" fill="#134B93"/>
<rect x="148.422" y="175.592" width="2.13296" height="2.13296" transform="rotate(11.18 148.422 175.592)" fill="#134B93"/>
<rect x="150.516" y="176.006" width="2.13296" height="2.13296" transform="rotate(11.18 150.516 176.006)" fill="#134B93"/>
<rect x="127.085" y="173.549" width="2.13296" height="2.13296" transform="rotate(11.18 127.085 173.549)" fill="#134B93"/>
<rect x="107.839" y="171.92" width="2.13296" height="2.13296" transform="rotate(11.18 107.839 171.92)" fill="#134B93"/>
<rect x="109.933" y="172.334" width="2.13296" height="2.13296" transform="rotate(11.18 109.933 172.334)" fill="#134B93"/>
<rect x="112.023" y="172.746" width="2.13296" height="2.13296" transform="rotate(11.18 112.023 172.746)" fill="#134B93"/>
<rect x="114.116" y="173.16" width="2.13296" height="2.13296" transform="rotate(11.18 114.116 173.16)" fill="#134B93"/>
<rect x="116.21" y="173.574" width="2.13296" height="2.13296" transform="rotate(11.18 116.21 173.574)" fill="#134B93"/>
<rect x="120.395" y="174.4" width="2.13296" height="2.13296" transform="rotate(11.18 120.395 174.4)" fill="#134B93"/>
<rect x="122.487" y="174.814" width="2.13296" height="2.13296" transform="rotate(11.18 122.487 174.814)" fill="#134B93"/>
<rect x="124.578" y="175.229" width="2.13296" height="2.13296" transform="rotate(11.18 124.578 175.229)" fill="#134B93"/>
<rect x="130.855" y="176.469" width="2.13296" height="2.13296" transform="rotate(11.18 130.855 176.469)" fill="#134B93"/>
<rect x="135.04" y="177.295" width="2.13296" height="2.13296" transform="rotate(11.18 135.04 177.295)" fill="#134B93"/>
<rect x="139.227" y="178.123" width="2.13296" height="2.13296" transform="rotate(11.18 139.227 178.123)" fill="#134B93"/>
<rect x="143.411" y="178.949" width="2.13296" height="2.13296" transform="rotate(11.18 143.411 178.949)" fill="#134B93"/>
<rect x="147.595" y="179.777" width="2.13296" height="2.13296" transform="rotate(11.18 147.595 179.777)" fill="#134B93"/>
<rect x="107.426" y="174.012" width="2.13296" height="2.13296" transform="rotate(11.18 107.426 174.012)" fill="#134B93"/>
<rect x="111.609" y="174.84" width="2.13296" height="2.13296" transform="rotate(11.18 111.609 174.84)" fill="#134B93"/>
<rect x="124.165" y="177.32" width="2.13296" height="2.13296" transform="rotate(11.18 124.165 177.32)" fill="#134B93"/>
<rect x="126.258" y="177.734" width="2.13296" height="2.13296" transform="rotate(11.18 126.258 177.734)" fill="#134B93"/>
<rect x="130.442" y="178.561" width="2.13296" height="2.13296" transform="rotate(11.18 130.442 178.561)" fill="#134B93"/>
<rect x="132.535" y="178.975" width="2.13296" height="2.13296" transform="rotate(11.18 132.535 178.975)" fill="#134B93"/>
<rect x="134.626" y="179.389" width="2.13296" height="2.13296" transform="rotate(11.18 134.626 179.389)" fill="#134B93"/>
<rect x="136.72" y="179.803" width="2.13296" height="2.13296" transform="rotate(11.18 136.72 179.803)" fill="#134B93"/>
<rect x="142.997" y="181.043" width="2.13296" height="2.13296" transform="rotate(11.18 142.997 181.043)" fill="#134B93"/>
<rect x="145.091" y="181.457" width="2.13296" height="2.13296" transform="rotate(11.18 145.091 181.457)" fill="#134B93"/>
<rect x="149.274" y="182.283" width="2.13296" height="2.13296" transform="rotate(11.18 149.274 182.283)" fill="#134B93"/>
<rect x="115.383" y="177.76" width="2.13296" height="2.13296" transform="rotate(11.18 115.383 177.76)" fill="#134B93"/>
<rect x="119.567" y="178.586" width="2.13296" height="2.13296" transform="rotate(11.18 119.567 178.586)" fill="#134B93"/>
<rect x="123.751" y="179.412" width="2.13296" height="2.13296" transform="rotate(11.18 123.751 179.412)" fill="#134B93"/>
<rect x="125.845" y="179.826" width="2.13296" height="2.13296" transform="rotate(11.18 125.845 179.826)" fill="#134B93"/>
<rect x="132.122" y="181.066" width="2.13296" height="2.13296" transform="rotate(11.18 132.122 181.066)" fill="#134B93"/>
<rect x="136.307" y="181.895" width="2.13296" height="2.13296" transform="rotate(11.18 136.307 181.895)" fill="#134B93"/>
<rect x="138.399" y="182.309" width="2.13296" height="2.13296" transform="rotate(11.18 138.399 182.309)" fill="#134B93"/>
<rect x="142.584" y="183.135" width="2.13296" height="2.13296" transform="rotate(11.18 142.584 183.135)" fill="#134B93"/>
<rect x="146.768" y="183.963" width="2.13296" height="2.13296" transform="rotate(11.18 146.768 183.963)" fill="#134B93"/>
<rect x="106.599" y="178.197" width="2.13296" height="2.13296" transform="rotate(11.18 106.599 178.197)" fill="#134B93"/>
<rect x="117.06" y="180.264" width="2.13296" height="2.13296" transform="rotate(11.18 117.06 180.264)" fill="#134B93"/>
<rect x="121.247" y="181.092" width="2.13296" height="2.13296" transform="rotate(11.18 121.247 181.092)" fill="#134B93"/>
<rect x="127.524" y="182.332" width="2.13296" height="2.13296" transform="rotate(11.18 127.524 182.332)" fill="#134B93"/>
<rect x="129.615" y="182.746" width="2.13296" height="2.13296" transform="rotate(11.18 129.615 182.746)" fill="#134B93"/>
<rect x="131.709" y="183.16" width="2.13296" height="2.13296" transform="rotate(11.18 131.709 183.16)" fill="#134B93"/>
<rect x="133.799" y="183.572" width="2.13296" height="2.13296" transform="rotate(11.18 133.799 183.572)" fill="#134B93"/>
<rect x="135.893" y="183.986" width="2.13296" height="2.13296" transform="rotate(11.18 135.893 183.986)" fill="#134B93"/>
<rect x="142.17" y="185.227" width="2.13296" height="2.13296" transform="rotate(11.18 142.17 185.227)" fill="#134B93"/>
<rect x="144.264" y="185.641" width="2.13296" height="2.13296" transform="rotate(11.18 144.264 185.641)" fill="#134B93"/>
<rect x="146.354" y="186.055" width="2.13296" height="2.13296" transform="rotate(11.18 146.354 186.055)" fill="#134B93"/>
<rect x="148.448" y="186.469" width="2.13296" height="2.13296" transform="rotate(11.18 148.448 186.469)" fill="#134B93"/>
<rect x="106.185" y="180.289" width="2.13296" height="2.13296" transform="rotate(11.18 106.185 180.289)" fill="#134B93"/>
<rect x="108.278" y="180.703" width="2.13296" height="2.13296" transform="rotate(11.18 108.278 180.703)" fill="#134B93"/>
<rect x="118.74" y="182.771" width="2.13296" height="2.13296" transform="rotate(11.18 118.74 182.771)" fill="#134B93"/>
<rect x="125.018" y="184.012" width="2.13296" height="2.13296" transform="rotate(11.18 125.018 184.012)" fill="#134B93"/>
<rect x="131.295" y="185.252" width="2.13296" height="2.13296" transform="rotate(11.18 131.295 185.252)" fill="#134B93"/>
<rect x="137.572" y="186.494" width="2.13296" height="2.13296" transform="rotate(11.18 137.572 186.494)" fill="#134B93"/>
<rect x="145.94" y="188.146" width="2.13296" height="2.13296" transform="rotate(11.18 145.94 188.146)" fill="#134B93"/>
<rect x="122.511" y="185.689" width="2.13296" height="2.13296" transform="rotate(11.18 122.511 185.689)" fill="#134B93"/>
<rect x="126.697" y="186.518" width="2.13296" height="2.13296" transform="rotate(11.18 126.697 186.518)" fill="#134B93"/>
<rect x="130.882" y="187.346" width="2.13296" height="2.13296" transform="rotate(11.18 130.882 187.346)" fill="#134B93"/>
<rect x="137.159" y="188.586" width="2.13296" height="2.13296" transform="rotate(11.18 137.159 188.586)" fill="#134B93"/>
<rect x="141.343" y="189.412" width="2.13296" height="2.13296" transform="rotate(11.18 141.343 189.412)" fill="#134B93"/>
<rect x="143.437" y="189.826" width="2.13296" height="2.13296" transform="rotate(11.18 143.437 189.826)" fill="#134B93"/>
<rect x="147.621" y="190.652" width="2.13296" height="2.13296" transform="rotate(11.18 147.621 190.652)" fill="#134B93"/>
<rect x="105.357" y="184.475" width="2.13296" height="2.13296" transform="rotate(11.18 105.357 184.475)" fill="#134B93"/>
<rect x="107.451" y="184.889" width="2.13296" height="2.13296" transform="rotate(11.18 107.451 184.889)" fill="#134B93"/>
<rect x="109.542" y="185.301" width="2.13296" height="2.13296" transform="rotate(11.18 109.542 185.301)" fill="#134B93"/>
<rect x="111.635" y="185.715" width="2.13296" height="2.13296" transform="rotate(11.18 111.635 185.715)" fill="#134B93"/>
<rect x="113.729" y="186.129" width="2.13296" height="2.13296" transform="rotate(11.18 113.729 186.129)" fill="#134B93"/>
<rect x="115.819" y="186.543" width="2.13296" height="2.13296" transform="rotate(11.18 115.819 186.543)" fill="#134B93"/>
<rect x="117.913" y="186.955" width="2.13296" height="2.13296" transform="rotate(11.18 117.913 186.955)" fill="#134B93"/>
<rect x="122.097" y="187.783" width="2.13296" height="2.13296" transform="rotate(11.18 122.097 187.783)" fill="#134B93"/>
<rect x="124.19" y="188.197" width="2.13296" height="2.13296" transform="rotate(11.18 124.19 188.197)" fill="#134B93"/>
<rect x="126.284" y="188.609" width="2.13296" height="2.13296" transform="rotate(11.18 126.284 188.609)" fill="#134B93"/>
<rect x="128.374" y="189.023" width="2.13296" height="2.13296" transform="rotate(11.18 128.374 189.023)" fill="#134B93"/>
<rect x="132.559" y="189.85" width="2.13296" height="2.13296" transform="rotate(11.18 132.559 189.85)" fill="#134B93"/>
<rect x="138.836" y="191.092" width="2.13296" height="2.13296" transform="rotate(11.18 138.836 191.092)" fill="#134B93"/>
<rect x="140.93" y="191.506" width="2.13296" height="2.13296" transform="rotate(11.18 140.93 191.506)" fill="#134B93"/>
<rect x="145.113" y="192.332" width="2.13296" height="2.13296" transform="rotate(11.18 145.113 192.332)" fill="#134B93"/>
<rect x="104.944" y="186.566" width="2.13296" height="2.13296" transform="rotate(11.18 104.944 186.566)" fill="#134B93"/>
<rect x="117.499" y="189.049" width="2.13296" height="2.13296" transform="rotate(11.18 117.499 189.049)" fill="#134B93"/>
<rect x="136.332" y="192.77" width="2.13296" height="2.13296" transform="rotate(11.18 136.332 192.77)" fill="#134B93"/>
<rect x="138.423" y="193.184" width="2.13296" height="2.13296" transform="rotate(11.18 138.423 193.184)" fill="#134B93"/>
<rect x="140.516" y="193.598" width="2.13296" height="2.13296" transform="rotate(11.18 140.516 193.598)" fill="#134B93"/>
<rect x="142.609" y="194.012" width="2.13296" height="2.13296" transform="rotate(11.18 142.609 194.012)" fill="#134B93"/>
<rect x="144.7" y="194.424" width="2.13296" height="2.13296" transform="rotate(11.18 144.7 194.424)" fill="#134B93"/>
<rect x="104.53" y="188.66" width="2.13296" height="2.13296" transform="rotate(11.18 104.53 188.66)" fill="#134B93"/>
<rect x="108.715" y="189.486" width="2.13296" height="2.13296" transform="rotate(11.18 108.715 189.486)" fill="#134B93"/>
<rect x="110.808" y="189.9" width="2.13296" height="2.13296" transform="rotate(11.18 110.808 189.9)" fill="#134B93"/>
<rect x="112.901" y="190.314" width="2.13296" height="2.13296" transform="rotate(11.18 112.901 190.314)" fill="#134B93"/>
<rect x="117.086" y="191.141" width="2.13296" height="2.13296" transform="rotate(11.18 117.086 191.141)" fill="#134B93"/>
<rect x="121.27" y="191.969" width="2.13296" height="2.13296" transform="rotate(11.18 121.27 191.969)" fill="#134B93"/>
<rect x="123.363" y="192.381" width="2.13296" height="2.13296" transform="rotate(11.18 123.363 192.381)" fill="#134B93"/>
<rect x="125.456" y="192.795" width="2.13296" height="2.13296" transform="rotate(11.18 125.456 192.795)" fill="#134B93"/>
<rect x="127.547" y="193.209" width="2.13296" height="2.13296" transform="rotate(11.18 127.547 193.209)" fill="#134B93"/>
<rect x="131.731" y="194.035" width="2.13296" height="2.13296" transform="rotate(11.18 131.731 194.035)" fill="#134B93"/>
<rect x="138.009" y="195.275" width="2.13296" height="2.13296" transform="rotate(11.18 138.009 195.275)" fill="#134B93"/>
<rect x="144.286" y="196.518" width="2.13296" height="2.13296" transform="rotate(11.18 144.286 196.518)" fill="#134B93"/>
<rect x="104.117" y="190.752" width="2.13296" height="2.13296" transform="rotate(11.18 104.117 190.752)" fill="#134B93"/>
<rect x="108.301" y="191.578" width="2.13296" height="2.13296" transform="rotate(11.18 108.301 191.578)" fill="#134B93"/>
<rect x="110.395" y="191.992" width="2.13296" height="2.13296" transform="rotate(11.18 110.395 191.992)" fill="#134B93"/>
<rect x="112.488" y="192.406" width="2.13296" height="2.13296" transform="rotate(11.18 112.488 192.406)" fill="#134B93"/>
<rect x="116.672" y="193.234" width="2.13296" height="2.13296" transform="rotate(11.18 116.672 193.234)" fill="#134B93"/>
<rect x="120.856" y="194.061" width="2.13296" height="2.13296" transform="rotate(11.18 120.856 194.061)" fill="#134B93"/>
<rect x="122.949" y="194.475" width="2.13296" height="2.13296" transform="rotate(11.18 122.949 194.475)" fill="#134B93"/>
<rect x="127.134" y="195.301" width="2.13296" height="2.13296" transform="rotate(11.18 127.134 195.301)" fill="#134B93"/>
<rect x="129.228" y="195.715" width="2.13296" height="2.13296" transform="rotate(11.18 129.228 195.715)" fill="#134B93"/>
<rect x="131.317" y="196.129" width="2.13296" height="2.13296" transform="rotate(11.18 131.317 196.129)" fill="#134B93"/>
<rect x="133.411" y="196.541" width="2.13296" height="2.13296" transform="rotate(11.18 133.411 196.541)" fill="#134B93"/>
<rect x="135.505" y="196.955" width="2.13296" height="2.13296" transform="rotate(11.18 135.505 196.955)" fill="#134B93"/>
<rect x="139.688" y="197.783" width="2.13296" height="2.13296" transform="rotate(11.18 139.688 197.783)" fill="#134B93"/>
<rect x="141.782" y="198.195" width="2.13296" height="2.13296" transform="rotate(11.18 141.782 198.195)" fill="#134B93"/>
<rect x="103.703" y="192.844" width="2.13296" height="2.13296" transform="rotate(11.18 103.703 192.844)" fill="#134B93"/>
<rect x="107.888" y="193.672" width="2.13296" height="2.13296" transform="rotate(11.18 107.888 193.672)" fill="#134B93"/>
<rect x="109.98" y="194.086" width="2.13296" height="2.13296" transform="rotate(11.18 109.98 194.086)" fill="#134B93"/>
<rect x="112.074" y="194.498" width="2.13296" height="2.13296" transform="rotate(11.18 112.074 194.498)" fill="#134B93"/>
<rect x="116.259" y="195.326" width="2.13296" height="2.13296" transform="rotate(11.18 116.259 195.326)" fill="#134B93"/>
<rect x="120.442" y="196.152" width="2.13296" height="2.13296" transform="rotate(11.18 120.442 196.152)" fill="#134B93"/>
<rect x="124.63" y="196.98" width="2.13296" height="2.13296" transform="rotate(11.18 124.63 196.98)" fill="#134B93"/>
<rect x="128.813" y="197.807" width="2.13296" height="2.13296" transform="rotate(11.18 128.813 197.807)" fill="#134B93"/>
<rect x="132.998" y="198.635" width="2.13296" height="2.13296" transform="rotate(11.18 132.998 198.635)" fill="#134B93"/>
<rect x="135.091" y="199.049" width="2.13296" height="2.13296" transform="rotate(11.18 135.091 199.049)" fill="#134B93"/>
<rect x="139.275" y="199.875" width="2.13296" height="2.13296" transform="rotate(11.18 139.275 199.875)" fill="#134B93"/>
<rect x="103.29" y="194.938" width="2.13296" height="2.13296" transform="rotate(11.18 103.29 194.938)" fill="#134B93"/>
<rect x="115.845" y="197.418" width="2.13296" height="2.13296" transform="rotate(11.18 115.845 197.418)" fill="#134B93"/>
<rect x="120.029" y="198.246" width="2.13296" height="2.13296" transform="rotate(11.18 120.029 198.246)" fill="#134B93"/>
<rect x="126.307" y="199.486" width="2.13296" height="2.13296" transform="rotate(11.18 126.307 199.486)" fill="#134B93"/>
<rect x="128.4" y="199.9" width="2.13296" height="2.13296" transform="rotate(11.18 128.4 199.9)" fill="#134B93"/>
<rect x="130.49" y="200.312" width="2.13296" height="2.13296" transform="rotate(11.18 130.49 200.312)" fill="#134B93"/>
<rect x="132.584" y="200.727" width="2.13296" height="2.13296" transform="rotate(11.18 132.584 200.727)" fill="#134B93"/>
<rect x="136.769" y="201.553" width="2.13296" height="2.13296" transform="rotate(11.18 136.769 201.553)" fill="#134B93"/>
<rect x="138.861" y="201.967" width="2.13296" height="2.13296" transform="rotate(11.18 138.861 201.967)" fill="#134B93"/>
<rect x="140.955" y="202.381" width="2.13296" height="2.13296" transform="rotate(11.18 140.955 202.381)" fill="#134B93"/>
<rect x="102.876" y="197.029" width="2.13296" height="2.13296" transform="rotate(11.18 102.876 197.029)" fill="#134B93"/>
<rect x="104.97" y="197.443" width="2.13296" height="2.13296" transform="rotate(11.18 104.97 197.443)" fill="#134B93"/>
<rect x="107.061" y="197.855" width="2.13296" height="2.13296" transform="rotate(11.18 107.061 197.855)" fill="#134B93"/>
<rect x="109.153" y="198.27" width="2.13296" height="2.13296" transform="rotate(11.18 109.153 198.27)" fill="#134B93"/>
<rect x="111.247" y="198.684" width="2.13296" height="2.13296" transform="rotate(11.18 111.247 198.684)" fill="#134B93"/>
<rect x="113.338" y="199.098" width="2.13296" height="2.13296" transform="rotate(11.18 113.338 199.098)" fill="#134B93"/>
<rect x="115.432" y="199.51" width="2.13296" height="2.13296" transform="rotate(11.18 115.432 199.51)" fill="#134B93"/>
<rect x="119.615" y="200.338" width="2.13296" height="2.13296" transform="rotate(11.18 119.615 200.338)" fill="#134B93"/>
<rect x="123.803" y="201.166" width="2.13296" height="2.13296" transform="rotate(11.18 123.803 201.166)" fill="#134B93"/>
<rect x="127.986" y="201.992" width="2.13296" height="2.13296" transform="rotate(11.18 127.986 201.992)" fill="#134B93"/>
<rect x="142.632" y="204.887" width="2.13296" height="2.13296" transform="rotate(11.18 142.632 204.887)" fill="#134B93"/>
</g>
<path d="M258.809 163.21C259.652 162.571 261.004 160.801 259.674 158.832M262.66 157.858C263.744 159.257 264.965 162.721 261.173 165.383M265.826 157.063C267.407 158.844 269.211 163.418 263.771 167.46" stroke="#134B93" stroke-width="1.36758" stroke-linecap="round"/>
<path d="M209.268 236.862C209.286 236.677 209.236 236.521 209.12 236.394C209.003 236.266 208.828 236.18 208.594 236.133C208.436 236.102 208.297 236.098 208.179 236.121C208.061 236.143 207.965 236.187 207.891 236.254C207.819 236.32 207.773 236.403 207.753 236.502C207.734 236.584 207.737 236.659 207.762 236.728C207.789 236.797 207.832 236.861 207.89 236.919C207.949 236.976 208.019 237.029 208.101 237.08C208.184 237.129 208.273 237.174 208.369 237.217L208.763 237.397C208.955 237.482 209.127 237.578 209.28 237.687C209.433 237.795 209.56 237.916 209.662 238.049C209.763 238.183 209.832 238.331 209.871 238.492C209.91 238.654 209.912 238.831 209.875 239.023C209.818 239.305 209.698 239.535 209.515 239.714C209.333 239.891 209.098 240.01 208.809 240.071C208.521 240.131 208.19 240.124 207.816 240.05C207.444 239.977 207.132 239.856 206.878 239.688C206.627 239.52 206.446 239.309 206.335 239.055C206.227 238.8 206.202 238.506 206.26 238.173L207.202 238.359C207.182 238.516 207.2 238.653 207.258 238.772C207.317 238.89 207.407 238.988 207.529 239.066C207.652 239.144 207.798 239.199 207.966 239.232C208.13 239.265 208.278 239.269 208.409 239.245C208.542 239.221 208.65 239.174 208.734 239.101C208.818 239.029 208.872 238.938 208.894 238.827C208.914 238.724 208.9 238.631 208.853 238.548C208.807 238.466 208.73 238.388 208.623 238.316C208.518 238.244 208.385 238.171 208.225 238.097L207.749 237.872C207.379 237.701 207.102 237.493 206.917 237.248C206.732 237.002 206.674 236.71 206.742 236.37C206.796 236.091 206.918 235.862 207.109 235.683C207.302 235.505 207.541 235.383 207.828 235.319C208.115 235.254 208.426 235.255 208.762 235.321C209.104 235.389 209.39 235.506 209.622 235.673C209.855 235.841 210.022 236.043 210.123 236.279C210.225 236.515 210.25 236.771 210.201 237.046L209.268 236.862ZM211.224 240.724C211.004 240.68 210.815 240.603 210.658 240.493C210.501 240.381 210.387 240.239 210.316 240.068C210.248 239.896 210.236 239.696 210.281 239.468C210.319 239.276 210.386 239.122 210.482 239.005C210.578 238.889 210.695 238.803 210.832 238.748C210.969 238.692 211.119 238.66 211.281 238.65C211.445 238.64 211.614 238.644 211.788 238.661C211.993 238.68 212.159 238.692 212.285 238.699C212.412 238.703 212.507 238.692 212.569 238.666C212.632 238.639 212.671 238.59 212.685 238.516L212.688 238.503C212.716 238.36 212.693 238.241 212.619 238.146C212.546 238.05 212.427 237.986 212.264 237.954C212.092 237.92 211.947 237.931 211.83 237.987C211.713 238.042 211.627 238.123 211.572 238.231L210.7 237.984C210.787 237.783 210.911 237.619 211.073 237.492C211.235 237.364 211.429 237.279 211.654 237.238C211.88 237.195 212.131 237.201 212.407 237.256C212.599 237.294 212.778 237.353 212.944 237.432C213.112 237.512 213.255 237.613 213.373 237.734C213.492 237.856 213.576 237.999 213.627 238.163C213.677 238.325 213.682 238.509 213.641 238.714L213.181 241.043L212.273 240.864L212.368 240.385L212.341 240.379C212.264 240.476 212.171 240.557 212.062 240.621C211.953 240.684 211.828 240.725 211.689 240.746C211.55 240.765 211.395 240.758 211.224 240.724ZM211.629 240.117C211.769 240.145 211.899 240.142 212.018 240.108C212.137 240.072 212.237 240.013 212.318 239.929C212.398 239.845 212.45 239.742 212.474 239.621L212.547 239.255C212.513 239.268 212.468 239.278 212.412 239.284C212.358 239.289 212.298 239.292 212.231 239.293C212.164 239.292 212.097 239.29 212.031 239.288C211.965 239.284 211.904 239.281 211.851 239.278C211.735 239.273 211.632 239.279 211.541 239.299C211.449 239.318 211.375 239.354 211.316 239.406C211.258 239.457 211.22 239.527 211.202 239.617C211.176 239.748 211.204 239.857 211.284 239.944C211.367 240.031 211.482 240.088 211.629 240.117ZM213.924 241.19L214.606 237.737L215.535 237.921L215.416 238.523L215.452 238.53C215.557 238.328 215.694 238.187 215.864 238.107C216.035 238.026 216.216 238.004 216.41 238.042C216.458 238.052 216.509 238.065 216.563 238.082C216.617 238.099 216.664 238.117 216.704 238.136L216.536 238.985C216.494 238.963 216.434 238.939 216.357 238.912C216.28 238.886 216.208 238.867 216.142 238.854C216.001 238.826 215.869 238.832 215.746 238.871C215.625 238.909 215.521 238.976 215.436 239.071C215.351 239.167 215.295 239.285 215.268 239.426L214.881 241.379L213.924 241.19ZM217.387 241.942C217.166 241.898 216.978 241.821 216.82 241.711C216.663 241.599 216.55 241.457 216.479 241.286C216.411 241.114 216.399 240.914 216.444 240.686C216.482 240.494 216.549 240.34 216.645 240.224C216.741 240.107 216.858 240.021 216.995 239.966C217.132 239.91 217.282 239.878 217.444 239.868C217.608 239.858 217.777 239.862 217.951 239.879C218.156 239.898 218.322 239.91 218.448 239.917C218.575 239.921 218.669 239.911 218.732 239.884C218.795 239.858 218.834 239.808 218.848 239.734L218.851 239.721C218.879 239.578 218.856 239.459 218.781 239.364C218.708 239.268 218.59 239.204 218.427 239.172C218.255 239.138 218.11 239.149 217.993 239.205C217.876 239.26 217.79 239.341 217.735 239.449L216.863 239.202C216.95 239.001 217.074 238.837 217.236 238.71C217.398 238.582 217.592 238.497 217.816 238.456C218.043 238.413 218.294 238.419 218.57 238.474C218.761 238.512 218.941 238.571 219.107 238.65C219.275 238.73 219.418 238.831 219.535 238.952C219.655 239.074 219.739 239.217 219.789 239.381C219.84 239.543 219.845 239.727 219.804 239.932L219.344 242.261L218.436 242.082L218.53 241.603L218.503 241.598C218.427 241.694 218.334 241.775 218.224 241.839C218.116 241.902 217.991 241.943 217.852 241.964C217.713 241.983 217.557 241.976 217.387 241.942ZM217.792 241.335C217.932 241.363 218.062 241.36 218.181 241.326C218.3 241.29 218.4 241.231 218.48 241.147C218.561 241.063 218.613 240.961 218.637 240.839L218.709 240.473C218.676 240.486 218.631 240.496 218.575 240.502C218.521 240.507 218.461 240.51 218.394 240.511C218.327 240.51 218.26 240.509 218.194 240.506C218.127 240.503 218.067 240.499 218.013 240.496C217.898 240.491 217.794 240.497 217.703 240.517C217.612 240.536 217.538 240.572 217.479 240.624C217.421 240.675 217.383 240.745 217.365 240.835C217.339 240.966 217.367 241.075 217.447 241.162C217.53 241.249 217.645 241.306 217.792 241.335ZM221.439 240.601L221.044 242.597L220.087 242.408L220.997 237.804L221.927 237.988L221.579 239.748L221.62 239.756C221.738 239.568 221.895 239.433 222.092 239.352C222.289 239.27 222.519 239.254 222.781 239.306C223.021 239.354 223.219 239.447 223.377 239.587C223.536 239.726 223.646 239.903 223.707 240.117C223.769 240.331 223.772 240.572 223.718 240.841L223.283 243.04L222.326 242.85L222.726 240.823C222.77 240.61 222.749 240.434 222.663 240.294C222.578 240.154 222.438 240.065 222.244 240.027C222.113 240.001 221.992 240.006 221.881 240.042C221.771 240.077 221.677 240.143 221.599 240.238C221.523 240.332 221.47 240.453 221.439 240.601ZM226.43 238.878L227.63 239.115L228.286 242.459L228.34 242.47L230.219 239.627L231.42 239.864L230.51 244.468L229.566 244.281L230.158 241.285L230.12 241.278L228.341 244.016L227.698 243.889L227.096 240.668L227.058 240.661L226.464 243.668L225.52 243.482L226.43 238.878ZM232.265 244.883C232.045 244.839 231.856 244.762 231.699 244.652C231.542 244.54 231.428 244.398 231.358 244.227C231.289 244.054 231.277 243.854 231.322 243.627C231.36 243.435 231.427 243.281 231.524 243.164C231.62 243.048 231.736 242.962 231.873 242.906C232.011 242.851 232.16 242.818 232.323 242.808C232.486 242.799 232.655 242.802 232.83 242.82C233.034 242.838 233.2 242.851 233.327 242.857C233.453 242.862 233.548 242.851 233.611 242.825C233.674 242.798 233.712 242.748 233.727 242.675L233.73 242.661C233.758 242.519 233.735 242.4 233.66 242.304C233.587 242.209 233.469 242.145 233.306 242.113C233.133 242.079 232.989 242.09 232.872 242.146C232.755 242.201 232.669 242.282 232.613 242.389L231.742 242.142C231.828 241.941 231.953 241.778 232.115 241.651C232.277 241.522 232.47 241.438 232.695 241.396C232.921 241.354 233.173 241.36 233.448 241.415C233.64 241.452 233.819 241.511 233.986 241.591C234.154 241.671 234.296 241.771 234.414 241.893C234.533 242.014 234.618 242.157 234.668 242.321C234.718 242.484 234.723 242.668 234.683 242.873L234.223 245.202L233.314 245.022L233.409 244.543L233.382 244.538C233.305 244.635 233.212 244.716 233.103 244.78C232.994 244.842 232.87 244.884 232.73 244.905C232.591 244.924 232.436 244.916 232.265 244.883ZM232.67 244.276C232.811 244.304 232.941 244.301 233.06 244.267C233.179 244.231 233.279 244.171 233.359 244.088C233.439 244.004 233.492 243.901 233.516 243.78L233.588 243.413C233.554 243.427 233.509 243.437 233.454 243.443C233.4 243.448 233.339 243.451 233.272 243.451C233.205 243.451 233.139 243.449 233.072 243.447C233.006 243.443 232.946 243.44 232.892 243.437C232.776 243.431 232.673 243.438 232.582 243.457C232.491 243.477 232.416 243.513 232.358 243.565C232.299 243.616 232.261 243.686 232.243 243.776C232.218 243.906 232.245 244.015 232.326 244.103C232.409 244.189 232.523 244.247 232.67 244.276ZM237.484 242.259L237.342 242.978L235.263 242.567L235.405 241.848L237.484 242.259ZM236.041 241.114L236.998 241.303L236.362 244.522C236.344 244.611 236.344 244.682 236.362 244.737C236.379 244.79 236.41 244.831 236.454 244.86C236.5 244.89 236.555 244.911 236.619 244.923C236.664 244.932 236.71 244.937 236.756 244.939C236.803 244.939 236.839 244.939 236.863 244.939L236.873 245.681C236.822 245.687 236.751 245.691 236.661 245.693C236.57 245.697 236.461 245.689 236.336 245.669C236.104 245.632 235.907 245.561 235.748 245.456C235.589 245.352 235.477 245.216 235.41 245.049C235.343 244.881 235.333 244.685 235.38 244.459L236.041 241.114ZM238.852 244.043L238.457 246.039L237.5 245.849L238.41 241.246L239.34 241.43L238.992 243.19L239.033 243.198C239.151 243.01 239.308 242.875 239.505 242.794C239.702 242.711 239.932 242.696 240.194 242.748C240.434 242.795 240.632 242.889 240.79 243.029C240.949 243.168 241.059 243.345 241.12 243.559C241.182 243.772 241.185 244.013 241.131 244.283L240.696 246.481L239.739 246.292L240.139 244.264C240.183 244.052 240.162 243.876 240.076 243.736C239.991 243.596 239.852 243.507 239.657 243.468C239.526 243.443 239.405 243.448 239.294 243.483C239.184 243.519 239.09 243.585 239.012 243.68C238.936 243.774 238.883 243.895 238.852 244.043ZM243.01 247.009C242.655 246.938 242.363 246.806 242.135 246.612C241.909 246.416 241.754 246.172 241.668 245.879C241.583 245.585 241.576 245.256 241.648 244.892C241.719 244.537 241.849 244.239 242.04 243.998C242.231 243.757 242.466 243.586 242.746 243.486C243.028 243.386 243.338 243.369 243.676 243.436C243.904 243.481 244.109 243.56 244.291 243.672C244.474 243.783 244.625 243.926 244.743 244.1C244.863 244.275 244.942 244.48 244.981 244.717C245.02 244.952 245.011 245.216 244.953 245.51L244.901 245.773L241.985 245.197L242.103 244.603L244.117 245.001C244.144 244.864 244.138 244.736 244.099 244.617C244.06 244.499 243.993 244.399 243.899 244.318C243.806 244.236 243.69 244.181 243.551 244.154C243.405 244.125 243.27 244.133 243.144 244.179C243.02 244.223 242.916 244.295 242.83 244.395C242.746 244.493 242.689 244.61 242.661 244.746L242.549 245.311C242.515 245.481 242.518 245.635 242.556 245.772C242.596 245.909 242.667 246.023 242.771 246.114C242.875 246.204 243.007 246.265 243.167 246.297C243.273 246.318 243.374 246.322 243.468 246.31C243.562 246.297 243.647 246.267 243.722 246.22C243.796 246.172 243.859 246.108 243.909 246.028L244.783 246.261C244.696 246.465 244.567 246.633 244.396 246.764C244.227 246.894 244.025 246.982 243.789 247.027C243.554 247.071 243.295 247.065 243.01 247.009ZM245.889 247.508L245.632 243.869L246.601 244.061L246.677 246.486L246.709 246.492L247.725 244.283L248.675 244.471L248.786 246.889L248.815 246.895L249.797 244.692L250.764 244.883L249.144 248.151L248.13 247.95L247.966 245.662L247.923 245.653L246.901 247.707L245.889 247.508Z" fill="#134B93"/>
<path d="M208.453 244.172C208.378 244.554 208.243 244.869 208.049 245.116C207.855 245.363 207.621 245.536 207.348 245.635C207.077 245.734 206.787 245.753 206.478 245.692C206.168 245.631 205.906 245.503 205.691 245.308C205.478 245.112 205.328 244.863 205.243 244.56C205.157 244.257 205.152 243.915 205.228 243.534C205.303 243.152 205.438 242.838 205.632 242.591C205.826 242.344 206.059 242.171 206.331 242.072C206.603 241.972 206.895 241.953 207.205 242.014C207.514 242.075 207.775 242.203 207.988 242.399C208.202 242.594 208.353 242.843 208.438 243.146C208.524 243.448 208.529 243.789 208.453 244.172ZM207.918 244.066C207.976 243.775 207.977 243.52 207.922 243.302C207.869 243.083 207.77 242.906 207.627 242.771C207.486 242.636 207.313 242.548 207.107 242.507C206.901 242.466 206.707 242.482 206.524 242.553C206.342 242.624 206.184 242.75 206.05 242.932C205.917 243.113 205.822 243.349 205.764 243.64C205.707 243.932 205.705 244.187 205.758 244.406C205.813 244.624 205.912 244.801 206.053 244.936C206.195 245.071 206.369 245.159 206.575 245.199C206.78 245.24 206.974 245.225 207.156 245.154C207.34 245.083 207.498 244.957 207.631 244.776C207.765 244.594 207.861 244.357 207.918 244.066ZM209.313 246.202L209.054 243.36L209.594 243.467L209.73 245.543L209.757 245.548L210.674 243.681L211.215 243.787L211.351 245.854L211.377 245.86L212.288 244L212.828 244.106L211.509 246.636L210.976 246.53L210.814 244.484L210.773 244.476L209.845 246.307L209.313 246.202ZM213.631 245.399L213.316 246.993L212.794 246.89L213.324 244.204L213.826 244.304L213.74 244.741L213.773 244.747C213.863 244.617 213.982 244.522 214.131 244.462C214.281 244.402 214.457 244.392 214.658 244.432C214.841 244.468 214.994 244.538 215.116 244.642C215.239 244.745 215.323 244.879 215.369 245.044C215.415 245.21 215.416 245.403 215.372 245.625L215.035 247.333L214.512 247.229L214.837 245.584C214.876 245.39 214.855 245.227 214.775 245.098C214.696 244.967 214.567 244.884 214.39 244.849C214.269 244.825 214.156 244.83 214.051 244.864C213.948 244.898 213.859 244.96 213.784 245.051C213.71 245.14 213.66 245.256 213.631 245.399ZM216.883 247.754C216.618 247.702 216.401 247.6 216.232 247.45C216.065 247.298 215.95 247.108 215.887 246.882C215.825 246.654 215.822 246.401 215.877 246.122C215.932 245.847 216.031 245.615 216.175 245.425C216.32 245.236 216.497 245.101 216.705 245.02C216.915 244.939 217.145 244.923 217.394 244.972C217.546 245.002 217.688 245.056 217.82 245.135C217.952 245.213 218.064 245.317 218.156 245.446C218.248 245.576 218.31 245.733 218.341 245.917C218.373 246.1 218.364 246.313 218.316 246.557L218.28 246.742L216.145 246.32L216.222 245.929L217.845 246.25C217.872 246.112 217.868 245.985 217.833 245.868C217.798 245.749 217.736 245.649 217.647 245.567C217.559 245.486 217.448 245.432 217.312 245.405C217.165 245.376 217.03 245.387 216.906 245.437C216.784 245.487 216.682 245.564 216.599 245.667C216.518 245.77 216.465 245.888 216.438 246.022L216.378 246.328C216.342 246.508 216.344 246.667 216.382 246.805C216.421 246.944 216.491 247.057 216.592 247.146C216.693 247.234 216.82 247.293 216.973 247.323C217.072 247.343 217.165 247.347 217.252 247.335C217.34 247.322 217.419 247.293 217.49 247.247C217.56 247.202 217.62 247.141 217.668 247.063L218.145 247.25C218.076 247.388 217.98 247.501 217.856 247.591C217.733 247.679 217.589 247.738 217.423 247.768C217.258 247.798 217.078 247.793 216.883 247.754ZM218.625 248.042L219.156 245.357L219.661 245.457L219.577 245.883L219.605 245.889C219.683 245.754 219.791 245.658 219.931 245.599C220.072 245.54 220.222 245.526 220.379 245.557C220.412 245.563 220.45 245.572 220.494 245.583C220.539 245.595 220.574 245.604 220.599 245.613L220.5 246.113C220.48 246.103 220.444 246.089 220.392 246.072C220.34 246.053 220.287 246.038 220.233 246.028C220.11 246.003 219.995 246.008 219.887 246.041C219.782 246.073 219.692 246.13 219.618 246.211C219.544 246.291 219.495 246.389 219.472 246.506L219.148 248.146L218.625 248.042ZM223.479 244.082L222.315 249.971L221.847 249.878L223.01 243.99L223.479 244.082ZM226.009 249.502L224.85 249.273L225.558 245.692L226.754 245.928C227.104 245.998 227.392 246.129 227.615 246.322C227.839 246.514 227.991 246.757 228.072 247.05C228.155 247.343 228.16 247.675 228.086 248.047C228.012 248.42 227.881 248.727 227.692 248.968C227.503 249.209 227.267 249.377 226.982 249.47C226.697 249.563 226.373 249.574 226.009 249.502ZM225.484 248.907L226.073 249.024C226.346 249.078 226.582 249.071 226.783 249.004C226.984 248.936 227.149 248.813 227.278 248.635C227.406 248.456 227.499 248.225 227.555 247.942C227.61 247.661 227.612 247.413 227.561 247.2C227.511 246.987 227.409 246.812 227.253 246.676C227.097 246.539 226.888 246.446 226.627 246.394L226.005 246.271L225.484 248.907ZM229.508 250.249C229.243 250.197 229.026 250.096 228.858 249.945C228.69 249.793 228.575 249.604 228.512 249.377C228.451 249.149 228.447 248.896 228.502 248.617C228.557 248.342 228.656 248.11 228.8 247.921C228.945 247.731 229.122 247.596 229.331 247.515C229.54 247.434 229.77 247.418 230.019 247.468C230.171 247.498 230.313 247.552 230.445 247.63C230.577 247.708 230.689 247.812 230.781 247.942C230.873 248.071 230.935 248.228 230.966 248.412C230.998 248.595 230.99 248.809 230.941 249.052L230.905 249.238L228.77 248.816L228.848 248.424L230.47 248.745C230.497 248.607 230.493 248.48 230.458 248.363C230.424 248.245 230.362 248.144 230.272 248.063C230.184 247.981 230.073 247.927 229.938 247.9C229.791 247.871 229.655 247.882 229.531 247.933C229.409 247.982 229.307 248.059 229.224 248.163C229.144 248.265 229.09 248.384 229.063 248.518L229.003 248.824C228.967 249.003 228.969 249.162 229.007 249.3C229.046 249.439 229.116 249.553 229.217 249.642C229.319 249.729 229.446 249.788 229.598 249.819C229.697 249.838 229.79 249.842 229.878 249.83C229.965 249.817 230.044 249.788 230.115 249.743C230.185 249.697 230.245 249.636 230.293 249.558L230.77 249.745C230.702 249.883 230.605 249.996 230.481 250.086C230.358 250.174 230.214 250.233 230.048 250.264C229.884 250.293 229.704 250.288 229.508 250.249ZM233.664 248.906L233.174 248.896C233.166 248.831 233.146 248.767 233.113 248.704C233.082 248.641 233.034 248.585 232.969 248.536C232.903 248.486 232.816 248.451 232.708 248.43C232.56 248.4 232.43 248.409 232.318 248.456C232.206 248.502 232.14 248.576 232.119 248.68C232.101 248.77 232.12 248.849 232.176 248.917C232.231 248.985 232.33 249.051 232.471 249.115L232.878 249.297C233.114 249.403 233.281 249.527 233.378 249.67C233.476 249.813 233.506 249.979 233.469 250.169C233.437 250.33 233.362 250.464 233.244 250.572C233.127 250.678 232.979 250.751 232.799 250.789C232.621 250.828 232.423 250.826 232.207 250.783C231.906 250.723 231.673 250.611 231.509 250.445C231.344 250.278 231.264 250.072 231.268 249.825L231.788 249.848C231.794 249.986 231.839 250.099 231.923 250.186C232.008 250.271 232.129 250.33 232.286 250.361C232.458 250.395 232.602 250.386 232.718 250.335C232.835 250.283 232.904 250.206 232.924 250.102C232.941 250.018 232.923 249.941 232.872 249.872C232.821 249.802 232.735 249.74 232.612 249.686L232.178 249.496C231.938 249.39 231.771 249.262 231.675 249.114C231.581 248.966 231.553 248.796 231.591 248.605C231.622 248.446 231.694 248.316 231.806 248.215C231.918 248.114 232.059 248.045 232.228 248.01C232.397 247.973 232.583 247.974 232.785 248.014C233.075 248.072 233.291 248.18 233.433 248.339C233.575 248.496 233.652 248.685 233.664 248.906ZM233.89 251.059L234.421 248.374L234.943 248.477L234.413 251.163L233.89 251.059ZM234.767 248.012C234.676 247.994 234.604 247.948 234.55 247.875C234.498 247.8 234.481 247.72 234.498 247.635C234.515 247.549 234.561 247.482 234.637 247.434C234.715 247.385 234.799 247.37 234.89 247.388C234.981 247.406 235.052 247.452 235.104 247.526C235.157 247.6 235.176 247.68 235.159 247.766C235.142 247.851 235.095 247.918 235.017 247.967C234.941 248.015 234.858 248.03 234.767 248.012ZM236.032 252.587C235.819 252.545 235.64 252.481 235.498 252.394C235.356 252.308 235.246 252.21 235.167 252.098C235.089 251.987 235.037 251.872 235.01 251.753L235.496 251.657C235.518 251.714 235.549 251.776 235.59 251.844C235.632 251.913 235.695 251.977 235.778 252.035C235.862 252.094 235.976 252.138 236.12 252.167C236.318 252.206 236.492 252.19 236.64 252.119C236.789 252.049 236.883 251.909 236.925 251.699L237.029 251.171L236.996 251.165C236.953 251.215 236.895 251.27 236.822 251.328C236.75 251.387 236.657 251.431 236.545 251.462C236.432 251.493 236.294 251.493 236.129 251.46C235.917 251.418 235.736 251.331 235.585 251.198C235.436 251.064 235.331 250.891 235.27 250.676C235.211 250.461 235.21 250.211 235.266 249.925C235.323 249.64 235.419 249.405 235.557 249.22C235.695 249.035 235.86 248.905 236.051 248.831C236.243 248.755 236.447 248.738 236.662 248.781C236.829 248.814 236.958 248.868 237.05 248.944C237.141 249.019 237.209 249.099 237.251 249.184C237.295 249.269 237.327 249.343 237.347 249.405L237.386 249.412L237.472 248.977L237.984 249.078L237.442 251.823C237.396 252.054 237.305 252.233 237.169 252.359C237.032 252.486 236.865 252.567 236.668 252.602C236.472 252.637 236.26 252.632 236.032 252.587ZM236.33 251.049C236.481 251.079 236.615 251.069 236.732 251.02C236.851 250.969 236.95 250.884 237.03 250.763C237.111 250.64 237.17 250.487 237.207 250.301C237.242 250.121 237.247 249.956 237.22 249.808C237.194 249.66 237.137 249.537 237.048 249.44C236.96 249.341 236.839 249.277 236.687 249.247C236.529 249.216 236.39 249.231 236.269 249.291C236.148 249.351 236.047 249.445 235.966 249.573C235.886 249.701 235.83 249.851 235.796 250.023C235.761 250.199 235.757 250.358 235.785 250.502C235.812 250.645 235.871 250.765 235.961 250.86C236.052 250.956 236.175 251.019 236.33 251.049ZM238.992 250.411L238.677 252.005L238.154 251.902L238.685 249.217L239.187 249.316L239.101 249.753L239.134 249.76C239.224 249.63 239.343 249.534 239.492 249.474C239.642 249.414 239.817 249.404 240.019 249.444C240.202 249.48 240.355 249.55 240.477 249.654C240.6 249.757 240.684 249.892 240.73 250.057C240.776 250.222 240.777 250.416 240.733 250.637L240.396 252.345L239.873 252.242L240.198 250.597C240.237 250.402 240.216 250.24 240.136 250.11C240.057 249.98 239.928 249.897 239.751 249.862C239.63 249.838 239.517 249.843 239.412 249.876C239.309 249.91 239.219 249.973 239.145 250.063C239.071 250.153 239.02 250.269 238.992 250.411ZM242.243 252.767C241.979 252.714 241.762 252.613 241.593 252.462C241.426 252.31 241.311 252.121 241.248 251.894C241.186 251.666 241.183 251.413 241.238 251.135C241.292 250.86 241.392 250.627 241.536 250.438C241.681 250.248 241.858 250.113 242.066 250.032C242.276 249.951 242.506 249.936 242.755 249.985C242.907 250.015 243.049 250.069 243.181 250.147C243.313 250.225 243.425 250.329 243.517 250.459C243.609 250.588 243.671 250.745 243.702 250.929C243.734 251.113 243.725 251.326 243.677 251.569L243.641 251.755L241.506 251.333L241.583 250.941L243.206 251.262C243.233 251.124 243.229 250.997 243.194 250.88C243.159 250.762 243.097 250.662 243.008 250.58C242.92 250.498 242.808 250.444 242.673 250.417C242.526 250.388 242.391 250.399 242.267 250.45C242.145 250.499 242.042 250.576 241.96 250.68C241.879 250.782 241.826 250.901 241.799 251.035L241.739 251.341C241.703 251.52 241.705 251.679 241.743 251.817C241.782 251.956 241.852 252.07 241.953 252.159C242.054 252.247 242.181 252.306 242.334 252.336C242.433 252.355 242.526 252.359 242.613 252.347C242.701 252.334 242.78 252.305 242.85 252.26C242.921 252.214 242.981 252.153 243.029 252.075L243.506 252.262C243.437 252.4 243.341 252.514 243.217 252.603C243.094 252.691 242.95 252.751 242.784 252.781C242.619 252.81 242.439 252.805 242.243 252.767ZM243.986 253.055L244.517 250.369L245.022 250.469L244.938 250.896L244.966 250.901C245.043 250.766 245.152 250.67 245.292 250.612C245.433 250.552 245.583 250.538 245.74 250.569C245.773 250.576 245.811 250.585 245.855 250.596C245.9 250.607 245.935 250.617 245.96 250.625L245.861 251.125C245.841 251.115 245.805 251.102 245.753 251.084C245.701 251.065 245.648 251.051 245.594 251.04C245.471 251.016 245.355 251.02 245.248 251.053C245.143 251.086 245.053 251.143 244.979 251.224C244.905 251.303 244.856 251.402 244.833 251.518L244.509 253.158L243.986 253.055Z" fill="#134B93"/>
</g>
<defs>
<filter id="filter0_d_451_3075" x="63.8135" y="107.174" width="221.375" height="162.592" filterUnits="userSpaceOnUse" color-interpolation-filters="sRGB">
<feFlood flood-opacity="0" result="BackgroundImageFix"/>
<feColorMatrix in="SourceAlpha" type="matrix" values="0 0 0 0 0 0 0 0 0 0 0 0 0 0 0 0 0 0 127 0" result="hardAlpha"/>
<feOffset dy="-2"/>
<feGaussianBlur stdDeviation="2"/>
<feComposite in2="hardAlpha" operator="out"/>
<feColorMatrix type="matrix" values="0 0 0 0 0 0 0 0 0 0 0 0 0 0 0 0 0 0 0.25 0"/>
<feBlend mode="normal" in2="BackgroundImageFix" result="effect1_dropShadow_451_3075"/>
<feBlend mode="normal" in="SourceGraphic" in2="effect1_dropShadow_451_3075" result="shape"/>
</filter>
<clipPath id="clip0_451_3075">
<rect x="108.461" y="151.17" width="51.6176" height="51.6176" rx="3.58456" transform="rotate(11.18 108.461 151.17)" fill="white"/>
</clipPath>
</defs>
</svg>
