<svg xmlns="http://www.w3.org/2000/svg" width="329" height="204" fill="none"><rect width="329" height="202.999" x=".002" y=".023" fill="#134B93" rx="3.024"/><path fill="#134B93" d="M42.337 58.082h87.087v87.088H42.337z"/><path fill="#fff" d="M48.095 63.84h3.599v3.599h-3.599zM51.694 63.84h3.599v3.599h-3.599z"/><path fill="#fff" d="M55.286 63.84h3.599v3.599h-3.599zM58.886 63.84h3.599v3.599h-3.599zM62.494 63.84h3.599v3.599h-3.599z"/><path fill="#fff" d="M66.086 63.84h3.599v3.599h-3.599zM69.686 63.84h3.599v3.599h-3.599zM84.085 63.84h3.599v3.599h-3.599z"/><path fill="#fff" d="M87.677 63.84h3.599v3.599h-3.599zM91.277 63.84h3.599v3.599h-3.599zM98.477 63.84h3.599v3.599h-3.599z"/><path fill="#fff" d="M102.068 63.84h3.599v3.599h-3.599zM105.677 63.84h3.599v3.599h-3.599z"/><path fill="#fff" d="M109.276 63.84h3.599v3.599h-3.599zM112.876 63.84h3.599v3.599h-3.599z"/><path fill="#fff" d="M116.468 63.84h3.599v3.599h-3.599z"/><path fill="#fff" d="M120.067 63.84h3.599v3.599h-3.599zM48.095 67.438h3.599v3.599h-3.599zM69.686 67.438h3.599v3.599h-3.599zM76.877 67.438h3.599v3.599h-3.599zM80.478 67.438h3.599v3.599h-3.599zM84.085 67.438h3.599v3.599h-3.599zM91.277 67.438h3.599v3.599h-3.599zM98.477 67.438h3.599v3.599h-3.599z"/><path fill="#fff" d="M120.067 67.438h3.599v3.599h-3.599zM48.095 71.037h3.599v3.599h-3.599zM55.286 71.037h3.599v3.599h-3.599zM58.886 71.037h3.599v3.599h-3.599zM62.494 71.037h3.599v3.599h-3.599zM69.686 71.037h3.599v3.599h-3.599zM84.085 71.037h3.599v3.599h-3.599z"/><path fill="#fff" d="M87.677 71.037h3.599v3.599h-3.599zM91.277 71.037h3.599v3.599h-3.599zM98.477 71.037h3.599v3.599h-3.599zM105.677 71.037h3.599v3.599h-3.599z"/><path fill="#fff" d="M109.276 71.037h3.599v3.599h-3.599zM112.876 71.037h3.599v3.599h-3.599zM120.067 71.037h3.599v3.599h-3.599zM48.095 74.637h3.599v3.599h-3.599zM55.286 74.637h3.599v3.599h-3.599zM58.886 74.637h3.599v3.599h-3.599zM62.494 74.637h3.599v3.599h-3.599zM69.686 74.637h3.599v3.599h-3.599zM76.877 74.637h3.599v3.599h-3.599zM80.478 74.637h3.599v3.599h-3.599zM91.277 74.637h3.599v3.599h-3.599zM98.477 74.637h3.599v3.599h-3.599zM105.677 74.637h3.599v3.599h-3.599z"/><path fill="#fff" d="M109.276 74.637h3.599v3.599h-3.599zM112.876 74.637h3.599v3.599h-3.599zM120.067 74.637h3.599v3.599h-3.599zM48.095 78.234h3.599v3.599h-3.599zM55.286 78.234h3.599v3.599h-3.599zM58.886 78.234h3.599v3.599h-3.599zM62.494 78.234h3.599v3.599h-3.599zM69.686 78.234h3.599v3.599h-3.599zM80.478 78.234h3.599v3.599h-3.599zM91.277 78.234h3.599v3.599h-3.599zM98.477 78.234h3.599v3.599h-3.599z"/><path fill="#fff" d="M105.677 78.234h3.599v3.599h-3.599z"/><path fill="#fff" d="M109.276 78.234h3.599v3.599h-3.599zM112.876 78.234h3.599v3.599h-3.599zM120.067 78.234h3.599v3.599h-3.599zM48.095 81.834h3.599v3.599h-3.599zM69.686 81.834h3.599v3.599h-3.599zM76.877 81.834h3.599v3.599h-3.599zM87.677 81.834h3.599v3.599h-3.599zM98.477 81.834h3.599v3.599h-3.599zM120.067 81.834h3.599v3.599h-3.599z"/><path fill="#fff" d="M48.095 85.432h3.599v3.599h-3.599zM51.694 85.432h3.599v3.599h-3.599z"/><path fill="#fff" d="M55.286 85.432h3.599v3.599h-3.599zM58.886 85.432h3.599v3.599h-3.599zM62.494 85.432h3.599v3.599h-3.599z"/><path fill="#fff" d="M66.086 85.432h3.599v3.599h-3.599zM69.686 85.432h3.599v3.599h-3.599zM76.877 85.432h3.599v3.599h-3.599zM84.085 85.432h3.599v3.599h-3.599zM91.277 85.432h3.599v3.599h-3.599zM98.477 85.432h3.599v3.599h-3.599z"/><path fill="#fff" d="M102.068 85.432h3.599v3.599h-3.599zM105.677 85.432h3.599v3.599h-3.599z"/><path fill="#fff" d="M109.276 85.432h3.599v3.599h-3.599zM112.876 85.432h3.599v3.599h-3.599z"/><path fill="#fff" d="M116.468 85.432h3.599v3.599h-3.599z"/><path fill="#fff" d="M120.067 85.432h3.599v3.599h-3.599zM80.478 89.031h3.599v3.599h-3.599zM48.095 92.629h3.599v3.599h-3.599zM51.694 92.629h3.599v3.599h-3.599z"/><path fill="#fff" d="M55.286 92.629h3.599v3.599h-3.599zM58.886 92.629h3.599v3.599h-3.599zM62.494 92.629h3.599v3.599h-3.599zM69.686 92.629h3.599v3.599h-3.599zM73.286 92.629h3.599v3.599h-3.599z"/><path fill="#fff" d="M76.877 92.629h3.599v3.599h-3.599zM87.677 92.629h3.599v3.599h-3.599zM94.877 92.629h3.599v3.599h-3.599zM102.068 92.629h3.599v3.599h-3.599zM109.276 92.629h3.599v3.599h-3.599zM116.468 92.629h3.599v3.599h-3.599zM48.095 96.228h3.599v3.599h-3.599zM55.286 96.228h3.599v3.599h-3.599z"/><path fill="#fff" d="M76.877 96.228h3.599v3.599h-3.599zM80.478 96.228h3.599v3.599h-3.599zM87.677 96.228h3.599v3.599h-3.599zM91.277 96.228h3.599v3.599h-3.599zM94.877 96.228h3.599v3.599h-3.599zM98.477 96.228h3.599v3.599h-3.599zM109.276 96.228h3.599v3.599h-3.599zM112.876 96.228h3.599v3.599h-3.599zM120.067 96.228h3.599v3.599h-3.599zM62.494 99.826h3.599v3.599h-3.599zM69.686 99.826h3.599v3.599h-3.599z"/><path fill="#fff" d="M76.877 99.826h3.599v3.599h-3.599zM80.478 99.826h3.599v3.599h-3.599zM91.277 99.826h3.599v3.599h-3.599zM98.477 99.826h3.599v3.599h-3.599z"/><path fill="#fff" d="M102.068 99.826h3.599v3.599h-3.599zM109.276 99.826h3.599v3.599h-3.599zM116.468 99.826h3.599v3.599h-3.599zM48.095 103.426h3.599v3.599h-3.599zM66.086 103.426h3.599v3.599h-3.599zM73.286 103.426h3.599v3.599h-3.599zM84.085 103.426h3.599v3.599h-3.599z"/><path fill="#fff" d="M87.677 103.426h3.599v3.599h-3.599zM91.277 103.426h3.599v3.599h-3.599zM94.877 103.426h3.599v3.599h-3.599zM98.477 103.426h3.599v3.599h-3.599zM109.276 103.426h3.599v3.599h-3.599zM112.876 103.426h3.599v3.599h-3.599z"/><path fill="#fff" d="M116.468 103.426h3.599v3.599h-3.599z"/><path fill="#fff" d="M120.067 103.426h3.599v3.599h-3.599zM48.095 107.023h3.599v3.599h-3.599zM51.694 107.023h3.599v3.599h-3.599zM69.686 107.023h3.599v3.599h-3.599zM80.478 107.023h3.599v3.599h-3.599zM91.277 107.023h3.599v3.599h-3.599zM102.068 107.023h3.599v3.599h-3.599z"/><path fill="#fff" d="M116.468 107.023h3.599v3.599h-3.599zM76.877 110.623h3.599v3.599h-3.599zM84.085 110.623h3.599v3.599h-3.599zM91.277 110.623h3.599v3.599h-3.599zM102.068 110.623h3.599v3.599h-3.599zM109.276 110.623h3.599v3.599h-3.599zM112.876 110.623h3.599v3.599h-3.599zM120.067 110.623h3.599v3.599h-3.599zM48.095 114.223h3.599v3.599h-3.599zM51.694 114.223h3.599v3.599h-3.599z"/><path fill="#fff" d="M55.286 114.223h3.599v3.599h-3.599zM58.886 114.223h3.599v3.599h-3.599zM62.494 114.223h3.599v3.599h-3.599z"/><path fill="#fff" d="M66.086 114.223h3.599v3.599h-3.599zM69.686 114.223h3.599v3.599h-3.599zM76.877 114.223h3.599v3.599h-3.599zM80.478 114.223h3.599v3.599h-3.599zM84.085 114.223h3.599v3.599h-3.599z"/><path fill="#fff" d="M87.677 114.223h3.599v3.599h-3.599zM94.877 114.223h3.599v3.599h-3.599zM105.677 114.223h3.599v3.599h-3.599z"/><path fill="#fff" d="M109.276 114.223h3.599v3.599h-3.599zM116.468 114.223h3.599v3.599h-3.599zM48.095 117.82h3.599v3.599h-3.599zM69.686 117.82h3.599v3.599h-3.599zM102.068 117.82h3.599v3.599h-3.599z"/><path fill="#fff" d="M105.677 117.82h3.599v3.599h-3.599z"/><path fill="#fff" d="M109.276 117.82h3.599v3.599h-3.599zM112.876 117.82h3.599v3.599h-3.599z"/><path fill="#fff" d="M116.468 117.82h3.599v3.599h-3.599zM48.095 121.418h3.599v3.599h-3.599zM55.286 121.418h3.599v3.599h-3.599zM58.886 121.418h3.599v3.599h-3.599zM62.494 121.418h3.599v3.599h-3.599zM69.686 121.418h3.599v3.599h-3.599zM76.877 121.418h3.599v3.599h-3.599zM80.478 121.418h3.599v3.599h-3.599zM84.085 121.418h3.599v3.599h-3.599z"/><path fill="#fff" d="M87.677 121.418h3.599v3.599h-3.599zM94.877 121.418h3.599v3.599h-3.599zM105.677 121.418h3.599v3.599h-3.599zM116.468 121.418h3.599v3.599h-3.599zM48.095 125.018h3.599v3.599h-3.599zM55.286 125.018h3.599v3.599h-3.599zM58.886 125.018h3.599v3.599h-3.599zM62.494 125.018h3.599v3.599h-3.599zM69.686 125.018h3.599v3.599h-3.599zM76.877 125.018h3.599v3.599h-3.599zM80.478 125.018h3.599v3.599h-3.599zM87.677 125.018h3.599v3.599h-3.599zM91.277 125.018h3.599v3.599h-3.599zM94.877 125.018h3.599v3.599h-3.599zM98.477 125.018h3.599v3.599h-3.599z"/><path fill="#fff" d="M102.068 125.018h3.599v3.599h-3.599zM109.276 125.018h3.599v3.599h-3.599zM112.876 125.018h3.599v3.599h-3.599zM48.095 128.615h3.599v3.599h-3.599zM55.286 128.615h3.599v3.599h-3.599zM58.886 128.615h3.599v3.599h-3.599zM62.494 128.615h3.599v3.599h-3.599zM69.686 128.615h3.599v3.599h-3.599zM76.877 128.615h3.599v3.599h-3.599zM84.085 128.615h3.599v3.599h-3.599zM91.277 128.615h3.599v3.599h-3.599z"/><path fill="#fff" d="M98.477 128.615h3.599v3.599h-3.599z"/><path fill="#fff" d="M102.068 128.615h3.599v3.599h-3.599zM109.276 128.615h3.599v3.599h-3.599zM48.095 132.215h3.599v3.599h-3.599zM69.686 132.215h3.599v3.599h-3.599zM76.877 132.215h3.599v3.599h-3.599zM87.677 132.215h3.599v3.599h-3.599zM91.277 132.215h3.599v3.599h-3.599zM94.877 132.215h3.599v3.599h-3.599zM98.477 132.215h3.599v3.599h-3.599zM105.677 132.215h3.599v3.599h-3.599z"/><path fill="#fff" d="M109.276 132.215h3.599v3.599h-3.599zM112.876 132.215h3.599v3.599h-3.599zM48.095 135.814h3.599v3.599h-3.599zM51.694 135.814h3.599v3.599h-3.599z"/><path fill="#fff" d="M55.286 135.814h3.599v3.599h-3.599zM58.886 135.814h3.599v3.599h-3.599zM62.494 135.814h3.599v3.599h-3.599z"/><path fill="#fff" d="M66.086 135.814h3.599v3.599h-3.599zM69.686 135.814h3.599v3.599h-3.599zM76.877 135.814h3.599v3.599h-3.599zM84.085 135.814h3.599v3.599h-3.599zM91.277 135.814h3.599v3.599h-3.599zM116.468 135.814h3.599v3.599h-3.599zM238.362 164.163h2.064l2.181 5.319h.092l2.181-5.319h2.064v7.917h-1.624v-5.153h-.065l-2.049 5.114H242.1l-2.049-5.133h-.065v5.172h-1.624v-7.917Zm11.623 8.029a2.48 2.48 0 0 1-1.012-.197 1.63 1.63 0 0 1-.704-.591c-.17-.263-.255-.591-.255-.982 0-.33.06-.607.181-.831.122-.225.287-.405.495-.542.209-.136.446-.239.712-.309.268-.07.549-.118.842-.147.346-.036.624-.069.835-.1.212-.034.365-.083.46-.147a.322.322 0 0 0 .143-.286v-.024c0-.244-.077-.434-.232-.568-.152-.134-.368-.201-.649-.201-.296 0-.532.066-.707.197a.903.903 0 0 0-.348.487l-1.523-.123c.077-.361.229-.673.456-.936.227-.265.519-.469.877-.611a3.367 3.367 0 0 1 1.253-.216c.33 0 .645.039.947.116.304.077.573.197.808.359.237.163.424.372.56.627.137.252.205.555.205.908v4.005h-1.562v-.823h-.046a1.678 1.678 0 0 1-.383.491 1.759 1.759 0 0 1-.576.328 2.361 2.361 0 0 1-.777.116Zm.472-1.136c.242 0 .456-.048.642-.143.185-.098.331-.23.437-.395a1.02 1.02 0 0 0 .158-.56v-.63a.888.888 0 0 1-.213.092 3.575 3.575 0 0 1-.297.074c-.111.02-.222.04-.333.058l-.301.042a2.063 2.063 0 0 0-.507.136.81.81 0 0 0-.336.251.612.612 0 0 0-.12.387c0 .224.081.395.244.514.165.116.373.174.626.174Zm4.15 1.024v-5.938h1.596v1.036h.062c.109-.368.29-.647.545-.835a1.44 1.44 0 0 1 .882-.286 2.35 2.35 0 0 1 .518.058v1.461a2.2 2.2 0 0 0-.321-.061 2.899 2.899 0 0 0-.375-.027c-.242 0-.459.052-.65.158a1.164 1.164 0 0 0-.61 1.075v3.359h-1.647Zm5.946-1.709.004-1.975h.24l1.902-2.254h1.89l-2.555 2.985h-.39l-1.091 1.244Zm-1.492 1.709v-7.917h1.647v7.917h-1.647Zm3.711 0-1.747-2.586 1.098-1.164 2.578 3.75h-1.929Zm9.471-5.64a.979.979 0 0 0-.399-.727c-.234-.173-.552-.259-.954-.259-.274 0-.504.039-.692.116a.968.968 0 0 0-.433.313.753.753 0 0 0-.147.456.651.651 0 0 0 .089.372.929.929 0 0 0 .274.274c.116.075.25.14.402.197.152.054.315.101.487.139l.711.17c.346.078.663.181.951.31.289.129.539.287.75.475.212.188.375.41.491.665.119.255.179.548.182.878-.003.484-.126.904-.371 1.26-.242.353-.593.627-1.052.823-.456.194-1.006.29-1.65.29-.639 0-1.196-.098-1.67-.294a2.44 2.44 0 0 1-1.106-.869c-.263-.387-.401-.865-.413-1.435h1.619c.018.266.094.487.228.665.137.176.319.308.545.398.23.088.489.132.777.132.284 0 .53-.041.739-.124a1.13 1.13 0 0 0 .491-.344.795.795 0 0 0 .174-.506.658.658 0 0 0-.159-.449 1.2 1.2 0 0 0-.456-.309 4.665 4.665 0 0 0-.731-.232l-.862-.216c-.667-.163-1.194-.417-1.581-.762-.386-.345-.578-.81-.576-1.395-.002-.48.125-.899.383-1.257a2.58 2.58 0 0 1 1.071-.839c.453-.201.969-.301 1.546-.301.588 0 1.101.1 1.539.301.44.201.783.481 1.028.839s.371.773.379 1.245h-1.604Zm5.49 5.756c-.601 0-1.12-.128-1.558-.383a2.614 2.614 0 0 1-1.009-1.074c-.237-.462-.356-.996-.356-1.605 0-.613.119-1.149.356-1.608a2.584 2.584 0 0 1 1.009-1.074c.438-.258.957-.387 1.558-.387.6 0 1.118.129 1.554.387a2.58 2.58 0 0 1 1.013 1.074c.237.459.355.995.355 1.608 0 .609-.118 1.143-.355 1.605a2.61 2.61 0 0 1-1.013 1.074c-.436.255-.954.383-1.554.383Zm.008-1.276c.273 0 .501-.077.684-.232a1.44 1.44 0 0 0 .414-.641c.095-.271.143-.579.143-.924 0-.346-.048-.654-.143-.924a1.438 1.438 0 0 0-.414-.642 1.014 1.014 0 0 0-.684-.236 1.05 1.05 0 0 0-.696.236 1.45 1.45 0 0 0-.422.642c-.092.27-.139.578-.139.924 0 .345.047.653.139.924.096.27.236.484.422.641.188.155.42.232.696.232Zm5.632-6.757v7.917h-1.647v-7.917h1.647Zm4.002 8.033c-.6 0-1.12-.128-1.558-.383a2.62 2.62 0 0 1-1.009-1.074c-.237-.462-.355-.996-.355-1.605 0-.613.118-1.149.355-1.608a2.59 2.59 0 0 1 1.009-1.074c.438-.258.958-.387 1.558-.387.601 0 1.119.129 1.554.387a2.58 2.58 0 0 1 1.013 1.074c.237.459.356.995.356 1.608 0 .609-.119 1.143-.356 1.605a2.61 2.61 0 0 1-1.013 1.074c-.435.255-.953.383-1.554.383Zm.008-1.276c.273 0 .501-.077.684-.232a1.44 1.44 0 0 0 .414-.641c.095-.271.143-.579.143-.924 0-.346-.048-.654-.143-.924a1.438 1.438 0 0 0-.414-.642 1.014 1.014 0 0 0-.684-.236 1.05 1.05 0 0 0-.696.236 1.44 1.44 0 0 0-.421.642 2.83 2.83 0 0 0-.14.924c0 .345.047.653.14.924.095.27.235.484.421.641.188.155.42.232.696.232Zm3.985 1.16v-5.938h1.57v1.048h.07c.123-.348.329-.623.618-.824.289-.201.634-.301 1.036-.301.407 0 .754.102 1.04.305.286.201.477.475.572.82h.062c.121-.34.34-.612.657-.816.32-.206.697-.309 1.133-.309.554 0 1.004.176 1.349.53.348.35.522.847.522 1.492v3.993h-1.643v-3.669c0-.329-.088-.577-.263-.742a.92.92 0 0 0-.657-.247c-.299 0-.532.095-.7.286-.167.188-.251.437-.251.746v3.626h-1.597v-3.703c0-.292-.083-.523-.251-.696-.165-.173-.383-.259-.653-.259a.906.906 0 0 0-.495.139.957.957 0 0 0-.344.383 1.216 1.216 0 0 0-.128.572v3.564h-1.647Zm12.613.116c-.601 0-1.12-.128-1.558-.383a2.614 2.614 0 0 1-1.009-1.074c-.237-.462-.356-.996-.356-1.605 0-.613.119-1.149.356-1.608a2.584 2.584 0 0 1 1.009-1.074c.438-.258.957-.387 1.558-.387.6 0 1.118.129 1.554.387.438.255.775.613 1.012 1.074.237.459.356.995.356 1.608 0 .609-.119 1.143-.356 1.605a2.608 2.608 0 0 1-1.012 1.074c-.436.255-.954.383-1.554.383Zm.007-1.276c.273 0 .502-.077.684-.232a1.44 1.44 0 0 0 .414-.641c.095-.271.143-.579.143-.924 0-.346-.048-.654-.143-.924a1.438 1.438 0 0 0-.414-.642 1.012 1.012 0 0 0-.684-.236c-.276 0-.507.079-.696.236a1.45 1.45 0 0 0-.421.642 2.83 2.83 0 0 0-.139.924c0 .345.046.653.139.924.095.27.236.484.421.641.189.155.42.232.696.232Zm5.633-2.273v3.433h-1.647v-5.938h1.569v1.048h.07c.131-.345.352-.619.661-.82.309-.203.684-.305 1.125-.305.412 0 .772.09 1.078.271.307.18.546.438.716.773.17.332.255.729.255 1.19v3.781h-1.647v-3.487c.003-.363-.09-.647-.278-.85-.188-.206-.448-.31-.777-.31-.222 0-.418.048-.588.143a1.002 1.002 0 0 0-.394.418c-.093.18-.141.398-.143.653ZM238.35 182.57v-6.157h2.195c.477 0 .873.082 1.188.246.317.164.553.392.709.683.157.288.235.622.235 1.001 0 .377-.079.708-.238.995a1.596 1.596 0 0 1-.709.665c-.315.158-.711.237-1.188.237h-1.662v-.8h1.578c.301 0 .545-.043.734-.129a.857.857 0 0 0 .418-.376c.088-.164.132-.362.132-.592 0-.233-.045-.434-.135-.604a.876.876 0 0 0-.418-.391c-.189-.093-.436-.139-.743-.139h-1.167v5.361h-.929Zm3.04-2.778 1.522 2.778h-1.059l-1.491-2.778h1.028Zm4.278 2.872c-.455 0-.847-.098-1.176-.292a1.981 1.981 0 0 1-.757-.827c-.177-.357-.265-.775-.265-1.254 0-.473.088-.89.265-1.251.178-.36.427-.642.745-.844a2.06 2.06 0 0 1 1.125-.304c.26 0 .513.043.757.129.245.086.465.222.659.406.194.184.348.424.46.719.112.292.168.648.168 1.067v.319h-3.671v-.674h2.79c0-.236-.048-.446-.144-.628a1.08 1.08 0 0 0-.406-.436 1.135 1.135 0 0 0-.607-.159c-.253 0-.473.062-.662.186-.186.122-.33.283-.433.481-.1.196-.15.41-.15.64v.527c0 .308.054.571.162.787.111.217.264.382.46.496.197.113.426.169.689.169.17 0 .326-.024.466-.072a.96.96 0 0 0 .598-.587l.851.154c-.068.25-.19.47-.367.658a1.76 1.76 0 0 1-.658.436 2.47 2.47 0 0 1-.899.154Zm4.323.009c-.293 0-.557-.055-.794-.163a1.332 1.332 0 0 1-.562-.478c-.137-.208-.205-.464-.205-.767 0-.26.05-.475.151-.643.1-.168.235-.302.406-.4.17-.098.36-.172.571-.222.21-.051.425-.089.643-.115l.674-.078a1 1 0 0 0 .376-.105c.078-.048.117-.126.117-.235v-.021c0-.262-.074-.466-.223-.61-.146-.144-.364-.217-.655-.217-.303 0-.541.068-.716.202-.172.132-.291.28-.357.442l-.845-.192c.1-.281.246-.508.439-.68.194-.174.418-.301.67-.379.253-.08.518-.12.797-.12.184 0 .38.022.586.066.209.042.403.12.584.235a1.3 1.3 0 0 1 .448.49c.116.21.174.484.174.82v3.067h-.878v-.631h-.036a1.28 1.28 0 0 1-.262.343 1.381 1.381 0 0 1-.448.279 1.739 1.739 0 0 1-.655.112Zm.195-.722c.249 0 .461-.049.638-.147.178-.099.313-.227.406-.385.094-.161.141-.332.141-.514v-.596a.466.466 0 0 1-.187.09c-.09.027-.193.05-.309.07l-.34.051-.277.036a2.248 2.248 0 0 0-.478.111.811.811 0 0 0-.342.226.558.558 0 0 0-.127.384c0 .223.082.391.247.506.164.112.374.168.628.168Zm4.18-5.538v6.157h-.899v-6.157h.899Zm3.523 6.157v-6.157h3.86v.799h-2.931v1.877h2.73v.796h-2.73v1.886h2.967v.799h-3.896Zm8.49-3.49-.815.144a.968.968 0 0 0-.162-.298.805.805 0 0 0-.295-.231 1.069 1.069 0 0 0-.466-.091c-.255 0-.467.058-.637.172-.171.112-.256.257-.256.436 0 .154.057.278.171.373.115.094.299.171.554.231l.733.169c.425.098.742.249.95.454.209.204.313.47.313.796 0 .277-.08.524-.24.74a1.58 1.58 0 0 1-.665.505c-.283.122-.61.184-.983.184-.517 0-.939-.111-1.266-.331a1.397 1.397 0 0 1-.601-.947l.869-.133a.835.835 0 0 0 .333.515c.169.114.388.171.659.171.295 0 .53-.061.706-.184.177-.124.265-.275.265-.454a.47.47 0 0 0-.162-.363c-.107-.099-.27-.173-.49-.223l-.782-.171c-.431-.098-.75-.255-.956-.469-.205-.215-.307-.486-.307-.815 0-.273.076-.511.229-.716a1.5 1.5 0 0 1 .631-.478 2.31 2.31 0 0 1 .923-.174c.499 0 .892.108 1.179.325.286.214.476.502.568.863Zm3.234-1.128v.722h-2.522v-.722h2.522Zm-1.846-1.106h.899v4.368c0 .175.026.306.078.394a.42.42 0 0 0 .202.178c.084.03.175.045.273.045.073 0 .136-.005.19-.015l.126-.024.163.742a1.76 1.76 0 0 1-.584.096 1.584 1.584 0 0 1-.661-.126 1.125 1.125 0 0 1-.496-.409c-.127-.184-.19-.416-.19-.694v-4.555Zm4.185 5.827c-.293 0-.557-.055-.794-.163a1.332 1.332 0 0 1-.562-.478 1.373 1.373 0 0 1-.205-.767c0-.26.05-.475.151-.643.1-.168.235-.302.406-.4.17-.098.36-.172.571-.222.21-.051.425-.089.643-.115l.674-.078a1 1 0 0 0 .376-.105c.078-.048.117-.126.117-.235v-.021c0-.262-.074-.466-.223-.61-.146-.144-.364-.217-.655-.217-.303 0-.541.068-.716.202-.172.132-.291.28-.357.442l-.845-.192c.1-.281.246-.508.439-.68.194-.174.418-.301.67-.379.253-.08.518-.12.797-.12.184 0 .38.022.586.066.209.042.403.12.584.235a1.3 1.3 0 0 1 .448.49c.116.21.174.484.174.82v3.067h-.878v-.631h-.036a1.28 1.28 0 0 1-.262.343 1.381 1.381 0 0 1-.448.279 1.739 1.739 0 0 1-.655.112Zm.195-.722c.249 0 .461-.049.638-.147.178-.099.313-.227.406-.385.094-.161.141-.332.141-.514v-.596a.467.467 0 0 1-.186.09c-.091.027-.194.05-.31.07l-.34.051-.277.036a2.248 2.248 0 0 0-.478.111.811.811 0 0 0-.342.226.558.558 0 0 0-.127.384c0 .223.083.391.247.506.164.112.374.168.628.168Zm5.437-3.999v.722h-2.522v-.722h2.522Zm-1.846-1.106h.899v4.368c0 .175.026.306.078.394a.412.412 0 0 0 .202.178c.084.03.175.045.273.045.072 0 .136-.005.19-.015l.126-.024.162.742a1.768 1.768 0 0 1-.583.096 1.584 1.584 0 0 1-.661-.126 1.133 1.133 0 0 1-.497-.409c-.126-.184-.189-.416-.189-.694v-4.555Zm4.781 5.818c-.455 0-.846-.098-1.175-.292a1.984 1.984 0 0 1-.758-.827c-.176-.357-.264-.775-.264-1.254 0-.473.088-.89.264-1.251.179-.36.427-.642.746-.844a2.056 2.056 0 0 1 1.124-.304c.261 0 .513.043.758.129.245.086.464.222.658.406.195.184.348.424.461.719.112.292.168.648.168 1.067v.319h-3.671v-.674h2.79c0-.236-.048-.446-.144-.628a1.094 1.094 0 0 0-1.014-.595c-.252 0-.473.062-.661.186a1.246 1.246 0 0 0-.433.481c-.1.196-.15.41-.15.64v.527c0 .308.054.571.162.787.11.217.264.382.46.496.196.113.426.169.688.169.171 0 .326-.024.467-.072.14-.05.261-.125.363-.223a.95.95 0 0 0 .235-.364l.851.154c-.068.25-.191.47-.367.658a1.764 1.764 0 0 1-.659.436 2.466 2.466 0 0 1-.899.154Zm5.292-.094v-6.157h2.255c.437 0 .799.072 1.086.216.286.142.501.336.643.58.142.243.214.516.214.821 0 .257-.047.473-.142.65-.094.174-.22.314-.379.421a1.66 1.66 0 0 1-.517.228v.06c.205.01.404.076.599.199.196.12.358.291.487.514.128.222.192.493.192.812 0 .314-.074.597-.222.848a1.52 1.52 0 0 1-.68.592c-.307.144-.698.216-1.175.216h-2.361Zm.929-.796h1.341c.445 0 .764-.087.956-.259a.83.83 0 0 0 .289-.646 1.02 1.02 0 0 0-.568-.924 1.354 1.354 0 0 0-.644-.144h-1.374v1.973Zm0-2.697h1.245c.209 0 .396-.041.562-.121a.973.973 0 0 0 .4-.337.885.885 0 0 0 .151-.517.856.856 0 0 0-.268-.64c-.178-.172-.452-.259-.821-.259h-1.269v1.874Zm4.539 3.493v-4.618h.869v.734h.048a1.12 1.12 0 0 1 .445-.587c.215-.144.457-.216.728-.216a3.834 3.834 0 0 1 .382.021v.86a1.676 1.676 0 0 0-.193-.033 1.835 1.835 0 0 0-.277-.021c-.212 0-.401.045-.568.135a1.008 1.008 0 0 0-.535.905v2.82h-.899Zm5.029.094c-.433 0-.81-.1-1.133-.298a2.013 2.013 0 0 1-.752-.833c-.178-.357-.267-.774-.267-1.251 0-.479.089-.898.267-1.257.179-.358.429-.637.752-.835.323-.199.7-.298 1.133-.298.433 0 .811.099 1.134.298.323.198.573.477.752.835.178.359.267.778.267 1.257 0 .477-.089.894-.267 1.251a2.013 2.013 0 0 1-.752.833 2.127 2.127 0 0 1-1.134.298Zm.003-.755c.281 0 .514-.074.698-.223a1.3 1.3 0 0 0 .409-.592c.09-.247.135-.518.135-.815 0-.294-.045-.565-.135-.812a1.324 1.324 0 0 0-.409-.598c-.184-.15-.417-.225-.698-.225-.282 0-.517.075-.703.225-.185.15-.322.35-.412.598a2.405 2.405 0 0 0-.132.812c0 .297.044.568.132.815.09.247.227.444.412.592.186.149.421.223.703.223Zm3.981-.905-.006-1.098h.156l1.84-1.954h1.076l-2.098 2.225h-.142l-.826.827Zm-.827 1.566v-6.157h.899v6.157h-.899Zm2.916 0-1.653-2.195.619-.628 2.138 2.823h-1.104Zm3.597.094c-.455 0-.847-.098-1.176-.292a1.981 1.981 0 0 1-.757-.827c-.177-.357-.265-.775-.265-1.254 0-.473.088-.89.265-1.251.178-.36.427-.642.745-.844a2.06 2.06 0 0 1 1.125-.304c.26 0 .513.043.758.129.244.086.464.222.658.406.195.184.348.424.46.719.112.292.168.648.168 1.067v.319h-3.671v-.674h2.791c0-.236-.049-.446-.145-.628a1.08 1.08 0 0 0-.406-.436 1.135 1.135 0 0 0-.607-.159c-.253 0-.473.062-.662.186-.186.122-.33.283-.433.481-.1.196-.15.41-.15.64v.527c0 .308.054.571.163.787.11.217.263.382.46.496.196.113.425.169.688.169.17 0 .326-.024.466-.072a.96.96 0 0 0 .598-.587l.851.154c-.068.25-.19.47-.366.658a1.772 1.772 0 0 1-.659.436 2.47 2.47 0 0 1-.899.154Zm2.979-.094v-4.618h.869v.734h.048a1.12 1.12 0 0 1 .445-.587c.214-.144.457-.216.728-.216a3.834 3.834 0 0 1 .381.021v.86c-.036-.01-.1-.021-.192-.033a1.835 1.835 0 0 0-.277-.021c-.212 0-.401.045-.568.135a1.001 1.001 0 0 0-.535.905v2.82h-.899ZM211.682 39.215h-2.193c-.05 0-.075-.032-.075-.095l.038-13.295c0-.05.025-.076.075-.076h2.363c.05 0 .094.025.132.076l1.767 2.551 1.758-2.551a.17.17 0 0 1 .141-.076h2.372c.057 0 .085.025.085.076l.038 13.295c0 .063-.025.095-.075.095h-2.193c-.05 0-.075-.032-.075-.095l-.019-9.875-2.032 2.949-2.013-2.949-.019 9.875c0 .063-.025.095-.075.095Zm7.474-.095 2.401-13.295c.012-.05.044-.076.094-.076h2.807c.05 0 .082.025.094.076l2.306 13.295c.006.063-.019.095-.076.095h-2.145c-.063 0-.097-.032-.104-.095l-.208-1.417h-2.636l-.208 1.417c-.006.063-.038.095-.094.095h-2.155c-.05 0-.076-.032-.076-.095Zm3.79-8.92-.87 5.433h1.862l-.794-5.433-.113-.718-.085.718Zm7.389 9.015h-2.192c-.05 0-.075-.032-.075-.095l.037-13.295c0-.05.025-.076.076-.076h3.912c.699 0 1.342.17 1.928.51a3.88 3.88 0 0 1 1.398 1.37c.353.574.53 1.223.53 1.947 0 .473-.073.901-.218 1.285a4.038 4.038 0 0 1-.51.974c-.189.264-.362.46-.52.585a3.946 3.946 0 0 1 1.049 2.731l.019 3.97c0 .062-.032.094-.095.094h-2.192c-.05 0-.075-.02-.075-.057v-4.007c0-.466-.164-.869-.492-1.21a1.612 1.612 0 0 0-1.209-.51h-1.276l-.019 5.69c0 .062-.025.094-.076.094Zm1.758-11.15h-1.663v3.042h1.663c.397 0 .75-.148 1.058-.444.315-.296.473-.658.473-1.087 0-.41-.151-.762-.454-1.058a1.47 1.47 0 0 0-1.077-.454Zm7.579 11.15h-2.193c-.05 0-.075-.032-.075-.095l.038-13.295c0-.05.025-.076.075-.076h3.912c.7 0 1.342.17 1.928.51.586.34 1.052.797 1.399 1.37.352.574.529 1.223.529 1.947 0 .473-.073.901-.218 1.285a4.003 4.003 0 0 1-.51.974c-.189.264-.362.46-.52.585a3.942 3.942 0 0 1 1.049 2.731l.019 3.97c0 .062-.031.094-.094.094h-2.193c-.05 0-.075-.02-.075-.057v-4.007c0-.466-.164-.869-.492-1.21a1.61 1.61 0 0 0-1.209-.51h-1.276l-.019 5.69c0 .062-.025.094-.075.094Zm1.757-11.15h-1.663v3.042h1.663c.397 0 .75-.148 1.059-.444.315-.296.472-.658.472-1.087 0-.41-.151-.762-.453-1.058a1.474 1.474 0 0 0-1.078-.454Zm8.892 11.339a3.587 3.587 0 0 1-1.899-.53 4.132 4.132 0 0 1-1.389-1.407 3.78 3.78 0 0 1-.52-1.947l.019-6.133c0-.718.173-1.364.52-1.937.34-.58.8-1.043 1.38-1.39a3.564 3.564 0 0 1 1.889-.528c.706 0 1.339.173 1.9.52a3.92 3.92 0 0 1 1.361 1.398c.346.58.519 1.225.519 1.937l.019 6.133a3.79 3.79 0 0 1-.51 1.937 4.02 4.02 0 0 1-1.38 1.418 3.569 3.569 0 0 1-1.909.529Zm0-2.334c.391 0 .731-.158 1.021-.473.29-.321.435-.68.435-1.077l-.019-6.133c0-.428-.136-.79-.407-1.087a1.334 1.334 0 0 0-1.03-.444c-.396 0-.737.145-1.02.435-.284.29-.425.655-.425 1.096v6.133c0 .422.141.787.425 1.096a1.35 1.35 0 0 0 1.02.454Zm7.653-11.46c-.116.451-.264.942-.445 1.47a27.025 27.025 0 0 1-.6 1.588 42.307 42.307 0 0 1-.619 1.47h-1.258c.09-.36.18-.748.271-1.16.103-.414.193-.827.271-1.24.09-.425.167-.838.232-1.238.077-.4.142-.768.193-1.103h1.82l.135.213Zm4.282 13.794a3.587 3.587 0 0 1-1.899-.53 4.054 4.054 0 0 1-1.38-1.407 3.841 3.841 0 0 1-.51-1.947v-.888c0-.07.032-.104.095-.104h2.173c.05 0 .076.035.076.104v.888c0 .422.141.787.425 1.096a1.35 1.35 0 0 0 1.02.454c.404 0 .747-.155 1.03-.463.284-.315.426-.678.426-1.087 0-.473-.309-.885-.926-1.238a7.761 7.761 0 0 0-.397-.227 16.288 16.288 0 0 0-.567-.321l-.643-.35c-.208-.12-.409-.233-.605-.34-.705-.416-1.231-.935-1.578-1.559-.34-.63-.51-1.335-.51-2.117 0-.718.176-1.367.529-1.946a3.964 3.964 0 0 1 1.38-1.361 3.583 3.583 0 0 1 1.861-.51c.687 0 1.317.17 1.89.51a3.94 3.94 0 0 1 1.371 1.38c.346.573.519 1.215.519 1.927v1.588c0 .05-.025.075-.075.075h-2.174c-.05 0-.075-.025-.075-.075l-.019-1.588c0-.453-.142-.822-.425-1.105a1.383 1.383 0 0 0-1.012-.426 1.35 1.35 0 0 0-1.02.454 1.52 1.52 0 0 0-.425 1.077c0 .422.088.775.264 1.059.183.283.514.554.992.812a47.962 47.962 0 0 1 .955.53c.227.12.431.23.614.33l.331.17c.642.36 1.149.8 1.521 1.323.378.523.567 1.166.567 1.928 0 .737-.17 1.399-.51 1.984a3.887 3.887 0 0 1-1.38 1.39c-.573.34-1.209.51-1.909.51Zm14.298-.19h-2.344c-.056 0-.088-.03-.094-.094l-2.287-13.295c-.013-.05.006-.076.057-.076h2.173c.05 0 .082.025.095.076l1.237 8.74 1.276-8.74c.013-.05.051-.076.114-.076h1.748c.05 0 .082.025.094.076l1.257 8.74 1.257-8.74c.012-.05.044-.076.094-.076h2.155c.063 0 .088.025.075.076l-2.305 13.295c-.007.026-.025.048-.057.067l-.038.028h-2.343c-.038 0-.07-.032-.095-.095l-.992-6.945-.983 6.945c-.006.063-.038.095-.094.095Zm10.328 0h-2.192c-.063 0-.095-.03-.095-.094l.019-13.295c0-.05.026-.076.076-.076h2.173c.051 0 .076.025.076.076l.019 13.295c0 .063-.025.095-.076.095Zm3.884 0h-1.937c-.101 0-.151-.043-.151-.131l-.019-13.183c0-.1.05-.15.151-.15h1.748l3.27 7.625-.095-7.475c0-.1.057-.15.17-.15h1.919c.075 0 .113.05.113.15l.019 13.201c0 .076-.032.114-.095.114h-1.701l-3.354-7.125.142 6.974c0 .1-.06.15-.18.15Zm10.414.19c-.7 0-1.33-.173-1.89-.52a4 4 0 0 1-1.371-1.398 3.844 3.844 0 0 1-.51-1.966v-6.133c0-.705.173-1.348.52-1.928a3.888 3.888 0 0 1 1.37-1.398 3.52 3.52 0 0 1 1.881-.53c.711 0 1.354.17 1.927.511a3.83 3.83 0 0 1 1.361 1.39c.34.579.51 1.23.51 1.955v.889c0 .05-.031.075-.094.075h-2.174c-.05 0-.075-.025-.075-.075v-.738c0-.491-.139-.897-.416-1.219a1.317 1.317 0 0 0-1.039-.482c-.372 0-.703.155-.993.463a1.54 1.54 0 0 0-.434 1.087v6.133c0 .422.141.787.425 1.096.283.303.617.454 1.002.454.415 0 .762-.148 1.039-.444.277-.303.416-.671.416-1.106v-.954h-1.351c-.07 0-.104-.032-.104-.095v-2.164c0-.063.034-.094.104-.094h3.619c.05 0 .075.031.075.094v3.213c0 .724-.17 1.38-.51 1.966a3.988 3.988 0 0 1-1.37 1.398 3.606 3.606 0 0 1-1.918.52Zm8.457 0c-.687 0-1.32-.177-1.899-.53a4.036 4.036 0 0 1-1.38-1.407 3.841 3.841 0 0 1-.51-1.947v-.888c0-.07.031-.104.094-.104h2.174c.05 0 .075.035.075.104v.888c0 .422.142.787.425 1.096.284.303.624.454 1.021.454.403 0 .747-.155 1.03-.463.284-.315.425-.678.425-1.087 0-.473-.308-.885-.926-1.238a7.348 7.348 0 0 0-.397-.227 14.616 14.616 0 0 0-.567-.321l-.642-.35c-.208-.12-.41-.233-.605-.34-.706-.416-1.232-.935-1.578-1.559-.34-.63-.51-1.335-.51-2.117 0-.718.176-1.367.529-1.946a3.961 3.961 0 0 1 1.379-1.361 3.586 3.586 0 0 1 1.862-.51c.687 0 1.317.17 1.89.51.573.346 1.03.806 1.37 1.38.347.573.52 1.215.52 1.927v1.588c0 .05-.025.075-.076.075h-2.173c-.051 0-.076-.025-.076-.075l-.019-1.588c0-.453-.141-.822-.425-1.105a1.38 1.38 0 0 0-1.011-.426c-.397 0-.737.152-1.021.454a1.524 1.524 0 0 0-.425 1.077c0 .422.088.775.265 1.059.182.283.513.554.992.812a48.306 48.306 0 0 1 .954.53c.227.12.432.23.615.33.182.095.293.151.33.17.643.36 1.15.8 1.522 1.323.378.523.567 1.166.567 1.928 0 .737-.17 1.399-.511 1.984a3.885 3.885 0 0 1-1.379 1.39c-.573.34-1.21.51-1.909.51Z"/></svg>