<svg xmlns="http://www.w3.org/2000/svg" width="337" height="212" fill="none"><g filter="url(#a)"><rect width="329" height="202.999" x="3.992" y="4.023" fill="#fff" rx="3.024"/><path fill="#fff" d="M46.328 62.082h87.087v87.088H46.328z"/><path fill="#134B93" d="M52.086 67.84h3.599v3.599h-3.599zM55.685 67.84h3.599v3.599h-3.599z"/><path fill="#134B93" d="M59.277 67.84h3.599v3.599h-3.599zM62.877 67.84h3.599v3.599h-3.599zM66.485 67.84h3.599v3.599h-3.599z"/><path fill="#134B93" d="M70.077 67.84h3.599v3.599h-3.599zM73.677 67.84h3.599v3.599h-3.599zM88.076 67.84h3.599v3.599h-3.599z"/><path fill="#134B93" d="M91.668 67.84h3.599v3.599h-3.599zM95.269 67.84h3.599v3.599h-3.599zM102.468 67.84h3.599v3.599h-3.599z"/><path fill="#134B93" d="M106.06 67.84h3.599v3.599h-3.599zM109.668 67.84h3.599v3.599h-3.599zM113.268 67.84h3.599v3.599h-3.599zM116.867 67.84h3.599v3.599h-3.599z"/><path fill="#134B93" d="M120.459 67.84h3.599v3.599h-3.599zM124.059 67.84h3.599v3.599h-3.599zM52.086 71.438h3.599v3.599h-3.599zM73.677 71.438h3.599v3.599h-3.599zM80.868 71.438h3.599v3.599h-3.599zM84.469 71.438h3.599v3.599h-3.599zM88.076 71.438h3.599v3.599h-3.599zM95.269 71.438h3.599v3.599h-3.599zM102.468 71.438h3.599v3.599h-3.599z"/><path fill="#134B93" d="M124.059 71.438h3.599v3.599h-3.599zM52.086 75.037h3.599v3.599h-3.599zM59.277 75.037h3.599v3.599h-3.599zM62.877 75.037h3.599v3.599h-3.599zM66.485 75.037h3.599v3.599h-3.599zM73.677 75.037h3.599v3.599h-3.599zM88.076 75.037h3.599v3.599h-3.599z"/><path fill="#134B93" d="M91.668 75.037h3.599v3.599h-3.599zM95.269 75.037h3.599v3.599h-3.599zM102.468 75.037h3.599v3.599h-3.599zM109.668 75.037h3.599v3.599h-3.599zM113.268 75.037h3.599v3.599h-3.599zM116.867 75.037h3.599v3.599h-3.599zM124.059 75.037h3.599v3.599h-3.599zM52.086 78.637h3.599v3.599h-3.599zM59.277 78.637h3.599v3.599h-3.599zM62.877 78.637h3.599v3.599h-3.599zM66.485 78.637h3.599v3.599h-3.599zM73.677 78.637h3.599v3.599h-3.599zM80.868 78.637h3.599v3.599h-3.599zM84.469 78.637h3.599v3.599h-3.599zM95.269 78.637h3.599v3.599h-3.599zM102.468 78.637h3.599v3.599h-3.599zM109.668 78.637h3.599v3.599h-3.599zM113.268 78.637h3.599v3.599h-3.599zM116.867 78.637h3.599v3.599h-3.599zM124.059 78.637h3.599v3.599h-3.599z"/><path fill="#134B93" d="M52.086 82.234h3.599v3.599h-3.599zM59.277 82.234h3.599v3.599h-3.599zM62.877 82.234h3.599v3.599h-3.599zM66.485 82.234h3.599v3.599h-3.599zM73.677 82.234h3.599v3.599h-3.599zM84.469 82.234h3.599v3.599h-3.599zM95.269 82.234h3.599v3.599h-3.599zM102.468 82.234h3.599v3.599h-3.599zM109.668 82.234h3.599v3.599h-3.599zM113.268 82.234h3.599v3.599h-3.599zM116.867 82.234h3.599v3.599h-3.599zM124.059 82.234h3.599v3.599h-3.599zM52.086 85.834h3.599v3.599h-3.599zM73.677 85.834h3.599v3.599h-3.599zM80.868 85.834h3.599v3.599h-3.599zM91.668 85.834h3.599v3.599h-3.599zM102.468 85.834h3.599v3.599h-3.599zM124.059 85.834h3.599v3.599h-3.599z"/><path fill="#134B93" d="M52.086 89.432h3.599v3.599h-3.599zM55.685 89.432h3.599v3.599h-3.599z"/><path fill="#134B93" d="M59.277 89.432h3.599v3.599h-3.599zM62.877 89.432h3.599v3.599h-3.599zM66.485 89.432h3.599v3.599h-3.599z"/><path fill="#134B93" d="M70.077 89.432h3.599v3.599h-3.599zM73.677 89.432h3.599v3.599h-3.599zM80.868 89.432h3.599v3.599h-3.599zM88.076 89.432h3.599v3.599h-3.599zM95.269 89.432h3.599v3.599h-3.599zM102.468 89.432h3.599v3.599h-3.599z"/><path fill="#134B93" d="M106.06 89.432h3.599v3.599h-3.599zM109.668 89.432h3.599v3.599h-3.599zM113.268 89.432h3.599v3.599h-3.599zM116.867 89.432h3.599v3.599h-3.599z"/><path fill="#134B93" d="M120.459 89.432h3.599v3.599h-3.599zM124.059 89.432h3.599v3.599h-3.599zM84.469 93.031h3.599v3.599h-3.599zM52.086 96.629h3.599v3.599h-3.599zM55.685 96.629h3.599v3.599h-3.599z"/><path fill="#134B93" d="M59.277 96.629h3.599v3.599h-3.599zM62.877 96.629h3.599v3.599h-3.599zM66.485 96.629h3.599v3.599h-3.599zM73.677 96.629h3.599v3.599h-3.599zM77.277 96.629h3.599v3.599h-3.599z"/><path fill="#134B93" d="M80.868 96.629h3.599v3.599h-3.599zM91.668 96.629h3.599v3.599h-3.599zM98.868 96.629h3.599v3.599h-3.599zM106.06 96.629h3.599v3.599h-3.599zM113.268 96.629h3.599v3.599h-3.599zM120.459 96.629h3.599v3.599h-3.599zM52.086 100.229h3.599v3.599h-3.599zM59.277 100.229h3.599v3.599h-3.599zM80.868 100.229h3.599v3.599h-3.599zM84.469 100.229h3.599v3.599h-3.599zM91.668 100.229h3.599v3.599h-3.599zM95.269 100.229h3.599v3.599h-3.599z"/><path fill="#134B93" d="M98.868 100.229h3.599v3.599h-3.599zM102.468 100.229h3.599v3.599h-3.599zM113.268 100.229h3.599v3.599h-3.599zM116.867 100.229h3.599v3.599h-3.599zM124.059 100.229h3.599v3.599h-3.599zM66.485 103.826h3.599v3.599h-3.599zM73.677 103.826h3.599v3.599h-3.599zM80.868 103.826h3.599v3.599h-3.599zM84.469 103.826h3.599v3.599h-3.599z"/><path fill="#134B93" d="M95.269 103.826h3.599v3.599h-3.599zM102.468 103.826h3.599v3.599h-3.599z"/><path fill="#134B93" d="M106.06 103.826h3.599v3.599h-3.599zM113.268 103.826h3.599v3.599h-3.599zM120.459 103.826h3.599v3.599h-3.599zM52.086 107.426h3.599v3.599h-3.599zM70.077 107.426h3.599v3.599h-3.599zM77.277 107.426h3.599v3.599h-3.599zM88.076 107.426h3.599v3.599h-3.599z"/><path fill="#134B93" d="M91.668 107.426h3.599v3.599h-3.599zM95.269 107.426h3.599v3.599h-3.599z"/><path fill="#134B93" d="M98.868 107.426h3.599v3.599h-3.599zM102.468 107.426h3.599v3.599h-3.599zM113.268 107.426h3.599v3.599h-3.599zM116.867 107.426h3.599v3.599h-3.599z"/><path fill="#134B93" d="M120.459 107.426h3.599v3.599h-3.599zM124.059 107.426h3.599v3.599h-3.599zM52.086 111.023h3.599v3.599h-3.599zM55.685 111.023h3.599v3.599h-3.599zM73.677 111.023h3.599v3.599h-3.599zM84.469 111.023h3.599v3.599h-3.599zM95.269 111.023h3.599v3.599h-3.599zM106.06 111.023h3.599v3.599h-3.599z"/><path fill="#134B93" d="M120.459 111.023h3.599v3.599h-3.599zM80.868 114.623h3.599v3.599h-3.599zM88.076 114.623h3.599v3.599h-3.599zM95.269 114.623h3.599v3.599h-3.599zM106.06 114.623h3.599v3.599h-3.599zM113.268 114.623h3.599v3.599h-3.599zM116.867 114.623h3.599v3.599h-3.599zM124.059 114.623h3.599v3.599h-3.599zM52.086 118.223h3.599v3.599h-3.599zM55.685 118.223h3.599v3.599h-3.599z"/><path fill="#134B93" d="M59.277 118.223h3.599v3.599h-3.599zM62.877 118.223h3.599v3.599h-3.599zM66.485 118.223h3.599v3.599h-3.599z"/><path fill="#134B93" d="M70.077 118.223h3.599v3.599h-3.599zM73.677 118.223h3.599v3.599h-3.599zM80.868 118.223h3.599v3.599h-3.599zM84.469 118.223h3.599v3.599h-3.599zM88.076 118.223h3.599v3.599h-3.599z"/><path fill="#134B93" d="M91.668 118.223h3.599v3.599h-3.599zM98.868 118.223h3.599v3.599h-3.599zM109.668 118.223h3.599v3.599h-3.599zM113.268 118.223h3.599v3.599h-3.599zM120.459 118.223h3.599v3.599h-3.599zM52.086 121.82h3.599v3.599h-3.599zM73.677 121.82h3.599v3.599h-3.599zM106.06 121.82h3.599v3.599h-3.599z"/><path fill="#134B93" d="M109.668 121.82h3.599v3.599h-3.599zM113.268 121.82h3.599v3.599h-3.599zM116.867 121.82h3.599v3.599h-3.599z"/><path fill="#134B93" d="M120.459 121.82h3.599v3.599h-3.599zM52.086 125.418h3.599v3.599h-3.599zM59.277 125.418h3.599v3.599h-3.599zM62.877 125.418h3.599v3.599h-3.599zM66.485 125.418h3.599v3.599h-3.599zM73.677 125.418h3.599v3.599h-3.599zM80.868 125.418h3.599v3.599h-3.599zM84.469 125.418h3.599v3.599h-3.599zM88.076 125.418h3.599v3.599h-3.599z"/><path fill="#134B93" d="M91.668 125.418h3.599v3.599h-3.599zM98.868 125.418h3.599v3.599h-3.599zM109.668 125.418h3.599v3.599h-3.599zM120.459 125.418h3.599v3.599h-3.599zM52.086 129.018h3.599v3.599h-3.599zM59.277 129.018h3.599v3.599h-3.599zM62.877 129.018h3.599v3.599h-3.599zM66.485 129.018h3.599v3.599h-3.599zM73.677 129.018h3.599v3.599h-3.599zM80.868 129.018h3.599v3.599h-3.599zM84.469 129.018h3.599v3.599h-3.599zM91.668 129.018h3.599v3.599h-3.599zM95.269 129.018h3.599v3.599h-3.599z"/><path fill="#134B93" d="M98.868 129.018h3.599v3.599h-3.599zM102.468 129.018h3.599v3.599h-3.599z"/><path fill="#134B93" d="M106.06 129.018h3.599v3.599h-3.599zM113.268 129.018h3.599v3.599h-3.599zM116.867 129.018h3.599v3.599h-3.599zM52.086 132.615h3.599v3.599h-3.599zM59.277 132.615h3.599v3.599h-3.599zM62.877 132.615h3.599v3.599h-3.599zM66.485 132.615h3.599v3.599h-3.599zM73.677 132.615h3.599v3.599h-3.599zM80.868 132.615h3.599v3.599h-3.599zM88.076 132.615h3.599v3.599h-3.599zM95.269 132.615h3.599v3.599h-3.599z"/><path fill="#134B93" d="M102.468 132.615h3.599v3.599h-3.599z"/><path fill="#134B93" d="M106.06 132.615h3.599v3.599h-3.599zM113.268 132.615h3.599v3.599h-3.599zM52.086 136.215h3.599v3.599h-3.599zM73.677 136.215h3.599v3.599h-3.599zM80.868 136.215h3.599v3.599h-3.599zM91.668 136.215h3.599v3.599h-3.599zM95.269 136.215h3.599v3.599h-3.599z"/><path fill="#134B93" d="M98.868 136.215h3.599v3.599h-3.599zM102.468 136.215h3.599v3.599h-3.599zM109.668 136.215h3.599v3.599h-3.599zM113.268 136.215h3.599v3.599h-3.599zM116.867 136.215h3.599v3.599h-3.599zM52.086 139.814h3.599v3.599h-3.599zM55.685 139.814h3.599v3.599h-3.599z"/><path fill="#134B93" d="M59.277 139.814h3.599v3.599h-3.599zM62.877 139.814h3.599v3.599h-3.599zM66.485 139.814h3.599v3.599h-3.599z"/><path fill="#134B93" d="M70.077 139.814h3.599v3.599h-3.599zM73.677 139.814h3.599v3.599h-3.599zM80.868 139.814h3.599v3.599h-3.599zM88.076 139.814h3.599v3.599h-3.599zM95.269 139.814h3.599v3.599h-3.599zM120.459 139.814h3.599v3.599h-3.599z"/><path stroke="#134B93" stroke-linecap="round" stroke-width="2.307" d="M299.124 32.824c1.186-1.333 2.845-4.706 0-7.53m4.623-2.588c2.253 1.961 5.406 7.294 0 12.941m4.98-15.293c3.2 2.43 7.681 9.411 0 17.882"/><path fill="#134B93" d="M241.207 170.44a.979.979 0 0 0-.399-.727c-.234-.173-.552-.259-.954-.259-.274 0-.504.039-.692.116a.968.968 0 0 0-.433.313.753.753 0 0 0-.147.456.651.651 0 0 0 .089.372.929.929 0 0 0 .274.274c.116.075.25.14.402.197.152.054.315.101.487.139l.712.17c.345.078.662.181.951.31.288.129.538.287.75.475.211.188.374.41.49.665.119.255.18.548.182.878-.002.484-.126.904-.371 1.26-.242.353-.593.627-1.051.823-.457.194-1.007.29-1.651.29-.639 0-1.196-.098-1.67-.294a2.44 2.44 0 0 1-1.106-.869c-.263-.387-.401-.865-.413-1.435h1.619c.018.266.094.487.228.665.137.176.319.308.546.398.229.088.488.132.777.132.283 0 .529-.041.738-.124a1.13 1.13 0 0 0 .491-.344.795.795 0 0 0 .174-.506.658.658 0 0 0-.159-.449 1.2 1.2 0 0 0-.456-.309 4.685 4.685 0 0 0-.73-.232l-.863-.216c-.667-.163-1.194-.417-1.581-.762-.386-.345-.578-.81-.576-1.395-.002-.48.125-.899.383-1.257a2.58 2.58 0 0 1 1.071-.839c.453-.201.969-.301 1.546-.301.588 0 1.101.1 1.539.301.44.201.783.481 1.028.839s.371.773.379 1.245h-1.604Zm4.5 5.752c-.379 0-.716-.066-1.012-.197a1.63 1.63 0 0 1-.704-.591c-.17-.263-.255-.591-.255-.982 0-.33.06-.607.181-.831.122-.225.287-.405.495-.542.209-.136.446-.239.712-.309.268-.07.549-.118.842-.147.346-.036.624-.069.835-.1.212-.034.365-.083.46-.147a.322.322 0 0 0 .143-.286v-.024c0-.244-.077-.434-.232-.568-.152-.134-.368-.201-.649-.201-.296 0-.532.066-.707.197a.903.903 0 0 0-.348.487l-1.523-.123c.077-.361.229-.673.456-.936a2.19 2.19 0 0 1 .877-.611 3.367 3.367 0 0 1 1.253-.216c.33 0 .645.039.947.116.304.077.573.197.808.359.237.163.424.372.56.627.137.252.205.555.205.908v4.005h-1.562v-.823h-.046a1.678 1.678 0 0 1-.383.491 1.759 1.759 0 0 1-.576.328 2.361 2.361 0 0 1-.777.116Zm.472-1.136c.242 0 .456-.048.642-.143.185-.098.331-.23.437-.395a1.02 1.02 0 0 0 .158-.56v-.63a.888.888 0 0 1-.213.092 3.575 3.575 0 0 1-.297.074c-.111.02-.222.04-.333.058l-.301.042a2.063 2.063 0 0 0-.507.136.81.81 0 0 0-.336.251.612.612 0 0 0-.12.387c0 .224.081.395.244.514.165.116.373.174.626.174Zm4.15 1.024v-5.938h1.596v1.036h.062c.109-.368.29-.647.545-.835a1.44 1.44 0 0 1 .882-.286 2.32 2.32 0 0 1 .518.058v1.461a2.2 2.2 0 0 0-.321-.061 2.899 2.899 0 0 0-.375-.027c-.242 0-.459.052-.65.158a1.164 1.164 0 0 0-.61 1.075v3.359h-1.647Zm5.977.112c-.379 0-.716-.066-1.013-.197a1.634 1.634 0 0 1-.703-.591c-.17-.263-.255-.591-.255-.982 0-.33.06-.607.181-.831.122-.225.287-.405.495-.542.209-.136.446-.239.712-.309.268-.07.549-.118.842-.147.346-.036.624-.069.835-.1.212-.034.365-.083.46-.147a.322.322 0 0 0 .143-.286v-.024c0-.244-.077-.434-.232-.568-.152-.134-.368-.201-.649-.201-.296 0-.532.066-.707.197a.903.903 0 0 0-.348.487l-1.523-.123c.077-.361.229-.673.456-.936a2.19 2.19 0 0 1 .877-.611 3.367 3.367 0 0 1 1.253-.216c.33 0 .645.039.947.116.304.077.573.197.808.359.237.163.424.372.56.627.137.252.205.555.205.908v4.005h-1.562v-.823h-.046a1.678 1.678 0 0 1-.383.491 1.759 1.759 0 0 1-.576.328 2.361 2.361 0 0 1-.777.116Zm.472-1.136c.242 0 .456-.048.642-.143.185-.098.331-.23.436-.395.106-.165.159-.351.159-.56v-.63a.888.888 0 0 1-.213.092 3.575 3.575 0 0 1-.297.074c-.111.02-.222.04-.333.058l-.301.042a2.063 2.063 0 0 0-.507.136.81.81 0 0 0-.336.251.612.612 0 0 0-.12.387c0 .224.081.395.244.514.165.116.373.174.626.174Zm5.797-2.409v3.433h-1.647v-7.917h1.6v3.027h.07c.134-.351.35-.625.649-.824.299-.201.674-.301 1.125-.301.413 0 .772.09 1.079.271.309.177.549.434.719.769.173.332.258.73.255 1.194v3.781h-1.647v-3.487c.003-.366-.09-.651-.278-.854-.186-.204-.446-.306-.781-.306-.224 0-.423.048-.595.143a1.02 1.02 0 0 0-.402.418c-.096.18-.145.398-.147.653Zm7.696-4.484h2.065l2.18 5.319h.093l2.18-5.319h2.064v7.917h-1.623v-5.153h-.066l-2.049 5.114h-1.105l-2.049-5.133h-.066v5.172h-1.624v-7.917Zm11.624 8.029a2.48 2.48 0 0 1-1.013-.197 1.637 1.637 0 0 1-.704-.591c-.17-.263-.255-.591-.255-.982 0-.33.061-.607.182-.831.121-.225.286-.405.495-.542.209-.136.446-.239.711-.309.268-.07.549-.118.843-.147.345-.036.624-.069.835-.1.211-.034.365-.083.46-.147a.324.324 0 0 0 .143-.286v-.024c0-.244-.077-.434-.232-.568-.152-.134-.369-.201-.649-.201-.297 0-.533.066-.708.197a.914.914 0 0 0-.348.487l-1.523-.123c.077-.361.229-.673.456-.936.227-.265.52-.469.878-.611a3.361 3.361 0 0 1 1.252-.216c.33 0 .646.039.947.116.304.077.574.197.808.359.237.163.424.372.561.627.136.252.205.555.205.908v4.005h-1.562v-.823h-.046a1.695 1.695 0 0 1-.383.491 1.78 1.78 0 0 1-.576.328 2.361 2.361 0 0 1-.777.116Zm.471-1.136c.243 0 .457-.048.642-.143.186-.098.331-.23.437-.395.106-.165.159-.351.159-.56v-.63a.906.906 0 0 1-.213.092 3.708 3.708 0 0 1-.298.074c-.111.02-.221.04-.332.058l-.302.042a2.054 2.054 0 0 0-.506.136.806.806 0 0 0-.337.251.617.617 0 0 0-.119.387c0 .224.081.395.243.514.165.116.374.174.626.174Zm7.309-4.914v1.237h-3.576v-1.237h3.576Zm-2.764-1.422h1.646v5.535c0 .152.024.271.07.356a.379.379 0 0 0 .193.174c.085.034.183.05.294.05.077 0 .155-.006.232-.019l.178-.035.259 1.226a5.528 5.528 0 0 1-.348.089 2.74 2.74 0 0 1-.545.065 2.497 2.497 0 0 1-1.044-.158 1.454 1.454 0 0 1-.692-.565c-.165-.255-.246-.577-.243-.966v-5.752Zm5.611 3.927v3.433h-1.647v-7.917h1.6v3.027h.07c.134-.351.351-.625.649-.824.299-.201.674-.301 1.125-.301.413 0 .772.09 1.079.271.309.177.549.434.719.769.173.332.258.73.255 1.194v3.781h-1.647v-3.487c.003-.366-.09-.651-.278-.854-.186-.204-.446-.306-.781-.306-.224 0-.423.048-.595.143a1.02 1.02 0 0 0-.402.418c-.096.18-.145.398-.147.653Zm7.852 3.549c-.611 0-1.136-.124-1.577-.371a2.543 2.543 0 0 1-1.013-1.059c-.237-.459-.356-1.002-.356-1.628 0-.611.119-1.147.356-1.608a2.626 2.626 0 0 1 1.001-1.078c.433-.258.941-.387 1.523-.387a3.1 3.1 0 0 1 1.094.189c.341.124.637.311.89.561.255.25.453.564.595.943.142.376.213.817.213 1.322v.453h-5.014v-1.021h3.463c0-.237-.051-.447-.154-.63a1.106 1.106 0 0 0-.429-.429 1.224 1.224 0 0 0-.63-.159c-.25 0-.472.058-.665.174a1.224 1.224 0 0 0-.449.46 1.31 1.31 0 0 0-.166.638v.97c0 .294.054.548.162.762.111.214.267.379.468.495.201.116.439.174.715.174.183 0 .351-.026.503-.078a1.016 1.016 0 0 0 .638-.61l1.523.1a2.084 2.084 0 0 1-.476.959c-.237.27-.544.482-.92.634a3.475 3.475 0 0 1-1.295.224Zm4.929-.116-1.616-5.938h1.666l.92 3.99h.054l.959-3.99h1.635l.975 3.967h.05l.904-3.967h1.663l-1.612 5.938h-1.744l-1.02-3.734h-.074l-1.02 3.734h-1.74ZM242.249 183.491c0 .658-.12 1.223-.361 1.696-.24.471-.57.834-.989 1.089a2.696 2.696 0 0 1-1.422.379 2.717 2.717 0 0 1-1.428-.379 2.651 2.651 0 0 1-.986-1.092c-.241-.473-.361-1.037-.361-1.693 0-.657.12-1.221.361-1.692a2.63 2.63 0 0 1 .986-1.089 2.7 2.7 0 0 1 1.428-.382 2.68 2.68 0 0 1 1.422.382c.419.253.749.616.989 1.089.241.471.361 1.035.361 1.692Zm-.92 0c0-.501-.081-.923-.244-1.265a1.77 1.77 0 0 0-.661-.782 1.714 1.714 0 0 0-.947-.268c-.355 0-.672.089-.95.268-.279.176-.499.437-.662.782-.16.342-.24.764-.24 1.265 0 .502.08.925.24 1.269.163.343.383.604.662.782.278.176.595.265.95.265.353 0 .668-.089.947-.265.281-.178.501-.439.661-.782.163-.344.244-.767.244-1.269Zm3.007 3.079-1.359-4.618h.93l.905 3.392h.045l.908-3.392h.929l.902 3.377h.045l.899-3.377h.929l-1.356 4.618h-.917l-.938-3.334h-.069l-.938 3.334h-.915Zm6.885-2.742v2.742h-.899v-4.618h.863v.752h.057c.106-.245.273-.441.499-.59.229-.148.516-.222.863-.222.315 0 .591.066.827.198.237.131.42.325.55.584.131.258.196.578.196.959v2.937h-.899v-2.829c0-.335-.087-.596-.262-.785-.174-.19-.414-.285-.718-.285-.209 0-.394.045-.557.135a.976.976 0 0 0-.382.397 1.311 1.311 0 0 0-.138.625Zm6.152 2.836c-.455 0-.847-.098-1.176-.292a1.975 1.975 0 0 1-.757-.827c-.177-.357-.265-.775-.265-1.254 0-.473.088-.89.265-1.251.178-.36.426-.642.745-.844a2.06 2.06 0 0 1 1.125-.304c.26 0 .513.043.757.129.245.086.464.222.659.406.194.184.348.424.46.719.112.292.168.648.168 1.067v.319h-3.671v-.674h2.79c0-.236-.048-.446-.144-.628a1.087 1.087 0 0 0-.406-.436 1.135 1.135 0 0 0-.607-.159c-.253 0-.473.062-.662.186a1.254 1.254 0 0 0-.433.481c-.1.196-.15.41-.15.64v.527c0 .308.054.571.162.787.111.217.264.382.46.496.197.113.426.169.689.169.17 0 .326-.024.466-.072a.96.96 0 0 0 .598-.587l.851.154c-.068.25-.19.47-.367.658a1.768 1.768 0 0 1-.658.436 2.47 2.47 0 0 1-.899.154Zm2.979-.094v-4.618h.869v.734h.048c.084-.249.232-.444.445-.587.214-.144.457-.216.727-.216a3.838 3.838 0 0 1 .382.021v.86c-.036-.01-.1-.021-.192-.033a1.845 1.845 0 0 0-.277-.021c-.212 0-.402.045-.568.135a1.001 1.001 0 0 0-.535.905v2.82h-.899Zm6.738-8.142v10.127h-.806v-10.127h.806Zm5.961 8.142h-1.994v-6.157h2.057c.603 0 1.121.123 1.554.369.433.245.765.597.995 1.056.233.457.349 1.005.349 1.644 0 .642-.117 1.193-.352 1.654a2.461 2.461 0 0 1-1.01 1.064c-.441.247-.974.37-1.599.37Zm-1.065-.811h1.013c.47 0 .859-.089 1.17-.265.311-.178.543-.436.698-.773.154-.339.231-.751.231-1.239 0-.483-.077-.893-.231-1.229a1.636 1.636 0 0 0-.683-.767c-.303-.174-.678-.262-1.127-.262h-1.071v4.535Zm7.1.905c-.455 0-.847-.098-1.176-.292a1.984 1.984 0 0 1-.758-.827c-.176-.357-.264-.775-.264-1.254 0-.473.088-.89.264-1.251.179-.36.427-.642.746-.844a2.06 2.06 0 0 1 1.125-.304c.26 0 .513.043.757.129.245.086.464.222.659.406.194.184.348.424.46.719.112.292.168.648.168 1.067v.319h-3.671v-.674h2.79c0-.236-.048-.446-.144-.628a1.087 1.087 0 0 0-.406-.436 1.135 1.135 0 0 0-.607-.159c-.253 0-.473.062-.662.186a1.254 1.254 0 0 0-.433.481c-.1.196-.15.41-.15.64v.527c0 .308.054.571.162.787.111.217.264.382.46.496.197.113.426.169.689.169.17 0 .326-.024.466-.072a.96.96 0 0 0 .598-.587l.851.154c-.068.25-.19.47-.367.658a1.768 1.768 0 0 1-.658.436 2.47 2.47 0 0 1-.899.154Zm6.439-3.584-.814.144a.971.971 0 0 0-.163-.298.801.801 0 0 0-.294-.231 1.072 1.072 0 0 0-.466-.091c-.255 0-.467.058-.638.172-.17.112-.255.257-.255.436 0 .154.057.278.171.373.114.094.299.171.553.231l.734.169c.425.098.741.249.95.454.208.204.313.47.313.796 0 .277-.081.524-.241.74-.158.214-.38.383-.664.505a2.468 2.468 0 0 1-.984.184c-.517 0-.939-.111-1.265-.331a1.398 1.398 0 0 1-.602-.947l.869-.133a.836.836 0 0 0 .334.515c.168.114.388.171.658.171.295 0 .531-.061.707-.184.176-.124.265-.275.265-.454a.472.472 0 0 0-.163-.363c-.106-.099-.269-.173-.49-.223l-.782-.171c-.431-.098-.749-.255-.956-.469-.204-.215-.306-.486-.306-.815 0-.273.076-.511.228-.716.152-.204.363-.363.631-.478.269-.116.577-.174.924-.174.499 0 .892.108 1.178.325.287.214.476.502.568.863Zm1.079 3.49v-4.618h.899v4.618h-.899Zm.454-5.331a.573.573 0 0 1-.403-.156.508.508 0 0 1-.165-.379c0-.148.055-.274.165-.379a.567.567 0 0 1 .403-.159c.156 0 .29.053.4.159a.5.5 0 0 1 .168.379.504.504 0 0 1-.168.379.562.562 0 0 1-.4.156Zm3.591 7.159c-.367 0-.683-.048-.947-.144a1.826 1.826 0 0 1-.644-.382 1.622 1.622 0 0 1-.373-.52l.773-.319c.054.089.126.182.217.28.092.1.216.185.373.256.158.07.361.105.61.105.341 0 .622-.083.845-.25.222-.164.334-.427.334-.788v-.908h-.058a2.004 2.004 0 0 1-.234.328c-.1.12-.239.225-.415.313s-.406.132-.689.132a1.93 1.93 0 0 1-.986-.255 1.817 1.817 0 0 1-.691-.761c-.169-.337-.253-.751-.253-1.242s.083-.912.25-1.263c.168-.35.399-.619.691-.805.293-.189.625-.283.995-.283.287 0 .519.048.695.144.176.094.314.205.412.331.1.126.177.237.231.334h.067v-.749h.881v4.721c0 .396-.093.722-.277.977a1.631 1.631 0 0 1-.749.565 2.888 2.888 0 0 1-1.058.183Zm-.009-2.643c.258 0 .477-.06.655-.18a1.12 1.12 0 0 0 .409-.523c.094-.229.142-.502.142-.821 0-.311-.047-.584-.139-.821a1.215 1.215 0 0 0-.406-.553 1.069 1.069 0 0 0-.661-.201c-.271 0-.496.07-.677.21-.18.138-.316.327-.409.565-.09.239-.135.505-.135.8 0 .303.046.568.138.797.093.228.229.407.409.535.183.128.407.192.674.192Zm4.197-1.927v2.742h-.899v-4.618h.863v.752h.057a1.33 1.33 0 0 1 .499-.59c.229-.148.517-.222.863-.222.315 0 .591.066.827.198.237.131.42.325.55.584.131.258.196.578.196.959v2.937h-.899v-2.829c0-.335-.087-.596-.262-.785-.174-.19-.414-.285-.718-.285-.209 0-.394.045-.557.135a.967.967 0 0 0-.381.397 1.3 1.3 0 0 0-.139.625Zm6.152 2.836c-.455 0-.847-.098-1.176-.292a1.981 1.981 0 0 1-.757-.827c-.177-.357-.265-.775-.265-1.254 0-.473.088-.89.265-1.251.178-.36.427-.642.745-.844a2.06 2.06 0 0 1 1.125-.304c.26 0 .513.043.758.129.244.086.464.222.658.406.194.184.348.424.46.719.112.292.168.648.168 1.067v.319h-3.671v-.674h2.79c0-.236-.048-.446-.144-.628a1.08 1.08 0 0 0-.406-.436 1.135 1.135 0 0 0-.607-.159c-.253 0-.473.062-.662.186-.186.122-.33.283-.433.481-.1.196-.15.41-.15.64v.527c0 .308.054.571.162.787.111.217.264.382.46.496.197.113.426.169.689.169.17 0 .326-.024.466-.072a.96.96 0 0 0 .598-.587l.851.154c-.068.25-.19.47-.367.658a1.76 1.76 0 0 1-.658.436 2.47 2.47 0 0 1-.899.154Zm2.979-.094v-4.618h.869v.734h.048c.084-.249.232-.444.445-.587.214-.144.457-.216.728-.216a3.834 3.834 0 0 1 .381.021v.86c-.036-.01-.1-.021-.192-.033a1.835 1.835 0 0 0-.277-.021c-.212 0-.402.045-.568.135a1.001 1.001 0 0 0-.535.905v2.82h-.899Z"/></g><defs><filter id="a" width="337" height="210.998" x="-.008" y=".023" color-interpolation-filters="sRGB" filterUnits="userSpaceOnUse"><feFlood flood-opacity="0" result="BackgroundImageFix"/><feColorMatrix in="SourceAlpha" result="hardAlpha" values="0 0 0 0 0 0 0 0 0 0 0 0 0 0 0 0 0 0 127 0"/><feOffset/><feGaussianBlur stdDeviation="2"/><feComposite in2="hardAlpha" operator="out"/><feColorMatrix values="0 0 0 0 0 0 0 0 0 0 0 0 0 0 0 0 0 0 0.25 0"/><feBlend in2="BackgroundImageFix" result="effect1_dropShadow_30_2895"/><feBlend in="SourceGraphic" in2="effect1_dropShadow_30_2895" result="shape"/></filter></defs></svg>