<svg width="222" height="250" viewBox="0 0 222 250" fill="none" xmlns="http://www.w3.org/2000/svg">
<rect x="13.813" width="195" height="120.319" rx="3.58456" fill="white"/>
<path d="M79.9137 59.4763V60.2104H79.1337V64.8904C78.8126 64.9822 78.3614 65.1275 77.7802 65.3263C77.199 65.5098 76.8549 65.6169 76.7479 65.6475C75.7384 65.8922 74.599 66.0145 73.3296 66.0145C71.4179 66.0145 69.7508 65.2192 68.3284 63.6287C66.9826 62.0075 66.3173 60.0192 66.3326 57.6639C66.3479 55.2934 67.0361 53.3281 68.3973 51.7681C69.7432 50.2845 71.3873 49.5428 73.3296 49.5428C74.6449 49.5428 75.6773 49.6345 76.4267 49.8181C76.7326 49.8792 77.2984 50.0704 78.1243 50.3916V53.9934H77.4361C77.329 52.6628 76.962 51.6916 76.3349 51.0798C75.7079 50.4681 74.7443 50.1928 73.4443 50.2539C70.462 50.4375 68.9708 52.9457 68.9708 57.7787C68.9708 59.9657 69.3608 61.7475 70.1408 63.1239C70.9208 64.4851 71.9608 65.1734 73.2608 65.1887C74.0255 65.2039 74.859 65.0357 75.7614 64.6839C76.5567 64.4087 76.9926 64.1334 77.069 63.8581C77.1455 63.7051 77.1837 63.3992 77.1837 62.9404V60.2104H74.5914V59.4763H79.9137ZM96.8286 64.4545L92.4468 58.1916H91.0474L91.0933 64.9822H93.2268V65.6934H86.8491V64.9822H88.9827V50.5981H86.8491V49.8869H93.8003C95.6509 49.8869 97.058 50.2539 98.0215 50.9881C98.985 51.7222 99.4668 52.701 99.4668 53.9245C99.4668 55.1481 99.0386 56.1422 98.1821 56.9069C97.3562 57.5951 96.2703 57.9851 94.9244 58.0769L99.6274 64.4545C99.8721 64.7604 100.415 64.9516 101.256 65.0281V65.7163C100.14 65.6704 98.3733 65.6704 95.9568 65.7163L95.9797 64.9822H96.6221C96.8362 64.9363 96.9433 64.8598 96.9433 64.7528C96.9433 64.6304 96.905 64.531 96.8286 64.4545ZM93.0433 57.5263C95.8268 57.5263 97.188 56.3257 97.1268 53.9245C97.0656 51.7069 95.865 50.5981 93.525 50.5981H91.0933L91.0474 57.5263H93.0433ZM122.849 64.9822V65.6934H116.884V64.9822H118.719L117.159 60.4628H111.63L110.759 62.5275C110.483 63.231 110.346 63.751 110.346 64.0875C110.346 64.4087 110.391 64.6381 110.483 64.7757C110.575 64.9134 111.057 64.9822 111.929 64.9822V65.6934H106.927V64.9822C107.723 64.9975 108.296 64.8981 108.648 64.6839C109.015 64.4545 109.413 63.7357 109.841 62.5275L114.819 49.451H115.737L121.151 64.9822H122.849ZM111.951 59.591H116.838L114.567 52.8692L111.951 59.591ZM139.688 60.6463C139.688 62.4204 138.977 63.7739 137.555 64.7069C136.331 65.5175 134.794 65.9228 132.944 65.9228C131.827 65.9228 130.581 65.6628 129.204 65.1428L129.227 61.4951H129.915C130.007 62.7034 130.367 63.5751 130.994 64.1104C131.284 64.3551 131.713 64.5616 132.278 64.7298C132.844 64.8981 133.357 64.9745 133.815 64.9592C134.871 64.9439 135.796 64.661 136.591 64.1104C137.371 63.5445 137.777 62.7875 137.807 61.8392C137.807 60.8451 137.455 60.0498 136.752 59.4534C136.064 58.8569 135.108 58.4898 133.884 58.3522C130.627 57.9545 128.998 56.5934 128.998 54.2687C128.998 52.6475 129.617 51.4163 130.856 50.5751C131.911 49.841 133.196 49.4739 134.71 49.4739C135.154 49.4739 135.681 49.5428 136.293 49.6804C136.905 49.8028 137.295 49.8639 137.463 49.8639C137.647 49.8639 137.769 49.7492 137.83 49.5198H138.473V53.6263H137.784C137.677 52.4945 137.333 51.6763 136.752 51.1716C136.186 50.6669 135.337 50.4222 134.205 50.4375C131.973 50.4681 130.871 51.4698 130.902 53.4428C130.933 55.2016 132.156 56.2034 134.573 56.4481C137.983 56.8151 139.688 58.2145 139.688 60.6463ZM156.497 60.6463C156.497 62.4204 155.786 63.7739 154.364 64.7069C153.14 65.5175 151.603 65.9228 149.753 65.9228C148.636 65.9228 147.39 65.6628 146.013 65.1428L146.036 61.4951H146.724C146.816 62.7034 147.176 63.5751 147.803 64.1104C148.093 64.3551 148.521 64.5616 149.087 64.7298C149.653 64.8981 150.166 64.9745 150.624 64.9592C151.68 64.9439 152.605 64.661 153.4 64.1104C154.18 63.5445 154.586 62.7875 154.616 61.8392C154.616 60.8451 154.264 60.0498 153.561 59.4534C152.873 58.8569 151.917 58.4898 150.693 58.3522C147.436 57.9545 145.807 56.5934 145.807 54.2687C145.807 52.6475 146.426 51.4163 147.665 50.5751C148.72 49.841 150.005 49.4739 151.519 49.4739C151.963 49.4739 152.49 49.5428 153.102 49.6804C153.714 49.8028 154.104 49.8639 154.272 49.8639C154.456 49.8639 154.578 49.7492 154.639 49.5198H155.281V53.6263H154.593C154.486 52.4945 154.142 51.6763 153.561 51.1716C152.995 50.6669 152.146 50.4222 151.014 50.4375C148.781 50.4681 147.68 51.4698 147.711 53.4428C147.741 55.2016 148.965 56.2034 151.381 56.4481C154.792 56.8151 156.497 58.2145 156.497 60.6463Z" fill="#134B93"/>
<path d="M82.5093 75.1323H84.2528V75.4822H82.5093V75.1323ZM82.5781 76.8242H82.1652V73.5838H84.4536V73.9279H82.5781V76.8242ZM85.4507 76.8242L86.9476 73.5838H87.3548L88.8517 76.8242H88.4388L87.0795 73.8075H87.2229L85.8579 76.8242H85.4507ZM86.0816 75.9869L86.202 75.6542H88.0488L88.1692 75.9869H86.0816ZM92.5949 75.941C92.5949 76.1207 92.5452 76.2794 92.4458 76.417C92.3502 76.5547 92.2087 76.6636 92.0214 76.7439C91.8379 76.8204 91.6104 76.8586 91.3389 76.8586C91.0904 76.8586 90.8514 76.8204 90.622 76.7439C90.3964 76.6675 90.2186 76.57 90.0886 76.4514L90.2607 76.1302C90.3792 76.2411 90.5359 76.3329 90.7309 76.4055C90.9298 76.4744 91.1362 76.5088 91.3504 76.5088C91.6486 76.5088 91.8608 76.4572 91.987 76.3539C92.117 76.2469 92.182 76.1207 92.182 75.9754C92.182 75.853 92.1457 75.7575 92.073 75.6886C92.0004 75.616 91.9048 75.5586 91.7862 75.5166C91.6677 75.4707 91.5377 75.4325 91.3962 75.4019C91.2548 75.3713 91.1133 75.3369 90.9718 75.2986C90.8304 75.2604 90.6984 75.2088 90.5761 75.1438C90.4576 75.0788 90.362 74.9927 90.2893 74.8857C90.2205 74.7786 90.1861 74.6372 90.1861 74.4613C90.1861 74.2854 90.2339 74.1286 90.3295 73.991C90.4251 73.8533 90.5646 73.7444 90.7482 73.6641C90.9317 73.5838 91.1573 73.5436 91.4249 73.5436C91.6161 73.5436 91.8034 73.5685 91.987 73.6182C92.1743 73.6641 92.3349 73.7348 92.4687 73.8304L92.3196 74.163C92.182 74.0675 92.0348 74.0005 91.878 73.9623C91.7212 73.9202 91.5664 73.8992 91.4134 73.8992C91.1305 73.8992 90.9221 73.9527 90.7883 74.0598C90.6583 74.163 90.5933 74.2911 90.5933 74.4441C90.5933 74.5664 90.6296 74.6639 90.7023 74.7366C90.7749 74.8054 90.8705 74.8627 90.989 74.9086C91.1076 74.9507 91.2376 74.987 91.379 75.0176C91.5243 75.0482 91.6677 75.0826 91.8092 75.1208C91.9507 75.1591 92.0807 75.2107 92.1992 75.2757C92.3177 75.3369 92.4133 75.421 92.4859 75.528C92.5586 75.6351 92.5949 75.7727 92.5949 75.941ZM94.4212 76.8242V73.5838H94.8342V75.0061H96.8014V73.5838H97.2143V76.8242H96.8014V75.356H94.8342V76.8242H94.4212ZM99.3953 76.8242V73.5838H99.8082V76.8242H99.3953ZM103.4 76.8586C103.071 76.8586 102.775 76.7879 102.511 76.6464C102.247 76.5011 102.039 76.3042 101.886 76.0557C101.737 75.8033 101.662 75.5185 101.662 75.2011C101.662 74.8838 101.737 74.6008 101.886 74.3523C102.039 74.1038 102.247 73.9069 102.511 73.7616C102.775 73.6163 103.071 73.5436 103.4 73.5436C103.732 73.5436 104.029 73.6163 104.289 73.7616C104.553 73.9069 104.759 74.1038 104.908 74.3523C105.061 74.6008 105.138 74.8838 105.138 75.2011C105.138 75.5185 105.061 75.8033 104.908 76.0557C104.759 76.3042 104.553 76.5011 104.289 76.6464C104.029 76.7879 103.732 76.8586 103.4 76.8586ZM103.4 76.503C103.656 76.503 103.883 76.4476 104.082 76.3367C104.281 76.222 104.438 76.0672 104.553 75.8722C104.667 75.6733 104.725 75.4497 104.725 75.2011C104.725 74.9526 104.665 74.7308 104.547 74.5358C104.432 74.3408 104.275 74.1879 104.077 74.077C103.882 73.9623 103.656 73.905 103.4 73.905C103.147 73.905 102.92 73.9623 102.717 74.077C102.518 74.1879 102.362 74.3408 102.247 74.5358C102.132 74.7308 102.075 74.9526 102.075 75.2011C102.075 75.4497 102.132 75.6733 102.247 75.8722C102.362 76.0672 102.518 76.222 102.717 76.3367C102.92 76.4476 103.147 76.503 103.4 76.503ZM106.991 76.8242V73.5838H107.329L109.532 76.3138H109.371V73.5838H109.784V76.8242H109.44L107.238 74.0885H107.404V76.8242H106.991ZM114.785 75.1323H116.529V75.4822H114.785V75.1323ZM114.854 76.8242H114.441V73.5838H116.729V73.9279H114.854V76.8242ZM119.868 76.8586C119.539 76.8586 119.243 76.7879 118.979 76.6464C118.715 76.5011 118.507 76.3042 118.354 76.0557C118.205 75.8033 118.13 75.5185 118.13 75.2011C118.13 74.8838 118.205 74.6008 118.354 74.3523C118.507 74.1038 118.715 73.9069 118.979 73.7616C119.243 73.6163 119.539 73.5436 119.868 73.5436C120.201 73.5436 120.497 73.6163 120.757 73.7616C121.021 73.9069 121.227 74.1038 121.377 74.3523C121.529 74.6008 121.606 74.8838 121.606 75.2011C121.606 75.5185 121.529 75.8033 121.377 76.0557C121.227 76.3042 121.021 76.5011 120.757 76.6464C120.497 76.7879 120.201 76.8586 119.868 76.8586ZM119.868 76.503C120.124 76.503 120.352 76.4476 120.551 76.3367C120.749 76.222 120.906 76.0672 121.021 75.8722C121.136 75.6733 121.193 75.4497 121.193 75.2011C121.193 74.9526 121.134 74.7308 121.015 74.5358C120.901 74.3408 120.744 74.1879 120.545 74.077C120.35 73.9623 120.124 73.905 119.868 73.905C119.616 73.905 119.388 73.9623 119.186 74.077C118.987 74.1879 118.83 74.3408 118.715 74.5358C118.601 74.7308 118.543 74.9526 118.543 75.2011C118.543 75.4497 118.601 75.6733 118.715 75.8722C118.83 76.0672 118.987 76.222 119.186 76.3367C119.388 76.4476 119.616 76.503 119.868 76.503ZM123.459 76.8242V73.5838H124.715C124.998 73.5838 125.239 73.6277 125.438 73.7157C125.641 73.8036 125.797 73.9317 125.908 74.1C126.019 74.2644 126.075 74.4651 126.075 74.7022C126.075 74.9316 126.019 75.1304 125.908 75.2986C125.797 75.4669 125.641 75.595 125.438 75.6829C125.239 75.7708 124.998 75.8148 124.715 75.8148H123.689L123.872 75.6313V76.8242H123.459ZM125.679 76.8242L124.83 75.6485H125.283L126.126 76.8242H125.679ZM123.872 75.6714L123.712 75.4764H124.698C125.012 75.4764 125.251 75.4095 125.415 75.2757C125.579 75.138 125.662 74.9469 125.662 74.7022C125.662 74.4536 125.579 74.2625 125.415 74.1286C125.251 73.9948 125.012 73.9279 124.698 73.9279H123.712L123.872 73.7329V75.6714ZM129.899 76.8242L131.395 73.5838H131.803L133.3 76.8242H132.887L131.527 73.8075H131.671L130.306 76.8242H129.899ZM130.529 75.9869L130.65 75.6542H132.497L132.617 75.9869H130.529ZM134.892 76.8242V73.5838H135.305V76.4801H137.112V76.8242H134.892ZM138.735 76.8242V73.5838H139.148V76.4801H140.954V76.8242H138.735Z" fill="#134B93"/>
<g filter="url(#filter0_d_438_2581)">
<rect x="27.3286" y="92.5469" width="195" height="120.319" rx="3.58456" transform="rotate(11.18 27.3286 92.5469)" fill="white"/>
<g clip-path="url(#clip0_438_2581)">
<rect x="45.2739" y="131.17" width="51.6176" height="51.6176" rx="3.58456" transform="rotate(11.18 45.2739 131.17)" fill="white"/>
<rect x="47.96" y="135.18" width="2.13296" height="2.13296" transform="rotate(11.18 47.96 135.18)" fill="#134B93"/>
<rect x="50.0532" y="135.594" width="2.13296" height="2.13296" transform="rotate(11.18 50.0532 135.594)" fill="#134B93"/>
<rect x="52.144" y="136.006" width="2.13296" height="2.13296" transform="rotate(11.18 52.144 136.006)" fill="#134B93"/>
<rect x="54.2373" y="136.42" width="2.13296" height="2.13296" transform="rotate(11.18 54.2373 136.42)" fill="#134B93"/>
<rect x="56.3311" y="136.834" width="2.13296" height="2.13296" transform="rotate(11.18 56.3311 136.834)" fill="#134B93"/>
<rect x="58.4219" y="137.248" width="2.13296" height="2.13296" transform="rotate(11.18 58.4219 137.248)" fill="#134B93"/>
<rect x="60.5151" y="137.66" width="2.13296" height="2.13296" transform="rotate(11.18 60.5151 137.66)" fill="#134B93"/>
<rect x="68.8862" y="139.316" width="2.13296" height="2.13296" transform="rotate(11.18 68.8862 139.316)" fill="#134B93"/>
<rect x="70.9766" y="139.729" width="2.13296" height="2.13296" transform="rotate(11.18 70.9766 139.729)" fill="#134B93"/>
<rect x="73.0703" y="140.143" width="2.13296" height="2.13296" transform="rotate(11.18 73.0703 140.143)" fill="#134B93"/>
<rect x="77.2544" y="140.969" width="2.13296" height="2.13296" transform="rotate(11.18 77.2544 140.969)" fill="#134B93"/>
<rect x="79.3477" y="141.383" width="2.13296" height="2.13296" transform="rotate(11.18 79.3477 141.383)" fill="#134B93"/>
<rect x="81.4385" y="141.797" width="2.13296" height="2.13296" transform="rotate(11.18 81.4385 141.797)" fill="#134B93"/>
<rect x="83.5317" y="142.211" width="2.13296" height="2.13296" transform="rotate(11.18 83.5317 142.211)" fill="#134B93"/>
<rect x="85.6255" y="142.623" width="2.13296" height="2.13296" transform="rotate(11.18 85.6255 142.623)" fill="#134B93"/>
<rect x="87.7158" y="143.037" width="2.13296" height="2.13296" transform="rotate(11.18 87.7158 143.037)" fill="#134B93"/>
<rect x="89.8096" y="143.451" width="2.13296" height="2.13296" transform="rotate(11.18 89.8096 143.451)" fill="#134B93"/>
<rect x="47.5464" y="137.271" width="2.13296" height="2.13296" transform="rotate(11.18 47.5464 137.271)" fill="#134B93"/>
<rect x="60.1016" y="139.754" width="2.13296" height="2.13296" transform="rotate(11.18 60.1016 139.754)" fill="#134B93"/>
<rect x="64.2856" y="140.58" width="2.13296" height="2.13296" transform="rotate(11.18 64.2856 140.58)" fill="#134B93"/>
<rect x="66.3789" y="140.994" width="2.13296" height="2.13296" transform="rotate(11.18 66.3789 140.994)" fill="#134B93"/>
<rect x="68.4727" y="141.408" width="2.13296" height="2.13296" transform="rotate(11.18 68.4727 141.408)" fill="#134B93"/>
<rect x="72.6567" y="142.234" width="2.13296" height="2.13296" transform="rotate(11.18 72.6567 142.234)" fill="#134B93"/>
<rect x="76.8408" y="143.062" width="2.13296" height="2.13296" transform="rotate(11.18 76.8408 143.062)" fill="#134B93"/>
<rect x="89.396" y="145.543" width="2.13296" height="2.13296" transform="rotate(11.18 89.396 145.543)" fill="#134B93"/>
<rect x="47.1328" y="139.365" width="2.13296" height="2.13296" transform="rotate(11.18 47.1328 139.365)" fill="#134B93"/>
<rect x="51.3169" y="140.191" width="2.13296" height="2.13296" transform="rotate(11.18 51.3169 140.191)" fill="#134B93"/>
<rect x="53.4106" y="140.605" width="2.13296" height="2.13296" transform="rotate(11.18 53.4106 140.605)" fill="#134B93"/>
<rect x="55.5039" y="141.02" width="2.13296" height="2.13296" transform="rotate(11.18 55.5039 141.02)" fill="#134B93"/>
<rect x="59.688" y="141.846" width="2.13296" height="2.13296" transform="rotate(11.18 59.688 141.846)" fill="#134B93"/>
<rect x="68.0591" y="143.5" width="2.13296" height="2.13296" transform="rotate(11.18 68.0591 143.5)" fill="#134B93"/>
<rect x="70.1499" y="143.914" width="2.13296" height="2.13296" transform="rotate(11.18 70.1499 143.914)" fill="#134B93"/>
<rect x="72.2432" y="144.328" width="2.13296" height="2.13296" transform="rotate(11.18 72.2432 144.328)" fill="#134B93"/>
<rect x="76.4272" y="145.154" width="2.13296" height="2.13296" transform="rotate(11.18 76.4272 145.154)" fill="#134B93"/>
<rect x="80.6113" y="145.98" width="2.13296" height="2.13296" transform="rotate(11.18 80.6113 145.98)" fill="#134B93"/>
<rect x="82.7046" y="146.395" width="2.13296" height="2.13296" transform="rotate(11.18 82.7046 146.395)" fill="#134B93"/>
<rect x="84.7983" y="146.809" width="2.13296" height="2.13296" transform="rotate(11.18 84.7983 146.809)" fill="#134B93"/>
<rect x="88.9824" y="147.637" width="2.13296" height="2.13296" transform="rotate(11.18 88.9824 147.637)" fill="#134B93"/>
<rect x="46.7192" y="141.457" width="2.13296" height="2.13296" transform="rotate(11.18 46.7192 141.457)" fill="#134B93"/>
<rect x="50.9033" y="142.285" width="2.13296" height="2.13296" transform="rotate(11.18 50.9033 142.285)" fill="#134B93"/>
<rect x="52.9966" y="142.697" width="2.13296" height="2.13296" transform="rotate(11.18 52.9966 142.697)" fill="#134B93"/>
<rect x="55.0903" y="143.111" width="2.13296" height="2.13296" transform="rotate(11.18 55.0903 143.111)" fill="#134B93"/>
<rect x="59.2744" y="143.939" width="2.13296" height="2.13296" transform="rotate(11.18 59.2744 143.939)" fill="#134B93"/>
<rect x="63.4585" y="144.766" width="2.13296" height="2.13296" transform="rotate(11.18 63.4585 144.766)" fill="#134B93"/>
<rect x="65.5518" y="145.18" width="2.13296" height="2.13296" transform="rotate(11.18 65.5518 145.18)" fill="#134B93"/>
<rect x="71.8296" y="146.42" width="2.13296" height="2.13296" transform="rotate(11.18 71.8296 146.42)" fill="#134B93"/>
<rect x="76.0137" y="147.246" width="2.13296" height="2.13296" transform="rotate(11.18 76.0137 147.246)" fill="#134B93"/>
<rect x="80.1978" y="148.074" width="2.13296" height="2.13296" transform="rotate(11.18 80.1978 148.074)" fill="#134B93"/>
<rect x="82.291" y="148.488" width="2.13296" height="2.13296" transform="rotate(11.18 82.291 148.488)" fill="#134B93"/>
<rect x="84.3848" y="148.902" width="2.13296" height="2.13296" transform="rotate(11.18 84.3848 148.902)" fill="#134B93"/>
<rect x="88.5688" y="149.729" width="2.13296" height="2.13296" transform="rotate(11.18 88.5688 149.729)" fill="#134B93"/>
<rect x="46.3057" y="143.549" width="2.13296" height="2.13296" transform="rotate(11.18 46.3057 143.549)" fill="#134B93"/>
<rect x="50.4897" y="144.377" width="2.13296" height="2.13296" transform="rotate(11.18 50.4897 144.377)" fill="#134B93"/>
<rect x="52.5835" y="144.791" width="2.13296" height="2.13296" transform="rotate(11.18 52.5835 144.791)" fill="#134B93"/>
<rect x="54.6768" y="145.205" width="2.13296" height="2.13296" transform="rotate(11.18 54.6768 145.205)" fill="#134B93"/>
<rect x="58.8608" y="146.031" width="2.13296" height="2.13296" transform="rotate(11.18 58.8608 146.031)" fill="#134B93"/>
<rect x="65.1382" y="147.271" width="2.13296" height="2.13296" transform="rotate(11.18 65.1382 147.271)" fill="#134B93"/>
<rect x="71.416" y="148.512" width="2.13296" height="2.13296" transform="rotate(11.18 71.416 148.512)" fill="#134B93"/>
<rect x="75.6001" y="149.34" width="2.13296" height="2.13296" transform="rotate(11.18 75.6001 149.34)" fill="#134B93"/>
<rect x="79.7842" y="150.166" width="2.13296" height="2.13296" transform="rotate(11.18 79.7842 150.166)" fill="#134B93"/>
<rect x="81.8774" y="150.58" width="2.13296" height="2.13296" transform="rotate(11.18 81.8774 150.58)" fill="#134B93"/>
<rect x="83.9712" y="150.994" width="2.13296" height="2.13296" transform="rotate(11.18 83.9712 150.994)" fill="#134B93"/>
<rect x="88.1553" y="151.82" width="2.13296" height="2.13296" transform="rotate(11.18 88.1553 151.82)" fill="#134B93"/>
<rect x="45.8921" y="145.643" width="2.13296" height="2.13296" transform="rotate(11.18 45.8921 145.643)" fill="#134B93"/>
<rect x="58.4473" y="148.123" width="2.13296" height="2.13296" transform="rotate(11.18 58.4473 148.123)" fill="#134B93"/>
<rect x="62.6313" y="148.951" width="2.13296" height="2.13296" transform="rotate(11.18 62.6313 148.951)" fill="#134B93"/>
<rect x="68.9092" y="150.191" width="2.13296" height="2.13296" transform="rotate(11.18 68.9092 150.191)" fill="#134B93"/>
<rect x="75.1865" y="151.432" width="2.13296" height="2.13296" transform="rotate(11.18 75.1865 151.432)" fill="#134B93"/>
<rect x="87.7417" y="153.914" width="2.13296" height="2.13296" transform="rotate(11.18 87.7417 153.914)" fill="#134B93"/>
<rect x="45.4785" y="147.734" width="2.13296" height="2.13296" transform="rotate(11.18 45.4785 147.734)" fill="#134B93"/>
<rect x="47.5723" y="148.148" width="2.13296" height="2.13296" transform="rotate(11.18 47.5723 148.148)" fill="#134B93"/>
<rect x="49.6626" y="148.561" width="2.13296" height="2.13296" transform="rotate(11.18 49.6626 148.561)" fill="#134B93"/>
<rect x="51.7563" y="148.975" width="2.13296" height="2.13296" transform="rotate(11.18 51.7563 148.975)" fill="#134B93"/>
<rect x="53.8496" y="149.389" width="2.13296" height="2.13296" transform="rotate(11.18 53.8496 149.389)" fill="#134B93"/>
<rect x="55.9404" y="149.803" width="2.13296" height="2.13296" transform="rotate(11.18 55.9404 149.803)" fill="#134B93"/>
<rect x="58.0337" y="150.217" width="2.13296" height="2.13296" transform="rotate(11.18 58.0337 150.217)" fill="#134B93"/>
<rect x="62.2178" y="151.043" width="2.13296" height="2.13296" transform="rotate(11.18 62.2178 151.043)" fill="#134B93"/>
<rect x="66.4048" y="151.871" width="2.13296" height="2.13296" transform="rotate(11.18 66.4048 151.871)" fill="#134B93"/>
<rect x="70.5889" y="152.697" width="2.13296" height="2.13296" transform="rotate(11.18 70.5889 152.697)" fill="#134B93"/>
<rect x="74.7729" y="153.523" width="2.13296" height="2.13296" transform="rotate(11.18 74.7729 153.523)" fill="#134B93"/>
<rect x="76.8662" y="153.938" width="2.13296" height="2.13296" transform="rotate(11.18 76.8662 153.938)" fill="#134B93"/>
<rect x="78.957" y="154.352" width="2.13296" height="2.13296" transform="rotate(11.18 78.957 154.352)" fill="#134B93"/>
<rect x="81.0508" y="154.766" width="2.13296" height="2.13296" transform="rotate(11.18 81.0508 154.766)" fill="#134B93"/>
<rect x="83.144" y="155.18" width="2.13296" height="2.13296" transform="rotate(11.18 83.144 155.18)" fill="#134B93"/>
<rect x="85.2349" y="155.592" width="2.13296" height="2.13296" transform="rotate(11.18 85.2349 155.592)" fill="#134B93"/>
<rect x="87.3281" y="156.006" width="2.13296" height="2.13296" transform="rotate(11.18 87.3281 156.006)" fill="#134B93"/>
<rect x="63.8975" y="153.549" width="2.13296" height="2.13296" transform="rotate(11.18 63.8975 153.549)" fill="#134B93"/>
<rect x="44.6514" y="151.92" width="2.13296" height="2.13296" transform="rotate(11.18 44.6514 151.92)" fill="#134B93"/>
<rect x="46.7446" y="152.334" width="2.13296" height="2.13296" transform="rotate(11.18 46.7446 152.334)" fill="#134B93"/>
<rect x="48.8354" y="152.746" width="2.13296" height="2.13296" transform="rotate(11.18 48.8354 152.746)" fill="#134B93"/>
<rect x="50.9292" y="153.16" width="2.13296" height="2.13296" transform="rotate(11.18 50.9292 153.16)" fill="#134B93"/>
<rect x="53.0225" y="153.574" width="2.13296" height="2.13296" transform="rotate(11.18 53.0225 153.574)" fill="#134B93"/>
<rect x="57.2065" y="154.4" width="2.13296" height="2.13296" transform="rotate(11.18 57.2065 154.4)" fill="#134B93"/>
<rect x="59.2998" y="154.814" width="2.13296" height="2.13296" transform="rotate(11.18 59.2998 154.814)" fill="#134B93"/>
<rect x="61.3906" y="155.229" width="2.13296" height="2.13296" transform="rotate(11.18 61.3906 155.229)" fill="#134B93"/>
<rect x="67.6685" y="156.469" width="2.13296" height="2.13296" transform="rotate(11.18 67.6685 156.469)" fill="#134B93"/>
<rect x="71.8525" y="157.295" width="2.13296" height="2.13296" transform="rotate(11.18 71.8525 157.295)" fill="#134B93"/>
<rect x="76.0391" y="158.123" width="2.13296" height="2.13296" transform="rotate(11.18 76.0391 158.123)" fill="#134B93"/>
<rect x="80.2231" y="158.949" width="2.13296" height="2.13296" transform="rotate(11.18 80.2231 158.949)" fill="#134B93"/>
<rect x="84.4077" y="159.777" width="2.13296" height="2.13296" transform="rotate(11.18 84.4077 159.777)" fill="#134B93"/>
<rect x="44.2378" y="154.012" width="2.13296" height="2.13296" transform="rotate(11.18 44.2378 154.012)" fill="#134B93"/>
<rect x="48.4219" y="154.84" width="2.13296" height="2.13296" transform="rotate(11.18 48.4219 154.84)" fill="#134B93"/>
<rect x="60.9771" y="157.32" width="2.13296" height="2.13296" transform="rotate(11.18 60.9771 157.32)" fill="#134B93"/>
<rect x="63.0708" y="157.734" width="2.13296" height="2.13296" transform="rotate(11.18 63.0708 157.734)" fill="#134B93"/>
<rect x="67.2549" y="158.561" width="2.13296" height="2.13296" transform="rotate(11.18 67.2549 158.561)" fill="#134B93"/>
<rect x="69.3481" y="158.975" width="2.13296" height="2.13296" transform="rotate(11.18 69.3481 158.975)" fill="#134B93"/>
<rect x="71.439" y="159.389" width="2.13296" height="2.13296" transform="rotate(11.18 71.439 159.389)" fill="#134B93"/>
<rect x="73.5322" y="159.803" width="2.13296" height="2.13296" transform="rotate(11.18 73.5322 159.803)" fill="#134B93"/>
<rect x="79.8101" y="161.043" width="2.13296" height="2.13296" transform="rotate(11.18 79.8101 161.043)" fill="#134B93"/>
<rect x="81.9033" y="161.457" width="2.13296" height="2.13296" transform="rotate(11.18 81.9033 161.457)" fill="#134B93"/>
<rect x="86.0874" y="162.283" width="2.13296" height="2.13296" transform="rotate(11.18 86.0874 162.283)" fill="#134B93"/>
<rect x="52.1953" y="157.76" width="2.13296" height="2.13296" transform="rotate(11.18 52.1953 157.76)" fill="#134B93"/>
<rect x="56.3794" y="158.586" width="2.13296" height="2.13296" transform="rotate(11.18 56.3794 158.586)" fill="#134B93"/>
<rect x="60.5635" y="159.412" width="2.13296" height="2.13296" transform="rotate(11.18 60.5635 159.412)" fill="#134B93"/>
<rect x="62.6572" y="159.826" width="2.13296" height="2.13296" transform="rotate(11.18 62.6572 159.826)" fill="#134B93"/>
<rect x="68.9346" y="161.066" width="2.13296" height="2.13296" transform="rotate(11.18 68.9346 161.066)" fill="#134B93"/>
<rect x="73.1187" y="161.895" width="2.13296" height="2.13296" transform="rotate(11.18 73.1187 161.895)" fill="#134B93"/>
<rect x="75.2119" y="162.309" width="2.13296" height="2.13296" transform="rotate(11.18 75.2119 162.309)" fill="#134B93"/>
<rect x="79.3965" y="163.135" width="2.13296" height="2.13296" transform="rotate(11.18 79.3965 163.135)" fill="#134B93"/>
<rect x="83.5806" y="163.963" width="2.13296" height="2.13296" transform="rotate(11.18 83.5806 163.963)" fill="#134B93"/>
<rect x="43.4106" y="158.197" width="2.13296" height="2.13296" transform="rotate(11.18 43.4106 158.197)" fill="#134B93"/>
<rect x="53.8726" y="160.264" width="2.13296" height="2.13296" transform="rotate(11.18 53.8726 160.264)" fill="#134B93"/>
<rect x="58.0596" y="161.092" width="2.13296" height="2.13296" transform="rotate(11.18 58.0596 161.092)" fill="#134B93"/>
<rect x="64.3369" y="162.332" width="2.13296" height="2.13296" transform="rotate(11.18 64.3369 162.332)" fill="#134B93"/>
<rect x="66.4277" y="162.746" width="2.13296" height="2.13296" transform="rotate(11.18 66.4277 162.746)" fill="#134B93"/>
<rect x="68.521" y="163.16" width="2.13296" height="2.13296" transform="rotate(11.18 68.521 163.16)" fill="#134B93"/>
<rect x="70.6118" y="163.572" width="2.13296" height="2.13296" transform="rotate(11.18 70.6118 163.572)" fill="#134B93"/>
<rect x="72.7051" y="163.986" width="2.13296" height="2.13296" transform="rotate(11.18 72.7051 163.986)" fill="#134B93"/>
<rect x="78.9829" y="165.227" width="2.13296" height="2.13296" transform="rotate(11.18 78.9829 165.227)" fill="#134B93"/>
<rect x="81.0762" y="165.641" width="2.13296" height="2.13296" transform="rotate(11.18 81.0762 165.641)" fill="#134B93"/>
<rect x="83.167" y="166.055" width="2.13296" height="2.13296" transform="rotate(11.18 83.167 166.055)" fill="#134B93"/>
<rect x="85.2603" y="166.469" width="2.13296" height="2.13296" transform="rotate(11.18 85.2603 166.469)" fill="#134B93"/>
<rect x="42.9971" y="160.289" width="2.13296" height="2.13296" transform="rotate(11.18 42.9971 160.289)" fill="#134B93"/>
<rect x="45.0908" y="160.703" width="2.13296" height="2.13296" transform="rotate(11.18 45.0908 160.703)" fill="#134B93"/>
<rect x="55.5522" y="162.771" width="2.13296" height="2.13296" transform="rotate(11.18 55.5522 162.771)" fill="#134B93"/>
<rect x="61.8301" y="164.012" width="2.13296" height="2.13296" transform="rotate(11.18 61.8301 164.012)" fill="#134B93"/>
<rect x="68.1074" y="165.252" width="2.13296" height="2.13296" transform="rotate(11.18 68.1074 165.252)" fill="#134B93"/>
<rect x="74.3848" y="166.494" width="2.13296" height="2.13296" transform="rotate(11.18 74.3848 166.494)" fill="#134B93"/>
<rect x="82.7534" y="168.146" width="2.13296" height="2.13296" transform="rotate(11.18 82.7534 168.146)" fill="#134B93"/>
<rect x="59.3228" y="165.689" width="2.13296" height="2.13296" transform="rotate(11.18 59.3228 165.689)" fill="#134B93"/>
<rect x="63.5098" y="166.518" width="2.13296" height="2.13296" transform="rotate(11.18 63.5098 166.518)" fill="#134B93"/>
<rect x="67.6938" y="167.346" width="2.13296" height="2.13296" transform="rotate(11.18 67.6938 167.346)" fill="#134B93"/>
<rect x="73.9717" y="168.586" width="2.13296" height="2.13296" transform="rotate(11.18 73.9717 168.586)" fill="#134B93"/>
<rect x="78.1558" y="169.412" width="2.13296" height="2.13296" transform="rotate(11.18 78.1558 169.412)" fill="#134B93"/>
<rect x="80.249" y="169.826" width="2.13296" height="2.13296" transform="rotate(11.18 80.249 169.826)" fill="#134B93"/>
<rect x="84.4331" y="170.652" width="2.13296" height="2.13296" transform="rotate(11.18 84.4331 170.652)" fill="#134B93"/>
<rect x="42.1699" y="164.475" width="2.13296" height="2.13296" transform="rotate(11.18 42.1699 164.475)" fill="#134B93"/>
<rect x="44.2637" y="164.889" width="2.13296" height="2.13296" transform="rotate(11.18 44.2637 164.889)" fill="#134B93"/>
<rect x="46.354" y="165.301" width="2.13296" height="2.13296" transform="rotate(11.18 46.354 165.301)" fill="#134B93"/>
<rect x="48.4478" y="165.715" width="2.13296" height="2.13296" transform="rotate(11.18 48.4478 165.715)" fill="#134B93"/>
<rect x="50.541" y="166.129" width="2.13296" height="2.13296" transform="rotate(11.18 50.541 166.129)" fill="#134B93"/>
<rect x="52.6318" y="166.543" width="2.13296" height="2.13296" transform="rotate(11.18 52.6318 166.543)" fill="#134B93"/>
<rect x="54.7251" y="166.955" width="2.13296" height="2.13296" transform="rotate(11.18 54.7251 166.955)" fill="#134B93"/>
<rect x="58.9092" y="167.783" width="2.13296" height="2.13296" transform="rotate(11.18 58.9092 167.783)" fill="#134B93"/>
<rect x="61.0029" y="168.197" width="2.13296" height="2.13296" transform="rotate(11.18 61.0029 168.197)" fill="#134B93"/>
<rect x="63.0962" y="168.609" width="2.13296" height="2.13296" transform="rotate(11.18 63.0962 168.609)" fill="#134B93"/>
<rect x="65.187" y="169.023" width="2.13296" height="2.13296" transform="rotate(11.18 65.187 169.023)" fill="#134B93"/>
<rect x="69.3711" y="169.85" width="2.13296" height="2.13296" transform="rotate(11.18 69.3711 169.85)" fill="#134B93"/>
<rect x="75.6484" y="171.092" width="2.13296" height="2.13296" transform="rotate(11.18 75.6484 171.092)" fill="#134B93"/>
<rect x="77.7422" y="171.506" width="2.13296" height="2.13296" transform="rotate(11.18 77.7422 171.506)" fill="#134B93"/>
<rect x="81.9263" y="172.332" width="2.13296" height="2.13296" transform="rotate(11.18 81.9263 172.332)" fill="#134B93"/>
<rect x="41.7563" y="166.566" width="2.13296" height="2.13296" transform="rotate(11.18 41.7563 166.566)" fill="#134B93"/>
<rect x="54.3115" y="169.049" width="2.13296" height="2.13296" transform="rotate(11.18 54.3115 169.049)" fill="#134B93"/>
<rect x="73.1445" y="172.77" width="2.13296" height="2.13296" transform="rotate(11.18 73.1445 172.77)" fill="#134B93"/>
<rect x="75.2349" y="173.184" width="2.13296" height="2.13296" transform="rotate(11.18 75.2349 173.184)" fill="#134B93"/>
<rect x="77.3286" y="173.598" width="2.13296" height="2.13296" transform="rotate(11.18 77.3286 173.598)" fill="#134B93"/>
<rect x="79.4219" y="174.012" width="2.13296" height="2.13296" transform="rotate(11.18 79.4219 174.012)" fill="#134B93"/>
<rect x="81.5127" y="174.424" width="2.13296" height="2.13296" transform="rotate(11.18 81.5127 174.424)" fill="#134B93"/>
<rect x="41.3428" y="168.66" width="2.13296" height="2.13296" transform="rotate(11.18 41.3428 168.66)" fill="#134B93"/>
<rect x="45.5269" y="169.486" width="2.13296" height="2.13296" transform="rotate(11.18 45.5269 169.486)" fill="#134B93"/>
<rect x="47.6206" y="169.9" width="2.13296" height="2.13296" transform="rotate(11.18 47.6206 169.9)" fill="#134B93"/>
<rect x="49.7139" y="170.314" width="2.13296" height="2.13296" transform="rotate(11.18 49.7139 170.314)" fill="#134B93"/>
<rect x="53.8979" y="171.141" width="2.13296" height="2.13296" transform="rotate(11.18 53.8979 171.141)" fill="#134B93"/>
<rect x="58.082" y="171.969" width="2.13296" height="2.13296" transform="rotate(11.18 58.082 171.969)" fill="#134B93"/>
<rect x="60.1758" y="172.381" width="2.13296" height="2.13296" transform="rotate(11.18 60.1758 172.381)" fill="#134B93"/>
<rect x="62.269" y="172.795" width="2.13296" height="2.13296" transform="rotate(11.18 62.269 172.795)" fill="#134B93"/>
<rect x="64.3599" y="173.209" width="2.13296" height="2.13296" transform="rotate(11.18 64.3599 173.209)" fill="#134B93"/>
<rect x="68.5439" y="174.035" width="2.13296" height="2.13296" transform="rotate(11.18 68.5439 174.035)" fill="#134B93"/>
<rect x="74.8213" y="175.275" width="2.13296" height="2.13296" transform="rotate(11.18 74.8213 175.275)" fill="#134B93"/>
<rect x="81.0991" y="176.518" width="2.13296" height="2.13296" transform="rotate(11.18 81.0991 176.518)" fill="#134B93"/>
<rect x="40.9292" y="170.752" width="2.13296" height="2.13296" transform="rotate(11.18 40.9292 170.752)" fill="#134B93"/>
<rect x="45.1133" y="171.578" width="2.13296" height="2.13296" transform="rotate(11.18 45.1133 171.578)" fill="#134B93"/>
<rect x="47.207" y="171.992" width="2.13296" height="2.13296" transform="rotate(11.18 47.207 171.992)" fill="#134B93"/>
<rect x="49.3003" y="172.406" width="2.13296" height="2.13296" transform="rotate(11.18 49.3003 172.406)" fill="#134B93"/>
<rect x="53.4844" y="173.234" width="2.13296" height="2.13296" transform="rotate(11.18 53.4844 173.234)" fill="#134B93"/>
<rect x="57.6685" y="174.061" width="2.13296" height="2.13296" transform="rotate(11.18 57.6685 174.061)" fill="#134B93"/>
<rect x="59.7622" y="174.475" width="2.13296" height="2.13296" transform="rotate(11.18 59.7622 174.475)" fill="#134B93"/>
<rect x="63.9463" y="175.301" width="2.13296" height="2.13296" transform="rotate(11.18 63.9463 175.301)" fill="#134B93"/>
<rect x="66.0396" y="175.715" width="2.13296" height="2.13296" transform="rotate(11.18 66.0396 175.715)" fill="#134B93"/>
<rect x="68.1304" y="176.129" width="2.13296" height="2.13296" transform="rotate(11.18 68.1304 176.129)" fill="#134B93"/>
<rect x="70.2236" y="176.541" width="2.13296" height="2.13296" transform="rotate(11.18 70.2236 176.541)" fill="#134B93"/>
<rect x="72.3174" y="176.955" width="2.13296" height="2.13296" transform="rotate(11.18 72.3174 176.955)" fill="#134B93"/>
<rect x="76.5015" y="177.783" width="2.13296" height="2.13296" transform="rotate(11.18 76.5015 177.783)" fill="#134B93"/>
<rect x="78.5947" y="178.195" width="2.13296" height="2.13296" transform="rotate(11.18 78.5947 178.195)" fill="#134B93"/>
<rect x="40.5156" y="172.844" width="2.13296" height="2.13296" transform="rotate(11.18 40.5156 172.844)" fill="#134B93"/>
<rect x="44.6997" y="173.672" width="2.13296" height="2.13296" transform="rotate(11.18 44.6997 173.672)" fill="#134B93"/>
<rect x="46.7935" y="174.086" width="2.13296" height="2.13296" transform="rotate(11.18 46.7935 174.086)" fill="#134B93"/>
<rect x="48.8867" y="174.498" width="2.13296" height="2.13296" transform="rotate(11.18 48.8867 174.498)" fill="#134B93"/>
<rect x="53.0708" y="175.326" width="2.13296" height="2.13296" transform="rotate(11.18 53.0708 175.326)" fill="#134B93"/>
<rect x="57.2549" y="176.152" width="2.13296" height="2.13296" transform="rotate(11.18 57.2549 176.152)" fill="#134B93"/>
<rect x="61.4419" y="176.98" width="2.13296" height="2.13296" transform="rotate(11.18 61.4419 176.98)" fill="#134B93"/>
<rect x="65.626" y="177.807" width="2.13296" height="2.13296" transform="rotate(11.18 65.626 177.807)" fill="#134B93"/>
<rect x="69.8101" y="178.635" width="2.13296" height="2.13296" transform="rotate(11.18 69.8101 178.635)" fill="#134B93"/>
<rect x="71.9038" y="179.049" width="2.13296" height="2.13296" transform="rotate(11.18 71.9038 179.049)" fill="#134B93"/>
<rect x="76.0879" y="179.875" width="2.13296" height="2.13296" transform="rotate(11.18 76.0879 179.875)" fill="#134B93"/>
<rect x="40.1021" y="174.938" width="2.13296" height="2.13296" transform="rotate(11.18 40.1021 174.938)" fill="#134B93"/>
<rect x="52.6572" y="177.418" width="2.13296" height="2.13296" transform="rotate(11.18 52.6572 177.418)" fill="#134B93"/>
<rect x="56.8413" y="178.246" width="2.13296" height="2.13296" transform="rotate(11.18 56.8413 178.246)" fill="#134B93"/>
<rect x="63.1191" y="179.486" width="2.13296" height="2.13296" transform="rotate(11.18 63.1191 179.486)" fill="#134B93"/>
<rect x="65.2124" y="179.9" width="2.13296" height="2.13296" transform="rotate(11.18 65.2124 179.9)" fill="#134B93"/>
<rect x="67.3032" y="180.312" width="2.13296" height="2.13296" transform="rotate(11.18 67.3032 180.312)" fill="#134B93"/>
<rect x="69.3965" y="180.727" width="2.13296" height="2.13296" transform="rotate(11.18 69.3965 180.727)" fill="#134B93"/>
<rect x="73.5806" y="181.553" width="2.13296" height="2.13296" transform="rotate(11.18 73.5806 181.553)" fill="#134B93"/>
<rect x="75.6743" y="181.967" width="2.13296" height="2.13296" transform="rotate(11.18 75.6743 181.967)" fill="#134B93"/>
<rect x="77.7676" y="182.381" width="2.13296" height="2.13296" transform="rotate(11.18 77.7676 182.381)" fill="#134B93"/>
<rect x="39.6885" y="177.029" width="2.13296" height="2.13296" transform="rotate(11.18 39.6885 177.029)" fill="#134B93"/>
<rect x="41.7822" y="177.443" width="2.13296" height="2.13296" transform="rotate(11.18 41.7822 177.443)" fill="#134B93"/>
<rect x="43.873" y="177.855" width="2.13296" height="2.13296" transform="rotate(11.18 43.873 177.855)" fill="#134B93"/>
<rect x="45.9663" y="178.27" width="2.13296" height="2.13296" transform="rotate(11.18 45.9663 178.27)" fill="#134B93"/>
<rect x="48.0596" y="178.684" width="2.13296" height="2.13296" transform="rotate(11.18 48.0596 178.684)" fill="#134B93"/>
<rect x="50.1504" y="179.098" width="2.13296" height="2.13296" transform="rotate(11.18 50.1504 179.098)" fill="#134B93"/>
<rect x="52.2437" y="179.51" width="2.13296" height="2.13296" transform="rotate(11.18 52.2437 179.51)" fill="#134B93"/>
<rect x="56.4277" y="180.338" width="2.13296" height="2.13296" transform="rotate(11.18 56.4277 180.338)" fill="#134B93"/>
<rect x="60.6147" y="181.166" width="2.13296" height="2.13296" transform="rotate(11.18 60.6147 181.166)" fill="#134B93"/>
<rect x="64.7988" y="181.992" width="2.13296" height="2.13296" transform="rotate(11.18 64.7988 181.992)" fill="#134B93"/>
<rect x="79.4448" y="184.887" width="2.13296" height="2.13296" transform="rotate(11.18 79.4448 184.887)" fill="#134B93"/>
</g>
<path d="M195.622 143.21C196.465 142.571 197.817 140.801 196.487 138.832M199.473 137.858C200.557 139.257 201.778 142.721 197.986 145.383M202.639 137.063C204.22 138.844 206.024 143.418 200.584 147.46" stroke="#134B93" stroke-width="1.36758" stroke-linecap="round"/>
<path d="M146.081 216.862C146.099 216.677 146.049 216.521 145.933 216.394C145.816 216.266 145.641 216.18 145.407 216.133C145.249 216.102 145.11 216.098 144.992 216.121C144.874 216.143 144.778 216.187 144.704 216.254C144.632 216.32 144.586 216.403 144.566 216.502C144.547 216.584 144.55 216.659 144.575 216.728C144.602 216.797 144.645 216.861 144.703 216.919C144.762 216.976 144.832 217.029 144.914 217.08C144.997 217.129 145.086 217.174 145.182 217.217L145.576 217.397C145.768 217.482 145.94 217.578 146.093 217.687C146.246 217.795 146.373 217.916 146.474 218.049C146.576 218.183 146.645 218.331 146.684 218.492C146.723 218.654 146.725 218.831 146.688 219.023C146.631 219.305 146.511 219.535 146.328 219.714C146.146 219.891 145.911 220.01 145.622 220.071C145.334 220.131 145.003 220.124 144.629 220.05C144.257 219.977 143.945 219.856 143.691 219.688C143.44 219.52 143.259 219.309 143.148 219.055C143.04 218.8 143.015 218.506 143.073 218.173L144.015 218.359C143.995 218.516 144.013 218.653 144.071 218.772C144.13 218.89 144.22 218.988 144.342 219.066C144.465 219.144 144.611 219.199 144.779 219.232C144.943 219.265 145.091 219.269 145.222 219.245C145.355 219.221 145.463 219.174 145.547 219.101C145.631 219.029 145.685 218.938 145.707 218.827C145.727 218.724 145.713 218.631 145.666 218.548C145.62 218.466 145.543 218.388 145.436 218.316C145.331 218.244 145.198 218.171 145.038 218.097L144.562 217.872C144.192 217.701 143.915 217.493 143.73 217.248C143.545 217.002 143.487 216.71 143.555 216.37C143.609 216.091 143.731 215.862 143.922 215.683C144.115 215.505 144.354 215.383 144.641 215.319C144.928 215.254 145.239 215.255 145.575 215.321C145.917 215.389 146.203 215.506 146.435 215.673C146.668 215.841 146.835 216.043 146.936 216.279C147.038 216.515 147.063 216.771 147.014 217.046L146.081 216.862ZM148.037 220.724C147.817 220.68 147.628 220.603 147.471 220.493C147.314 220.381 147.2 220.239 147.129 220.068C147.061 219.896 147.049 219.696 147.094 219.468C147.132 219.276 147.199 219.122 147.295 219.005C147.391 218.889 147.508 218.803 147.645 218.748C147.782 218.692 147.932 218.66 148.094 218.65C148.258 218.64 148.427 218.644 148.601 218.661C148.806 218.68 148.972 218.692 149.098 218.699C149.225 218.703 149.32 218.692 149.382 218.666C149.445 218.639 149.484 218.59 149.498 218.516L149.501 218.503C149.529 218.36 149.506 218.241 149.432 218.146C149.359 218.05 149.24 217.986 149.077 217.954C148.905 217.92 148.76 217.931 148.643 217.987C148.526 218.042 148.44 218.123 148.385 218.231L147.513 217.984C147.6 217.783 147.724 217.619 147.886 217.492C148.048 217.364 148.242 217.279 148.467 217.238C148.693 217.195 148.944 217.201 149.22 217.256C149.412 217.294 149.591 217.353 149.757 217.432C149.925 217.512 150.068 217.613 150.186 217.734C150.305 217.856 150.389 217.999 150.44 218.163C150.49 218.325 150.495 218.509 150.454 218.714L149.994 221.043L149.086 220.864L149.181 220.385L149.154 220.379C149.077 220.476 148.984 220.557 148.875 220.621C148.766 220.684 148.641 220.725 148.502 220.746C148.363 220.765 148.208 220.758 148.037 220.724ZM148.442 220.117C148.582 220.145 148.712 220.142 148.831 220.108C148.95 220.072 149.05 220.013 149.131 219.929C149.211 219.845 149.263 219.742 149.287 219.621L149.36 219.255C149.326 219.268 149.281 219.278 149.225 219.284C149.171 219.289 149.111 219.292 149.044 219.293C148.977 219.292 148.91 219.29 148.844 219.288C148.778 219.284 148.717 219.281 148.664 219.278C148.548 219.273 148.445 219.279 148.353 219.299C148.262 219.318 148.188 219.354 148.129 219.406C148.071 219.457 148.033 219.527 148.015 219.617C147.989 219.748 148.017 219.857 148.097 219.944C148.18 220.031 148.295 220.088 148.442 220.117ZM150.737 221.19L151.419 217.737L152.348 217.921L152.229 218.523L152.265 218.53C152.37 218.328 152.507 218.187 152.677 218.107C152.848 218.026 153.029 218.004 153.223 218.042C153.271 218.052 153.322 218.065 153.376 218.082C153.43 218.099 153.477 218.117 153.517 218.136L153.349 218.985C153.307 218.963 153.247 218.939 153.17 218.912C153.093 218.886 153.021 218.867 152.955 218.854C152.814 218.826 152.682 218.832 152.559 218.871C152.438 218.909 152.334 218.976 152.249 219.071C152.164 219.167 152.108 219.285 152.081 219.426L151.694 221.379L150.737 221.19ZM154.2 221.942C153.979 221.898 153.791 221.821 153.633 221.711C153.476 221.599 153.363 221.457 153.292 221.286C153.224 221.114 153.212 220.914 153.257 220.686C153.295 220.494 153.362 220.34 153.458 220.224C153.554 220.107 153.671 220.021 153.808 219.966C153.945 219.91 154.095 219.878 154.257 219.868C154.421 219.858 154.59 219.862 154.764 219.879C154.969 219.898 155.134 219.91 155.261 219.917C155.388 219.921 155.482 219.911 155.545 219.884C155.608 219.858 155.647 219.808 155.661 219.734L155.664 219.721C155.692 219.578 155.669 219.459 155.594 219.364C155.521 219.268 155.403 219.204 155.24 219.172C155.068 219.138 154.923 219.149 154.806 219.205C154.689 219.26 154.603 219.341 154.548 219.449L153.676 219.202C153.763 219.001 153.887 218.837 154.049 218.71C154.211 218.582 154.405 218.497 154.629 218.456C154.856 218.413 155.107 218.419 155.383 218.474C155.574 218.512 155.754 218.571 155.92 218.65C156.088 218.73 156.231 218.831 156.348 218.952C156.468 219.074 156.552 219.217 156.602 219.381C156.653 219.543 156.658 219.727 156.617 219.932L156.157 222.261L155.249 222.082L155.343 221.603L155.316 221.598C155.24 221.694 155.147 221.775 155.037 221.839C154.929 221.902 154.804 221.943 154.665 221.964C154.526 221.983 154.37 221.976 154.2 221.942ZM154.604 221.335C154.745 221.363 154.875 221.36 154.994 221.326C155.113 221.29 155.213 221.231 155.293 221.147C155.374 221.063 155.426 220.961 155.45 220.839L155.522 220.473C155.489 220.486 155.444 220.496 155.388 220.502C155.334 220.507 155.274 220.51 155.207 220.511C155.14 220.51 155.073 220.509 155.007 220.506C154.94 220.503 154.88 220.499 154.826 220.496C154.711 220.491 154.607 220.497 154.516 220.517C154.425 220.536 154.351 220.572 154.292 220.624C154.234 220.675 154.196 220.745 154.178 220.835C154.152 220.966 154.18 221.075 154.26 221.162C154.343 221.249 154.458 221.306 154.604 221.335ZM158.252 220.601L157.857 222.597L156.9 222.408L157.81 217.804L158.74 217.988L158.392 219.748L158.433 219.756C158.551 219.568 158.708 219.433 158.905 219.352C159.102 219.27 159.332 219.254 159.594 219.306C159.834 219.354 160.032 219.447 160.19 219.587C160.349 219.726 160.459 219.903 160.52 220.117C160.582 220.331 160.585 220.572 160.531 220.841L160.096 223.04L159.139 222.85L159.539 220.823C159.583 220.61 159.562 220.434 159.476 220.294C159.391 220.154 159.251 220.065 159.057 220.027C158.926 220.001 158.805 220.006 158.694 220.042C158.584 220.077 158.49 220.143 158.412 220.238C158.336 220.332 158.283 220.453 158.252 220.601ZM163.242 218.878L164.443 219.115L165.099 222.459L165.153 222.47L167.032 219.627L168.233 219.864L167.323 224.468L166.379 224.281L166.971 221.285L166.933 221.278L165.154 224.016L164.511 223.889L163.909 220.668L163.871 220.661L163.277 223.668L162.333 223.482L163.242 218.878ZM169.078 224.883C168.858 224.839 168.669 224.762 168.512 224.652C168.355 224.54 168.241 224.398 168.171 224.227C168.102 224.054 168.09 223.854 168.135 223.627C168.173 223.435 168.24 223.281 168.337 223.164C168.433 223.048 168.549 222.962 168.686 222.906C168.824 222.851 168.973 222.818 169.136 222.808C169.299 222.799 169.468 222.802 169.643 222.82C169.847 222.838 170.013 222.851 170.14 222.857C170.266 222.862 170.361 222.851 170.424 222.825C170.487 222.798 170.525 222.748 170.54 222.675L170.543 222.661C170.571 222.519 170.548 222.4 170.473 222.304C170.4 222.209 170.282 222.145 170.119 222.113C169.946 222.079 169.802 222.09 169.685 222.146C169.568 222.201 169.482 222.282 169.426 222.389L168.555 222.142C168.641 221.941 168.766 221.778 168.928 221.651C169.09 221.522 169.283 221.438 169.508 221.396C169.734 221.354 169.985 221.36 170.261 221.415C170.453 221.452 170.632 221.511 170.799 221.591C170.967 221.671 171.109 221.771 171.227 221.893C171.346 222.014 171.431 222.157 171.481 222.321C171.531 222.484 171.536 222.668 171.496 222.873L171.036 225.202L170.127 225.022L170.222 224.543L170.195 224.538C170.118 224.635 170.025 224.716 169.916 224.78C169.807 224.842 169.683 224.884 169.543 224.905C169.404 224.924 169.249 224.916 169.078 224.883ZM169.483 224.276C169.624 224.304 169.754 224.301 169.873 224.267C169.992 224.231 170.092 224.171 170.172 224.088C170.252 224.004 170.305 223.901 170.329 223.78L170.401 223.413C170.367 223.427 170.322 223.437 170.267 223.443C170.213 223.448 170.152 223.451 170.085 223.451C170.018 223.451 169.952 223.449 169.885 223.447C169.819 223.443 169.759 223.44 169.705 223.437C169.589 223.431 169.486 223.438 169.395 223.457C169.304 223.477 169.229 223.513 169.171 223.565C169.112 223.616 169.074 223.686 169.056 223.776C169.031 223.906 169.058 224.015 169.139 224.103C169.222 224.189 169.336 224.247 169.483 224.276ZM174.297 222.259L174.155 222.978L172.076 222.567L172.218 221.848L174.297 222.259ZM172.854 221.114L173.811 221.303L173.175 224.522C173.157 224.611 173.157 224.682 173.175 224.737C173.192 224.79 173.223 224.831 173.267 224.86C173.313 224.89 173.368 224.911 173.432 224.923C173.477 224.932 173.523 224.937 173.569 224.939C173.616 224.939 173.652 224.939 173.676 224.939L173.686 225.681C173.635 225.687 173.564 225.691 173.474 225.693C173.383 225.697 173.274 225.689 173.149 225.669C172.917 225.632 172.72 225.561 172.561 225.456C172.402 225.352 172.29 225.216 172.223 225.049C172.156 224.881 172.146 224.685 172.192 224.459L172.854 221.114ZM175.665 224.043L175.27 226.039L174.313 225.849L175.223 221.246L176.153 221.43L175.805 223.19L175.846 223.198C175.964 223.01 176.121 222.875 176.318 222.794C176.515 222.711 176.745 222.696 177.007 222.748C177.247 222.795 177.445 222.889 177.603 223.029C177.762 223.168 177.872 223.345 177.933 223.559C177.995 223.772 177.998 224.013 177.944 224.283L177.509 226.481L176.552 226.292L176.952 224.264C176.996 224.052 176.975 223.876 176.889 223.736C176.804 223.596 176.664 223.507 176.47 223.468C176.339 223.443 176.218 223.448 176.107 223.483C175.997 223.519 175.903 223.585 175.825 223.68C175.749 223.774 175.696 223.895 175.665 224.043ZM179.823 227.009C179.468 226.938 179.176 226.806 178.948 226.612C178.722 226.416 178.567 226.172 178.481 225.879C178.396 225.585 178.389 225.256 178.461 224.892C178.532 224.537 178.662 224.239 178.853 223.998C179.044 223.757 179.279 223.586 179.559 223.486C179.841 223.386 180.151 223.369 180.489 223.436C180.717 223.481 180.922 223.56 181.104 223.672C181.287 223.783 181.438 223.926 181.556 224.1C181.676 224.275 181.755 224.48 181.794 224.717C181.833 224.952 181.824 225.216 181.766 225.51L181.714 225.773L178.798 225.197L178.916 224.603L180.93 225.001C180.957 224.864 180.951 224.736 180.912 224.617C180.873 224.499 180.806 224.399 180.712 224.318C180.619 224.236 180.503 224.181 180.364 224.154C180.218 224.125 180.083 224.133 179.957 224.179C179.833 224.223 179.729 224.295 179.643 224.395C179.559 224.493 179.502 224.61 179.473 224.746L179.362 225.311C179.328 225.481 179.331 225.635 179.369 225.772C179.409 225.909 179.48 226.023 179.584 226.114C179.688 226.204 179.819 226.265 179.98 226.297C180.086 226.318 180.187 226.322 180.281 226.31C180.375 226.297 180.46 226.267 180.535 226.22C180.609 226.172 180.672 226.108 180.722 226.028L181.596 226.261C181.509 226.465 181.38 226.633 181.209 226.764C181.04 226.894 180.838 226.982 180.602 227.027C180.367 227.071 180.108 227.065 179.823 227.009ZM182.702 227.508L182.445 223.869L183.414 224.061L183.49 226.486L183.522 226.492L184.538 224.283L185.488 224.471L185.599 226.889L185.628 226.895L186.61 224.692L187.577 224.883L185.957 228.151L184.943 227.95L184.779 225.662L184.736 225.653L183.714 227.707L182.702 227.508Z" fill="#134B93"/>
<path d="M145.266 224.172C145.191 224.554 145.056 224.869 144.862 225.116C144.668 225.363 144.434 225.536 144.161 225.635C143.89 225.734 143.6 225.753 143.291 225.692C142.981 225.631 142.719 225.503 142.504 225.308C142.291 225.112 142.141 224.863 142.056 224.56C141.97 224.257 141.965 223.915 142.041 223.534C142.116 223.152 142.251 222.838 142.445 222.591C142.639 222.344 142.872 222.171 143.144 222.072C143.416 221.972 143.708 221.953 144.018 222.014C144.327 222.075 144.588 222.203 144.801 222.399C145.015 222.594 145.165 222.843 145.251 223.146C145.337 223.448 145.342 223.789 145.266 224.172ZM144.731 224.066C144.789 223.775 144.79 223.52 144.735 223.302C144.682 223.083 144.583 222.906 144.44 222.771C144.299 222.636 144.126 222.548 143.92 222.507C143.714 222.466 143.52 222.482 143.337 222.553C143.155 222.624 142.997 222.75 142.863 222.932C142.73 223.113 142.635 223.349 142.577 223.64C142.52 223.932 142.518 224.187 142.571 224.406C142.626 224.624 142.725 224.801 142.866 224.936C143.008 225.071 143.182 225.159 143.388 225.199C143.593 225.24 143.787 225.225 143.969 225.154C144.153 225.083 144.311 224.957 144.444 224.776C144.578 224.594 144.674 224.357 144.731 224.066ZM146.126 226.202L145.867 223.36L146.407 223.467L146.543 225.543L146.57 225.548L147.487 223.681L148.028 223.787L148.164 225.854L148.19 225.86L149.101 224L149.641 224.106L148.322 226.636L147.789 226.53L147.627 224.484L147.586 224.476L146.658 226.307L146.126 226.202ZM150.444 225.399L150.129 226.993L149.607 226.89L150.137 224.204L150.639 224.304L150.553 224.741L150.586 224.747C150.676 224.617 150.795 224.522 150.944 224.462C151.094 224.402 151.269 224.392 151.471 224.432C151.654 224.468 151.807 224.538 151.929 224.642C152.052 224.745 152.136 224.879 152.182 225.044C152.228 225.21 152.229 225.403 152.185 225.625L151.848 227.333L151.325 227.229L151.65 225.584C151.689 225.39 151.668 225.227 151.588 225.098C151.509 224.967 151.38 224.884 151.203 224.849C151.082 224.825 150.969 224.83 150.864 224.864C150.761 224.898 150.672 224.96 150.597 225.051C150.523 225.14 150.473 225.256 150.444 225.399ZM153.696 227.754C153.431 227.702 153.214 227.6 153.045 227.45C152.878 227.298 152.763 227.108 152.7 226.882C152.638 226.654 152.635 226.401 152.69 226.122C152.745 225.847 152.844 225.615 152.988 225.425C153.133 225.236 153.31 225.101 153.518 225.02C153.728 224.939 153.958 224.923 154.207 224.972C154.359 225.002 154.501 225.056 154.633 225.135C154.765 225.213 154.877 225.317 154.969 225.446C155.061 225.576 155.123 225.733 155.154 225.917C155.186 226.1 155.177 226.313 155.129 226.557L155.093 226.742L152.958 226.32L153.035 225.929L154.658 226.25C154.685 226.112 154.681 225.985 154.646 225.868C154.611 225.749 154.549 225.649 154.46 225.567C154.372 225.486 154.261 225.432 154.125 225.405C153.978 225.376 153.843 225.387 153.719 225.437C153.597 225.487 153.495 225.564 153.412 225.667C153.331 225.77 153.278 225.888 153.251 226.022L153.191 226.328C153.155 226.508 153.157 226.667 153.195 226.805C153.234 226.944 153.304 227.057 153.405 227.146C153.506 227.234 153.633 227.293 153.786 227.323C153.885 227.343 153.978 227.347 154.065 227.335C154.153 227.322 154.232 227.293 154.303 227.247C154.373 227.202 154.433 227.141 154.481 227.063L154.958 227.25C154.889 227.388 154.793 227.501 154.669 227.591C154.546 227.679 154.402 227.738 154.236 227.768C154.071 227.798 153.891 227.793 153.696 227.754ZM155.438 228.042L155.969 225.357L156.474 225.457L156.39 225.883L156.418 225.889C156.496 225.754 156.604 225.658 156.744 225.599C156.885 225.54 157.035 225.526 157.192 225.557C157.225 225.563 157.263 225.572 157.307 225.583C157.352 225.595 157.387 225.604 157.412 225.613L157.313 226.113C157.293 226.103 157.257 226.089 157.205 226.072C157.153 226.053 157.1 226.038 157.046 226.028C156.923 226.003 156.808 226.008 156.7 226.041C156.595 226.073 156.505 226.13 156.431 226.211C156.357 226.291 156.308 226.389 156.285 226.506L155.961 228.146L155.438 228.042ZM160.292 224.082L159.128 229.971L158.66 229.878L159.823 223.99L160.292 224.082ZM162.822 229.502L161.663 229.273L162.371 225.692L163.567 225.928C163.917 225.998 164.205 226.129 164.428 226.322C164.652 226.514 164.804 226.757 164.885 227.05C164.968 227.343 164.973 227.675 164.899 228.047C164.825 228.42 164.694 228.727 164.505 228.968C164.316 229.209 164.08 229.377 163.795 229.47C163.51 229.563 163.186 229.574 162.822 229.502ZM162.297 228.907L162.886 229.024C163.159 229.078 163.395 229.071 163.596 229.004C163.797 228.936 163.962 228.813 164.091 228.635C164.219 228.456 164.312 228.225 164.368 227.942C164.423 227.661 164.425 227.413 164.374 227.2C164.324 226.987 164.222 226.812 164.066 226.676C163.91 226.539 163.701 226.446 163.44 226.394L162.818 226.271L162.297 228.907ZM166.321 230.249C166.056 230.197 165.839 230.096 165.671 229.945C165.503 229.793 165.388 229.604 165.325 229.377C165.264 229.149 165.26 228.896 165.315 228.617C165.37 228.342 165.469 228.11 165.613 227.921C165.758 227.731 165.935 227.596 166.144 227.515C166.353 227.434 166.583 227.418 166.832 227.468C166.984 227.498 167.126 227.552 167.258 227.63C167.39 227.708 167.502 227.812 167.594 227.942C167.686 228.071 167.748 228.228 167.779 228.412C167.811 228.595 167.803 228.809 167.754 229.052L167.718 229.238L165.583 228.816L165.661 228.424L167.283 228.745C167.31 228.607 167.306 228.48 167.271 228.363C167.237 228.245 167.175 228.144 167.085 228.063C166.997 227.981 166.886 227.927 166.751 227.9C166.604 227.871 166.468 227.882 166.344 227.933C166.222 227.982 166.12 228.059 166.037 228.163C165.957 228.265 165.903 228.384 165.876 228.518L165.816 228.824C165.78 229.003 165.782 229.162 165.82 229.3C165.859 229.439 165.929 229.553 166.03 229.642C166.132 229.729 166.259 229.788 166.411 229.819C166.51 229.838 166.603 229.842 166.691 229.83C166.778 229.817 166.857 229.788 166.928 229.743C166.998 229.697 167.058 229.636 167.106 229.558L167.583 229.745C167.515 229.883 167.418 229.996 167.294 230.086C167.171 230.174 167.027 230.233 166.861 230.264C166.697 230.293 166.517 230.288 166.321 230.249ZM170.477 228.906L169.987 228.896C169.979 228.831 169.959 228.767 169.926 228.704C169.895 228.641 169.847 228.585 169.782 228.536C169.716 228.486 169.629 228.451 169.521 228.43C169.373 228.4 169.243 228.409 169.131 228.456C169.019 228.502 168.953 228.576 168.932 228.68C168.914 228.77 168.933 228.849 168.989 228.917C169.044 228.985 169.143 229.051 169.284 229.115L169.691 229.297C169.927 229.403 170.094 229.527 170.191 229.67C170.289 229.813 170.319 229.979 170.282 230.169C170.25 230.33 170.175 230.464 170.057 230.572C169.94 230.678 169.792 230.751 169.612 230.789C169.434 230.828 169.236 230.826 169.02 230.783C168.719 230.723 168.486 230.611 168.322 230.445C168.157 230.278 168.077 230.072 168.081 229.825L168.601 229.848C168.607 229.986 168.652 230.099 168.736 230.186C168.821 230.271 168.942 230.33 169.099 230.361C169.271 230.395 169.415 230.386 169.531 230.335C169.648 230.283 169.717 230.206 169.737 230.102C169.754 230.018 169.736 229.941 169.685 229.872C169.634 229.802 169.548 229.74 169.425 229.686L168.99 229.496C168.751 229.39 168.584 229.262 168.488 229.114C168.394 228.966 168.366 228.796 168.404 228.605C168.435 228.446 168.507 228.316 168.619 228.215C168.731 228.114 168.872 228.045 169.041 228.01C169.21 227.973 169.396 227.974 169.598 228.014C169.888 228.072 170.104 228.18 170.246 228.339C170.388 228.496 170.465 228.685 170.477 228.906ZM170.703 231.059L171.234 228.374L171.756 228.477L171.226 231.163L170.703 231.059ZM171.58 228.012C171.489 227.994 171.417 227.948 171.363 227.875C171.311 227.8 171.294 227.72 171.311 227.635C171.328 227.549 171.374 227.482 171.45 227.434C171.528 227.385 171.612 227.37 171.703 227.388C171.794 227.406 171.865 227.452 171.917 227.526C171.97 227.6 171.989 227.68 171.972 227.766C171.955 227.851 171.908 227.918 171.83 227.967C171.754 228.015 171.671 228.03 171.58 228.012ZM172.845 232.587C172.631 232.545 172.453 232.481 172.311 232.394C172.169 232.308 172.059 232.21 171.98 232.098C171.902 231.987 171.85 231.872 171.823 231.753L172.309 231.657C172.331 231.714 172.362 231.776 172.403 231.844C172.445 231.913 172.508 231.977 172.59 232.035C172.675 232.094 172.789 232.138 172.933 232.167C173.131 232.206 173.305 232.19 173.453 232.119C173.602 232.049 173.696 231.909 173.738 231.699L173.842 231.171L173.809 231.165C173.766 231.215 173.708 231.27 173.635 231.328C173.563 231.387 173.47 231.431 173.358 231.462C173.245 231.493 173.107 231.493 172.942 231.46C172.73 231.418 172.549 231.331 172.398 231.198C172.249 231.064 172.144 230.891 172.083 230.676C172.024 230.461 172.023 230.211 172.079 229.925C172.136 229.64 172.232 229.405 172.37 229.22C172.508 229.035 172.673 228.905 172.864 228.831C173.056 228.755 173.26 228.738 173.475 228.781C173.642 228.814 173.771 228.868 173.863 228.944C173.954 229.019 174.022 229.099 174.064 229.184C174.108 229.269 174.14 229.343 174.16 229.405L174.199 229.412L174.285 228.977L174.797 229.078L174.255 231.823C174.209 232.054 174.118 232.233 173.982 232.359C173.845 232.486 173.678 232.567 173.481 232.602C173.285 232.637 173.073 232.632 172.845 232.587ZM173.143 231.049C173.294 231.079 173.428 231.069 173.545 231.02C173.664 230.969 173.763 230.884 173.843 230.763C173.924 230.64 173.983 230.487 174.02 230.301C174.055 230.121 174.06 229.956 174.033 229.808C174.007 229.66 173.95 229.537 173.861 229.44C173.773 229.341 173.652 229.277 173.5 229.247C173.342 229.216 173.203 229.231 173.082 229.291C172.961 229.351 172.86 229.445 172.779 229.573C172.699 229.701 172.643 229.851 172.609 230.023C172.574 230.199 172.57 230.358 172.598 230.502C172.625 230.645 172.684 230.765 172.774 230.86C172.865 230.956 172.988 231.019 173.143 231.049ZM175.805 230.411L175.49 232.005L174.967 231.902L175.498 229.217L176 229.316L175.914 229.753L175.947 229.76C176.037 229.63 176.156 229.534 176.305 229.474C176.455 229.414 176.63 229.404 176.832 229.444C177.015 229.48 177.168 229.55 177.29 229.654C177.413 229.757 177.497 229.892 177.543 230.057C177.589 230.222 177.59 230.416 177.546 230.637L177.209 232.345L176.686 232.242L177.011 230.597C177.05 230.402 177.029 230.24 176.949 230.11C176.87 229.98 176.741 229.897 176.564 229.862C176.443 229.838 176.33 229.843 176.225 229.876C176.122 229.91 176.032 229.973 175.958 230.063C175.884 230.153 175.833 230.269 175.805 230.411ZM179.056 232.767C178.792 232.714 178.575 232.613 178.406 232.462C178.239 232.31 178.124 232.121 178.061 231.894C177.999 231.666 177.996 231.413 178.051 231.135C178.105 230.86 178.205 230.627 178.349 230.438C178.494 230.248 178.671 230.113 178.879 230.032C179.089 229.951 179.319 229.936 179.568 229.985C179.72 230.015 179.862 230.069 179.994 230.147C180.126 230.225 180.238 230.329 180.33 230.459C180.422 230.588 180.484 230.745 180.515 230.929C180.547 231.113 180.538 231.326 180.49 231.569L180.454 231.755L178.319 231.333L178.396 230.941L180.019 231.262C180.046 231.124 180.042 230.997 180.007 230.88C179.972 230.762 179.91 230.662 179.821 230.58C179.733 230.498 179.621 230.444 179.486 230.417C179.339 230.388 179.204 230.399 179.08 230.45C178.958 230.499 178.855 230.576 178.773 230.68C178.692 230.782 178.639 230.901 178.612 231.035L178.552 231.341C178.516 231.52 178.518 231.679 178.556 231.817C178.595 231.956 178.665 232.07 178.766 232.159C178.867 232.247 178.994 232.306 179.147 232.336C179.246 232.355 179.339 232.359 179.426 232.347C179.514 232.334 179.593 232.305 179.663 232.26C179.734 232.214 179.794 232.153 179.842 232.075L180.319 232.262C180.25 232.4 180.154 232.514 180.03 232.603C179.907 232.691 179.763 232.751 179.597 232.781C179.432 232.81 179.252 232.805 179.056 232.767ZM180.799 233.055L181.33 230.369L181.835 230.469L181.751 230.896L181.779 230.901C181.856 230.766 181.965 230.67 182.105 230.612C182.246 230.552 182.396 230.538 182.553 230.569C182.586 230.576 182.624 230.585 182.668 230.596C182.713 230.607 182.748 230.617 182.773 230.625L182.674 231.125C182.654 231.115 182.618 231.102 182.566 231.084C182.514 231.065 182.461 231.051 182.407 231.04C182.284 231.016 182.168 231.02 182.061 231.053C181.956 231.086 181.866 231.143 181.792 231.224C181.718 231.303 181.669 231.402 181.646 231.518L181.322 233.158L180.799 233.055Z" fill="#134B93"/>
</g>
<defs>
<filter id="filter0_d_438_2581" x="0.625977" y="87.1738" width="221.376" height="162.592" filterUnits="userSpaceOnUse" color-interpolation-filters="sRGB">
<feFlood flood-opacity="0" result="BackgroundImageFix"/>
<feColorMatrix in="SourceAlpha" type="matrix" values="0 0 0 0 0 0 0 0 0 0 0 0 0 0 0 0 0 0 127 0" result="hardAlpha"/>
<feOffset dy="-2"/>
<feGaussianBlur stdDeviation="2"/>
<feComposite in2="hardAlpha" operator="out"/>
<feColorMatrix type="matrix" values="0 0 0 0 0 0 0 0 0 0 0 0 0 0 0 0 0 0 0.25 0"/>
<feBlend mode="normal" in2="BackgroundImageFix" result="effect1_dropShadow_438_2581"/>
<feBlend mode="normal" in="SourceGraphic" in2="effect1_dropShadow_438_2581" result="shape"/>
</filter>
<clipPath id="clip0_438_2581">
<rect x="45.2739" y="131.17" width="51.6176" height="51.6176" rx="3.58456" transform="rotate(11.18 45.2739 131.17)" fill="white"/>
</clipPath>
</defs>
</svg>
