<svg xmlns="http://www.w3.org/2000/svg" width="329" height="204" fill="none"><rect width="329" height="202.999" y=".023" fill="#1E1E1E" rx="3.024"/><path fill="#1E1E1E" d="M42.334 58.082h87.087v87.088H42.334z"/><path fill="#D1AE7B" d="M48.092 63.84h3.599v3.599h-3.599zM51.691 63.84h3.599v3.599h-3.599z"/><path fill="#D1AE7B" d="M55.283 63.84h3.599v3.599h-3.599zM58.883 63.84h3.599v3.599h-3.599zM62.491 63.84h3.599v3.599h-3.599z"/><path fill="#D1AE7B" d="M66.083 63.84h3.599v3.599h-3.599zM69.683 63.84h3.599v3.599h-3.599zM84.082 63.84h3.599v3.599h-3.599z"/><path fill="#D1AE7B" d="M87.674 63.84h3.599v3.599h-3.599z"/><path fill="#D1AE7B" d="M91.273 63.84h3.599v3.599h-3.599zM98.474 63.84h3.599v3.599h-3.599z"/><path fill="#D1AE7B" d="M102.065 63.84h3.599v3.599h-3.599zM105.674 63.84h3.599v3.599h-3.599z"/><path fill="#D1AE7B" d="M109.273 63.84h3.599v3.599h-3.599zM112.873 63.84h3.599v3.599h-3.599z"/><path fill="#D1AE7B" d="M116.465 63.84h3.599v3.599h-3.599z"/><path fill="#D1AE7B" d="M120.064 63.84h3.599v3.599h-3.599zM48.092 67.438h3.599v3.599h-3.599zM69.683 67.438h3.599v3.599h-3.599zM76.874 67.438h3.599v3.599h-3.599zM80.475 67.438h3.599v3.599h-3.599zM84.082 67.438h3.599v3.599h-3.599zM91.273 67.438h3.599v3.599h-3.599zM98.474 67.438h3.599v3.599h-3.599z"/><path fill="#D1AE7B" d="M120.064 67.438h3.599v3.599h-3.599zM48.092 71.037h3.599v3.599h-3.599zM55.283 71.037h3.599v3.599h-3.599zM58.883 71.037h3.599v3.599h-3.599zM62.491 71.037h3.599v3.599h-3.599zM69.683 71.037h3.599v3.599h-3.599zM84.082 71.037h3.599v3.599h-3.599z"/><path fill="#D1AE7B" d="M87.674 71.037h3.599v3.599h-3.599z"/><path fill="#D1AE7B" d="M91.273 71.037h3.599v3.599h-3.599zM98.474 71.037h3.599v3.599h-3.599zM105.674 71.037h3.599v3.599h-3.599z"/><path fill="#D1AE7B" d="M109.273 71.037h3.599v3.599h-3.599zM112.873 71.037h3.599v3.599h-3.599zM120.064 71.037h3.599v3.599h-3.599zM48.092 74.637h3.599v3.599h-3.599zM55.283 74.637h3.599v3.599h-3.599zM58.883 74.637h3.599v3.599h-3.599zM62.491 74.637h3.599v3.599h-3.599zM69.683 74.637h3.599v3.599h-3.599zM76.874 74.637h3.599v3.599h-3.599zM80.475 74.637h3.599v3.599h-3.599zM91.273 74.637h3.599v3.599h-3.599zM98.474 74.637h3.599v3.599h-3.599zM105.674 74.637h3.599v3.599h-3.599z"/><path fill="#D1AE7B" d="M109.273 74.637h3.599v3.599h-3.599zM112.873 74.637h3.599v3.599h-3.599zM120.064 74.637h3.599v3.599h-3.599zM48.092 78.234h3.599v3.599h-3.599zM55.283 78.234h3.599v3.599h-3.599zM58.883 78.234h3.599v3.599h-3.599zM62.491 78.234h3.599v3.599h-3.599zM69.683 78.234h3.599v3.599h-3.599zM80.475 78.234h3.599v3.599h-3.599zM91.273 78.234h3.599v3.599h-3.599zM98.474 78.234h3.599v3.599h-3.599z"/><path fill="#D1AE7B" d="M105.674 78.234h3.599v3.599h-3.599z"/><path fill="#D1AE7B" d="M109.273 78.234h3.599v3.599h-3.599zM112.873 78.234h3.599v3.599h-3.599zM120.064 78.234h3.599v3.599h-3.599zM48.092 81.834h3.599v3.599h-3.599zM69.683 81.834h3.599v3.599h-3.599zM76.874 81.834h3.599v3.599h-3.599zM87.674 81.834h3.599v3.599h-3.599zM98.474 81.834h3.599v3.599h-3.599zM120.064 81.834h3.599v3.599h-3.599z"/><path fill="#D1AE7B" d="M48.092 85.432h3.599v3.599h-3.599zM51.691 85.432h3.599v3.599h-3.599z"/><path fill="#D1AE7B" d="M55.283 85.432h3.599v3.599h-3.599zM58.883 85.432h3.599v3.599h-3.599zM62.491 85.432h3.599v3.599h-3.599z"/><path fill="#D1AE7B" d="M66.083 85.432h3.599v3.599h-3.599zM69.683 85.432h3.599v3.599h-3.599zM76.874 85.432h3.599v3.599h-3.599zM84.082 85.432h3.599v3.599h-3.599zM91.273 85.432h3.599v3.599h-3.599zM98.474 85.432h3.599v3.599h-3.599z"/><path fill="#D1AE7B" d="M102.065 85.432h3.599v3.599h-3.599zM105.674 85.432h3.599v3.599h-3.599z"/><path fill="#D1AE7B" d="M109.273 85.432h3.599v3.599h-3.599zM112.873 85.432h3.599v3.599h-3.599z"/><path fill="#D1AE7B" d="M116.465 85.432h3.599v3.599h-3.599z"/><path fill="#D1AE7B" d="M120.064 85.432h3.599v3.599h-3.599zM80.475 89.031h3.599v3.599h-3.599zM48.092 92.629h3.599v3.599h-3.599zM51.691 92.629h3.599v3.599h-3.599z"/><path fill="#D1AE7B" d="M55.283 92.629h3.599v3.599h-3.599zM58.883 92.629h3.599v3.599h-3.599zM62.491 92.629h3.599v3.599h-3.599zM69.683 92.629h3.599v3.599h-3.599zM73.283 92.629h3.599v3.599h-3.599z"/><path fill="#D1AE7B" d="M76.874 92.629h3.599v3.599h-3.599zM87.674 92.629h3.599v3.599h-3.599zM94.874 92.629h3.599v3.599h-3.599zM102.065 92.629h3.599v3.599h-3.599zM109.273 92.629h3.599v3.599h-3.599zM116.465 92.629h3.599v3.599h-3.599zM48.092 96.228h3.599v3.599h-3.599zM55.283 96.228h3.599v3.599h-3.599z"/><path fill="#D1AE7B" d="M76.874 96.228h3.599v3.599h-3.599zM80.475 96.228h3.599v3.599h-3.599zM87.674 96.228h3.599v3.599h-3.599z"/><path fill="#D1AE7B" d="M91.273 96.228h3.599v3.599h-3.599zM94.874 96.228h3.599v3.599h-3.599zM98.474 96.228h3.599v3.599h-3.599zM109.273 96.228h3.599v3.599h-3.599zM112.873 96.228h3.599v3.599h-3.599zM120.064 96.228h3.599v3.599h-3.599zM62.491 99.826h3.599v3.599h-3.599zM69.683 99.826h3.599v3.599h-3.599zM76.874 99.826h3.599v3.599h-3.599zM80.475 99.826h3.599v3.599h-3.599z"/><path fill="#D1AE7B" d="M91.273 99.826h3.599v3.599h-3.599zM98.474 99.826h3.599v3.599h-3.599z"/><path fill="#D1AE7B" d="M102.065 99.826h3.599v3.599h-3.599zM109.273 99.826h3.599v3.599h-3.599zM116.465 99.826h3.599v3.599h-3.599zM48.092 103.426h3.599v3.599h-3.599zM66.083 103.426h3.599v3.599h-3.599zM73.283 103.426h3.599v3.599h-3.599zM84.082 103.426h3.599v3.599h-3.599z"/><path fill="#D1AE7B" d="M87.674 103.426h3.599v3.599h-3.599z"/><path fill="#D1AE7B" d="M91.273 103.426h3.599v3.599h-3.599zM94.874 103.426h3.599v3.599h-3.599zM98.474 103.426h3.599v3.599h-3.599zM109.273 103.426h3.599v3.599h-3.599zM112.873 103.426h3.599v3.599h-3.599z"/><path fill="#D1AE7B" d="M116.465 103.426h3.599v3.599h-3.599z"/><path fill="#D1AE7B" d="M120.064 103.426h3.599v3.599h-3.599zM48.092 107.023h3.599v3.599h-3.599zM51.691 107.023h3.599v3.599h-3.599zM69.683 107.023h3.599v3.599h-3.599zM80.475 107.023h3.599v3.599h-3.599zM91.273 107.023h3.599v3.599h-3.599zM102.065 107.023h3.599v3.599h-3.599z"/><path fill="#D1AE7B" d="M116.465 107.023h3.599v3.599h-3.599zM76.874 110.623h3.599v3.599h-3.599zM84.082 110.623h3.599v3.599h-3.599zM91.273 110.623h3.599v3.599h-3.599zM102.065 110.623h3.599v3.599h-3.599zM109.273 110.623h3.599v3.599h-3.599zM112.873 110.623h3.599v3.599h-3.599zM120.064 110.623h3.599v3.599h-3.599zM48.092 114.223h3.599v3.599h-3.599zM51.691 114.223h3.599v3.599h-3.599z"/><path fill="#D1AE7B" d="M55.283 114.223h3.599v3.599h-3.599zM58.883 114.223h3.599v3.599h-3.599zM62.491 114.223h3.599v3.599h-3.599z"/><path fill="#D1AE7B" d="M66.083 114.223h3.599v3.599h-3.599zM69.683 114.223h3.599v3.599h-3.599zM76.874 114.223h3.599v3.599h-3.599zM80.475 114.223h3.599v3.599h-3.599zM84.082 114.223h3.599v3.599h-3.599z"/><path fill="#D1AE7B" d="M87.674 114.223h3.599v3.599h-3.599zM94.874 114.223h3.599v3.599h-3.599zM105.674 114.223h3.599v3.599h-3.599z"/><path fill="#D1AE7B" d="M109.273 114.223h3.599v3.599h-3.599zM116.465 114.223h3.599v3.599h-3.599zM48.092 117.82h3.599v3.599h-3.599zM69.683 117.82h3.599v3.599h-3.599zM102.065 117.82h3.599v3.599h-3.599z"/><path fill="#D1AE7B" d="M105.674 117.82h3.599v3.599h-3.599z"/><path fill="#D1AE7B" d="M109.273 117.82h3.599v3.599h-3.599zM112.873 117.82h3.599v3.599h-3.599z"/><path fill="#D1AE7B" d="M116.465 117.82h3.599v3.599h-3.599zM48.092 121.418h3.599v3.599h-3.599zM55.283 121.418h3.599v3.599h-3.599zM58.883 121.418h3.599v3.599h-3.599zM62.491 121.418h3.599v3.599h-3.599zM69.683 121.418h3.599v3.599h-3.599zM76.874 121.418h3.599v3.599h-3.599zM80.475 121.418h3.599v3.599h-3.599zM84.082 121.418h3.599v3.599h-3.599z"/><path fill="#D1AE7B" d="M87.674 121.418h3.599v3.599h-3.599zM94.874 121.418h3.599v3.599h-3.599zM105.674 121.418h3.599v3.599h-3.599zM116.465 121.418h3.599v3.599h-3.599zM48.092 125.018h3.599v3.599h-3.599zM55.283 125.018h3.599v3.599h-3.599zM58.883 125.018h3.599v3.599h-3.599zM62.491 125.018h3.599v3.599h-3.599zM69.683 125.018h3.599v3.599h-3.599zM76.874 125.018h3.599v3.599h-3.599zM80.475 125.018h3.599v3.599h-3.599zM87.674 125.018h3.599v3.599h-3.599z"/><path fill="#D1AE7B" d="M91.273 125.018h3.599v3.599h-3.599zM94.874 125.018h3.599v3.599h-3.599zM98.474 125.018h3.599v3.599h-3.599z"/><path fill="#D1AE7B" d="M102.065 125.018h3.599v3.599h-3.599zM109.273 125.018h3.599v3.599h-3.599zM112.873 125.018h3.599v3.599h-3.599zM48.092 128.615h3.599v3.599h-3.599zM55.283 128.615h3.599v3.599h-3.599zM58.883 128.615h3.599v3.599h-3.599zM62.491 128.615h3.599v3.599h-3.599zM69.683 128.615h3.599v3.599h-3.599zM76.874 128.615h3.599v3.599h-3.599zM84.082 128.615h3.599v3.599h-3.599zM91.273 128.615h3.599v3.599h-3.599z"/><path fill="#D1AE7B" d="M98.474 128.615h3.599v3.599h-3.599z"/><path fill="#D1AE7B" d="M102.065 128.615h3.599v3.599h-3.599zM109.273 128.615h3.599v3.599h-3.599zM48.092 132.215h3.599v3.599h-3.599zM69.683 132.215h3.599v3.599h-3.599zM76.874 132.215h3.599v3.599h-3.599zM87.674 132.215h3.599v3.599h-3.599z"/><path fill="#D1AE7B" d="M91.273 132.215h3.599v3.599h-3.599zM94.874 132.215h3.599v3.599h-3.599zM98.474 132.215h3.599v3.599h-3.599zM105.674 132.215h3.599v3.599h-3.599z"/><path fill="#D1AE7B" d="M109.273 132.215h3.599v3.599h-3.599zM112.873 132.215h3.599v3.599h-3.599zM48.092 135.814h3.599v3.599h-3.599zM51.691 135.814h3.599v3.599h-3.599z"/><path fill="#D1AE7B" d="M55.283 135.814h3.599v3.599h-3.599zM58.883 135.814h3.599v3.599h-3.599zM62.491 135.814h3.599v3.599h-3.599z"/><path fill="#D1AE7B" d="M66.083 135.814h3.599v3.599h-3.599zM69.683 135.814h3.599v3.599h-3.599zM76.874 135.814h3.599v3.599h-3.599zM84.082 135.814h3.599v3.599h-3.599zM91.273 135.814h3.599v3.599h-3.599zM116.465 135.814h3.599v3.599h-3.599z"/><path stroke="#D1AF7C" stroke-linecap="round" stroke-width="2.307" d="M293.916 28.218c1.186-1.333 2.845-4.705 0-7.529m4.623-2.588c2.253 1.96 5.406 7.294 0 12.94m4.98-15.293c3.2 2.431 7.681 9.412 0 17.882"/><path fill="#D1AE7B" d="M234.128 172.08v-7.917h3.123c.598 0 1.108.107 1.531.321.425.211.749.511.97.901.224.386.337.841.337 1.364 0 .526-.114.978-.341 1.357a2.204 2.204 0 0 1-.985.866c-.428.201-.946.302-1.554.302h-2.092v-1.346h1.821c.32 0 .585-.044.796-.131a.944.944 0 0 0 .472-.395c.106-.175.158-.393.158-.653 0-.263-.052-.484-.158-.665a.976.976 0 0 0-.476-.41c-.211-.095-.478-.143-.8-.143h-1.129v6.549h-1.673Zm4.275-3.603 1.968 3.603h-1.848l-1.925-3.603h1.805Zm5.425 3.719c-.601 0-1.12-.128-1.558-.383a2.614 2.614 0 0 1-1.009-1.074c-.237-.462-.356-.996-.356-1.605 0-.613.119-1.149.356-1.608a2.584 2.584 0 0 1 1.009-1.074c.438-.258.957-.387 1.558-.387.6 0 1.118.129 1.554.387a2.58 2.58 0 0 1 1.013 1.074c.237.459.355.995.355 1.608 0 .609-.118 1.143-.355 1.605a2.61 2.61 0 0 1-1.013 1.074c-.436.255-.954.383-1.554.383Zm.007-1.276c.274 0 .502-.077.685-.232a1.43 1.43 0 0 0 .413-.641c.096-.271.143-.579.143-.924a2.75 2.75 0 0 0-.143-.924 1.429 1.429 0 0 0-.413-.642 1.015 1.015 0 0 0-.685-.236c-.275 0-.507.079-.695.236a1.45 1.45 0 0 0-.422.642 2.83 2.83 0 0 0-.139.924c0 .345.046.653.139.924.096.27.236.484.422.641.188.155.42.232.695.232Zm8.927-3.085-1.508.093a.781.781 0 0 0-.166-.348.886.886 0 0 0-.337-.251 1.146 1.146 0 0 0-.491-.097c-.255 0-.47.055-.645.163-.175.105-.263.247-.263.425a.46.46 0 0 0 .17.36c.113.097.308.176.584.235l1.074.217c.578.118 1.008.309 1.292.572.283.263.425.608.425 1.036 0 .389-.115.731-.344 1.024a2.235 2.235 0 0 1-.936.689c-.394.162-.849.243-1.364.243-.786 0-1.413-.164-1.879-.491a1.913 1.913 0 0 1-.816-1.345l1.62-.085a.833.833 0 0 0 .356.549c.188.123.429.185.723.185.288 0 .52-.055.695-.166.178-.113.268-.259.271-.437a.457.457 0 0 0-.189-.367c-.124-.098-.315-.173-.573-.224l-1.028-.205c-.58-.116-1.011-.317-1.295-.603-.281-.286-.421-.651-.421-1.094 0-.382.103-.71.309-.986.209-.276.501-.488.878-.638.378-.149.822-.224 1.329-.224.75 0 1.34.158 1.771.475.433.317.685.749.758 1.295Zm3.878 4.361c-.611 0-1.137-.124-1.577-.371a2.543 2.543 0 0 1-1.013-1.059c-.237-.459-.356-1.002-.356-1.628 0-.611.119-1.147.356-1.608a2.626 2.626 0 0 1 1.001-1.078c.433-.258.941-.387 1.523-.387a3.1 3.1 0 0 1 1.094.189c.34.124.637.311.889.561.255.25.454.564.596.943.141.376.212.817.212 1.322v.453h-5.014v-1.021h3.464c0-.237-.051-.447-.155-.63a1.106 1.106 0 0 0-.429-.429 1.219 1.219 0 0 0-.63-.159c-.25 0-.471.058-.665.174-.19.114-.34.267-.448.46a1.298 1.298 0 0 0-.166.638v.97c0 .294.054.548.162.762.111.214.267.379.468.495.201.116.439.174.715.174.183 0 .35-.026.502-.078a1.002 1.002 0 0 0 .638-.61l1.523.1a2.073 2.073 0 0 1-.475.959c-.237.27-.544.482-.92.634a3.478 3.478 0 0 1-1.295.224Zm11.6-5.474a1.743 1.743 0 0 0-.228-.499 1.44 1.44 0 0 0-.359-.371 1.546 1.546 0 0 0-.48-.235 1.996 1.996 0 0 0-.591-.082 1.9 1.9 0 0 0-1.067.302c-.304.201-.541.493-.712.877-.17.382-.255.848-.255 1.4 0 .551.084 1.02.252 1.407.167.387.404.682.711.885.307.201.669.302 1.086.302.379 0 .702-.067.97-.201.271-.137.477-.329.619-.576.144-.248.216-.54.216-.878l.341.05h-2.041v-1.26h3.312v.998c0 .695-.146 1.293-.44 1.793a3 3 0 0 1-1.214 1.152c-.515.268-1.106.402-1.771.402-.742 0-1.394-.163-1.956-.491-.561-.33-1-.797-1.314-1.403-.312-.608-.468-1.33-.468-2.165 0-.641.093-1.214.279-1.716.188-.505.451-.933.788-1.284.338-.35.731-.617 1.179-.8a3.822 3.822 0 0 1 1.458-.274c.448 0 .866.065 1.252.197.387.129.729.312 1.028.549.302.237.548.519.739.846.191.325.313.683.367 1.075h-1.701Zm5.684 5.474c-.601 0-1.12-.128-1.558-.383a2.614 2.614 0 0 1-1.009-1.074c-.237-.462-.356-.996-.356-1.605 0-.613.119-1.149.356-1.608a2.584 2.584 0 0 1 1.009-1.074c.438-.258.957-.387 1.558-.387.6 0 1.118.129 1.554.387a2.58 2.58 0 0 1 1.013 1.074c.237.459.355.995.355 1.608 0 .609-.118 1.143-.355 1.605a2.61 2.61 0 0 1-1.013 1.074c-.436.255-.954.383-1.554.383Zm.007-1.276c.274 0 .502-.077.685-.232a1.43 1.43 0 0 0 .413-.641c.096-.271.143-.579.143-.924a2.75 2.75 0 0 0-.143-.924 1.429 1.429 0 0 0-.413-.642 1.015 1.015 0 0 0-.685-.236c-.275 0-.507.079-.695.236a1.45 1.45 0 0 0-.422.642 2.83 2.83 0 0 0-.139.924c0 .345.046.653.139.924.096.27.236.484.422.641.188.155.42.232.695.232Zm5.633-6.757v7.917h-1.647v-7.917h1.647Zm3.507 8.014a2.24 2.24 0 0 1-1.225-.348c-.364-.235-.652-.579-.866-1.032-.212-.457-.317-1.016-.317-1.678 0-.68.109-1.246.328-1.697.219-.454.511-.793.874-1.017.366-.227.767-.34 1.202-.34.333 0 .61.057.831.17.225.111.405.25.542.418.139.164.244.327.317.487h.05v-2.977h1.643v7.917h-1.624v-.951h-.069a2.13 2.13 0 0 1-.329.491 1.62 1.62 0 0 1-.545.398 1.872 1.872 0 0 1-.812.159Zm.522-1.311c.265 0 .49-.072.673-.216.185-.147.327-.352.425-.615.1-.263.151-.571.151-.924 0-.353-.049-.66-.147-.92a1.328 1.328 0 0 0-.425-.603 1.084 1.084 0 0 0-.677-.213c-.271 0-.499.074-.684.221-.186.147-.326.35-.422.611-.095.26-.143.561-.143.904 0 .346.048.651.143.916.098.263.239.469.422.619.185.147.413.22.684.22Zm5.228 3.441c-.209 0-.405-.017-.588-.05a2.162 2.162 0 0 1-.449-.12l.372-1.23c.193.06.367.092.521.097a.664.664 0 0 0 .406-.108c.116-.078.21-.209.283-.395l.096-.251-2.13-6.108h1.732l1.229 4.361h.062l1.241-4.361h1.744l-2.308 6.58a2.768 2.768 0 0 1-.453.835 1.858 1.858 0 0 1-.715.553c-.288.131-.636.197-1.043.197ZM235.045 176.413v6.157h-.929v-6.157h.929Zm2.18 3.415v2.742h-.899v-4.618h.863v.752h.057c.106-.245.273-.441.499-.59.229-.148.516-.222.863-.222.315 0 .59.066.827.198.236.131.42.325.55.584.13.258.196.578.196.959v2.937h-.9v-2.829c0-.335-.087-.596-.261-.785-.174-.19-.414-.285-.719-.285-.208 0-.394.045-.556.135a.97.97 0 0 0-.382.397 1.311 1.311 0 0 0-.138.625Zm6.317-1.876v.722h-2.523v-.722h2.523Zm-1.846-1.106h.899v4.368c0 .175.026.306.078.394a.412.412 0 0 0 .202.178c.084.03.175.045.273.045.072 0 .135-.005.19-.015l.126-.024.162.742a1.775 1.775 0 0 1-.583.096 1.589 1.589 0 0 1-.662-.126 1.136 1.136 0 0 1-.496-.409c-.126-.184-.189-.416-.189-.694v-4.555Zm4.781 5.818c-.455 0-.847-.098-1.175-.292a1.977 1.977 0 0 1-.758-.827c-.176-.357-.265-.775-.265-1.254 0-.473.089-.89.265-1.251a2.05 2.05 0 0 1 .746-.844c.32-.203.695-.304 1.124-.304.261 0 .513.043.758.129.244.086.464.222.658.406.195.184.348.424.46.719.113.292.169.648.169 1.067v.319h-3.671v-.674h2.79c0-.236-.048-.446-.145-.628a1.085 1.085 0 0 0-.405-.436 1.139 1.139 0 0 0-.608-.159c-.252 0-.473.062-.661.186a1.246 1.246 0 0 0-.433.481c-.1.196-.151.41-.151.64v.527c0 .308.055.571.163.787.11.217.263.382.46.496.196.113.426.169.688.169.171 0 .326-.024.466-.072a.963.963 0 0 0 .599-.587l.851.154c-.069.25-.191.47-.367.658a1.772 1.772 0 0 1-.659.436 2.466 2.466 0 0 1-.899.154Zm2.979-.094v-4.618h.869v.734h.048a1.12 1.12 0 0 1 .445-.587c.215-.144.457-.216.728-.216a3.834 3.834 0 0 1 .382.021v.86a1.636 1.636 0 0 0-.193-.033 1.832 1.832 0 0 0-.276-.021c-.213 0-.402.045-.569.135a.998.998 0 0 0-.39.37.993.993 0 0 0-.145.535v2.82h-.899Zm3.25 0v-4.618h.899v4.618h-.899Zm.454-5.331a.57.57 0 0 1-.403-.156.509.509 0 0 1-.166-.379c0-.148.056-.274.166-.379a.565.565 0 0 1 .403-.159c.156 0 .289.053.4.159a.5.5 0 0 1 .168.379.504.504 0 0 1-.168.379.564.564 0 0 1-.4.156Zm3.6 5.425c-.433 0-.811-.1-1.134-.298a2.013 2.013 0 0 1-.752-.833c-.178-.357-.267-.774-.267-1.251 0-.479.089-.898.267-1.257.179-.358.429-.637.752-.835.323-.199.701-.298 1.134-.298.432 0 .81.099 1.133.298.323.198.573.477.752.835.178.359.267.778.267 1.257 0 .477-.089.894-.267 1.251a2.013 2.013 0 0 1-.752.833 2.126 2.126 0 0 1-1.133.298Zm.003-.755c.28 0 .513-.074.697-.223a1.3 1.3 0 0 0 .409-.592c.09-.247.135-.518.135-.815 0-.294-.045-.565-.135-.812a1.324 1.324 0 0 0-.409-.598c-.184-.15-.417-.225-.697-.225-.283 0-.518.075-.704.225-.184.15-.322.35-.412.598a2.405 2.405 0 0 0-.132.812c0 .297.044.568.132.815.09.247.228.444.412.592.186.149.421.223.704.223Zm3.153.661v-4.618h.869v.734h.048c.084-.249.232-.444.445-.587.214-.144.457-.216.727-.216a3.838 3.838 0 0 1 .382.021v.86c-.036-.01-.1-.021-.192-.033a1.845 1.845 0 0 0-.277-.021c-.212 0-.402.045-.568.135a1.001 1.001 0 0 0-.535.905v2.82h-.899Zm7.556 0h-1.994v-6.157h2.057c.603 0 1.121.123 1.554.369.433.245.765.597.996 1.056.232.457.348 1.005.348 1.644 0 .642-.117 1.193-.352 1.654a2.461 2.461 0 0 1-1.01 1.064c-.441.247-.974.37-1.599.37Zm-1.065-.811h1.014c.469 0 .858-.089 1.169-.265.311-.178.543-.436.698-.773.154-.339.231-.751.231-1.239 0-.483-.077-.893-.231-1.229a1.636 1.636 0 0 0-.683-.767c-.302-.174-.678-.262-1.127-.262h-1.071v4.535Zm7.1.905c-.455 0-.847-.098-1.176-.292a1.981 1.981 0 0 1-.757-.827c-.177-.357-.265-.775-.265-1.254 0-.473.088-.89.265-1.251.178-.36.427-.642.745-.844a2.06 2.06 0 0 1 1.125-.304c.26 0 .513.043.757.129.245.086.464.222.659.406.194.184.348.424.46.719.112.292.168.648.168 1.067v.319h-3.671v-.674h2.79c0-.236-.048-.446-.144-.628a1.08 1.08 0 0 0-.406-.436 1.135 1.135 0 0 0-.607-.159c-.253 0-.473.062-.662.186-.186.122-.33.283-.433.481-.1.196-.15.41-.15.64v.527c0 .308.054.571.162.787.111.217.264.382.46.496.197.113.426.169.689.169.17 0 .326-.024.466-.072a.96.96 0 0 0 .598-.587l.851.154c-.068.25-.19.47-.367.658a1.768 1.768 0 0 1-.658.436 2.47 2.47 0 0 1-.899.154Zm6.44-3.584-.815.144a.95.95 0 0 0-.163-.298.801.801 0 0 0-.294-.231 1.072 1.072 0 0 0-.466-.091c-.255 0-.467.058-.638.172-.17.112-.255.257-.255.436 0 .154.057.278.171.373.114.094.299.171.553.231l.734.169c.425.098.742.249.95.454.208.204.313.47.313.796 0 .277-.08.524-.241.74-.158.214-.38.383-.664.505a2.466 2.466 0 0 1-.983.184c-.518 0-.94-.111-1.266-.331a1.402 1.402 0 0 1-.602-.947l.869-.133a.836.836 0 0 0 .334.515c.168.114.388.171.658.171.295 0 .531-.061.707-.184.176-.124.265-.275.265-.454a.468.468 0 0 0-.163-.363c-.106-.099-.269-.173-.49-.223l-.782-.171c-.431-.098-.749-.255-.956-.469-.204-.215-.306-.486-.306-.815 0-.273.076-.511.228-.716.152-.204.363-.363.632-.478.268-.116.576-.174.923-.174.499 0 .892.108 1.178.325.287.214.476.502.569.863Zm1.078 3.49v-4.618h.899v4.618h-.899Zm.454-5.331a.574.574 0 0 1-.403-.156.508.508 0 0 1-.165-.379c0-.148.055-.274.165-.379a.568.568 0 0 1 .403-.159c.157 0 .29.053.4.159a.5.5 0 0 1 .168.379.504.504 0 0 1-.168.379.56.56 0 0 1-.4.156Zm3.591 7.159c-.367 0-.683-.048-.947-.144a1.826 1.826 0 0 1-.644-.382 1.603 1.603 0 0 1-.372-.52l.772-.319c.054.089.127.182.217.28.092.1.216.185.373.256.158.07.361.105.61.105.341 0 .622-.083.845-.25.222-.164.334-.427.334-.788v-.908h-.058a2.004 2.004 0 0 1-.234.328c-.1.12-.239.225-.415.313s-.406.132-.689.132a1.93 1.93 0 0 1-.986-.255 1.817 1.817 0 0 1-.691-.761c-.169-.337-.253-.751-.253-1.242s.083-.912.25-1.263c.168-.35.399-.619.691-.805.293-.189.625-.283.996-.283.286 0 .518.048.694.144.176.094.314.205.412.331.1.126.177.237.231.334h.067v-.749h.881v4.721c0 .396-.093.722-.277.977a1.626 1.626 0 0 1-.749.565 2.888 2.888 0 0 1-1.058.183Zm-.009-2.643c.259 0 .477-.06.655-.18a1.12 1.12 0 0 0 .409-.523c.095-.229.142-.502.142-.821 0-.311-.046-.584-.139-.821a1.215 1.215 0 0 0-.406-.553 1.067 1.067 0 0 0-.661-.201c-.271 0-.496.07-.677.21a1.27 1.27 0 0 0-.408.565 2.23 2.23 0 0 0-.136.8c0 .303.046.568.139.797.092.228.228.407.408.535.183.128.407.192.674.192Zm4.197-1.927v2.742h-.899v-4.618h.863v.752h.057a1.33 1.33 0 0 1 .499-.59c.229-.148.517-.222.863-.222.315 0 .591.066.827.198.237.131.42.325.55.584.131.258.196.578.196.959v2.937h-.899v-2.829c0-.335-.087-.596-.262-.785-.174-.19-.414-.285-.718-.285-.209 0-.394.045-.557.135a.967.967 0 0 0-.381.397 1.3 1.3 0 0 0-.139.625Zm6.152 2.836c-.455 0-.847-.098-1.176-.292a1.981 1.981 0 0 1-.757-.827c-.177-.357-.265-.775-.265-1.254 0-.473.088-.89.265-1.251.178-.36.427-.642.745-.844a2.06 2.06 0 0 1 1.125-.304c.26 0 .513.043.758.129.244.086.464.222.658.406.194.184.348.424.46.719.112.292.168.648.168 1.067v.319h-3.671v-.674h2.79c0-.236-.048-.446-.144-.628a1.08 1.08 0 0 0-.406-.436 1.135 1.135 0 0 0-.607-.159c-.253 0-.473.062-.662.186-.186.122-.33.283-.433.481-.1.196-.15.41-.15.64v.527c0 .308.054.571.162.787.111.217.264.382.461.496.196.113.425.169.688.169.17 0 .326-.024.466-.072a.96.96 0 0 0 .598-.587l.851.154c-.068.25-.19.47-.366.658a1.772 1.772 0 0 1-.659.436 2.47 2.47 0 0 1-.899.154Zm2.979-.094v-4.618h.869v.734h.048c.084-.249.232-.444.445-.587.214-.144.457-.216.728-.216a3.834 3.834 0 0 1 .381.021v.86c-.036-.01-.1-.021-.192-.033a1.835 1.835 0 0 0-.277-.021c-.212 0-.401.045-.568.135a1.001 1.001 0 0 0-.535.905v2.82h-.899Z"/></svg>