<svg width="329" height="204" viewBox="0 0 329 204" fill="none" xmlns="http://www.w3.org/2000/svg">
<rect x="0.00195312" y="0.0234375" width="329" height="202.999" rx="3.02389" fill="#134B93"/>
<rect width="87.0874" height="87.0884" transform="translate(42.3369 58.082)" fill="#134B93"/>
<rect x="48.0947" y="63.8398" width="3.59868" height="3.59868" fill="white"/>
<rect x="51.6943" y="63.8398" width="3.59868" height="3.59868" fill="white"/>
<rect x="55.2861" y="63.8398" width="3.59868" height="3.59868" fill="white"/>
<rect x="58.8857" y="63.8398" width="3.59868" height="3.59868" fill="white"/>
<rect x="62.4941" y="63.8398" width="3.59868" height="3.59868" fill="white"/>
<rect x="66.0859" y="63.8398" width="3.59868" height="3.59868" fill="white"/>
<rect x="69.6855" y="63.8398" width="3.59868" height="3.59868" fill="white"/>
<rect x="84.085" y="63.8398" width="3.59868" height="3.59868" fill="white"/>
<rect x="87.6768" y="63.8398" width="3.59868" height="3.59868" fill="white"/>
<rect x="91.2773" y="63.8398" width="3.59868" height="3.59868" fill="white"/>
<rect x="98.4766" y="63.8398" width="3.59868" height="3.59868" fill="white"/>
<rect x="102.068" y="63.8398" width="3.59868" height="3.59868" fill="white"/>
<rect x="105.677" y="63.8398" width="3.59868" height="3.59868" fill="white"/>
<rect x="109.276" y="63.8398" width="3.59868" height="3.59868" fill="white"/>
<rect x="112.876" y="63.8398" width="3.59868" height="3.59868" fill="white"/>
<rect x="116.468" y="63.8398" width="3.59868" height="3.59868" fill="white"/>
<rect x="120.067" y="63.8398" width="3.59868" height="3.59868" fill="white"/>
<rect x="48.0947" y="67.4375" width="3.59868" height="3.59868" fill="white"/>
<rect x="69.6855" y="67.4375" width="3.59868" height="3.59868" fill="white"/>
<rect x="76.877" y="67.4375" width="3.59868" height="3.59868" fill="white"/>
<rect x="80.4775" y="67.4375" width="3.59868" height="3.59868" fill="white"/>
<rect x="84.085" y="67.4375" width="3.59868" height="3.59868" fill="white"/>
<rect x="91.2773" y="67.4375" width="3.59868" height="3.59868" fill="white"/>
<rect x="98.4766" y="67.4375" width="3.59868" height="3.59868" fill="white"/>
<rect x="120.067" y="67.4375" width="3.59868" height="3.59868" fill="white"/>
<rect x="48.0947" y="71.0371" width="3.59868" height="3.59868" fill="white"/>
<rect x="55.2861" y="71.0371" width="3.59868" height="3.59868" fill="white"/>
<rect x="58.8857" y="71.0371" width="3.59868" height="3.59868" fill="white"/>
<rect x="62.4941" y="71.0371" width="3.59868" height="3.59868" fill="white"/>
<rect x="69.6855" y="71.0371" width="3.59868" height="3.59868" fill="white"/>
<rect x="84.085" y="71.0371" width="3.59868" height="3.59868" fill="white"/>
<rect x="87.6768" y="71.0371" width="3.59868" height="3.59868" fill="white"/>
<rect x="91.2773" y="71.0371" width="3.59868" height="3.59868" fill="white"/>
<rect x="98.4766" y="71.0371" width="3.59868" height="3.59868" fill="white"/>
<rect x="105.677" y="71.0371" width="3.59868" height="3.59868" fill="white"/>
<rect x="109.276" y="71.0371" width="3.59868" height="3.59868" fill="white"/>
<rect x="112.876" y="71.0371" width="3.59868" height="3.59868" fill="white"/>
<rect x="120.067" y="71.0371" width="3.59868" height="3.59868" fill="white"/>
<rect x="48.0947" y="74.6367" width="3.59868" height="3.59868" fill="white"/>
<rect x="55.2861" y="74.6367" width="3.59868" height="3.59868" fill="white"/>
<rect x="58.8857" y="74.6367" width="3.59868" height="3.59868" fill="white"/>
<rect x="62.4941" y="74.6367" width="3.59868" height="3.59868" fill="white"/>
<rect x="69.6855" y="74.6367" width="3.59868" height="3.59868" fill="white"/>
<rect x="76.877" y="74.6367" width="3.59868" height="3.59868" fill="white"/>
<rect x="80.4775" y="74.6367" width="3.59868" height="3.59868" fill="white"/>
<rect x="91.2773" y="74.6367" width="3.59868" height="3.59868" fill="white"/>
<rect x="98.4766" y="74.6367" width="3.59868" height="3.59868" fill="white"/>
<rect x="105.677" y="74.6367" width="3.59868" height="3.59868" fill="white"/>
<rect x="109.276" y="74.6367" width="3.59868" height="3.59868" fill="white"/>
<rect x="112.876" y="74.6367" width="3.59868" height="3.59868" fill="white"/>
<rect x="120.067" y="74.6367" width="3.59868" height="3.59868" fill="white"/>
<rect x="48.0947" y="78.2344" width="3.59868" height="3.59868" fill="white"/>
<rect x="55.2861" y="78.2344" width="3.59868" height="3.59868" fill="white"/>
<rect x="58.8857" y="78.2344" width="3.59868" height="3.59868" fill="white"/>
<rect x="62.4941" y="78.2344" width="3.59868" height="3.59868" fill="white"/>
<rect x="69.6855" y="78.2344" width="3.59868" height="3.59868" fill="white"/>
<rect x="80.4775" y="78.2344" width="3.59868" height="3.59868" fill="white"/>
<rect x="91.2773" y="78.2344" width="3.59868" height="3.59868" fill="white"/>
<rect x="98.4766" y="78.2344" width="3.59868" height="3.59868" fill="white"/>
<rect x="105.677" y="78.2344" width="3.59868" height="3.59868" fill="white"/>
<rect x="109.276" y="78.2344" width="3.59868" height="3.59868" fill="white"/>
<rect x="112.876" y="78.2344" width="3.59868" height="3.59868" fill="white"/>
<rect x="120.067" y="78.2344" width="3.59868" height="3.59868" fill="white"/>
<rect x="48.0947" y="81.834" width="3.59868" height="3.59868" fill="white"/>
<rect x="69.6855" y="81.834" width="3.59868" height="3.59868" fill="white"/>
<rect x="76.877" y="81.834" width="3.59868" height="3.59868" fill="white"/>
<rect x="87.6768" y="81.834" width="3.59868" height="3.59868" fill="white"/>
<rect x="98.4766" y="81.834" width="3.59868" height="3.59868" fill="white"/>
<rect x="120.067" y="81.834" width="3.59868" height="3.59868" fill="white"/>
<rect x="48.0947" y="85.4316" width="3.59868" height="3.59868" fill="white"/>
<rect x="51.6943" y="85.4316" width="3.59868" height="3.59868" fill="white"/>
<rect x="55.2861" y="85.4316" width="3.59868" height="3.59868" fill="white"/>
<rect x="58.8857" y="85.4316" width="3.59868" height="3.59868" fill="white"/>
<rect x="62.4941" y="85.4316" width="3.59868" height="3.59868" fill="white"/>
<rect x="66.0859" y="85.4316" width="3.59868" height="3.59868" fill="white"/>
<rect x="69.6855" y="85.4316" width="3.59868" height="3.59868" fill="white"/>
<rect x="76.877" y="85.4316" width="3.59868" height="3.59868" fill="white"/>
<rect x="84.085" y="85.4316" width="3.59868" height="3.59868" fill="white"/>
<rect x="91.2773" y="85.4316" width="3.59868" height="3.59868" fill="white"/>
<rect x="98.4766" y="85.4316" width="3.59868" height="3.59868" fill="white"/>
<rect x="102.068" y="85.4316" width="3.59868" height="3.59868" fill="white"/>
<rect x="105.677" y="85.4316" width="3.59868" height="3.59868" fill="white"/>
<rect x="109.276" y="85.4316" width="3.59868" height="3.59868" fill="white"/>
<rect x="112.876" y="85.4316" width="3.59868" height="3.59868" fill="white"/>
<rect x="116.468" y="85.4316" width="3.59868" height="3.59868" fill="white"/>
<rect x="120.067" y="85.4316" width="3.59868" height="3.59868" fill="white"/>
<rect x="80.4775" y="89.0312" width="3.59868" height="3.59868" fill="white"/>
<rect x="48.0947" y="92.6289" width="3.59868" height="3.59868" fill="white"/>
<rect x="51.6943" y="92.6289" width="3.59868" height="3.59868" fill="white"/>
<rect x="55.2861" y="92.6289" width="3.59868" height="3.59868" fill="white"/>
<rect x="58.8857" y="92.6289" width="3.59868" height="3.59868" fill="white"/>
<rect x="62.4941" y="92.6289" width="3.59868" height="3.59868" fill="white"/>
<rect x="69.6855" y="92.6289" width="3.59868" height="3.59868" fill="white"/>
<rect x="73.2861" y="92.6289" width="3.59868" height="3.59868" fill="white"/>
<rect x="76.877" y="92.6289" width="3.59868" height="3.59868" fill="white"/>
<rect x="87.6768" y="92.6289" width="3.59868" height="3.59868" fill="white"/>
<rect x="94.877" y="92.6289" width="3.59868" height="3.59868" fill="white"/>
<rect x="102.068" y="92.6289" width="3.59868" height="3.59868" fill="white"/>
<rect x="109.276" y="92.6289" width="3.59868" height="3.59868" fill="white"/>
<rect x="116.468" y="92.6289" width="3.59868" height="3.59868" fill="white"/>
<rect x="48.0947" y="96.2285" width="3.59868" height="3.59868" fill="white"/>
<rect x="55.2861" y="96.2285" width="3.59868" height="3.59868" fill="white"/>
<rect x="76.877" y="96.2285" width="3.59868" height="3.59868" fill="white"/>
<rect x="80.4775" y="96.2285" width="3.59868" height="3.59868" fill="white"/>
<rect x="87.6768" y="96.2285" width="3.59868" height="3.59868" fill="white"/>
<rect x="91.2773" y="96.2285" width="3.59868" height="3.59868" fill="white"/>
<rect x="94.877" y="96.2285" width="3.59868" height="3.59868" fill="white"/>
<rect x="98.4766" y="96.2285" width="3.59868" height="3.59868" fill="white"/>
<rect x="109.276" y="96.2285" width="3.59868" height="3.59868" fill="white"/>
<rect x="112.876" y="96.2285" width="3.59868" height="3.59868" fill="white"/>
<rect x="120.067" y="96.2285" width="3.59868" height="3.59868" fill="white"/>
<rect x="62.4941" y="99.8262" width="3.59868" height="3.59868" fill="white"/>
<rect x="69.6855" y="99.8262" width="3.59868" height="3.59868" fill="white"/>
<rect x="76.877" y="99.8262" width="3.59868" height="3.59868" fill="white"/>
<rect x="80.4775" y="99.8262" width="3.59868" height="3.59868" fill="white"/>
<rect x="91.2773" y="99.8262" width="3.59868" height="3.59868" fill="white"/>
<rect x="98.4766" y="99.8262" width="3.59868" height="3.59868" fill="white"/>
<rect x="102.068" y="99.8262" width="3.59868" height="3.59868" fill="white"/>
<rect x="109.276" y="99.8262" width="3.59868" height="3.59868" fill="white"/>
<rect x="116.468" y="99.8262" width="3.59868" height="3.59868" fill="white"/>
<rect x="48.0947" y="103.426" width="3.59868" height="3.59868" fill="white"/>
<rect x="66.0859" y="103.426" width="3.59868" height="3.59868" fill="white"/>
<rect x="73.2861" y="103.426" width="3.59868" height="3.59868" fill="white"/>
<rect x="84.085" y="103.426" width="3.59868" height="3.59868" fill="white"/>
<rect x="87.6768" y="103.426" width="3.59868" height="3.59868" fill="white"/>
<rect x="91.2773" y="103.426" width="3.59868" height="3.59868" fill="white"/>
<rect x="94.877" y="103.426" width="3.59868" height="3.59868" fill="white"/>
<rect x="98.4766" y="103.426" width="3.59868" height="3.59868" fill="white"/>
<rect x="109.276" y="103.426" width="3.59868" height="3.59868" fill="white"/>
<rect x="112.876" y="103.426" width="3.59868" height="3.59868" fill="white"/>
<rect x="116.468" y="103.426" width="3.59868" height="3.59868" fill="white"/>
<rect x="120.067" y="103.426" width="3.59868" height="3.59868" fill="white"/>
<rect x="48.0947" y="107.023" width="3.59868" height="3.59868" fill="white"/>
<rect x="51.6943" y="107.023" width="3.59868" height="3.59868" fill="white"/>
<rect x="69.6855" y="107.023" width="3.59868" height="3.59868" fill="white"/>
<rect x="80.4775" y="107.023" width="3.59868" height="3.59868" fill="white"/>
<rect x="91.2773" y="107.023" width="3.59868" height="3.59868" fill="white"/>
<rect x="102.068" y="107.023" width="3.59868" height="3.59868" fill="white"/>
<rect x="116.468" y="107.023" width="3.59868" height="3.59868" fill="white"/>
<rect x="76.877" y="110.623" width="3.59868" height="3.59868" fill="white"/>
<rect x="84.085" y="110.623" width="3.59868" height="3.59868" fill="white"/>
<rect x="91.2773" y="110.623" width="3.59868" height="3.59868" fill="white"/>
<rect x="102.068" y="110.623" width="3.59868" height="3.59868" fill="white"/>
<rect x="109.276" y="110.623" width="3.59868" height="3.59868" fill="white"/>
<rect x="112.876" y="110.623" width="3.59868" height="3.59868" fill="white"/>
<rect x="120.067" y="110.623" width="3.59868" height="3.59868" fill="white"/>
<rect x="48.0947" y="114.223" width="3.59868" height="3.59868" fill="white"/>
<rect x="51.6943" y="114.223" width="3.59868" height="3.59868" fill="white"/>
<rect x="55.2861" y="114.223" width="3.59868" height="3.59868" fill="white"/>
<rect x="58.8857" y="114.223" width="3.59868" height="3.59868" fill="white"/>
<rect x="62.4941" y="114.223" width="3.59868" height="3.59868" fill="white"/>
<rect x="66.0859" y="114.223" width="3.59868" height="3.59868" fill="white"/>
<rect x="69.6855" y="114.223" width="3.59868" height="3.59868" fill="white"/>
<rect x="76.877" y="114.223" width="3.59868" height="3.59868" fill="white"/>
<rect x="80.4775" y="114.223" width="3.59868" height="3.59868" fill="white"/>
<rect x="84.085" y="114.223" width="3.59868" height="3.59868" fill="white"/>
<rect x="87.6768" y="114.223" width="3.59868" height="3.59868" fill="white"/>
<rect x="94.877" y="114.223" width="3.59868" height="3.59868" fill="white"/>
<rect x="105.677" y="114.223" width="3.59868" height="3.59868" fill="white"/>
<rect x="109.276" y="114.223" width="3.59868" height="3.59868" fill="white"/>
<rect x="116.468" y="114.223" width="3.59868" height="3.59868" fill="white"/>
<rect x="48.0947" y="117.82" width="3.59868" height="3.59868" fill="white"/>
<rect x="69.6855" y="117.82" width="3.59868" height="3.59868" fill="white"/>
<rect x="102.068" y="117.82" width="3.59868" height="3.59868" fill="white"/>
<rect x="105.677" y="117.82" width="3.59868" height="3.59868" fill="white"/>
<rect x="109.276" y="117.82" width="3.59868" height="3.59868" fill="white"/>
<rect x="112.876" y="117.82" width="3.59868" height="3.59868" fill="white"/>
<rect x="116.468" y="117.82" width="3.59868" height="3.59868" fill="white"/>
<rect x="48.0947" y="121.418" width="3.59868" height="3.59868" fill="white"/>
<rect x="55.2861" y="121.418" width="3.59868" height="3.59868" fill="white"/>
<rect x="58.8857" y="121.418" width="3.59868" height="3.59868" fill="white"/>
<rect x="62.4941" y="121.418" width="3.59868" height="3.59868" fill="white"/>
<rect x="69.6855" y="121.418" width="3.59868" height="3.59868" fill="white"/>
<rect x="76.877" y="121.418" width="3.59868" height="3.59868" fill="white"/>
<rect x="80.4775" y="121.418" width="3.59868" height="3.59868" fill="white"/>
<rect x="84.085" y="121.418" width="3.59868" height="3.59868" fill="white"/>
<rect x="87.6768" y="121.418" width="3.59868" height="3.59868" fill="white"/>
<rect x="94.877" y="121.418" width="3.59868" height="3.59868" fill="white"/>
<rect x="105.677" y="121.418" width="3.59868" height="3.59868" fill="white"/>
<rect x="116.468" y="121.418" width="3.59868" height="3.59868" fill="white"/>
<rect x="48.0947" y="125.018" width="3.59868" height="3.59868" fill="white"/>
<rect x="55.2861" y="125.018" width="3.59868" height="3.59868" fill="white"/>
<rect x="58.8857" y="125.018" width="3.59868" height="3.59868" fill="white"/>
<rect x="62.4941" y="125.018" width="3.59868" height="3.59868" fill="white"/>
<rect x="69.6855" y="125.018" width="3.59868" height="3.59868" fill="white"/>
<rect x="76.877" y="125.018" width="3.59868" height="3.59868" fill="white"/>
<rect x="80.4775" y="125.018" width="3.59868" height="3.59868" fill="white"/>
<rect x="87.6768" y="125.018" width="3.59868" height="3.59868" fill="white"/>
<rect x="91.2773" y="125.018" width="3.59868" height="3.59868" fill="white"/>
<rect x="94.877" y="125.018" width="3.59868" height="3.59868" fill="white"/>
<rect x="98.4766" y="125.018" width="3.59868" height="3.59868" fill="white"/>
<rect x="102.068" y="125.018" width="3.59868" height="3.59868" fill="white"/>
<rect x="109.276" y="125.018" width="3.59868" height="3.59868" fill="white"/>
<rect x="112.876" y="125.018" width="3.59868" height="3.59868" fill="white"/>
<rect x="48.0947" y="128.615" width="3.59868" height="3.59868" fill="white"/>
<rect x="55.2861" y="128.615" width="3.59868" height="3.59868" fill="white"/>
<rect x="58.8857" y="128.615" width="3.59868" height="3.59868" fill="white"/>
<rect x="62.4941" y="128.615" width="3.59868" height="3.59868" fill="white"/>
<rect x="69.6855" y="128.615" width="3.59868" height="3.59868" fill="white"/>
<rect x="76.877" y="128.615" width="3.59868" height="3.59868" fill="white"/>
<rect x="84.085" y="128.615" width="3.59868" height="3.59868" fill="white"/>
<rect x="91.2773" y="128.615" width="3.59868" height="3.59868" fill="white"/>
<rect x="98.4766" y="128.615" width="3.59868" height="3.59868" fill="white"/>
<rect x="102.068" y="128.615" width="3.59868" height="3.59868" fill="white"/>
<rect x="109.276" y="128.615" width="3.59868" height="3.59868" fill="white"/>
<rect x="48.0947" y="132.215" width="3.59868" height="3.59868" fill="white"/>
<rect x="69.6855" y="132.215" width="3.59868" height="3.59868" fill="white"/>
<rect x="76.877" y="132.215" width="3.59868" height="3.59868" fill="white"/>
<rect x="87.6768" y="132.215" width="3.59868" height="3.59868" fill="white"/>
<rect x="91.2773" y="132.215" width="3.59868" height="3.59868" fill="white"/>
<rect x="94.877" y="132.215" width="3.59868" height="3.59868" fill="white"/>
<rect x="98.4766" y="132.215" width="3.59868" height="3.59868" fill="white"/>
<rect x="105.677" y="132.215" width="3.59868" height="3.59868" fill="white"/>
<rect x="109.276" y="132.215" width="3.59868" height="3.59868" fill="white"/>
<rect x="112.876" y="132.215" width="3.59868" height="3.59868" fill="white"/>
<rect x="48.0947" y="135.814" width="3.59868" height="3.59868" fill="white"/>
<rect x="51.6943" y="135.814" width="3.59868" height="3.59868" fill="white"/>
<rect x="55.2861" y="135.814" width="3.59868" height="3.59868" fill="white"/>
<rect x="58.8857" y="135.814" width="3.59868" height="3.59868" fill="white"/>
<rect x="62.4941" y="135.814" width="3.59868" height="3.59868" fill="white"/>
<rect x="66.0859" y="135.814" width="3.59868" height="3.59868" fill="white"/>
<rect x="69.6855" y="135.814" width="3.59868" height="3.59868" fill="white"/>
<rect x="76.877" y="135.814" width="3.59868" height="3.59868" fill="white"/>
<rect x="84.085" y="135.814" width="3.59868" height="3.59868" fill="white"/>
<rect x="91.2773" y="135.814" width="3.59868" height="3.59868" fill="white"/>
<rect x="116.468" y="135.814" width="3.59868" height="3.59868" fill="white"/>
<path d="M238.362 164.163H240.426L242.607 169.482H242.699L244.88 164.163H246.944V172.08H245.32V166.927H245.255L243.206 172.041H242.1L240.051 166.908H239.986V172.08H238.362V164.163ZM249.985 172.192C249.607 172.192 249.269 172.126 248.973 171.995C248.676 171.861 248.442 171.664 248.269 171.404C248.099 171.141 248.014 170.813 248.014 170.422C248.014 170.092 248.074 169.815 248.195 169.591C248.317 169.366 248.482 169.186 248.69 169.049C248.899 168.913 249.136 168.81 249.402 168.74C249.67 168.67 249.951 168.622 250.244 168.593C250.59 168.557 250.868 168.524 251.079 168.493C251.291 168.459 251.444 168.41 251.539 168.346C251.635 168.281 251.682 168.186 251.682 168.06V168.036C251.682 167.792 251.605 167.602 251.45 167.468C251.298 167.334 251.082 167.267 250.801 167.267C250.505 167.267 250.269 167.333 250.094 167.464C249.918 167.593 249.802 167.756 249.746 167.951L248.223 167.828C248.3 167.467 248.452 167.155 248.679 166.892C248.906 166.627 249.198 166.423 249.556 166.281C249.917 166.137 250.335 166.065 250.809 166.065C251.139 166.065 251.454 166.104 251.756 166.181C252.06 166.258 252.329 166.378 252.564 166.54C252.801 166.703 252.988 166.912 253.124 167.167C253.261 167.419 253.329 167.722 253.329 168.075V172.08H251.767V171.257H251.721C251.626 171.442 251.498 171.606 251.338 171.748C251.179 171.887 250.987 171.996 250.762 172.076C250.538 172.154 250.279 172.192 249.985 172.192ZM250.457 171.056C250.699 171.056 250.913 171.008 251.099 170.913C251.284 170.815 251.43 170.683 251.536 170.518C251.641 170.353 251.694 170.167 251.694 169.958V169.328C251.642 169.361 251.572 169.392 251.481 169.42C251.394 169.446 251.295 169.471 251.184 169.494C251.073 169.514 250.962 169.534 250.851 169.552C250.74 169.567 250.64 169.582 250.55 169.594C250.356 169.623 250.188 169.668 250.043 169.73C249.899 169.792 249.787 169.875 249.707 169.981C249.627 170.084 249.587 170.213 249.587 170.368C249.587 170.592 249.668 170.763 249.831 170.882C249.996 170.998 250.204 171.056 250.457 171.056ZM254.607 172.08V166.142H256.203V167.178H256.265C256.374 166.81 256.555 166.531 256.81 166.343C257.066 166.153 257.359 166.057 257.692 166.057C257.774 166.057 257.863 166.062 257.959 166.073C258.054 166.083 258.138 166.097 258.21 166.115V167.576C258.132 167.553 258.026 167.533 257.889 167.515C257.752 167.497 257.627 167.488 257.514 167.488C257.272 167.488 257.055 167.54 256.864 167.646C256.676 167.749 256.527 167.893 256.416 168.079C256.308 168.265 256.254 168.478 256.254 168.721V172.08H254.607ZM260.553 170.371L260.557 168.396H260.797L262.699 166.142H264.589L262.034 169.127H261.644L260.553 170.371ZM259.061 172.08V164.163H260.708V172.08H259.061ZM262.772 172.08L261.025 169.494L262.123 168.33L264.701 172.08H262.772ZM272.243 166.44C272.212 166.128 272.079 165.886 271.844 165.713C271.61 165.54 271.292 165.454 270.89 165.454C270.616 165.454 270.386 165.493 270.198 165.57C270.009 165.645 269.865 165.749 269.765 165.883C269.667 166.017 269.618 166.169 269.618 166.339C269.613 166.481 269.642 166.605 269.707 166.711C269.774 166.816 269.865 166.908 269.981 166.985C270.097 167.06 270.231 167.125 270.383 167.182C270.535 167.236 270.698 167.283 270.87 167.321L271.581 167.491C271.927 167.569 272.244 167.672 272.532 167.801C272.821 167.93 273.071 168.088 273.282 168.276C273.494 168.464 273.657 168.686 273.773 168.941C273.892 169.196 273.952 169.489 273.955 169.819C273.952 170.303 273.829 170.723 273.584 171.079C273.342 171.432 272.991 171.706 272.532 171.902C272.076 172.096 271.526 172.192 270.882 172.192C270.243 172.192 269.686 172.094 269.212 171.898C268.74 171.703 268.372 171.413 268.106 171.029C267.843 170.642 267.705 170.164 267.693 169.594H269.312C269.33 169.86 269.406 170.081 269.54 170.259C269.677 170.435 269.859 170.567 270.085 170.657C270.315 170.745 270.574 170.789 270.862 170.789C271.146 170.789 271.392 170.748 271.601 170.665C271.812 170.583 271.976 170.468 272.092 170.321C272.208 170.174 272.266 170.005 272.266 169.815C272.266 169.637 272.213 169.487 272.107 169.366C272.004 169.245 271.852 169.142 271.651 169.057C271.453 168.972 271.209 168.895 270.92 168.825L270.058 168.609C269.391 168.446 268.864 168.192 268.477 167.847C268.091 167.502 267.899 167.037 267.901 166.452C267.899 165.972 268.026 165.553 268.284 165.195C268.544 164.837 268.901 164.557 269.355 164.356C269.808 164.155 270.324 164.055 270.901 164.055C271.489 164.055 272.002 164.155 272.44 164.356C272.88 164.557 273.223 164.837 273.468 165.195C273.713 165.553 273.839 165.968 273.847 166.44H272.243ZM277.733 172.196C277.132 172.196 276.613 172.068 276.175 171.813C275.739 171.556 275.403 171.197 275.166 170.739C274.929 170.277 274.81 169.743 274.81 169.134C274.81 168.521 274.929 167.985 275.166 167.526C275.403 167.065 275.739 166.707 276.175 166.452C276.613 166.194 277.132 166.065 277.733 166.065C278.333 166.065 278.851 166.194 279.287 166.452C279.725 166.707 280.063 167.065 280.3 167.526C280.537 167.985 280.655 168.521 280.655 169.134C280.655 169.743 280.537 170.277 280.3 170.739C280.063 171.197 279.725 171.556 279.287 171.813C278.851 172.068 278.333 172.196 277.733 172.196ZM277.741 170.92C278.014 170.92 278.242 170.843 278.425 170.688C278.608 170.531 278.746 170.317 278.839 170.047C278.934 169.776 278.982 169.468 278.982 169.123C278.982 168.777 278.934 168.469 278.839 168.199C278.746 167.928 278.608 167.714 278.425 167.557C278.242 167.4 278.014 167.321 277.741 167.321C277.465 167.321 277.233 167.4 277.045 167.557C276.859 167.714 276.719 167.928 276.623 168.199C276.531 168.469 276.484 168.777 276.484 169.123C276.484 169.468 276.531 169.776 276.623 170.047C276.719 170.317 276.859 170.531 277.045 170.688C277.233 170.843 277.465 170.92 277.741 170.92ZM283.373 164.163V172.08H281.726V164.163H283.373ZM287.375 172.196C286.775 172.196 286.255 172.068 285.817 171.813C285.382 171.556 285.045 171.197 284.808 170.739C284.571 170.277 284.453 169.743 284.453 169.134C284.453 168.521 284.571 167.985 284.808 167.526C285.045 167.065 285.382 166.707 285.817 166.452C286.255 166.194 286.775 166.065 287.375 166.065C287.976 166.065 288.494 166.194 288.929 166.452C289.367 166.707 289.705 167.065 289.942 167.526C290.179 167.985 290.298 168.521 290.298 169.134C290.298 169.743 290.179 170.277 289.942 170.739C289.705 171.197 289.367 171.556 288.929 171.813C288.494 172.068 287.976 172.196 287.375 172.196ZM287.383 170.92C287.656 170.92 287.884 170.843 288.067 170.688C288.25 170.531 288.388 170.317 288.481 170.047C288.576 169.776 288.624 169.468 288.624 169.123C288.624 168.777 288.576 168.469 288.481 168.199C288.388 167.928 288.25 167.714 288.067 167.557C287.884 167.4 287.656 167.321 287.383 167.321C287.107 167.321 286.875 167.4 286.687 167.557C286.501 167.714 286.361 167.928 286.266 168.199C286.173 168.469 286.126 168.777 286.126 169.123C286.126 169.468 286.173 169.776 286.266 170.047C286.361 170.317 286.501 170.531 286.687 170.688C286.875 170.843 287.107 170.92 287.383 170.92ZM291.368 172.08V166.142H292.938V167.19H293.008C293.131 166.842 293.337 166.567 293.626 166.366C293.915 166.165 294.26 166.065 294.662 166.065C295.069 166.065 295.416 166.167 295.702 166.37C295.988 166.571 296.179 166.845 296.274 167.19H296.336C296.457 166.85 296.676 166.578 296.993 166.374C297.313 166.168 297.69 166.065 298.126 166.065C298.68 166.065 299.13 166.241 299.475 166.595C299.823 166.945 299.997 167.442 299.997 168.087V172.08H298.354V168.411C298.354 168.082 298.266 167.834 298.091 167.669C297.916 167.504 297.697 167.422 297.434 167.422C297.135 167.422 296.902 167.517 296.734 167.708C296.567 167.896 296.483 168.145 296.483 168.454V172.08H294.886V168.377C294.886 168.085 294.803 167.854 294.635 167.681C294.47 167.508 294.252 167.422 293.982 167.422C293.799 167.422 293.634 167.468 293.487 167.561C293.343 167.651 293.228 167.779 293.143 167.944C293.058 168.106 293.015 168.297 293.015 168.516V172.08H291.368ZM303.981 172.196C303.38 172.196 302.861 172.068 302.423 171.813C301.987 171.556 301.651 171.197 301.414 170.739C301.177 170.277 301.058 169.743 301.058 169.134C301.058 168.521 301.177 167.985 301.414 167.526C301.651 167.065 301.987 166.707 302.423 166.452C302.861 166.194 303.38 166.065 303.981 166.065C304.581 166.065 305.099 166.194 305.535 166.452C305.973 166.707 306.31 167.065 306.547 167.526C306.784 167.985 306.903 168.521 306.903 169.134C306.903 169.743 306.784 170.277 306.547 170.739C306.31 171.197 305.973 171.556 305.535 171.813C305.099 172.068 304.581 172.196 303.981 172.196ZM303.988 170.92C304.261 170.92 304.49 170.843 304.672 170.688C304.855 170.531 304.993 170.317 305.086 170.047C305.181 169.776 305.229 169.468 305.229 169.123C305.229 168.777 305.181 168.469 305.086 168.199C304.993 167.928 304.855 167.714 304.672 167.557C304.49 167.4 304.261 167.321 303.988 167.321C303.712 167.321 303.481 167.4 303.292 167.557C303.107 167.714 302.966 167.928 302.871 168.199C302.778 168.469 302.732 168.777 302.732 169.123C302.732 169.468 302.778 169.776 302.871 170.047C302.966 170.317 303.107 170.531 303.292 170.688C303.481 170.843 303.712 170.92 303.988 170.92ZM309.621 168.647V172.08H307.974V166.142H309.543V167.19H309.613C309.744 166.845 309.965 166.571 310.274 166.37C310.583 166.167 310.958 166.065 311.399 166.065C311.811 166.065 312.171 166.155 312.477 166.336C312.784 166.516 313.023 166.774 313.193 167.109C313.363 167.441 313.448 167.838 313.448 168.299V172.08H311.801V168.593C311.804 168.23 311.711 167.946 311.523 167.743C311.335 167.537 311.075 167.433 310.746 167.433C310.524 167.433 310.328 167.481 310.158 167.576C309.991 167.672 309.859 167.811 309.764 167.994C309.671 168.174 309.623 168.392 309.621 168.647Z" fill="white"/>
<path d="M238.35 182.57V176.413H240.545C241.022 176.413 241.418 176.495 241.733 176.659C242.05 176.823 242.286 177.051 242.442 177.342C242.599 177.63 242.677 177.964 242.677 178.343C242.677 178.72 242.598 179.051 242.439 179.338C242.283 179.623 242.047 179.844 241.73 180.003C241.415 180.161 241.019 180.24 240.542 180.24H238.88V179.44H240.458C240.759 179.44 241.003 179.397 241.192 179.311C241.382 179.225 241.521 179.1 241.61 178.935C241.698 178.771 241.742 178.573 241.742 178.343C241.742 178.11 241.697 177.909 241.607 177.739C241.518 177.568 241.379 177.438 241.189 177.348C241 177.255 240.753 177.209 240.446 177.209H239.279V182.57H238.35ZM241.39 179.792L242.912 182.57H241.853L240.362 179.792H241.39ZM245.668 182.664C245.213 182.664 244.821 182.566 244.492 182.372C244.166 182.175 243.913 181.9 243.735 181.545C243.558 181.188 243.47 180.77 243.47 180.291C243.47 179.818 243.558 179.401 243.735 179.04C243.913 178.68 244.162 178.398 244.48 178.196C244.801 177.993 245.176 177.892 245.605 177.892C245.865 177.892 246.118 177.935 246.362 178.021C246.607 178.107 246.827 178.243 247.021 178.427C247.215 178.611 247.369 178.851 247.481 179.146C247.593 179.438 247.649 179.794 247.649 180.213V180.532H243.978V179.858H246.768C246.768 179.622 246.72 179.412 246.624 179.23C246.528 179.045 246.393 178.9 246.218 178.794C246.046 178.688 245.843 178.635 245.611 178.635C245.358 178.635 245.138 178.697 244.949 178.821C244.763 178.943 244.619 179.104 244.516 179.302C244.416 179.498 244.366 179.712 244.366 179.942V180.469C244.366 180.777 244.42 181.04 244.528 181.256C244.639 181.473 244.792 181.638 244.988 181.752C245.185 181.865 245.414 181.921 245.677 181.921C245.847 181.921 246.003 181.897 246.143 181.849C246.283 181.799 246.405 181.724 246.507 181.626C246.609 181.528 246.687 181.407 246.741 181.262L247.592 181.416C247.524 181.666 247.402 181.886 247.225 182.074C247.051 182.261 246.832 182.406 246.567 182.51C246.304 182.612 246.005 182.664 245.668 182.664ZM249.991 182.673C249.698 182.673 249.434 182.618 249.197 182.51C248.961 182.4 248.773 182.241 248.635 182.032C248.498 181.824 248.43 181.568 248.43 181.265C248.43 181.005 248.48 180.79 248.581 180.622C248.681 180.454 248.816 180.32 248.987 180.222C249.157 180.124 249.347 180.05 249.558 180C249.768 179.949 249.983 179.911 250.201 179.885C250.478 179.853 250.702 179.827 250.875 179.807C251.047 179.785 251.172 179.75 251.251 179.702C251.329 179.654 251.368 179.576 251.368 179.467V179.446C251.368 179.184 251.294 178.98 251.145 178.836C250.999 178.692 250.781 178.619 250.49 178.619C250.187 178.619 249.949 178.687 249.774 178.821C249.602 178.953 249.483 179.101 249.417 179.263L248.572 179.071C248.672 178.79 248.818 178.563 249.011 178.391C249.205 178.217 249.429 178.09 249.681 178.012C249.934 177.932 250.199 177.892 250.478 177.892C250.662 177.892 250.858 177.914 251.064 177.958C251.273 178 251.467 178.078 251.648 178.193C251.83 178.307 251.979 178.47 252.096 178.683C252.212 178.893 252.27 179.167 252.27 179.503V182.57H251.392V181.939H251.356C251.298 182.055 251.211 182.169 251.094 182.282C250.978 182.394 250.829 182.487 250.646 182.561C250.464 182.635 250.245 182.673 249.991 182.673ZM250.186 181.951C250.435 181.951 250.647 181.902 250.824 181.804C251.002 181.705 251.137 181.577 251.23 181.419C251.324 181.258 251.371 181.087 251.371 180.905V180.309C251.339 180.341 251.277 180.371 251.184 180.399C251.094 180.426 250.991 180.449 250.875 180.469C250.759 180.487 250.645 180.504 250.535 180.52C250.425 180.534 250.333 180.546 250.258 180.556C250.084 180.578 249.925 180.615 249.78 180.667C249.638 180.719 249.524 180.794 249.438 180.893C249.353 180.989 249.311 181.117 249.311 181.277C249.311 181.5 249.393 181.668 249.558 181.783C249.722 181.895 249.932 181.951 250.186 181.951ZM254.366 176.413V182.57H253.467V176.413H254.366ZM257.889 182.57V176.413H261.749V177.212H258.818V179.089H261.548V179.885H258.818V181.771H261.785V182.57H257.889ZM266.379 179.08L265.564 179.224C265.53 179.12 265.476 179.02 265.402 178.926C265.33 178.832 265.231 178.755 265.107 178.695C264.983 178.635 264.827 178.604 264.641 178.604C264.386 178.604 264.174 178.662 264.004 178.776C263.833 178.888 263.748 179.033 263.748 179.212C263.748 179.366 263.805 179.49 263.919 179.585C264.034 179.679 264.218 179.756 264.473 179.816L265.206 179.985C265.631 180.083 265.948 180.234 266.156 180.439C266.365 180.643 266.469 180.909 266.469 181.235C266.469 181.512 266.389 181.759 266.229 181.975C266.07 182.189 265.849 182.358 265.564 182.48C265.281 182.602 264.954 182.664 264.581 182.664C264.064 182.664 263.642 182.553 263.315 182.333C262.988 182.11 262.788 181.795 262.714 181.386L263.583 181.253C263.637 181.48 263.748 181.651 263.916 181.768C264.085 181.882 264.304 181.939 264.575 181.939C264.87 181.939 265.105 181.878 265.281 181.755C265.458 181.631 265.546 181.48 265.546 181.301C265.546 181.157 265.492 181.036 265.384 180.938C265.277 180.839 265.114 180.765 264.894 180.715L264.112 180.544C263.681 180.446 263.362 180.289 263.156 180.075C262.951 179.86 262.849 179.589 262.849 179.26C262.849 178.987 262.925 178.749 263.078 178.544C263.23 178.34 263.44 178.181 263.709 178.066C263.978 177.95 264.285 177.892 264.632 177.892C265.131 177.892 265.524 178 265.811 178.217C266.097 178.431 266.287 178.719 266.379 179.08ZM269.613 177.952V178.674H267.091V177.952H269.613ZM267.767 176.846H268.666V181.214C268.666 181.389 268.692 181.52 268.744 181.608C268.797 181.694 268.864 181.753 268.946 181.786C269.03 181.816 269.121 181.831 269.219 181.831C269.292 181.831 269.355 181.826 269.409 181.816C269.463 181.806 269.505 181.798 269.535 181.792L269.698 182.534C269.645 182.554 269.571 182.574 269.475 182.594C269.379 182.616 269.259 182.628 269.114 182.63C268.878 182.634 268.657 182.592 268.453 182.504C268.248 182.416 268.083 182.28 267.957 182.095C267.83 181.911 267.767 181.679 267.767 181.401V176.846ZM271.952 182.673C271.659 182.673 271.395 182.618 271.158 182.51C270.922 182.4 270.734 182.241 270.596 182.032C270.46 181.824 270.391 181.568 270.391 181.265C270.391 181.005 270.441 180.79 270.542 180.622C270.642 180.454 270.777 180.32 270.948 180.222C271.118 180.124 271.308 180.05 271.519 180C271.729 179.949 271.944 179.911 272.162 179.885C272.439 179.853 272.663 179.827 272.836 179.807C273.008 179.785 273.133 179.75 273.212 179.702C273.29 179.654 273.329 179.576 273.329 179.467V179.446C273.329 179.184 273.255 178.98 273.106 178.836C272.96 178.692 272.742 178.619 272.451 178.619C272.148 178.619 271.91 178.687 271.735 178.821C271.563 178.953 271.444 179.101 271.378 179.263L270.533 179.071C270.633 178.79 270.779 178.563 270.972 178.391C271.166 178.217 271.39 178.09 271.642 178.012C271.895 177.932 272.16 177.892 272.439 177.892C272.623 177.892 272.819 177.914 273.025 177.958C273.234 178 273.428 178.078 273.609 178.193C273.791 178.307 273.94 178.47 274.057 178.683C274.173 178.893 274.231 179.167 274.231 179.503V182.57H273.353V181.939H273.317C273.259 182.055 273.172 182.169 273.055 182.282C272.939 182.394 272.79 182.487 272.607 182.561C272.425 182.635 272.206 182.673 271.952 182.673ZM272.147 181.951C272.396 181.951 272.608 181.902 272.785 181.804C272.963 181.705 273.098 181.577 273.191 181.419C273.285 181.258 273.332 181.087 273.332 180.905V180.309C273.3 180.341 273.238 180.371 273.146 180.399C273.055 180.426 272.952 180.449 272.836 180.469C272.72 180.487 272.606 180.504 272.496 180.52C272.386 180.534 272.294 180.546 272.219 180.556C272.045 180.578 271.886 180.615 271.741 180.667C271.599 180.719 271.485 180.794 271.399 180.893C271.314 180.989 271.272 181.117 271.272 181.277C271.272 181.5 271.355 181.668 271.519 181.783C271.683 181.895 271.893 181.951 272.147 181.951ZM277.584 177.952V178.674H275.062V177.952H277.584ZM275.738 176.846H276.637V181.214C276.637 181.389 276.663 181.52 276.715 181.608C276.767 181.694 276.834 181.753 276.917 181.786C277.001 181.816 277.092 181.831 277.19 181.831C277.262 181.831 277.326 181.826 277.38 181.816C277.434 181.806 277.476 181.798 277.506 181.792L277.668 182.534C277.616 182.554 277.542 182.574 277.446 182.594C277.35 182.616 277.229 182.628 277.085 182.63C276.849 182.634 276.628 182.592 276.424 182.504C276.219 182.416 276.054 182.28 275.927 182.095C275.801 181.911 275.738 181.679 275.738 181.401V176.846ZM280.519 182.664C280.064 182.664 279.673 182.566 279.344 182.372C279.017 182.175 278.765 181.9 278.586 181.545C278.41 181.188 278.322 180.77 278.322 180.291C278.322 179.818 278.41 179.401 278.586 179.04C278.765 178.68 279.013 178.398 279.332 178.196C279.653 177.993 280.027 177.892 280.456 177.892C280.717 177.892 280.969 177.935 281.214 178.021C281.459 178.107 281.678 178.243 281.872 178.427C282.067 178.611 282.22 178.851 282.333 179.146C282.445 179.438 282.501 179.794 282.501 180.213V180.532H278.83V179.858H281.62C281.62 179.622 281.572 179.412 281.476 179.23C281.379 179.045 281.244 178.9 281.07 178.794C280.897 178.688 280.695 178.635 280.462 178.635C280.21 178.635 279.989 178.697 279.801 178.821C279.614 178.943 279.47 179.104 279.368 179.302C279.268 179.498 279.218 179.712 279.218 179.942V180.469C279.218 180.777 279.272 181.04 279.38 181.256C279.49 181.473 279.644 181.638 279.84 181.752C280.036 181.865 280.266 181.921 280.528 181.921C280.699 181.921 280.854 181.897 280.995 181.849C281.135 181.799 281.256 181.724 281.358 181.626C281.461 181.528 281.539 181.407 281.593 181.262L282.444 181.416C282.376 181.666 282.253 181.886 282.077 182.074C281.903 182.261 281.683 182.406 281.418 182.51C281.156 182.612 280.856 182.664 280.519 182.664ZM285.811 182.57V176.413H288.066C288.503 176.413 288.865 176.485 289.152 176.629C289.438 176.771 289.653 176.965 289.795 177.209C289.937 177.452 290.009 177.725 290.009 178.03C290.009 178.287 289.962 178.503 289.867 178.68C289.773 178.854 289.647 178.994 289.488 179.101C289.332 179.205 289.16 179.281 288.971 179.329V179.389C289.176 179.399 289.375 179.465 289.57 179.588C289.766 179.708 289.928 179.879 290.057 180.102C290.185 180.324 290.249 180.595 290.249 180.914C290.249 181.228 290.175 181.511 290.027 181.762C289.88 182.01 289.654 182.208 289.347 182.354C289.04 182.498 288.649 182.57 288.172 182.57H285.811ZM286.74 181.774H288.081C288.526 181.774 288.845 181.687 289.037 181.515C289.23 181.343 289.326 181.127 289.326 180.869C289.326 180.674 289.277 180.496 289.179 180.333C289.081 180.171 288.94 180.042 288.758 179.945C288.577 179.849 288.363 179.801 288.114 179.801H286.74V181.774ZM286.74 179.077H287.985C288.194 179.077 288.381 179.036 288.547 178.956C288.716 178.876 288.849 178.764 288.947 178.619C289.048 178.473 289.098 178.301 289.098 178.102C289.098 177.848 289.008 177.634 288.83 177.462C288.652 177.29 288.378 177.203 288.009 177.203H286.74V179.077ZM291.279 182.57V177.952H292.148V178.686H292.196C292.28 178.437 292.429 178.242 292.641 178.099C292.856 177.955 293.098 177.883 293.369 177.883C293.425 177.883 293.491 177.885 293.567 177.889C293.645 177.893 293.706 177.898 293.751 177.904V178.764C293.714 178.754 293.65 178.743 293.558 178.731C293.466 178.717 293.374 178.71 293.281 178.71C293.069 178.71 292.88 178.755 292.713 178.845C292.549 178.933 292.419 179.056 292.322 179.215C292.226 179.371 292.178 179.55 292.178 179.75V182.57H291.279ZM296.308 182.664C295.875 182.664 295.498 182.564 295.175 182.366C294.852 182.167 294.602 181.89 294.423 181.533C294.245 181.176 294.156 180.759 294.156 180.282C294.156 179.803 294.245 179.384 294.423 179.025C294.602 178.667 294.852 178.388 295.175 178.19C295.498 177.991 295.875 177.892 296.308 177.892C296.741 177.892 297.119 177.991 297.442 178.19C297.765 178.388 298.015 178.667 298.194 179.025C298.372 179.384 298.461 179.803 298.461 180.282C298.461 180.759 298.372 181.176 298.194 181.533C298.015 181.89 297.765 182.167 297.442 182.366C297.119 182.564 296.741 182.664 296.308 182.664ZM296.311 181.909C296.592 181.909 296.825 181.835 297.009 181.686C297.193 181.538 297.33 181.341 297.418 181.094C297.508 180.847 297.553 180.576 297.553 180.279C297.553 179.985 297.508 179.714 297.418 179.467C297.33 179.219 297.193 179.019 297.009 178.869C296.825 178.719 296.592 178.644 296.311 178.644C296.029 178.644 295.794 178.719 295.608 178.869C295.423 179.019 295.286 179.219 295.196 179.467C295.108 179.714 295.064 179.985 295.064 180.279C295.064 180.576 295.108 180.847 295.196 181.094C295.286 181.341 295.423 181.538 295.608 181.686C295.794 181.835 296.029 181.909 296.311 181.909ZM300.292 181.004L300.286 179.906H300.442L302.282 177.952H303.358L301.26 180.177H301.118L300.292 181.004ZM299.465 182.57V176.413H300.364V182.57H299.465ZM302.381 182.57L300.728 180.375L301.347 179.747L303.485 182.57H302.381ZM305.978 182.664C305.523 182.664 305.131 182.566 304.802 182.372C304.476 182.175 304.223 181.9 304.045 181.545C303.868 181.188 303.78 180.77 303.78 180.291C303.78 179.818 303.868 179.401 304.045 179.04C304.223 178.68 304.472 178.398 304.79 178.196C305.111 177.993 305.486 177.892 305.915 177.892C306.175 177.892 306.428 177.935 306.673 178.021C306.917 178.107 307.137 178.243 307.331 178.427C307.526 178.611 307.679 178.851 307.791 179.146C307.903 179.438 307.959 179.794 307.959 180.213V180.532H304.288V179.858H307.079C307.079 179.622 307.03 179.412 306.934 179.23C306.838 179.045 306.703 178.9 306.528 178.794C306.356 178.688 306.153 178.635 305.921 178.635C305.668 178.635 305.448 178.697 305.259 178.821C305.073 178.943 304.929 179.104 304.826 179.302C304.726 179.498 304.676 179.712 304.676 179.942V180.469C304.676 180.777 304.73 181.04 304.839 181.256C304.949 181.473 305.102 181.638 305.299 181.752C305.495 181.865 305.724 181.921 305.987 181.921C306.157 181.921 306.313 181.897 306.453 181.849C306.593 181.799 306.715 181.724 306.817 181.626C306.919 181.528 306.997 181.407 307.051 181.262L307.902 181.416C307.834 181.666 307.712 181.886 307.536 182.074C307.361 182.261 307.142 182.406 306.877 182.51C306.614 182.612 306.315 182.664 305.978 182.664ZM308.957 182.57V177.952H309.826V178.686H309.874C309.958 178.437 310.107 178.242 310.319 178.099C310.533 177.955 310.776 177.883 311.047 177.883C311.103 177.883 311.169 177.885 311.245 177.889C311.323 177.893 311.384 177.898 311.428 177.904V178.764C311.392 178.754 311.328 178.743 311.236 178.731C311.144 178.717 311.052 178.71 310.959 178.71C310.747 178.71 310.558 178.755 310.391 178.845C310.227 178.933 310.096 179.056 310 179.215C309.904 179.371 309.856 179.55 309.856 179.75V182.57H308.957Z" fill="white"/>
<path d="M211.682 39.2148H209.489C209.439 39.2148 209.414 39.1833 209.414 39.1203L209.452 25.8247C209.452 25.7743 209.477 25.7491 209.527 25.7491H211.89C211.94 25.7491 211.984 25.7743 212.022 25.8247L213.789 28.3761L215.547 25.8247C215.584 25.7743 215.632 25.7491 215.688 25.7491H218.06C218.117 25.7491 218.145 25.7743 218.145 25.8247L218.183 39.1203C218.183 39.1833 218.158 39.2148 218.108 39.2148H215.915C215.865 39.2148 215.84 39.1833 215.84 39.1203L215.821 29.2454L213.789 32.1937L211.776 29.2454L211.757 39.1203C211.757 39.1833 211.732 39.2148 211.682 39.2148ZM219.156 39.1203L221.557 25.8247C221.569 25.7743 221.601 25.7491 221.651 25.7491H224.458C224.508 25.7491 224.54 25.7743 224.552 25.8247L226.858 39.1203C226.864 39.1833 226.839 39.2148 226.782 39.2148H224.637C224.574 39.2148 224.54 39.1833 224.533 39.1203L224.325 37.7029H221.689L221.481 39.1203C221.475 39.1833 221.443 39.2148 221.387 39.2148H219.232C219.182 39.2148 219.156 39.1833 219.156 39.1203ZM222.946 30.1999L222.076 35.6334H223.938L223.144 30.1999L223.031 29.4817L222.946 30.1999ZM230.335 39.2148H228.143C228.093 39.2148 228.068 39.1833 228.068 39.1203L228.105 25.8247C228.105 25.7743 228.13 25.7491 228.181 25.7491H232.093C232.792 25.7491 233.435 25.9192 234.021 26.2594C234.607 26.5995 235.073 27.0563 235.419 27.6296C235.772 28.2028 235.949 28.8517 235.949 29.5762C235.949 30.0487 235.876 30.4771 235.731 30.8613C235.586 31.2456 235.416 31.5701 235.221 31.8347C235.032 32.0992 234.859 32.2945 234.701 32.4205C235.4 33.1954 235.75 34.1057 235.75 35.1515L235.769 39.1203C235.769 39.1833 235.737 39.2148 235.674 39.2148H233.482C233.432 39.2148 233.407 39.1959 233.407 39.1581V35.1515C233.407 34.6853 233.243 34.2821 232.915 33.9419C232.588 33.6017 232.184 33.4316 231.706 33.4316H230.43L230.411 39.1203C230.411 39.1833 230.386 39.2148 230.335 39.2148ZM232.093 28.0642H230.43V31.107H232.093C232.49 31.107 232.843 30.959 233.151 30.6629C233.466 30.3668 233.624 30.0046 233.624 29.5762C233.624 29.1667 233.473 28.8139 233.17 28.5178C232.868 28.2154 232.509 28.0642 232.093 28.0642ZM239.672 39.2148H237.479C237.429 39.2148 237.404 39.1833 237.404 39.1203L237.442 25.8247C237.442 25.7743 237.467 25.7491 237.517 25.7491H241.429C242.129 25.7491 242.771 25.9192 243.357 26.2594C243.943 26.5995 244.409 27.0563 244.756 27.6296C245.108 28.2028 245.285 28.8517 245.285 29.5762C245.285 30.0487 245.212 30.4771 245.067 30.8613C244.923 31.2456 244.752 31.5701 244.557 31.8347C244.368 32.0992 244.195 32.2945 244.037 32.4205C244.737 33.1954 245.086 34.1057 245.086 35.1515L245.105 39.1203C245.105 39.1833 245.074 39.2148 245.011 39.2148H242.818C242.768 39.2148 242.743 39.1959 242.743 39.1581V35.1515C242.743 34.6853 242.579 34.2821 242.251 33.9419C241.924 33.6017 241.521 33.4316 241.042 33.4316H239.766L239.747 39.1203C239.747 39.1833 239.722 39.2148 239.672 39.2148ZM241.429 28.0642H239.766V31.107H241.429C241.826 31.107 242.179 30.959 242.488 30.6629C242.803 30.3668 242.96 30.0046 242.96 29.5762C242.96 29.1667 242.809 28.8139 242.507 28.5178C242.204 28.2154 241.845 28.0642 241.429 28.0642ZM250.321 39.4038C249.635 39.4038 249.002 39.2274 248.422 38.8747C247.849 38.5219 247.386 38.0525 247.033 37.4667C246.686 36.8745 246.513 36.2256 246.513 35.52L246.532 29.3872C246.532 28.669 246.705 28.0233 247.052 27.45C247.392 26.8704 247.852 26.4074 248.432 26.0609C249.011 25.7081 249.641 25.5317 250.321 25.5317C251.027 25.5317 251.66 25.705 252.221 26.0515C252.788 26.3979 253.241 26.8641 253.582 27.45C253.928 28.0296 254.101 28.6753 254.101 29.3872L254.12 35.52C254.12 36.2256 253.95 36.8713 253.61 37.4572C253.263 38.0494 252.804 38.5219 252.23 38.8747C251.657 39.2274 251.021 39.4038 250.321 39.4038ZM250.321 37.0698C250.712 37.0698 251.052 36.9123 251.342 36.5973C251.632 36.276 251.777 35.9169 251.777 35.52L251.758 29.3872C251.758 28.9588 251.622 28.5966 251.351 28.3005C251.081 28.0044 250.737 27.8563 250.321 27.8563C249.925 27.8563 249.584 28.0012 249.301 28.291C249.017 28.5808 248.876 28.9462 248.876 29.3872V35.52C248.876 35.9421 249.017 36.3075 249.301 36.6162C249.584 36.9186 249.925 37.0698 250.321 37.0698ZM257.974 25.6097C257.858 26.0613 257.71 26.5516 257.529 27.0806C257.348 27.6095 257.148 28.1385 256.929 28.6675C256.723 29.1836 256.516 29.6739 256.31 30.1383H255.052C255.142 29.7771 255.232 29.39 255.323 28.9772C255.426 28.5643 255.516 28.1514 255.594 27.7386C255.684 27.3128 255.761 26.8999 255.826 26.5C255.903 26.1 255.968 25.7323 256.019 25.3969H257.839L257.974 25.6097ZM262.256 39.4038C261.57 39.4038 260.937 39.2274 260.357 38.8747C259.784 38.5219 259.324 38.0525 258.977 37.4667C258.637 36.8745 258.467 36.2256 258.467 35.52V34.6318C258.467 34.5625 258.499 34.5278 258.562 34.5278H260.735C260.785 34.5278 260.811 34.5625 260.811 34.6318V35.52C260.811 35.9421 260.952 36.3075 261.236 36.6162C261.519 36.9186 261.86 37.0698 262.256 37.0698C262.66 37.0698 263.003 36.9154 263.286 36.6067C263.57 36.2917 263.712 35.9295 263.712 35.52C263.712 35.0475 263.403 34.6349 262.786 34.2821C262.685 34.2191 262.552 34.1435 262.389 34.0553C262.231 33.9608 262.042 33.8537 261.822 33.734C261.601 33.6143 261.387 33.4978 261.179 33.3844C260.971 33.2647 260.77 33.1513 260.574 33.0442C259.869 32.6284 259.343 32.1087 258.996 31.485C258.656 30.855 258.486 30.1495 258.486 29.3683C258.486 28.6501 258.662 28.0012 259.015 27.4217C259.368 26.8484 259.828 26.3948 260.395 26.0609C260.968 25.7207 261.589 25.5506 262.256 25.5506C262.943 25.5506 263.573 25.7207 264.146 26.0609C264.72 26.4074 265.176 26.8673 265.517 27.4406C265.863 28.0138 266.036 28.6564 266.036 29.3683V30.9558C266.036 31.0062 266.011 31.0314 265.961 31.0314H263.787C263.737 31.0314 263.712 31.0062 263.712 30.9558L263.693 29.3683C263.693 28.9147 263.551 28.5462 263.268 28.2627C262.984 27.9792 262.647 27.8374 262.256 27.8374C261.86 27.8374 261.519 27.9886 261.236 28.291C260.952 28.5934 260.811 28.9525 260.811 29.3683C260.811 29.7904 260.899 30.1432 261.075 30.4267C261.258 30.7101 261.589 30.981 262.067 31.2393C262.118 31.2645 262.234 31.3275 262.417 31.4283C262.6 31.5291 262.801 31.6425 263.022 31.7685C263.249 31.8882 263.453 31.9984 263.636 32.0992C263.819 32.1937 263.929 32.2504 263.967 32.2693C264.609 32.6284 265.116 33.0694 265.488 33.5923C265.866 34.1152 266.055 34.7578 266.055 35.52C266.055 36.2571 265.885 36.9186 265.545 37.5045C265.198 38.0903 264.739 38.5534 264.165 38.8936C263.592 39.2337 262.956 39.4038 262.256 39.4038ZM276.554 39.2148H274.21C274.154 39.2148 274.122 39.1833 274.116 39.1203L271.829 25.8247C271.816 25.7743 271.835 25.7491 271.886 25.7491H274.059C274.109 25.7491 274.141 25.7743 274.154 25.8247L275.391 34.5656L276.667 25.8247C276.68 25.7743 276.718 25.7491 276.781 25.7491H278.529C278.579 25.7491 278.611 25.7743 278.623 25.8247L279.88 34.5656L281.137 25.8247C281.149 25.7743 281.181 25.7491 281.231 25.7491H283.386C283.449 25.7491 283.474 25.7743 283.461 25.8247L281.156 39.1203C281.149 39.1455 281.131 39.1676 281.099 39.1865L281.061 39.2148H278.718C278.68 39.2148 278.648 39.1833 278.623 39.1203L277.631 32.1748L276.648 39.1203C276.642 39.1833 276.61 39.2148 276.554 39.2148ZM286.882 39.2148H284.69C284.627 39.2148 284.595 39.1833 284.595 39.1203L284.614 25.8247C284.614 25.7743 284.64 25.7491 284.69 25.7491H286.863C286.914 25.7491 286.939 25.7743 286.939 25.8247L286.958 39.1203C286.958 39.1833 286.933 39.2148 286.882 39.2148ZM290.766 39.2148H288.829C288.728 39.2148 288.678 39.1707 288.678 39.0825L288.659 25.9003C288.659 25.7995 288.709 25.7491 288.81 25.7491H290.558L293.828 33.375L293.733 25.9003C293.733 25.7995 293.79 25.7491 293.903 25.7491H295.822C295.897 25.7491 295.935 25.7995 295.935 25.9003L295.954 39.1014C295.954 39.177 295.922 39.2148 295.859 39.2148H294.158L290.804 32.0898L290.946 39.0636C290.946 39.1644 290.886 39.2148 290.766 39.2148ZM301.18 39.4038C300.48 39.4038 299.85 39.2306 299.29 38.8841C298.723 38.5376 298.266 38.0714 297.919 37.4856C297.579 36.8997 297.409 36.2445 297.409 35.52V29.3872C297.409 28.6816 297.582 28.039 297.929 27.4595C298.269 26.8736 298.726 26.4074 299.299 26.0609C299.872 25.7081 300.499 25.5317 301.18 25.5317C301.891 25.5317 302.534 25.7018 303.107 26.042C303.681 26.3885 304.134 26.8515 304.468 27.4311C304.808 28.0107 304.978 28.6627 304.978 29.3872V30.2755C304.978 30.3259 304.947 30.3511 304.884 30.3511H302.71C302.66 30.3511 302.635 30.3259 302.635 30.2755V29.5384C302.635 29.047 302.496 28.6407 302.219 28.3194C301.942 27.9981 301.595 27.8374 301.18 27.8374C300.808 27.8374 300.477 27.9918 300.187 28.3005C299.898 28.6092 299.753 28.9714 299.753 29.3872V35.52C299.753 35.9421 299.894 36.3075 300.178 36.6162C300.461 36.9186 300.795 37.0698 301.18 37.0698C301.595 37.0698 301.942 36.9217 302.219 36.6256C302.496 36.3232 302.635 35.9547 302.635 35.52V34.5656H301.284C301.214 34.5656 301.18 34.5341 301.18 34.4711V32.3071C301.18 32.2441 301.214 32.2126 301.284 32.2126H304.903C304.953 32.2126 304.978 32.2441 304.978 32.3071V35.52C304.978 36.2445 304.808 36.8997 304.468 37.4856C304.122 38.0714 303.665 38.5376 303.098 38.8841C302.531 39.2306 301.891 39.4038 301.18 39.4038ZM309.637 39.4038C308.95 39.4038 308.317 39.2274 307.738 38.8747C307.164 38.5219 306.704 38.0525 306.358 37.4667C306.018 36.8745 305.848 36.2256 305.848 35.52V34.6318C305.848 34.5625 305.879 34.5278 305.942 34.5278H308.116C308.166 34.5278 308.191 34.5625 308.191 34.6318V35.52C308.191 35.9421 308.333 36.3075 308.616 36.6162C308.9 36.9186 309.24 37.0698 309.637 37.0698C310.04 37.0698 310.384 36.9154 310.667 36.6067C310.951 36.2917 311.092 35.9295 311.092 35.52C311.092 35.0475 310.784 34.6349 310.166 34.2821C310.065 34.2191 309.933 34.1435 309.769 34.0553C309.612 33.9608 309.423 33.8537 309.202 33.734C308.982 33.6143 308.768 33.4978 308.56 33.3844C308.352 33.2647 308.15 33.1513 307.955 33.0442C307.249 32.6284 306.723 32.1087 306.377 31.485C306.037 30.855 305.867 30.1495 305.867 29.3683C305.867 28.6501 306.043 28.0012 306.396 27.4217C306.749 26.8484 307.208 26.3948 307.775 26.0609C308.349 25.7207 308.969 25.5506 309.637 25.5506C310.324 25.5506 310.954 25.7207 311.527 26.0609C312.1 26.4074 312.557 26.8673 312.897 27.4406C313.244 28.0138 313.417 28.6564 313.417 29.3683V30.9558C313.417 31.0062 313.392 31.0314 313.341 31.0314H311.168C311.117 31.0314 311.092 31.0062 311.092 30.9558L311.073 29.3683C311.073 28.9147 310.932 28.5462 310.648 28.2627C310.365 27.9792 310.028 27.8374 309.637 27.8374C309.24 27.8374 308.9 27.9886 308.616 28.291C308.333 28.5934 308.191 28.9525 308.191 29.3683C308.191 29.7904 308.279 30.1432 308.456 30.4267C308.638 30.7101 308.969 30.981 309.448 31.2393C309.498 31.2645 309.615 31.3275 309.798 31.4283C309.98 31.5291 310.182 31.6425 310.402 31.7685C310.629 31.8882 310.834 31.9984 311.017 32.0992C311.199 32.1937 311.31 32.2504 311.347 32.2693C311.99 32.6284 312.497 33.0694 312.869 33.5923C313.247 34.1152 313.436 34.7578 313.436 35.52C313.436 36.2571 313.266 36.9186 312.925 37.5045C312.579 38.0903 312.119 38.5534 311.546 38.8936C310.973 39.2337 310.336 39.4038 309.637 39.4038Z" fill="white"/>
</svg>
