<svg width="329" height="204" viewBox="0 0 329 204" fill="none" xmlns="http://www.w3.org/2000/svg">
<rect y="0.0234375" width="329" height="202.999" rx="3.02389" fill="#1E1E1E"/>
<rect width="87.0874" height="87.0884" transform="translate(42.334 58.082)" fill="#1E1E1E"/>
<rect x="48.0918" y="63.8398" width="3.59868" height="3.59868" fill="#D1AE7B"/>
<rect x="51.6914" y="63.8398" width="3.59868" height="3.59868" fill="#D1AE7B"/>
<rect x="55.2832" y="63.8398" width="3.59868" height="3.59868" fill="#D1AE7B"/>
<rect x="58.8828" y="63.8398" width="3.59868" height="3.59868" fill="#D1AE7B"/>
<rect x="62.4912" y="63.8398" width="3.59868" height="3.59868" fill="#D1AE7B"/>
<rect x="66.083" y="63.8398" width="3.59868" height="3.59868" fill="#D1AE7B"/>
<rect x="69.6826" y="63.8398" width="3.59868" height="3.59868" fill="#D1AE7B"/>
<rect x="84.082" y="63.8398" width="3.59868" height="3.59868" fill="#D1AE7B"/>
<rect x="87.6738" y="63.8398" width="3.59868" height="3.59868" fill="#D1AE7B"/>
<rect x="91.2734" y="63.8398" width="3.59868" height="3.59868" fill="#D1AE7B"/>
<rect x="98.4736" y="63.8398" width="3.59868" height="3.59868" fill="#D1AE7B"/>
<rect x="102.065" y="63.8398" width="3.59868" height="3.59868" fill="#D1AE7B"/>
<rect x="105.674" y="63.8398" width="3.59868" height="3.59868" fill="#D1AE7B"/>
<rect x="109.273" y="63.8398" width="3.59868" height="3.59868" fill="#D1AE7B"/>
<rect x="112.873" y="63.8398" width="3.59868" height="3.59868" fill="#D1AE7B"/>
<rect x="116.465" y="63.8398" width="3.59868" height="3.59868" fill="#D1AE7B"/>
<rect x="120.064" y="63.8398" width="3.59868" height="3.59868" fill="#D1AE7B"/>
<rect x="48.0918" y="67.4375" width="3.59868" height="3.59868" fill="#D1AE7B"/>
<rect x="69.6826" y="67.4375" width="3.59868" height="3.59868" fill="#D1AE7B"/>
<rect x="76.874" y="67.4375" width="3.59868" height="3.59868" fill="#D1AE7B"/>
<rect x="80.4746" y="67.4375" width="3.59868" height="3.59868" fill="#D1AE7B"/>
<rect x="84.082" y="67.4375" width="3.59868" height="3.59868" fill="#D1AE7B"/>
<rect x="91.2734" y="67.4375" width="3.59868" height="3.59868" fill="#D1AE7B"/>
<rect x="98.4736" y="67.4375" width="3.59868" height="3.59868" fill="#D1AE7B"/>
<rect x="120.064" y="67.4375" width="3.59868" height="3.59868" fill="#D1AE7B"/>
<rect x="48.0918" y="71.0371" width="3.59868" height="3.59868" fill="#D1AE7B"/>
<rect x="55.2832" y="71.0371" width="3.59868" height="3.59868" fill="#D1AE7B"/>
<rect x="58.8828" y="71.0371" width="3.59868" height="3.59868" fill="#D1AE7B"/>
<rect x="62.4912" y="71.0371" width="3.59868" height="3.59868" fill="#D1AE7B"/>
<rect x="69.6826" y="71.0371" width="3.59868" height="3.59868" fill="#D1AE7B"/>
<rect x="84.082" y="71.0371" width="3.59868" height="3.59868" fill="#D1AE7B"/>
<rect x="87.6738" y="71.0371" width="3.59868" height="3.59868" fill="#D1AE7B"/>
<rect x="91.2734" y="71.0371" width="3.59868" height="3.59868" fill="#D1AE7B"/>
<rect x="98.4736" y="71.0371" width="3.59868" height="3.59868" fill="#D1AE7B"/>
<rect x="105.674" y="71.0371" width="3.59868" height="3.59868" fill="#D1AE7B"/>
<rect x="109.273" y="71.0371" width="3.59868" height="3.59868" fill="#D1AE7B"/>
<rect x="112.873" y="71.0371" width="3.59868" height="3.59868" fill="#D1AE7B"/>
<rect x="120.064" y="71.0371" width="3.59868" height="3.59868" fill="#D1AE7B"/>
<rect x="48.0918" y="74.6367" width="3.59868" height="3.59868" fill="#D1AE7B"/>
<rect x="55.2832" y="74.6367" width="3.59868" height="3.59868" fill="#D1AE7B"/>
<rect x="58.8828" y="74.6367" width="3.59868" height="3.59868" fill="#D1AE7B"/>
<rect x="62.4912" y="74.6367" width="3.59868" height="3.59868" fill="#D1AE7B"/>
<rect x="69.6826" y="74.6367" width="3.59868" height="3.59868" fill="#D1AE7B"/>
<rect x="76.874" y="74.6367" width="3.59868" height="3.59868" fill="#D1AE7B"/>
<rect x="80.4746" y="74.6367" width="3.59868" height="3.59868" fill="#D1AE7B"/>
<rect x="91.2734" y="74.6367" width="3.59868" height="3.59868" fill="#D1AE7B"/>
<rect x="98.4736" y="74.6367" width="3.59868" height="3.59868" fill="#D1AE7B"/>
<rect x="105.674" y="74.6367" width="3.59868" height="3.59868" fill="#D1AE7B"/>
<rect x="109.273" y="74.6367" width="3.59868" height="3.59868" fill="#D1AE7B"/>
<rect x="112.873" y="74.6367" width="3.59868" height="3.59868" fill="#D1AE7B"/>
<rect x="120.064" y="74.6367" width="3.59868" height="3.59868" fill="#D1AE7B"/>
<rect x="48.0918" y="78.2344" width="3.59868" height="3.59868" fill="#D1AE7B"/>
<rect x="55.2832" y="78.2344" width="3.59868" height="3.59868" fill="#D1AE7B"/>
<rect x="58.8828" y="78.2344" width="3.59868" height="3.59868" fill="#D1AE7B"/>
<rect x="62.4912" y="78.2344" width="3.59868" height="3.59868" fill="#D1AE7B"/>
<rect x="69.6826" y="78.2344" width="3.59868" height="3.59868" fill="#D1AE7B"/>
<rect x="80.4746" y="78.2344" width="3.59868" height="3.59868" fill="#D1AE7B"/>
<rect x="91.2734" y="78.2344" width="3.59868" height="3.59868" fill="#D1AE7B"/>
<rect x="98.4736" y="78.2344" width="3.59868" height="3.59868" fill="#D1AE7B"/>
<rect x="105.674" y="78.2344" width="3.59868" height="3.59868" fill="#D1AE7B"/>
<rect x="109.273" y="78.2344" width="3.59868" height="3.59868" fill="#D1AE7B"/>
<rect x="112.873" y="78.2344" width="3.59868" height="3.59868" fill="#D1AE7B"/>
<rect x="120.064" y="78.2344" width="3.59868" height="3.59868" fill="#D1AE7B"/>
<rect x="48.0918" y="81.834" width="3.59868" height="3.59868" fill="#D1AE7B"/>
<rect x="69.6826" y="81.834" width="3.59868" height="3.59868" fill="#D1AE7B"/>
<rect x="76.874" y="81.834" width="3.59868" height="3.59868" fill="#D1AE7B"/>
<rect x="87.6738" y="81.834" width="3.59868" height="3.59868" fill="#D1AE7B"/>
<rect x="98.4736" y="81.834" width="3.59868" height="3.59868" fill="#D1AE7B"/>
<rect x="120.064" y="81.834" width="3.59868" height="3.59868" fill="#D1AE7B"/>
<rect x="48.0918" y="85.4316" width="3.59868" height="3.59868" fill="#D1AE7B"/>
<rect x="51.6914" y="85.4316" width="3.59868" height="3.59868" fill="#D1AE7B"/>
<rect x="55.2832" y="85.4316" width="3.59868" height="3.59868" fill="#D1AE7B"/>
<rect x="58.8828" y="85.4316" width="3.59868" height="3.59868" fill="#D1AE7B"/>
<rect x="62.4912" y="85.4316" width="3.59868" height="3.59868" fill="#D1AE7B"/>
<rect x="66.083" y="85.4316" width="3.59868" height="3.59868" fill="#D1AE7B"/>
<rect x="69.6826" y="85.4316" width="3.59868" height="3.59868" fill="#D1AE7B"/>
<rect x="76.874" y="85.4316" width="3.59868" height="3.59868" fill="#D1AE7B"/>
<rect x="84.082" y="85.4316" width="3.59868" height="3.59868" fill="#D1AE7B"/>
<rect x="91.2734" y="85.4316" width="3.59868" height="3.59868" fill="#D1AE7B"/>
<rect x="98.4736" y="85.4316" width="3.59868" height="3.59868" fill="#D1AE7B"/>
<rect x="102.065" y="85.4316" width="3.59868" height="3.59868" fill="#D1AE7B"/>
<rect x="105.674" y="85.4316" width="3.59868" height="3.59868" fill="#D1AE7B"/>
<rect x="109.273" y="85.4316" width="3.59868" height="3.59868" fill="#D1AE7B"/>
<rect x="112.873" y="85.4316" width="3.59868" height="3.59868" fill="#D1AE7B"/>
<rect x="116.465" y="85.4316" width="3.59868" height="3.59868" fill="#D1AE7B"/>
<rect x="120.064" y="85.4316" width="3.59868" height="3.59868" fill="#D1AE7B"/>
<rect x="80.4746" y="89.0312" width="3.59868" height="3.59868" fill="#D1AE7B"/>
<rect x="48.0918" y="92.6289" width="3.59868" height="3.59868" fill="#D1AE7B"/>
<rect x="51.6914" y="92.6289" width="3.59868" height="3.59868" fill="#D1AE7B"/>
<rect x="55.2832" y="92.6289" width="3.59868" height="3.59868" fill="#D1AE7B"/>
<rect x="58.8828" y="92.6289" width="3.59868" height="3.59868" fill="#D1AE7B"/>
<rect x="62.4912" y="92.6289" width="3.59868" height="3.59868" fill="#D1AE7B"/>
<rect x="69.6826" y="92.6289" width="3.59868" height="3.59868" fill="#D1AE7B"/>
<rect x="73.2832" y="92.6289" width="3.59868" height="3.59868" fill="#D1AE7B"/>
<rect x="76.874" y="92.6289" width="3.59868" height="3.59868" fill="#D1AE7B"/>
<rect x="87.6738" y="92.6289" width="3.59868" height="3.59868" fill="#D1AE7B"/>
<rect x="94.874" y="92.6289" width="3.59868" height="3.59868" fill="#D1AE7B"/>
<rect x="102.065" y="92.6289" width="3.59868" height="3.59868" fill="#D1AE7B"/>
<rect x="109.273" y="92.6289" width="3.59868" height="3.59868" fill="#D1AE7B"/>
<rect x="116.465" y="92.6289" width="3.59868" height="3.59868" fill="#D1AE7B"/>
<rect x="48.0918" y="96.2285" width="3.59868" height="3.59868" fill="#D1AE7B"/>
<rect x="55.2832" y="96.2285" width="3.59868" height="3.59868" fill="#D1AE7B"/>
<rect x="76.874" y="96.2285" width="3.59868" height="3.59868" fill="#D1AE7B"/>
<rect x="80.4746" y="96.2285" width="3.59868" height="3.59868" fill="#D1AE7B"/>
<rect x="87.6738" y="96.2285" width="3.59868" height="3.59868" fill="#D1AE7B"/>
<rect x="91.2734" y="96.2285" width="3.59868" height="3.59868" fill="#D1AE7B"/>
<rect x="94.874" y="96.2285" width="3.59868" height="3.59868" fill="#D1AE7B"/>
<rect x="98.4736" y="96.2285" width="3.59868" height="3.59868" fill="#D1AE7B"/>
<rect x="109.273" y="96.2285" width="3.59868" height="3.59868" fill="#D1AE7B"/>
<rect x="112.873" y="96.2285" width="3.59868" height="3.59868" fill="#D1AE7B"/>
<rect x="120.064" y="96.2285" width="3.59868" height="3.59868" fill="#D1AE7B"/>
<rect x="62.4912" y="99.8262" width="3.59868" height="3.59868" fill="#D1AE7B"/>
<rect x="69.6826" y="99.8262" width="3.59868" height="3.59868" fill="#D1AE7B"/>
<rect x="76.874" y="99.8262" width="3.59868" height="3.59868" fill="#D1AE7B"/>
<rect x="80.4746" y="99.8262" width="3.59868" height="3.59868" fill="#D1AE7B"/>
<rect x="91.2734" y="99.8262" width="3.59868" height="3.59868" fill="#D1AE7B"/>
<rect x="98.4736" y="99.8262" width="3.59868" height="3.59868" fill="#D1AE7B"/>
<rect x="102.065" y="99.8262" width="3.59868" height="3.59868" fill="#D1AE7B"/>
<rect x="109.273" y="99.8262" width="3.59868" height="3.59868" fill="#D1AE7B"/>
<rect x="116.465" y="99.8262" width="3.59868" height="3.59868" fill="#D1AE7B"/>
<rect x="48.0918" y="103.426" width="3.59868" height="3.59868" fill="#D1AE7B"/>
<rect x="66.083" y="103.426" width="3.59868" height="3.59868" fill="#D1AE7B"/>
<rect x="73.2832" y="103.426" width="3.59868" height="3.59868" fill="#D1AE7B"/>
<rect x="84.082" y="103.426" width="3.59868" height="3.59868" fill="#D1AE7B"/>
<rect x="87.6738" y="103.426" width="3.59868" height="3.59868" fill="#D1AE7B"/>
<rect x="91.2734" y="103.426" width="3.59868" height="3.59868" fill="#D1AE7B"/>
<rect x="94.874" y="103.426" width="3.59868" height="3.59868" fill="#D1AE7B"/>
<rect x="98.4736" y="103.426" width="3.59868" height="3.59868" fill="#D1AE7B"/>
<rect x="109.273" y="103.426" width="3.59868" height="3.59868" fill="#D1AE7B"/>
<rect x="112.873" y="103.426" width="3.59868" height="3.59868" fill="#D1AE7B"/>
<rect x="116.465" y="103.426" width="3.59868" height="3.59868" fill="#D1AE7B"/>
<rect x="120.064" y="103.426" width="3.59868" height="3.59868" fill="#D1AE7B"/>
<rect x="48.0918" y="107.023" width="3.59868" height="3.59868" fill="#D1AE7B"/>
<rect x="51.6914" y="107.023" width="3.59868" height="3.59868" fill="#D1AE7B"/>
<rect x="69.6826" y="107.023" width="3.59868" height="3.59868" fill="#D1AE7B"/>
<rect x="80.4746" y="107.023" width="3.59868" height="3.59868" fill="#D1AE7B"/>
<rect x="91.2734" y="107.023" width="3.59868" height="3.59868" fill="#D1AE7B"/>
<rect x="102.065" y="107.023" width="3.59868" height="3.59868" fill="#D1AE7B"/>
<rect x="116.465" y="107.023" width="3.59868" height="3.59868" fill="#D1AE7B"/>
<rect x="76.874" y="110.623" width="3.59868" height="3.59868" fill="#D1AE7B"/>
<rect x="84.082" y="110.623" width="3.59868" height="3.59868" fill="#D1AE7B"/>
<rect x="91.2734" y="110.623" width="3.59868" height="3.59868" fill="#D1AE7B"/>
<rect x="102.065" y="110.623" width="3.59868" height="3.59868" fill="#D1AE7B"/>
<rect x="109.273" y="110.623" width="3.59868" height="3.59868" fill="#D1AE7B"/>
<rect x="112.873" y="110.623" width="3.59868" height="3.59868" fill="#D1AE7B"/>
<rect x="120.064" y="110.623" width="3.59868" height="3.59868" fill="#D1AE7B"/>
<rect x="48.0918" y="114.223" width="3.59868" height="3.59868" fill="#D1AE7B"/>
<rect x="51.6914" y="114.223" width="3.59868" height="3.59868" fill="#D1AE7B"/>
<rect x="55.2832" y="114.223" width="3.59868" height="3.59868" fill="#D1AE7B"/>
<rect x="58.8828" y="114.223" width="3.59868" height="3.59868" fill="#D1AE7B"/>
<rect x="62.4912" y="114.223" width="3.59868" height="3.59868" fill="#D1AE7B"/>
<rect x="66.083" y="114.223" width="3.59868" height="3.59868" fill="#D1AE7B"/>
<rect x="69.6826" y="114.223" width="3.59868" height="3.59868" fill="#D1AE7B"/>
<rect x="76.874" y="114.223" width="3.59868" height="3.59868" fill="#D1AE7B"/>
<rect x="80.4746" y="114.223" width="3.59868" height="3.59868" fill="#D1AE7B"/>
<rect x="84.082" y="114.223" width="3.59868" height="3.59868" fill="#D1AE7B"/>
<rect x="87.6738" y="114.223" width="3.59868" height="3.59868" fill="#D1AE7B"/>
<rect x="94.874" y="114.223" width="3.59868" height="3.59868" fill="#D1AE7B"/>
<rect x="105.674" y="114.223" width="3.59868" height="3.59868" fill="#D1AE7B"/>
<rect x="109.273" y="114.223" width="3.59868" height="3.59868" fill="#D1AE7B"/>
<rect x="116.465" y="114.223" width="3.59868" height="3.59868" fill="#D1AE7B"/>
<rect x="48.0918" y="117.82" width="3.59868" height="3.59868" fill="#D1AE7B"/>
<rect x="69.6826" y="117.82" width="3.59868" height="3.59868" fill="#D1AE7B"/>
<rect x="102.065" y="117.82" width="3.59868" height="3.59868" fill="#D1AE7B"/>
<rect x="105.674" y="117.82" width="3.59868" height="3.59868" fill="#D1AE7B"/>
<rect x="109.273" y="117.82" width="3.59868" height="3.59868" fill="#D1AE7B"/>
<rect x="112.873" y="117.82" width="3.59868" height="3.59868" fill="#D1AE7B"/>
<rect x="116.465" y="117.82" width="3.59868" height="3.59868" fill="#D1AE7B"/>
<rect x="48.0918" y="121.418" width="3.59868" height="3.59868" fill="#D1AE7B"/>
<rect x="55.2832" y="121.418" width="3.59868" height="3.59868" fill="#D1AE7B"/>
<rect x="58.8828" y="121.418" width="3.59868" height="3.59868" fill="#D1AE7B"/>
<rect x="62.4912" y="121.418" width="3.59868" height="3.59868" fill="#D1AE7B"/>
<rect x="69.6826" y="121.418" width="3.59868" height="3.59868" fill="#D1AE7B"/>
<rect x="76.874" y="121.418" width="3.59868" height="3.59868" fill="#D1AE7B"/>
<rect x="80.4746" y="121.418" width="3.59868" height="3.59868" fill="#D1AE7B"/>
<rect x="84.082" y="121.418" width="3.59868" height="3.59868" fill="#D1AE7B"/>
<rect x="87.6738" y="121.418" width="3.59868" height="3.59868" fill="#D1AE7B"/>
<rect x="94.874" y="121.418" width="3.59868" height="3.59868" fill="#D1AE7B"/>
<rect x="105.674" y="121.418" width="3.59868" height="3.59868" fill="#D1AE7B"/>
<rect x="116.465" y="121.418" width="3.59868" height="3.59868" fill="#D1AE7B"/>
<rect x="48.0918" y="125.018" width="3.59868" height="3.59868" fill="#D1AE7B"/>
<rect x="55.2832" y="125.018" width="3.59868" height="3.59868" fill="#D1AE7B"/>
<rect x="58.8828" y="125.018" width="3.59868" height="3.59868" fill="#D1AE7B"/>
<rect x="62.4912" y="125.018" width="3.59868" height="3.59868" fill="#D1AE7B"/>
<rect x="69.6826" y="125.018" width="3.59868" height="3.59868" fill="#D1AE7B"/>
<rect x="76.874" y="125.018" width="3.59868" height="3.59868" fill="#D1AE7B"/>
<rect x="80.4746" y="125.018" width="3.59868" height="3.59868" fill="#D1AE7B"/>
<rect x="87.6738" y="125.018" width="3.59868" height="3.59868" fill="#D1AE7B"/>
<rect x="91.2734" y="125.018" width="3.59868" height="3.59868" fill="#D1AE7B"/>
<rect x="94.874" y="125.018" width="3.59868" height="3.59868" fill="#D1AE7B"/>
<rect x="98.4736" y="125.018" width="3.59868" height="3.59868" fill="#D1AE7B"/>
<rect x="102.065" y="125.018" width="3.59868" height="3.59868" fill="#D1AE7B"/>
<rect x="109.273" y="125.018" width="3.59868" height="3.59868" fill="#D1AE7B"/>
<rect x="112.873" y="125.018" width="3.59868" height="3.59868" fill="#D1AE7B"/>
<rect x="48.0918" y="128.615" width="3.59868" height="3.59868" fill="#D1AE7B"/>
<rect x="55.2832" y="128.615" width="3.59868" height="3.59868" fill="#D1AE7B"/>
<rect x="58.8828" y="128.615" width="3.59868" height="3.59868" fill="#D1AE7B"/>
<rect x="62.4912" y="128.615" width="3.59868" height="3.59868" fill="#D1AE7B"/>
<rect x="69.6826" y="128.615" width="3.59868" height="3.59868" fill="#D1AE7B"/>
<rect x="76.874" y="128.615" width="3.59868" height="3.59868" fill="#D1AE7B"/>
<rect x="84.082" y="128.615" width="3.59868" height="3.59868" fill="#D1AE7B"/>
<rect x="91.2734" y="128.615" width="3.59868" height="3.59868" fill="#D1AE7B"/>
<rect x="98.4736" y="128.615" width="3.59868" height="3.59868" fill="#D1AE7B"/>
<rect x="102.065" y="128.615" width="3.59868" height="3.59868" fill="#D1AE7B"/>
<rect x="109.273" y="128.615" width="3.59868" height="3.59868" fill="#D1AE7B"/>
<rect x="48.0918" y="132.215" width="3.59868" height="3.59868" fill="#D1AE7B"/>
<rect x="69.6826" y="132.215" width="3.59868" height="3.59868" fill="#D1AE7B"/>
<rect x="76.874" y="132.215" width="3.59868" height="3.59868" fill="#D1AE7B"/>
<rect x="87.6738" y="132.215" width="3.59868" height="3.59868" fill="#D1AE7B"/>
<rect x="91.2734" y="132.215" width="3.59868" height="3.59868" fill="#D1AE7B"/>
<rect x="94.874" y="132.215" width="3.59868" height="3.59868" fill="#D1AE7B"/>
<rect x="98.4736" y="132.215" width="3.59868" height="3.59868" fill="#D1AE7B"/>
<rect x="105.674" y="132.215" width="3.59868" height="3.59868" fill="#D1AE7B"/>
<rect x="109.273" y="132.215" width="3.59868" height="3.59868" fill="#D1AE7B"/>
<rect x="112.873" y="132.215" width="3.59868" height="3.59868" fill="#D1AE7B"/>
<rect x="48.0918" y="135.814" width="3.59868" height="3.59868" fill="#D1AE7B"/>
<rect x="51.6914" y="135.814" width="3.59868" height="3.59868" fill="#D1AE7B"/>
<rect x="55.2832" y="135.814" width="3.59868" height="3.59868" fill="#D1AE7B"/>
<rect x="58.8828" y="135.814" width="3.59868" height="3.59868" fill="#D1AE7B"/>
<rect x="62.4912" y="135.814" width="3.59868" height="3.59868" fill="#D1AE7B"/>
<rect x="66.083" y="135.814" width="3.59868" height="3.59868" fill="#D1AE7B"/>
<rect x="69.6826" y="135.814" width="3.59868" height="3.59868" fill="#D1AE7B"/>
<rect x="76.874" y="135.814" width="3.59868" height="3.59868" fill="#D1AE7B"/>
<rect x="84.082" y="135.814" width="3.59868" height="3.59868" fill="#D1AE7B"/>
<rect x="91.2734" y="135.814" width="3.59868" height="3.59868" fill="#D1AE7B"/>
<rect x="116.465" y="135.814" width="3.59868" height="3.59868" fill="#D1AE7B"/>
<path d="M293.916 28.2184C295.102 26.8851 296.761 23.5126 293.916 20.6891M298.539 18.1009C300.792 20.0617 303.945 25.3949 298.539 31.0418M303.519 15.748C306.719 18.1794 311.2 25.1596 303.519 33.63" stroke="#D1AF7C" stroke-width="2.30735" stroke-linecap="round"/>
<path d="M234.128 172.08V164.163H237.251C237.849 164.163 238.359 164.27 238.782 164.484C239.207 164.695 239.531 164.995 239.752 165.385C239.976 165.771 240.089 166.226 240.089 166.749C240.089 167.275 239.975 167.727 239.748 168.106C239.522 168.482 239.193 168.771 238.763 168.972C238.335 169.173 237.817 169.274 237.209 169.274H235.117V167.928H236.938C237.258 167.928 237.523 167.884 237.734 167.797C237.946 167.709 238.103 167.578 238.206 167.402C238.312 167.227 238.364 167.009 238.364 166.749C238.364 166.486 238.312 166.265 238.206 166.084C238.103 165.904 237.944 165.767 237.73 165.674C237.519 165.579 237.252 165.531 236.93 165.531H235.801V172.08H234.128ZM238.403 168.477L240.371 172.08H238.523L236.598 168.477H238.403ZM243.828 172.196C243.227 172.196 242.708 172.068 242.27 171.813C241.834 171.556 241.498 171.197 241.261 170.739C241.024 170.277 240.905 169.743 240.905 169.134C240.905 168.521 241.024 167.985 241.261 167.526C241.498 167.065 241.834 166.707 242.27 166.452C242.708 166.194 243.227 166.065 243.828 166.065C244.428 166.065 244.946 166.194 245.382 166.452C245.82 166.707 246.158 167.065 246.395 167.526C246.632 167.985 246.75 168.521 246.75 169.134C246.75 169.743 246.632 170.277 246.395 170.739C246.158 171.197 245.82 171.556 245.382 171.813C244.946 172.068 244.428 172.196 243.828 172.196ZM243.835 170.92C244.109 170.92 244.337 170.843 244.52 170.688C244.703 170.531 244.841 170.317 244.933 170.047C245.029 169.776 245.076 169.468 245.076 169.123C245.076 168.777 245.029 168.469 244.933 168.199C244.841 167.928 244.703 167.714 244.52 167.557C244.337 167.4 244.109 167.321 243.835 167.321C243.56 167.321 243.328 167.4 243.14 167.557C242.954 167.714 242.814 167.928 242.718 168.199C242.625 168.469 242.579 168.777 242.579 169.123C242.579 169.468 242.625 169.776 242.718 170.047C242.814 170.317 242.954 170.531 243.14 170.688C243.328 170.843 243.56 170.92 243.835 170.92ZM252.762 167.835L251.254 167.928C251.228 167.799 251.173 167.683 251.088 167.58C251.003 167.475 250.891 167.391 250.751 167.329C250.615 167.265 250.451 167.232 250.26 167.232C250.005 167.232 249.79 167.287 249.615 167.395C249.44 167.5 249.352 167.642 249.352 167.82C249.352 167.962 249.409 168.082 249.522 168.18C249.635 168.277 249.83 168.356 250.106 168.415L251.18 168.632C251.758 168.75 252.188 168.941 252.472 169.204C252.755 169.467 252.897 169.812 252.897 170.24C252.897 170.629 252.782 170.971 252.553 171.264C252.326 171.558 252.014 171.788 251.617 171.953C251.223 172.115 250.768 172.196 250.253 172.196C249.467 172.196 248.84 172.032 248.374 171.705C247.91 171.375 247.638 170.927 247.558 170.36L249.178 170.275C249.227 170.514 249.345 170.697 249.534 170.824C249.722 170.947 249.963 171.009 250.257 171.009C250.545 171.009 250.777 170.954 250.952 170.843C251.13 170.73 251.22 170.584 251.223 170.406C251.22 170.257 251.157 170.134 251.034 170.039C250.91 169.941 250.719 169.866 250.461 169.815L249.433 169.61C248.853 169.494 248.422 169.293 248.138 169.007C247.857 168.721 247.717 168.356 247.717 167.913C247.717 167.531 247.82 167.203 248.026 166.927C248.235 166.651 248.527 166.439 248.904 166.289C249.282 166.14 249.726 166.065 250.233 166.065C250.983 166.065 251.573 166.223 252.004 166.54C252.437 166.857 252.689 167.289 252.762 167.835ZM256.64 172.196C256.029 172.196 255.503 172.072 255.063 171.825C254.625 171.575 254.287 171.222 254.05 170.766C253.813 170.307 253.694 169.764 253.694 169.138C253.694 168.527 253.813 167.991 254.05 167.53C254.287 167.069 254.621 166.709 255.051 166.452C255.484 166.194 255.992 166.065 256.574 166.065C256.966 166.065 257.331 166.128 257.668 166.254C258.008 166.378 258.305 166.565 258.557 166.815C258.812 167.065 259.011 167.379 259.153 167.758C259.294 168.134 259.365 168.575 259.365 169.08V169.533H254.351V168.512H257.815C257.815 168.275 257.764 168.065 257.66 167.882C257.557 167.699 257.414 167.556 257.231 167.453C257.051 167.347 256.841 167.294 256.601 167.294C256.351 167.294 256.13 167.352 255.936 167.468C255.746 167.582 255.596 167.735 255.488 167.928C255.38 168.119 255.324 168.332 255.322 168.566V169.536C255.322 169.83 255.376 170.084 255.484 170.298C255.595 170.512 255.751 170.677 255.952 170.793C256.153 170.909 256.391 170.967 256.667 170.967C256.85 170.967 257.017 170.941 257.169 170.889C257.322 170.838 257.452 170.761 257.56 170.657C257.668 170.554 257.751 170.428 257.807 170.279L259.33 170.379C259.253 170.745 259.095 171.065 258.855 171.338C258.618 171.608 258.311 171.82 257.935 171.972C257.561 172.121 257.13 172.196 256.64 172.196ZM268.24 166.722C268.186 166.534 268.11 166.368 268.012 166.223C267.914 166.077 267.794 165.953 267.653 165.852C267.513 165.749 267.354 165.671 267.173 165.617C266.995 165.562 266.798 165.535 266.582 165.535C266.177 165.535 265.821 165.636 265.515 165.837C265.211 166.038 264.974 166.33 264.803 166.714C264.633 167.096 264.548 167.562 264.548 168.114C264.548 168.665 264.632 169.134 264.8 169.521C264.967 169.908 265.204 170.203 265.511 170.406C265.818 170.607 266.18 170.708 266.597 170.708C266.976 170.708 267.299 170.641 267.567 170.507C267.838 170.37 268.044 170.178 268.186 169.931C268.33 169.683 268.402 169.391 268.402 169.053L268.743 169.103H266.702V167.843H270.014V168.841C270.014 169.536 269.868 170.134 269.574 170.634C269.28 171.132 268.875 171.516 268.36 171.786C267.845 172.054 267.254 172.188 266.589 172.188C265.847 172.188 265.195 172.025 264.633 171.697C264.072 171.367 263.633 170.9 263.319 170.294C263.007 169.686 262.851 168.964 262.851 168.129C262.851 167.488 262.944 166.915 263.13 166.413C263.318 165.908 263.581 165.48 263.918 165.129C264.256 164.779 264.649 164.512 265.097 164.329C265.546 164.146 266.031 164.055 266.555 164.055C267.003 164.055 267.421 164.12 267.807 164.252C268.194 164.381 268.536 164.564 268.835 164.801C269.137 165.038 269.383 165.32 269.574 165.647C269.765 165.972 269.887 166.33 269.941 166.722H268.24ZM273.924 172.196C273.323 172.196 272.804 172.068 272.366 171.813C271.93 171.556 271.594 171.197 271.357 170.739C271.12 170.277 271.001 169.743 271.001 169.134C271.001 168.521 271.12 167.985 271.357 167.526C271.594 167.065 271.93 166.707 272.366 166.452C272.804 166.194 273.323 166.065 273.924 166.065C274.524 166.065 275.042 166.194 275.478 166.452C275.916 166.707 276.254 167.065 276.491 167.526C276.728 167.985 276.846 168.521 276.846 169.134C276.846 169.743 276.728 170.277 276.491 170.739C276.254 171.197 275.916 171.556 275.478 171.813C275.042 172.068 274.524 172.196 273.924 172.196ZM273.931 170.92C274.205 170.92 274.433 170.843 274.616 170.688C274.799 170.531 274.937 170.317 275.029 170.047C275.125 169.776 275.172 169.468 275.172 169.123C275.172 168.777 275.125 168.469 275.029 168.199C274.937 167.928 274.799 167.714 274.616 167.557C274.433 167.4 274.205 167.321 273.931 167.321C273.656 167.321 273.424 167.4 273.236 167.557C273.05 167.714 272.91 167.928 272.814 168.199C272.721 168.469 272.675 168.777 272.675 169.123C272.675 169.468 272.721 169.776 272.814 170.047C272.91 170.317 273.05 170.531 273.236 170.688C273.424 170.843 273.656 170.92 273.931 170.92ZM279.564 164.163V172.08H277.917V164.163H279.564ZM283.071 172.177C282.62 172.177 282.212 172.061 281.846 171.829C281.482 171.594 281.194 171.25 280.98 170.797C280.768 170.34 280.663 169.781 280.663 169.119C280.663 168.439 280.772 167.873 280.991 167.422C281.21 166.968 281.502 166.629 281.865 166.405C282.231 166.178 282.632 166.065 283.067 166.065C283.4 166.065 283.677 166.122 283.898 166.235C284.123 166.346 284.303 166.485 284.44 166.653C284.579 166.817 284.684 166.98 284.757 167.14H284.807V164.163H286.45V172.08H284.826V171.129H284.757C284.679 171.294 284.57 171.458 284.428 171.62C284.289 171.78 284.107 171.913 283.883 172.018C283.661 172.124 283.391 172.177 283.071 172.177ZM283.593 170.866C283.858 170.866 284.083 170.794 284.266 170.65C284.451 170.503 284.593 170.298 284.691 170.035C284.791 169.772 284.842 169.464 284.842 169.111C284.842 168.758 284.793 168.451 284.695 168.191C284.597 167.931 284.455 167.73 284.27 167.588C284.084 167.446 283.858 167.375 283.593 167.375C283.322 167.375 283.094 167.449 282.909 167.596C282.723 167.743 282.583 167.946 282.487 168.207C282.392 168.467 282.344 168.768 282.344 169.111C282.344 169.457 282.392 169.762 282.487 170.027C282.585 170.29 282.726 170.496 282.909 170.646C283.094 170.793 283.322 170.866 283.593 170.866ZM288.821 174.307C288.612 174.307 288.416 174.29 288.233 174.257C288.053 174.226 287.903 174.186 287.784 174.137L288.156 172.907C288.349 172.967 288.523 172.999 288.677 173.004C288.835 173.009 288.97 172.973 289.083 172.896C289.199 172.818 289.293 172.687 289.366 172.501L289.462 172.25L287.332 166.142H289.064L290.293 170.503H290.355L291.596 166.142H293.34L291.032 172.722C290.921 173.041 290.77 173.32 290.579 173.557C290.391 173.796 290.153 173.981 289.864 174.11C289.576 174.241 289.228 174.307 288.821 174.307Z" fill="#D1AE7B"/>
<path d="M235.045 176.413V182.57H234.116V176.413H235.045ZM237.225 179.828V182.57H236.326V177.952H237.189V178.704H237.246C237.352 178.459 237.519 178.263 237.745 178.114C237.974 177.966 238.261 177.892 238.608 177.892C238.923 177.892 239.198 177.958 239.435 178.09C239.671 178.221 239.855 178.415 239.985 178.674C240.115 178.932 240.181 179.252 240.181 179.633V182.57H239.281V179.741C239.281 179.406 239.194 179.145 239.02 178.956C238.846 178.766 238.606 178.671 238.301 178.671C238.093 178.671 237.907 178.716 237.745 178.806C237.585 178.896 237.457 179.028 237.363 179.203C237.271 179.375 237.225 179.584 237.225 179.828ZM243.542 177.952V178.674H241.019V177.952H243.542ZM241.696 176.846H242.595V181.214C242.595 181.389 242.621 181.52 242.673 181.608C242.725 181.694 242.792 181.753 242.875 181.786C242.959 181.816 243.05 181.831 243.148 181.831C243.22 181.831 243.283 181.826 243.338 181.816C243.392 181.806 243.434 181.798 243.464 181.792L243.626 182.534C243.574 182.554 243.5 182.574 243.404 182.594C243.307 182.616 243.187 182.628 243.043 182.63C242.806 182.634 242.586 182.592 242.381 182.504C242.177 182.416 242.012 182.28 241.885 182.095C241.759 181.911 241.696 181.679 241.696 181.401V176.846ZM246.477 182.664C246.022 182.664 245.63 182.566 245.302 182.372C244.975 182.175 244.722 181.9 244.544 181.545C244.368 181.188 244.279 180.77 244.279 180.291C244.279 179.818 244.368 179.401 244.544 179.04C244.722 178.68 244.971 178.398 245.29 178.196C245.61 177.993 245.985 177.892 246.414 177.892C246.675 177.892 246.927 177.935 247.172 178.021C247.416 178.107 247.636 178.243 247.83 178.427C248.025 178.611 248.178 178.851 248.29 179.146C248.403 179.438 248.459 179.794 248.459 180.213V180.532H244.788V179.858H247.578C247.578 179.622 247.53 179.412 247.433 179.23C247.337 179.045 247.202 178.9 247.028 178.794C246.855 178.688 246.653 178.635 246.42 178.635C246.168 178.635 245.947 178.697 245.759 178.821C245.572 178.943 245.428 179.104 245.326 179.302C245.226 179.498 245.175 179.712 245.175 179.942V180.469C245.175 180.777 245.23 181.04 245.338 181.256C245.448 181.473 245.601 181.638 245.798 181.752C245.994 181.865 246.224 181.921 246.486 181.921C246.657 181.921 246.812 181.897 246.952 181.849C247.093 181.799 247.214 181.724 247.316 181.626C247.418 181.528 247.497 181.407 247.551 181.262L248.402 181.416C248.333 181.666 248.211 181.886 248.035 182.074C247.86 182.261 247.641 182.406 247.376 182.51C247.114 182.612 246.814 182.664 246.477 182.664ZM249.456 182.57V177.952H250.325V178.686H250.373C250.457 178.437 250.606 178.242 250.818 178.099C251.033 177.955 251.275 177.883 251.546 177.883C251.602 177.883 251.668 177.885 251.744 177.889C251.822 177.893 251.884 177.898 251.928 177.904V178.764C251.892 178.754 251.827 178.743 251.735 178.731C251.643 178.717 251.551 178.71 251.459 178.71C251.246 178.71 251.057 178.755 250.89 178.845C250.726 178.933 250.596 179.056 250.5 179.215C250.403 179.371 250.355 179.55 250.355 179.75V182.57H249.456ZM252.706 182.57V177.952H253.605V182.57H252.706ZM253.16 177.239C253.003 177.239 252.869 177.187 252.757 177.083C252.647 176.977 252.591 176.851 252.591 176.704C252.591 176.556 252.647 176.43 252.757 176.325C252.869 176.219 253.003 176.166 253.16 176.166C253.316 176.166 253.449 176.219 253.56 176.325C253.672 176.43 253.728 176.556 253.728 176.704C253.728 176.851 253.672 176.977 253.56 177.083C253.449 177.187 253.316 177.239 253.16 177.239ZM256.76 182.664C256.327 182.664 255.949 182.564 255.626 182.366C255.303 182.167 255.053 181.89 254.874 181.533C254.696 181.176 254.607 180.759 254.607 180.282C254.607 179.803 254.696 179.384 254.874 179.025C255.053 178.667 255.303 178.388 255.626 178.19C255.949 177.991 256.327 177.892 256.76 177.892C257.192 177.892 257.57 177.991 257.893 178.19C258.216 178.388 258.466 178.667 258.645 179.025C258.823 179.384 258.912 179.803 258.912 180.282C258.912 180.759 258.823 181.176 258.645 181.533C258.466 181.89 258.216 182.167 257.893 182.366C257.57 182.564 257.192 182.664 256.76 182.664ZM256.763 181.909C257.043 181.909 257.276 181.835 257.46 181.686C257.644 181.538 257.781 181.341 257.869 181.094C257.959 180.847 258.004 180.576 258.004 180.279C258.004 179.985 257.959 179.714 257.869 179.467C257.781 179.219 257.644 179.019 257.46 178.869C257.276 178.719 257.043 178.644 256.763 178.644C256.48 178.644 256.245 178.719 256.059 178.869C255.875 179.019 255.737 179.219 255.647 179.467C255.559 179.714 255.515 179.985 255.515 180.279C255.515 180.576 255.559 180.847 255.647 181.094C255.737 181.341 255.875 181.538 256.059 181.686C256.245 181.835 256.48 181.909 256.763 181.909ZM259.916 182.57V177.952H260.785V178.686H260.833C260.917 178.437 261.065 178.242 261.278 178.099C261.492 177.955 261.735 177.883 262.005 177.883C262.062 177.883 262.128 177.885 262.204 177.889C262.282 177.893 262.343 177.898 262.387 177.904V178.764C262.351 178.754 262.287 178.743 262.195 178.731C262.103 178.717 262.01 178.71 261.918 178.71C261.706 178.71 261.516 178.755 261.35 178.845C261.186 178.933 261.055 179.056 260.959 179.215C260.863 179.371 260.815 179.55 260.815 179.75V182.57H259.916ZM267.472 182.57H265.478V176.413H267.535C268.138 176.413 268.656 176.536 269.089 176.782C269.522 177.027 269.854 177.379 270.085 177.838C270.317 178.295 270.433 178.843 270.433 179.482C270.433 180.124 270.316 180.675 270.081 181.136C269.849 181.597 269.512 181.952 269.071 182.2C268.63 182.447 268.097 182.57 267.472 182.57ZM266.407 181.759H267.421C267.89 181.759 268.279 181.67 268.59 181.494C268.901 181.316 269.133 181.058 269.288 180.721C269.442 180.382 269.519 179.97 269.519 179.482C269.519 178.999 269.442 178.589 269.288 178.253C269.135 177.916 268.908 177.66 268.605 177.486C268.303 177.312 267.927 177.224 267.478 177.224H266.407V181.759ZM273.507 182.664C273.052 182.664 272.66 182.566 272.331 182.372C272.005 182.175 271.752 181.9 271.574 181.545C271.397 181.188 271.309 180.77 271.309 180.291C271.309 179.818 271.397 179.401 271.574 179.04C271.752 178.68 272.001 178.398 272.319 178.196C272.64 177.993 273.015 177.892 273.444 177.892C273.704 177.892 273.957 177.935 274.201 178.021C274.446 178.107 274.665 178.243 274.86 178.427C275.054 178.611 275.208 178.851 275.32 179.146C275.432 179.438 275.488 179.794 275.488 180.213V180.532H271.817V179.858H274.607C274.607 179.622 274.559 179.412 274.463 179.23C274.367 179.045 274.232 178.9 274.057 178.794C273.885 178.688 273.682 178.635 273.45 178.635C273.197 178.635 272.977 178.697 272.788 178.821C272.602 178.943 272.458 179.104 272.355 179.302C272.255 179.498 272.205 179.712 272.205 179.942V180.469C272.205 180.777 272.259 181.04 272.367 181.256C272.478 181.473 272.631 181.638 272.827 181.752C273.024 181.865 273.253 181.921 273.516 181.921C273.686 181.921 273.842 181.897 273.982 181.849C274.122 181.799 274.244 181.724 274.346 181.626C274.448 181.528 274.526 181.407 274.58 181.262L275.431 181.416C275.363 181.666 275.241 181.886 275.064 182.074C274.89 182.261 274.67 182.406 274.406 182.51C274.143 182.612 273.844 182.664 273.507 182.664ZM279.947 179.08L279.132 179.224C279.098 179.12 279.044 179.02 278.969 178.926C278.897 178.832 278.799 178.755 278.675 178.695C278.55 178.635 278.395 178.604 278.209 178.604C277.954 178.604 277.742 178.662 277.571 178.776C277.401 178.888 277.316 179.033 277.316 179.212C277.316 179.366 277.373 179.49 277.487 179.585C277.601 179.679 277.786 179.756 278.04 179.816L278.774 179.985C279.199 180.083 279.516 180.234 279.724 180.439C279.932 180.643 280.037 180.909 280.037 181.235C280.037 181.512 279.957 181.759 279.796 181.975C279.638 182.189 279.416 182.358 279.132 182.48C278.849 182.602 278.521 182.664 278.149 182.664C277.631 182.664 277.209 182.553 276.883 182.333C276.556 182.11 276.356 181.795 276.281 181.386L277.15 181.253C277.204 181.48 277.316 181.651 277.484 181.768C277.652 181.882 277.872 181.939 278.142 181.939C278.437 181.939 278.673 181.878 278.849 181.755C279.025 181.631 279.114 181.48 279.114 181.301C279.114 181.157 279.06 181.036 278.951 180.938C278.845 180.839 278.682 180.765 278.461 180.715L277.679 180.544C277.248 180.446 276.93 180.289 276.723 180.075C276.519 179.86 276.417 179.589 276.417 179.26C276.417 178.987 276.493 178.749 276.645 178.544C276.797 178.34 277.008 178.181 277.277 178.066C277.545 177.95 277.853 177.892 278.2 177.892C278.699 177.892 279.092 178 279.378 178.217C279.665 178.431 279.854 178.719 279.947 179.08ZM281.025 182.57V177.952H281.924V182.57H281.025ZM281.479 177.239C281.323 177.239 281.189 177.187 281.076 177.083C280.966 176.977 280.911 176.851 280.911 176.704C280.911 176.556 280.966 176.43 281.076 176.325C281.189 176.219 281.323 176.166 281.479 176.166C281.636 176.166 281.769 176.219 281.879 176.325C281.991 176.43 282.047 176.556 282.047 176.704C282.047 176.851 281.991 176.977 281.879 177.083C281.769 177.187 281.636 177.239 281.479 177.239ZM285.07 184.398C284.703 184.398 284.387 184.35 284.123 184.254C283.86 184.158 283.646 184.031 283.479 183.872C283.313 183.714 283.189 183.54 283.107 183.352L283.879 183.033C283.933 183.122 284.006 183.215 284.096 183.313C284.188 183.413 284.312 183.498 284.469 183.569C284.627 183.639 284.83 183.674 285.079 183.674C285.42 183.674 285.701 183.591 285.924 183.424C286.146 183.26 286.258 182.997 286.258 182.636V181.728H286.2C286.146 181.827 286.068 181.936 285.966 182.056C285.866 182.176 285.727 182.281 285.551 182.369C285.375 182.457 285.145 182.501 284.862 182.501C284.498 182.501 284.169 182.416 283.876 182.246C283.586 182.073 283.355 181.82 283.185 181.485C283.016 181.148 282.932 180.734 282.932 180.243C282.932 179.752 283.015 179.331 283.182 178.98C283.35 178.63 283.581 178.361 283.873 178.175C284.166 177.986 284.498 177.892 284.869 177.892C285.155 177.892 285.387 177.94 285.563 178.036C285.739 178.13 285.877 178.241 285.975 178.367C286.075 178.493 286.152 178.604 286.206 178.701H286.273V177.952H287.154V182.673C287.154 183.069 287.061 183.395 286.877 183.65C286.693 183.904 286.443 184.093 286.128 184.215C285.816 184.337 285.463 184.398 285.07 184.398ZM285.061 181.755C285.32 181.755 285.538 181.695 285.716 181.575C285.897 181.453 286.033 181.278 286.125 181.052C286.22 180.823 286.267 180.55 286.267 180.231C286.267 179.92 286.221 179.647 286.128 179.41C286.036 179.174 285.901 178.989 285.722 178.857C285.544 178.723 285.324 178.656 285.061 178.656C284.79 178.656 284.565 178.726 284.384 178.866C284.204 179.004 284.068 179.193 283.976 179.431C283.885 179.67 283.84 179.936 283.84 180.231C283.84 180.534 283.886 180.799 283.979 181.028C284.071 181.256 284.207 181.435 284.387 181.563C284.57 181.691 284.794 181.755 285.061 181.755ZM289.258 179.828V182.57H288.359V177.952H289.222V178.704H289.279C289.386 178.459 289.552 178.263 289.778 178.114C290.007 177.966 290.295 177.892 290.641 177.892C290.956 177.892 291.232 177.958 291.468 178.09C291.705 178.221 291.888 178.415 292.018 178.674C292.149 178.932 292.214 179.252 292.214 179.633V182.57H291.315V179.741C291.315 179.406 291.228 179.145 291.053 178.956C290.879 178.766 290.639 178.671 290.335 178.671C290.126 178.671 289.941 178.716 289.778 178.806C289.618 178.896 289.491 179.028 289.397 179.203C289.304 179.375 289.258 179.584 289.258 179.828ZM295.41 182.664C294.955 182.664 294.563 182.566 294.234 182.372C293.908 182.175 293.655 181.9 293.477 181.545C293.3 181.188 293.212 180.77 293.212 180.291C293.212 179.818 293.3 179.401 293.477 179.04C293.655 178.68 293.904 178.398 294.222 178.196C294.543 177.993 294.918 177.892 295.347 177.892C295.607 177.892 295.86 177.935 296.105 178.021C296.349 178.107 296.569 178.243 296.763 178.427C296.957 178.611 297.111 178.851 297.223 179.146C297.335 179.438 297.391 179.794 297.391 180.213V180.532H293.72V179.858H296.51C296.51 179.622 296.462 179.412 296.366 179.23C296.27 179.045 296.135 178.9 295.96 178.794C295.788 178.688 295.585 178.635 295.353 178.635C295.1 178.635 294.88 178.697 294.691 178.821C294.505 178.943 294.361 179.104 294.258 179.302C294.158 179.498 294.108 179.712 294.108 179.942V180.469C294.108 180.777 294.162 181.04 294.27 181.256C294.381 181.473 294.534 181.638 294.731 181.752C294.927 181.865 295.156 181.921 295.419 181.921C295.589 181.921 295.745 181.897 295.885 181.849C296.025 181.799 296.147 181.724 296.249 181.626C296.351 181.528 296.429 181.407 296.483 181.262L297.334 181.416C297.266 181.666 297.144 181.886 296.968 182.074C296.793 182.261 296.574 182.406 296.309 182.51C296.046 182.612 295.747 182.664 295.41 182.664ZM298.389 182.57V177.952H299.258V178.686H299.306C299.39 178.437 299.538 178.242 299.751 178.099C299.965 177.955 300.208 177.883 300.479 177.883C300.535 177.883 300.601 177.885 300.677 177.889C300.755 177.893 300.816 177.898 300.86 177.904V178.764C300.824 178.754 300.76 178.743 300.668 178.731C300.576 178.717 300.484 178.71 300.391 178.71C300.179 178.71 299.99 178.755 299.823 178.845C299.659 178.933 299.528 179.056 299.432 179.215C299.336 179.371 299.288 179.55 299.288 179.75V182.57H298.389Z" fill="#D1AE7B"/>
</svg>
