<svg width="337" height="212" viewBox="0 0 337 212" fill="none" xmlns="http://www.w3.org/2000/svg">
<g filter="url(#filter0_d_30_2895)">
<rect x="3.99219" y="4.02344" width="329" height="202.999" rx="3.02389" fill="white"/>
<rect width="87.0874" height="87.0884" transform="translate(46.3281 62.082)" fill="white"/>
<rect x="52.0859" y="67.8398" width="3.59868" height="3.59868" fill="#134B93"/>
<rect x="55.6855" y="67.8398" width="3.59868" height="3.59868" fill="#134B93"/>
<rect x="59.2773" y="67.8398" width="3.59868" height="3.59868" fill="#134B93"/>
<rect x="62.877" y="67.8398" width="3.59868" height="3.59868" fill="#134B93"/>
<rect x="66.4854" y="67.8398" width="3.59868" height="3.59868" fill="#134B93"/>
<rect x="70.0771" y="67.8398" width="3.59868" height="3.59868" fill="#134B93"/>
<rect x="73.6768" y="67.8398" width="3.59868" height="3.59868" fill="#134B93"/>
<rect x="88.0762" y="67.8398" width="3.59868" height="3.59868" fill="#134B93"/>
<rect x="91.668" y="67.8398" width="3.59868" height="3.59868" fill="#134B93"/>
<rect x="95.2686" y="67.8398" width="3.59868" height="3.59868" fill="#134B93"/>
<rect x="102.468" y="67.8398" width="3.59868" height="3.59868" fill="#134B93"/>
<rect x="106.06" y="67.8398" width="3.59868" height="3.59868" fill="#134B93"/>
<rect x="109.668" y="67.8398" width="3.59868" height="3.59868" fill="#134B93"/>
<rect x="113.268" y="67.8398" width="3.59868" height="3.59868" fill="#134B93"/>
<rect x="116.867" y="67.8398" width="3.59868" height="3.59868" fill="#134B93"/>
<rect x="120.459" y="67.8398" width="3.59868" height="3.59868" fill="#134B93"/>
<rect x="124.059" y="67.8398" width="3.59868" height="3.59868" fill="#134B93"/>
<rect x="52.0859" y="71.4375" width="3.59868" height="3.59868" fill="#134B93"/>
<rect x="73.6768" y="71.4375" width="3.59868" height="3.59868" fill="#134B93"/>
<rect x="80.8682" y="71.4375" width="3.59868" height="3.59868" fill="#134B93"/>
<rect x="84.4688" y="71.4375" width="3.59868" height="3.59868" fill="#134B93"/>
<rect x="88.0762" y="71.4375" width="3.59868" height="3.59868" fill="#134B93"/>
<rect x="95.2686" y="71.4375" width="3.59868" height="3.59868" fill="#134B93"/>
<rect x="102.468" y="71.4375" width="3.59868" height="3.59868" fill="#134B93"/>
<rect x="124.059" y="71.4375" width="3.59868" height="3.59868" fill="#134B93"/>
<rect x="52.0859" y="75.0371" width="3.59868" height="3.59868" fill="#134B93"/>
<rect x="59.2773" y="75.0371" width="3.59868" height="3.59868" fill="#134B93"/>
<rect x="62.877" y="75.0371" width="3.59868" height="3.59868" fill="#134B93"/>
<rect x="66.4854" y="75.0371" width="3.59868" height="3.59868" fill="#134B93"/>
<rect x="73.6768" y="75.0371" width="3.59868" height="3.59868" fill="#134B93"/>
<rect x="88.0762" y="75.0371" width="3.59868" height="3.59868" fill="#134B93"/>
<rect x="91.668" y="75.0371" width="3.59868" height="3.59868" fill="#134B93"/>
<rect x="95.2686" y="75.0371" width="3.59868" height="3.59868" fill="#134B93"/>
<rect x="102.468" y="75.0371" width="3.59868" height="3.59868" fill="#134B93"/>
<rect x="109.668" y="75.0371" width="3.59868" height="3.59868" fill="#134B93"/>
<rect x="113.268" y="75.0371" width="3.59868" height="3.59868" fill="#134B93"/>
<rect x="116.867" y="75.0371" width="3.59868" height="3.59868" fill="#134B93"/>
<rect x="124.059" y="75.0371" width="3.59868" height="3.59868" fill="#134B93"/>
<rect x="52.0859" y="78.6367" width="3.59868" height="3.59868" fill="#134B93"/>
<rect x="59.2773" y="78.6367" width="3.59868" height="3.59868" fill="#134B93"/>
<rect x="62.877" y="78.6367" width="3.59868" height="3.59868" fill="#134B93"/>
<rect x="66.4854" y="78.6367" width="3.59868" height="3.59868" fill="#134B93"/>
<rect x="73.6768" y="78.6367" width="3.59868" height="3.59868" fill="#134B93"/>
<rect x="80.8682" y="78.6367" width="3.59868" height="3.59868" fill="#134B93"/>
<rect x="84.4688" y="78.6367" width="3.59868" height="3.59868" fill="#134B93"/>
<rect x="95.2686" y="78.6367" width="3.59868" height="3.59868" fill="#134B93"/>
<rect x="102.468" y="78.6367" width="3.59868" height="3.59868" fill="#134B93"/>
<rect x="109.668" y="78.6367" width="3.59868" height="3.59868" fill="#134B93"/>
<rect x="113.268" y="78.6367" width="3.59868" height="3.59868" fill="#134B93"/>
<rect x="116.867" y="78.6367" width="3.59868" height="3.59868" fill="#134B93"/>
<rect x="124.059" y="78.6367" width="3.59868" height="3.59868" fill="#134B93"/>
<rect x="52.0859" y="82.2344" width="3.59868" height="3.59868" fill="#134B93"/>
<rect x="59.2773" y="82.2344" width="3.59868" height="3.59868" fill="#134B93"/>
<rect x="62.877" y="82.2344" width="3.59868" height="3.59868" fill="#134B93"/>
<rect x="66.4854" y="82.2344" width="3.59868" height="3.59868" fill="#134B93"/>
<rect x="73.6768" y="82.2344" width="3.59868" height="3.59868" fill="#134B93"/>
<rect x="84.4688" y="82.2344" width="3.59868" height="3.59868" fill="#134B93"/>
<rect x="95.2686" y="82.2344" width="3.59868" height="3.59868" fill="#134B93"/>
<rect x="102.468" y="82.2344" width="3.59868" height="3.59868" fill="#134B93"/>
<rect x="109.668" y="82.2344" width="3.59868" height="3.59868" fill="#134B93"/>
<rect x="113.268" y="82.2344" width="3.59868" height="3.59868" fill="#134B93"/>
<rect x="116.867" y="82.2344" width="3.59868" height="3.59868" fill="#134B93"/>
<rect x="124.059" y="82.2344" width="3.59868" height="3.59868" fill="#134B93"/>
<rect x="52.0859" y="85.834" width="3.59868" height="3.59868" fill="#134B93"/>
<rect x="73.6768" y="85.834" width="3.59868" height="3.59868" fill="#134B93"/>
<rect x="80.8682" y="85.834" width="3.59868" height="3.59868" fill="#134B93"/>
<rect x="91.668" y="85.834" width="3.59868" height="3.59868" fill="#134B93"/>
<rect x="102.468" y="85.834" width="3.59868" height="3.59868" fill="#134B93"/>
<rect x="124.059" y="85.834" width="3.59868" height="3.59868" fill="#134B93"/>
<rect x="52.0859" y="89.4316" width="3.59868" height="3.59868" fill="#134B93"/>
<rect x="55.6855" y="89.4316" width="3.59868" height="3.59868" fill="#134B93"/>
<rect x="59.2773" y="89.4316" width="3.59868" height="3.59868" fill="#134B93"/>
<rect x="62.877" y="89.4316" width="3.59868" height="3.59868" fill="#134B93"/>
<rect x="66.4854" y="89.4316" width="3.59868" height="3.59868" fill="#134B93"/>
<rect x="70.0771" y="89.4316" width="3.59868" height="3.59868" fill="#134B93"/>
<rect x="73.6768" y="89.4316" width="3.59868" height="3.59868" fill="#134B93"/>
<rect x="80.8682" y="89.4316" width="3.59868" height="3.59868" fill="#134B93"/>
<rect x="88.0762" y="89.4316" width="3.59868" height="3.59868" fill="#134B93"/>
<rect x="95.2686" y="89.4316" width="3.59868" height="3.59868" fill="#134B93"/>
<rect x="102.468" y="89.4316" width="3.59868" height="3.59868" fill="#134B93"/>
<rect x="106.06" y="89.4316" width="3.59868" height="3.59868" fill="#134B93"/>
<rect x="109.668" y="89.4316" width="3.59868" height="3.59868" fill="#134B93"/>
<rect x="113.268" y="89.4316" width="3.59868" height="3.59868" fill="#134B93"/>
<rect x="116.867" y="89.4316" width="3.59868" height="3.59868" fill="#134B93"/>
<rect x="120.459" y="89.4316" width="3.59868" height="3.59868" fill="#134B93"/>
<rect x="124.059" y="89.4316" width="3.59868" height="3.59868" fill="#134B93"/>
<rect x="84.4688" y="93.0312" width="3.59868" height="3.59868" fill="#134B93"/>
<rect x="52.0859" y="96.6289" width="3.59868" height="3.59868" fill="#134B93"/>
<rect x="55.6855" y="96.6289" width="3.59868" height="3.59868" fill="#134B93"/>
<rect x="59.2773" y="96.6289" width="3.59868" height="3.59868" fill="#134B93"/>
<rect x="62.877" y="96.6289" width="3.59868" height="3.59868" fill="#134B93"/>
<rect x="66.4854" y="96.6289" width="3.59868" height="3.59868" fill="#134B93"/>
<rect x="73.6768" y="96.6289" width="3.59868" height="3.59868" fill="#134B93"/>
<rect x="77.2773" y="96.6289" width="3.59868" height="3.59868" fill="#134B93"/>
<rect x="80.8682" y="96.6289" width="3.59868" height="3.59868" fill="#134B93"/>
<rect x="91.668" y="96.6289" width="3.59868" height="3.59868" fill="#134B93"/>
<rect x="98.8682" y="96.6289" width="3.59868" height="3.59868" fill="#134B93"/>
<rect x="106.06" y="96.6289" width="3.59868" height="3.59868" fill="#134B93"/>
<rect x="113.268" y="96.6289" width="3.59868" height="3.59868" fill="#134B93"/>
<rect x="120.459" y="96.6289" width="3.59868" height="3.59868" fill="#134B93"/>
<rect x="52.0859" y="100.229" width="3.59868" height="3.59868" fill="#134B93"/>
<rect x="59.2773" y="100.229" width="3.59868" height="3.59868" fill="#134B93"/>
<rect x="80.8682" y="100.229" width="3.59868" height="3.59868" fill="#134B93"/>
<rect x="84.4688" y="100.229" width="3.59868" height="3.59868" fill="#134B93"/>
<rect x="91.668" y="100.229" width="3.59868" height="3.59868" fill="#134B93"/>
<rect x="95.2686" y="100.229" width="3.59868" height="3.59868" fill="#134B93"/>
<rect x="98.8682" y="100.229" width="3.59868" height="3.59868" fill="#134B93"/>
<rect x="102.468" y="100.229" width="3.59868" height="3.59868" fill="#134B93"/>
<rect x="113.268" y="100.229" width="3.59868" height="3.59868" fill="#134B93"/>
<rect x="116.867" y="100.229" width="3.59868" height="3.59868" fill="#134B93"/>
<rect x="124.059" y="100.229" width="3.59868" height="3.59868" fill="#134B93"/>
<rect x="66.4854" y="103.826" width="3.59868" height="3.59868" fill="#134B93"/>
<rect x="73.6768" y="103.826" width="3.59868" height="3.59868" fill="#134B93"/>
<rect x="80.8682" y="103.826" width="3.59868" height="3.59868" fill="#134B93"/>
<rect x="84.4688" y="103.826" width="3.59868" height="3.59868" fill="#134B93"/>
<rect x="95.2686" y="103.826" width="3.59868" height="3.59868" fill="#134B93"/>
<rect x="102.468" y="103.826" width="3.59868" height="3.59868" fill="#134B93"/>
<rect x="106.06" y="103.826" width="3.59868" height="3.59868" fill="#134B93"/>
<rect x="113.268" y="103.826" width="3.59868" height="3.59868" fill="#134B93"/>
<rect x="120.459" y="103.826" width="3.59868" height="3.59868" fill="#134B93"/>
<rect x="52.0859" y="107.426" width="3.59868" height="3.59868" fill="#134B93"/>
<rect x="70.0771" y="107.426" width="3.59868" height="3.59868" fill="#134B93"/>
<rect x="77.2773" y="107.426" width="3.59868" height="3.59868" fill="#134B93"/>
<rect x="88.0762" y="107.426" width="3.59868" height="3.59868" fill="#134B93"/>
<rect x="91.668" y="107.426" width="3.59868" height="3.59868" fill="#134B93"/>
<rect x="95.2686" y="107.426" width="3.59868" height="3.59868" fill="#134B93"/>
<rect x="98.8682" y="107.426" width="3.59868" height="3.59868" fill="#134B93"/>
<rect x="102.468" y="107.426" width="3.59868" height="3.59868" fill="#134B93"/>
<rect x="113.268" y="107.426" width="3.59868" height="3.59868" fill="#134B93"/>
<rect x="116.867" y="107.426" width="3.59868" height="3.59868" fill="#134B93"/>
<rect x="120.459" y="107.426" width="3.59868" height="3.59868" fill="#134B93"/>
<rect x="124.059" y="107.426" width="3.59868" height="3.59868" fill="#134B93"/>
<rect x="52.0859" y="111.023" width="3.59868" height="3.59868" fill="#134B93"/>
<rect x="55.6855" y="111.023" width="3.59868" height="3.59868" fill="#134B93"/>
<rect x="73.6768" y="111.023" width="3.59868" height="3.59868" fill="#134B93"/>
<rect x="84.4688" y="111.023" width="3.59868" height="3.59868" fill="#134B93"/>
<rect x="95.2686" y="111.023" width="3.59868" height="3.59868" fill="#134B93"/>
<rect x="106.06" y="111.023" width="3.59868" height="3.59868" fill="#134B93"/>
<rect x="120.459" y="111.023" width="3.59868" height="3.59868" fill="#134B93"/>
<rect x="80.8682" y="114.623" width="3.59868" height="3.59868" fill="#134B93"/>
<rect x="88.0762" y="114.623" width="3.59868" height="3.59868" fill="#134B93"/>
<rect x="95.2686" y="114.623" width="3.59868" height="3.59868" fill="#134B93"/>
<rect x="106.06" y="114.623" width="3.59868" height="3.59868" fill="#134B93"/>
<rect x="113.268" y="114.623" width="3.59868" height="3.59868" fill="#134B93"/>
<rect x="116.867" y="114.623" width="3.59868" height="3.59868" fill="#134B93"/>
<rect x="124.059" y="114.623" width="3.59868" height="3.59868" fill="#134B93"/>
<rect x="52.0859" y="118.223" width="3.59868" height="3.59868" fill="#134B93"/>
<rect x="55.6855" y="118.223" width="3.59868" height="3.59868" fill="#134B93"/>
<rect x="59.2773" y="118.223" width="3.59868" height="3.59868" fill="#134B93"/>
<rect x="62.877" y="118.223" width="3.59868" height="3.59868" fill="#134B93"/>
<rect x="66.4854" y="118.223" width="3.59868" height="3.59868" fill="#134B93"/>
<rect x="70.0771" y="118.223" width="3.59868" height="3.59868" fill="#134B93"/>
<rect x="73.6768" y="118.223" width="3.59868" height="3.59868" fill="#134B93"/>
<rect x="80.8682" y="118.223" width="3.59868" height="3.59868" fill="#134B93"/>
<rect x="84.4688" y="118.223" width="3.59868" height="3.59868" fill="#134B93"/>
<rect x="88.0762" y="118.223" width="3.59868" height="3.59868" fill="#134B93"/>
<rect x="91.668" y="118.223" width="3.59868" height="3.59868" fill="#134B93"/>
<rect x="98.8682" y="118.223" width="3.59868" height="3.59868" fill="#134B93"/>
<rect x="109.668" y="118.223" width="3.59868" height="3.59868" fill="#134B93"/>
<rect x="113.268" y="118.223" width="3.59868" height="3.59868" fill="#134B93"/>
<rect x="120.459" y="118.223" width="3.59868" height="3.59868" fill="#134B93"/>
<rect x="52.0859" y="121.82" width="3.59868" height="3.59868" fill="#134B93"/>
<rect x="73.6768" y="121.82" width="3.59868" height="3.59868" fill="#134B93"/>
<rect x="106.06" y="121.82" width="3.59868" height="3.59868" fill="#134B93"/>
<rect x="109.668" y="121.82" width="3.59868" height="3.59868" fill="#134B93"/>
<rect x="113.268" y="121.82" width="3.59868" height="3.59868" fill="#134B93"/>
<rect x="116.867" y="121.82" width="3.59868" height="3.59868" fill="#134B93"/>
<rect x="120.459" y="121.82" width="3.59868" height="3.59868" fill="#134B93"/>
<rect x="52.0859" y="125.418" width="3.59868" height="3.59868" fill="#134B93"/>
<rect x="59.2773" y="125.418" width="3.59868" height="3.59868" fill="#134B93"/>
<rect x="62.877" y="125.418" width="3.59868" height="3.59868" fill="#134B93"/>
<rect x="66.4854" y="125.418" width="3.59868" height="3.59868" fill="#134B93"/>
<rect x="73.6768" y="125.418" width="3.59868" height="3.59868" fill="#134B93"/>
<rect x="80.8682" y="125.418" width="3.59868" height="3.59868" fill="#134B93"/>
<rect x="84.4688" y="125.418" width="3.59868" height="3.59868" fill="#134B93"/>
<rect x="88.0762" y="125.418" width="3.59868" height="3.59868" fill="#134B93"/>
<rect x="91.668" y="125.418" width="3.59868" height="3.59868" fill="#134B93"/>
<rect x="98.8682" y="125.418" width="3.59868" height="3.59868" fill="#134B93"/>
<rect x="109.668" y="125.418" width="3.59868" height="3.59868" fill="#134B93"/>
<rect x="120.459" y="125.418" width="3.59868" height="3.59868" fill="#134B93"/>
<rect x="52.0859" y="129.018" width="3.59868" height="3.59868" fill="#134B93"/>
<rect x="59.2773" y="129.018" width="3.59868" height="3.59868" fill="#134B93"/>
<rect x="62.877" y="129.018" width="3.59868" height="3.59868" fill="#134B93"/>
<rect x="66.4854" y="129.018" width="3.59868" height="3.59868" fill="#134B93"/>
<rect x="73.6768" y="129.018" width="3.59868" height="3.59868" fill="#134B93"/>
<rect x="80.8682" y="129.018" width="3.59868" height="3.59868" fill="#134B93"/>
<rect x="84.4688" y="129.018" width="3.59868" height="3.59868" fill="#134B93"/>
<rect x="91.668" y="129.018" width="3.59868" height="3.59868" fill="#134B93"/>
<rect x="95.2686" y="129.018" width="3.59868" height="3.59868" fill="#134B93"/>
<rect x="98.8682" y="129.018" width="3.59868" height="3.59868" fill="#134B93"/>
<rect x="102.468" y="129.018" width="3.59868" height="3.59868" fill="#134B93"/>
<rect x="106.06" y="129.018" width="3.59868" height="3.59868" fill="#134B93"/>
<rect x="113.268" y="129.018" width="3.59868" height="3.59868" fill="#134B93"/>
<rect x="116.867" y="129.018" width="3.59868" height="3.59868" fill="#134B93"/>
<rect x="52.0859" y="132.615" width="3.59868" height="3.59868" fill="#134B93"/>
<rect x="59.2773" y="132.615" width="3.59868" height="3.59868" fill="#134B93"/>
<rect x="62.877" y="132.615" width="3.59868" height="3.59868" fill="#134B93"/>
<rect x="66.4854" y="132.615" width="3.59868" height="3.59868" fill="#134B93"/>
<rect x="73.6768" y="132.615" width="3.59868" height="3.59868" fill="#134B93"/>
<rect x="80.8682" y="132.615" width="3.59868" height="3.59868" fill="#134B93"/>
<rect x="88.0762" y="132.615" width="3.59868" height="3.59868" fill="#134B93"/>
<rect x="95.2686" y="132.615" width="3.59868" height="3.59868" fill="#134B93"/>
<rect x="102.468" y="132.615" width="3.59868" height="3.59868" fill="#134B93"/>
<rect x="106.06" y="132.615" width="3.59868" height="3.59868" fill="#134B93"/>
<rect x="113.268" y="132.615" width="3.59868" height="3.59868" fill="#134B93"/>
<rect x="52.0859" y="136.215" width="3.59868" height="3.59868" fill="#134B93"/>
<rect x="73.6768" y="136.215" width="3.59868" height="3.59868" fill="#134B93"/>
<rect x="80.8682" y="136.215" width="3.59868" height="3.59868" fill="#134B93"/>
<rect x="91.668" y="136.215" width="3.59868" height="3.59868" fill="#134B93"/>
<rect x="95.2686" y="136.215" width="3.59868" height="3.59868" fill="#134B93"/>
<rect x="98.8682" y="136.215" width="3.59868" height="3.59868" fill="#134B93"/>
<rect x="102.468" y="136.215" width="3.59868" height="3.59868" fill="#134B93"/>
<rect x="109.668" y="136.215" width="3.59868" height="3.59868" fill="#134B93"/>
<rect x="113.268" y="136.215" width="3.59868" height="3.59868" fill="#134B93"/>
<rect x="116.867" y="136.215" width="3.59868" height="3.59868" fill="#134B93"/>
<rect x="52.0859" y="139.814" width="3.59868" height="3.59868" fill="#134B93"/>
<rect x="55.6855" y="139.814" width="3.59868" height="3.59868" fill="#134B93"/>
<rect x="59.2773" y="139.814" width="3.59868" height="3.59868" fill="#134B93"/>
<rect x="62.877" y="139.814" width="3.59868" height="3.59868" fill="#134B93"/>
<rect x="66.4854" y="139.814" width="3.59868" height="3.59868" fill="#134B93"/>
<rect x="70.0771" y="139.814" width="3.59868" height="3.59868" fill="#134B93"/>
<rect x="73.6768" y="139.814" width="3.59868" height="3.59868" fill="#134B93"/>
<rect x="80.8682" y="139.814" width="3.59868" height="3.59868" fill="#134B93"/>
<rect x="88.0762" y="139.814" width="3.59868" height="3.59868" fill="#134B93"/>
<rect x="95.2686" y="139.814" width="3.59868" height="3.59868" fill="#134B93"/>
<rect x="120.459" y="139.814" width="3.59868" height="3.59868" fill="#134B93"/>
<path d="M299.124 32.8238C300.31 31.4905 301.969 28.1181 299.124 25.2946M303.747 22.7064C306 24.6671 309.153 30.0004 303.747 35.6473M308.727 20.3535C311.927 22.7848 316.408 29.7651 308.727 38.2355" stroke="#134B93" stroke-width="2.30735" stroke-linecap="round"/>
<path d="M241.207 170.44C241.176 170.128 241.043 169.886 240.808 169.713C240.574 169.54 240.256 169.454 239.854 169.454C239.58 169.454 239.35 169.493 239.162 169.57C238.973 169.645 238.829 169.749 238.729 169.883C238.631 170.017 238.582 170.169 238.582 170.339C238.577 170.481 238.606 170.605 238.671 170.711C238.738 170.816 238.829 170.908 238.945 170.985C239.061 171.06 239.195 171.125 239.347 171.182C239.499 171.236 239.662 171.283 239.834 171.321L240.546 171.491C240.891 171.569 241.208 171.672 241.497 171.801C241.785 171.93 242.035 172.088 242.247 172.276C242.458 172.464 242.621 172.686 242.737 172.941C242.856 173.196 242.917 173.489 242.919 173.819C242.917 174.303 242.793 174.723 242.548 175.079C242.306 175.432 241.955 175.706 241.497 175.902C241.04 176.096 240.49 176.192 239.846 176.192C239.207 176.192 238.65 176.094 238.176 175.898C237.704 175.703 237.336 175.413 237.07 175.029C236.807 174.642 236.669 174.164 236.657 173.594H238.276C238.294 173.86 238.37 174.081 238.504 174.259C238.641 174.435 238.823 174.567 239.05 174.657C239.279 174.745 239.538 174.789 239.827 174.789C240.11 174.789 240.356 174.748 240.565 174.665C240.776 174.583 240.94 174.468 241.056 174.321C241.172 174.174 241.23 174.005 241.23 173.815C241.23 173.637 241.177 173.487 241.071 173.366C240.968 173.245 240.816 173.142 240.615 173.057C240.417 172.972 240.173 172.895 239.885 172.825L239.022 172.609C238.355 172.446 237.828 172.192 237.441 171.847C237.055 171.502 236.863 171.037 236.865 170.452C236.863 169.972 236.99 169.553 237.248 169.195C237.508 168.837 237.865 168.557 238.319 168.356C238.772 168.155 239.288 168.055 239.865 168.055C240.453 168.055 240.966 168.155 241.404 168.356C241.844 168.557 242.187 168.837 242.432 169.195C242.677 169.553 242.803 169.968 242.811 170.44H241.207ZM245.707 176.192C245.328 176.192 244.991 176.126 244.695 175.995C244.398 175.861 244.164 175.664 243.991 175.404C243.821 175.141 243.736 174.813 243.736 174.422C243.736 174.092 243.796 173.815 243.917 173.591C244.039 173.366 244.204 173.186 244.412 173.049C244.621 172.913 244.858 172.81 245.124 172.74C245.392 172.67 245.673 172.622 245.966 172.593C246.312 172.557 246.59 172.524 246.801 172.493C247.013 172.459 247.166 172.41 247.261 172.346C247.357 172.281 247.404 172.186 247.404 172.06V172.036C247.404 171.792 247.327 171.602 247.172 171.468C247.02 171.334 246.804 171.267 246.523 171.267C246.227 171.267 245.991 171.333 245.816 171.464C245.64 171.593 245.524 171.756 245.468 171.951L243.945 171.828C244.022 171.467 244.174 171.155 244.401 170.892C244.627 170.627 244.92 170.423 245.278 170.281C245.639 170.137 246.057 170.065 246.531 170.065C246.861 170.065 247.176 170.104 247.478 170.181C247.782 170.258 248.051 170.378 248.286 170.54C248.523 170.703 248.71 170.912 248.846 171.167C248.983 171.419 249.051 171.722 249.051 172.075V176.08H247.489V175.257H247.443C247.348 175.442 247.22 175.606 247.06 175.748C246.901 175.887 246.709 175.996 246.484 176.076C246.26 176.154 246.001 176.192 245.707 176.192ZM246.179 175.056C246.421 175.056 246.635 175.008 246.821 174.913C247.006 174.815 247.152 174.683 247.258 174.518C247.363 174.353 247.416 174.167 247.416 173.958V173.328C247.364 173.361 247.294 173.392 247.203 173.42C247.116 173.446 247.017 173.471 246.906 173.494C246.795 173.514 246.684 173.534 246.573 173.552C246.462 173.567 246.362 173.582 246.272 173.594C246.078 173.623 245.91 173.668 245.765 173.73C245.621 173.792 245.509 173.875 245.429 173.981C245.349 174.084 245.309 174.213 245.309 174.368C245.309 174.592 245.39 174.763 245.553 174.882C245.718 174.998 245.926 175.056 246.179 175.056ZM250.329 176.08V170.142H251.925V171.178H251.987C252.096 170.81 252.277 170.531 252.532 170.343C252.788 170.153 253.081 170.057 253.414 170.057C253.496 170.057 253.585 170.062 253.68 170.073C253.776 170.083 253.86 170.097 253.932 170.115V171.576C253.854 171.553 253.748 171.533 253.611 171.515C253.474 171.497 253.349 171.488 253.236 171.488C252.994 171.488 252.777 171.54 252.586 171.646C252.398 171.749 252.249 171.893 252.138 172.079C252.03 172.265 251.976 172.478 251.976 172.721V176.08H250.329ZM256.306 176.192C255.927 176.192 255.59 176.126 255.293 175.995C254.997 175.861 254.763 175.664 254.59 175.404C254.42 175.141 254.335 174.813 254.335 174.422C254.335 174.092 254.395 173.815 254.516 173.591C254.638 173.366 254.803 173.186 255.011 173.049C255.22 172.913 255.457 172.81 255.723 172.74C255.991 172.67 256.272 172.622 256.565 172.593C256.911 172.557 257.189 172.524 257.4 172.493C257.612 172.459 257.765 172.41 257.86 172.346C257.956 172.281 258.003 172.186 258.003 172.06V172.036C258.003 171.792 257.926 171.602 257.771 171.468C257.619 171.334 257.403 171.267 257.122 171.267C256.826 171.267 256.59 171.333 256.415 171.464C256.239 171.593 256.123 171.756 256.067 171.951L254.544 171.828C254.621 171.467 254.773 171.155 255 170.892C255.226 170.627 255.519 170.423 255.877 170.281C256.238 170.137 256.656 170.065 257.13 170.065C257.46 170.065 257.775 170.104 258.077 170.181C258.381 170.258 258.65 170.378 258.885 170.54C259.122 170.703 259.309 170.912 259.445 171.167C259.582 171.419 259.65 171.722 259.65 172.075V176.08H258.088V175.257H258.042C257.947 175.442 257.819 175.606 257.659 175.748C257.5 175.887 257.308 175.996 257.083 176.076C256.859 176.154 256.6 176.192 256.306 176.192ZM256.778 175.056C257.02 175.056 257.234 175.008 257.42 174.913C257.605 174.815 257.751 174.683 257.856 174.518C257.962 174.353 258.015 174.167 258.015 173.958V173.328C257.963 173.361 257.893 173.392 257.802 173.42C257.715 173.446 257.616 173.471 257.505 173.494C257.394 173.514 257.283 173.534 257.172 173.552C257.061 173.567 256.961 173.582 256.871 173.594C256.677 173.623 256.509 173.668 256.364 173.73C256.22 173.792 256.108 173.875 256.028 173.981C255.948 174.084 255.908 174.213 255.908 174.368C255.908 174.592 255.989 174.763 256.152 174.882C256.317 174.998 256.525 175.056 256.778 175.056ZM262.575 172.647V176.08H260.928V168.163H262.528V171.19H262.598C262.732 170.839 262.948 170.565 263.247 170.366C263.546 170.165 263.921 170.065 264.372 170.065C264.785 170.065 265.144 170.155 265.451 170.336C265.76 170.513 266 170.77 266.17 171.105C266.343 171.437 266.428 171.835 266.425 172.299V176.08H264.778V172.593C264.781 172.227 264.688 171.942 264.5 171.739C264.314 171.535 264.054 171.433 263.719 171.433C263.495 171.433 263.296 171.481 263.124 171.576C262.954 171.672 262.82 171.811 262.722 171.994C262.626 172.174 262.577 172.392 262.575 172.647ZM270.271 168.163H272.336L274.516 173.482H274.609L276.789 168.163H278.853V176.08H277.23V170.927H277.164L275.115 176.041H274.01L271.961 170.908H271.895V176.08H270.271V168.163ZM281.895 176.192C281.516 176.192 281.178 176.126 280.882 175.995C280.586 175.861 280.351 175.664 280.178 175.404C280.008 175.141 279.923 174.813 279.923 174.422C279.923 174.092 279.984 173.815 280.105 173.591C280.226 173.366 280.391 173.186 280.6 173.049C280.809 172.913 281.046 172.81 281.311 172.74C281.579 172.67 281.86 172.622 282.154 172.593C282.499 172.557 282.778 172.524 282.989 172.493C283.2 172.459 283.354 172.41 283.449 172.346C283.544 172.281 283.592 172.186 283.592 172.06V172.036C283.592 171.792 283.515 171.602 283.36 171.468C283.208 171.334 282.991 171.267 282.711 171.267C282.414 171.267 282.178 171.333 282.003 171.464C281.828 171.593 281.712 171.756 281.655 171.951L280.132 171.828C280.209 171.467 280.361 171.155 280.588 170.892C280.815 170.627 281.108 170.423 281.466 170.281C281.827 170.137 282.244 170.065 282.718 170.065C283.048 170.065 283.364 170.104 283.665 170.181C283.969 170.258 284.239 170.378 284.473 170.54C284.71 170.703 284.897 170.912 285.034 171.167C285.17 171.419 285.239 171.722 285.239 172.075V176.08H283.677V175.257H283.631C283.535 175.442 283.408 175.606 283.248 175.748C283.088 175.887 282.896 175.996 282.672 176.076C282.448 176.154 282.189 176.192 281.895 176.192ZM282.366 175.056C282.609 175.056 282.823 175.008 283.008 174.913C283.194 174.815 283.339 174.683 283.445 174.518C283.551 174.353 283.604 174.167 283.604 173.958V173.328C283.552 173.361 283.481 173.392 283.391 173.42C283.303 173.446 283.204 173.471 283.093 173.494C282.982 173.514 282.872 173.534 282.761 173.552C282.65 173.567 282.549 173.582 282.459 173.594C282.266 173.623 282.097 173.668 281.953 173.73C281.808 173.792 281.696 173.875 281.616 173.981C281.537 174.084 281.497 174.213 281.497 174.368C281.497 174.592 281.578 174.763 281.74 174.882C281.905 174.998 282.114 175.056 282.366 175.056ZM289.675 170.142V171.379H286.099V170.142H289.675ZM286.911 168.72H288.557V174.255C288.557 174.407 288.581 174.526 288.627 174.611C288.673 174.694 288.738 174.752 288.82 174.785C288.905 174.819 289.003 174.835 289.114 174.835C289.191 174.835 289.269 174.829 289.346 174.816C289.423 174.801 289.483 174.789 289.524 174.781L289.783 176.007C289.7 176.032 289.584 176.062 289.435 176.096C289.286 176.132 289.104 176.154 288.89 176.161C288.493 176.177 288.145 176.124 287.846 176.003C287.55 175.882 287.319 175.694 287.154 175.438C286.989 175.183 286.908 174.861 286.911 174.472V168.72ZM292.522 172.647V176.08H290.875V168.163H292.475V171.19H292.545C292.679 170.839 292.896 170.565 293.194 170.366C293.493 170.165 293.868 170.065 294.319 170.065C294.732 170.065 295.091 170.155 295.398 170.336C295.707 170.513 295.947 170.77 296.117 171.105C296.29 171.437 296.375 171.835 296.372 172.299V176.08H294.725V172.593C294.728 172.227 294.635 171.942 294.447 171.739C294.261 171.535 294.001 171.433 293.666 171.433C293.442 171.433 293.243 171.481 293.071 171.576C292.901 171.672 292.767 171.811 292.669 171.994C292.573 172.174 292.524 172.392 292.522 172.647ZM300.374 176.196C299.763 176.196 299.238 176.072 298.797 175.825C298.359 175.575 298.021 175.222 297.784 174.766C297.547 174.307 297.428 173.764 297.428 173.138C297.428 172.527 297.547 171.991 297.784 171.53C298.021 171.069 298.355 170.709 298.785 170.452C299.218 170.194 299.726 170.065 300.308 170.065C300.7 170.065 301.065 170.128 301.402 170.254C301.743 170.378 302.039 170.565 302.292 170.815C302.547 171.065 302.745 171.379 302.887 171.758C303.029 172.134 303.1 172.575 303.1 173.08V173.533H298.086V172.512H301.549C301.549 172.275 301.498 172.065 301.395 171.882C301.292 171.699 301.149 171.556 300.966 171.453C300.785 171.347 300.575 171.294 300.336 171.294C300.086 171.294 299.864 171.352 299.671 171.468C299.48 171.582 299.33 171.735 299.222 171.928C299.114 172.119 299.059 172.332 299.056 172.566V173.536C299.056 173.83 299.11 174.084 299.218 174.298C299.329 174.512 299.485 174.677 299.686 174.793C299.887 174.909 300.125 174.967 300.401 174.967C300.584 174.967 300.752 174.941 300.904 174.889C301.056 174.838 301.186 174.761 301.294 174.657C301.402 174.554 301.485 174.428 301.542 174.279L303.065 174.379C302.987 174.745 302.829 175.065 302.589 175.338C302.352 175.608 302.045 175.82 301.669 175.972C301.296 176.121 300.864 176.196 300.374 176.196ZM305.303 176.08L303.687 170.142H305.353L306.273 174.132H306.327L307.286 170.142H308.921L309.896 174.109H309.946L310.85 170.142H312.513L310.901 176.08H309.157L308.137 172.346H308.063L307.043 176.08H305.303Z" fill="#134B93"/>
<path d="M242.249 183.491C242.249 184.149 242.129 184.714 241.888 185.187C241.648 185.658 241.318 186.021 240.899 186.276C240.482 186.528 240.008 186.655 239.477 186.655C238.944 186.655 238.468 186.528 238.049 186.276C237.632 186.021 237.303 185.657 237.063 185.184C236.822 184.711 236.702 184.147 236.702 183.491C236.702 182.834 236.822 182.27 237.063 181.799C237.303 181.326 237.632 180.963 238.049 180.71C238.468 180.456 238.944 180.328 239.477 180.328C240.008 180.328 240.482 180.456 240.899 180.71C241.318 180.963 241.648 181.326 241.888 181.799C242.129 182.27 242.249 182.834 242.249 183.491ZM241.329 183.491C241.329 182.99 241.248 182.568 241.085 182.226C240.925 181.881 240.705 181.62 240.424 181.444C240.145 181.265 239.83 181.176 239.477 181.176C239.122 181.176 238.805 181.265 238.527 181.444C238.248 181.62 238.028 181.881 237.865 182.226C237.705 182.568 237.625 182.99 237.625 183.491C237.625 183.993 237.705 184.416 237.865 184.76C238.028 185.103 238.248 185.364 238.527 185.542C238.805 185.718 239.122 185.807 239.477 185.807C239.83 185.807 240.145 185.718 240.424 185.542C240.705 185.364 240.925 185.103 241.085 184.76C241.248 184.416 241.329 183.993 241.329 183.491ZM244.336 186.57L242.977 181.952H243.907L244.812 185.344H244.857L245.765 181.952H246.694L247.596 185.329H247.641L248.54 181.952H249.469L248.113 186.57H247.196L246.258 183.236H246.189L245.251 186.57H244.336ZM251.221 183.828V186.57H250.322V181.952H251.185V182.704H251.242C251.348 182.459 251.515 182.263 251.741 182.114C251.97 181.966 252.257 181.892 252.604 181.892C252.919 181.892 253.195 181.958 253.431 182.09C253.668 182.221 253.851 182.415 253.981 182.674C254.112 182.932 254.177 183.252 254.177 183.633V186.57H253.278V183.741C253.278 183.406 253.191 183.145 253.016 182.956C252.842 182.766 252.602 182.671 252.298 182.671C252.089 182.671 251.904 182.716 251.741 182.806C251.581 182.896 251.454 183.028 251.359 183.203C251.267 183.375 251.221 183.584 251.221 183.828ZM257.373 186.664C256.918 186.664 256.526 186.566 256.197 186.372C255.87 186.175 255.618 185.9 255.44 185.545C255.263 185.188 255.175 184.77 255.175 184.291C255.175 183.818 255.263 183.401 255.44 183.04C255.618 182.68 255.866 182.398 256.185 182.196C256.506 181.993 256.881 181.892 257.31 181.892C257.57 181.892 257.823 181.935 258.067 182.021C258.312 182.107 258.531 182.243 258.726 182.427C258.92 182.611 259.074 182.851 259.186 183.146C259.298 183.438 259.354 183.794 259.354 184.213V184.532H255.683V183.858H258.473C258.473 183.622 258.425 183.412 258.329 183.23C258.233 183.045 258.097 182.9 257.923 182.794C257.751 182.688 257.548 182.635 257.316 182.635C257.063 182.635 256.843 182.697 256.654 182.821C256.468 182.943 256.323 183.104 256.221 183.302C256.121 183.498 256.071 183.712 256.071 183.942V184.469C256.071 184.777 256.125 185.04 256.233 185.256C256.344 185.473 256.497 185.638 256.693 185.752C256.89 185.865 257.119 185.921 257.382 185.921C257.552 185.921 257.708 185.897 257.848 185.849C257.988 185.799 258.109 185.724 258.212 185.626C258.314 185.528 258.392 185.407 258.446 185.262L259.297 185.416C259.229 185.666 259.107 185.886 258.93 186.074C258.756 186.261 258.536 186.406 258.272 186.51C258.009 186.612 257.71 186.664 257.373 186.664ZM260.352 186.57V181.952H261.221V182.686H261.269C261.353 182.437 261.501 182.242 261.714 182.099C261.928 181.955 262.171 181.883 262.441 181.883C262.498 181.883 262.564 181.885 262.64 181.889C262.718 181.893 262.779 181.898 262.823 181.904V182.764C262.787 182.754 262.723 182.743 262.631 182.731C262.539 182.717 262.446 182.71 262.354 182.71C262.142 182.71 261.952 182.755 261.786 182.845C261.622 182.933 261.491 183.056 261.395 183.215C261.299 183.371 261.251 183.55 261.251 183.75V186.57H260.352ZM267.09 178.428V188.555H266.284V178.428H267.09ZM273.051 186.57H271.057V180.413H273.114C273.717 180.413 274.235 180.536 274.668 180.782C275.101 181.027 275.433 181.379 275.663 181.838C275.896 182.295 276.012 182.843 276.012 183.482C276.012 184.124 275.895 184.675 275.66 185.136C275.428 185.597 275.091 185.952 274.65 186.2C274.209 186.447 273.676 186.57 273.051 186.57ZM271.986 185.759H272.999C273.469 185.759 273.858 185.67 274.169 185.494C274.48 185.316 274.712 185.058 274.867 184.721C275.021 184.382 275.098 183.97 275.098 183.482C275.098 182.999 275.021 182.589 274.867 182.253C274.714 181.916 274.487 181.66 274.184 181.486C273.881 181.312 273.506 181.224 273.057 181.224H271.986V185.759ZM279.086 186.664C278.631 186.664 278.239 186.566 277.91 186.372C277.583 186.175 277.331 185.9 277.152 185.545C276.976 185.188 276.888 184.77 276.888 184.291C276.888 183.818 276.976 183.401 277.152 183.04C277.331 182.68 277.579 182.398 277.898 182.196C278.219 181.993 278.594 181.892 279.023 181.892C279.283 181.892 279.536 181.935 279.78 182.021C280.025 182.107 280.244 182.243 280.439 182.427C280.633 182.611 280.787 182.851 280.899 183.146C281.011 183.438 281.067 183.794 281.067 184.213V184.532H277.396V183.858H280.186C280.186 183.622 280.138 183.412 280.042 183.23C279.946 183.045 279.81 182.9 279.636 182.794C279.464 182.688 279.261 182.635 279.029 182.635C278.776 182.635 278.556 182.697 278.367 182.821C278.181 182.943 278.036 183.104 277.934 183.302C277.834 183.498 277.784 183.712 277.784 183.942V184.469C277.784 184.777 277.838 185.04 277.946 185.256C278.057 185.473 278.21 185.638 278.406 185.752C278.603 185.865 278.832 185.921 279.095 185.921C279.265 185.921 279.421 185.897 279.561 185.849C279.701 185.799 279.822 185.724 279.925 185.626C280.027 185.528 280.105 185.407 280.159 185.262L281.01 185.416C280.942 185.666 280.82 185.886 280.643 186.074C280.469 186.261 280.249 186.406 279.985 186.51C279.722 186.612 279.423 186.664 279.086 186.664ZM285.525 183.08L284.711 183.224C284.677 183.12 284.622 183.02 284.548 182.926C284.476 182.832 284.378 182.755 284.254 182.695C284.129 182.635 283.974 182.604 283.788 182.604C283.533 182.604 283.321 182.662 283.15 182.776C282.98 182.888 282.895 183.033 282.895 183.212C282.895 183.366 282.952 183.49 283.066 183.585C283.18 183.679 283.365 183.756 283.619 183.816L284.353 183.985C284.778 184.083 285.094 184.234 285.303 184.439C285.511 184.643 285.616 184.909 285.616 185.235C285.616 185.512 285.535 185.759 285.375 185.975C285.217 186.189 284.995 186.358 284.711 186.48C284.428 186.602 284.1 186.664 283.727 186.664C283.21 186.664 282.788 186.553 282.462 186.333C282.135 186.11 281.934 185.795 281.86 185.386L282.729 185.253C282.783 185.48 282.895 185.651 283.063 185.768C283.231 185.882 283.451 185.939 283.721 185.939C284.016 185.939 284.252 185.878 284.428 185.755C284.604 185.631 284.693 185.48 284.693 185.301C284.693 185.157 284.638 185.036 284.53 184.938C284.424 184.839 284.261 184.765 284.04 184.715L283.258 184.544C282.827 184.446 282.509 184.289 282.302 184.075C282.098 183.86 281.996 183.589 281.996 183.26C281.996 182.987 282.072 182.749 282.224 182.544C282.376 182.34 282.587 182.181 282.855 182.066C283.124 181.95 283.432 181.892 283.779 181.892C284.278 181.892 284.671 182 284.957 182.217C285.244 182.431 285.433 182.719 285.525 183.08ZM286.604 186.57V181.952H287.503V186.57H286.604ZM287.058 181.239C286.902 181.239 286.767 181.187 286.655 181.083C286.545 180.977 286.49 180.851 286.49 180.704C286.49 180.556 286.545 180.43 286.655 180.325C286.767 180.219 286.902 180.166 287.058 180.166C287.214 180.166 287.348 180.219 287.458 180.325C287.57 180.43 287.626 180.556 287.626 180.704C287.626 180.851 287.57 180.977 287.458 181.083C287.348 181.187 287.214 181.239 287.058 181.239ZM290.649 188.398C290.282 188.398 289.966 188.35 289.702 188.254C289.439 188.158 289.225 188.031 289.058 187.872C288.892 187.714 288.768 187.54 288.685 187.352L289.458 187.033C289.512 187.122 289.584 187.215 289.675 187.313C289.767 187.413 289.891 187.498 290.048 187.569C290.206 187.639 290.409 187.674 290.658 187.674C290.999 187.674 291.28 187.591 291.503 187.424C291.725 187.26 291.837 186.997 291.837 186.636V185.728H291.779C291.725 185.827 291.647 185.936 291.545 186.056C291.445 186.176 291.306 186.281 291.13 186.369C290.954 186.457 290.724 186.501 290.441 186.501C290.077 186.501 289.748 186.416 289.455 186.246C289.165 186.073 288.934 185.82 288.764 185.485C288.595 185.148 288.511 184.734 288.511 184.243C288.511 183.752 288.594 183.331 288.761 182.98C288.929 182.63 289.16 182.361 289.452 182.175C289.745 181.986 290.077 181.892 290.447 181.892C290.734 181.892 290.966 181.94 291.142 182.036C291.318 182.13 291.456 182.241 291.554 182.367C291.654 182.493 291.731 182.604 291.785 182.701H291.852V181.952H292.733V186.673C292.733 187.069 292.64 187.395 292.456 187.65C292.271 187.904 292.022 188.093 291.707 188.215C291.395 188.337 291.042 188.398 290.649 188.398ZM290.64 185.755C290.898 185.755 291.117 185.695 291.295 185.575C291.476 185.453 291.612 185.278 291.704 185.052C291.798 184.823 291.846 184.55 291.846 184.231C291.846 183.92 291.799 183.647 291.707 183.41C291.615 183.174 291.48 182.989 291.301 182.857C291.123 182.723 290.902 182.656 290.64 182.656C290.369 182.656 290.144 182.726 289.963 182.866C289.783 183.004 289.647 183.193 289.554 183.431C289.464 183.67 289.419 183.936 289.419 184.231C289.419 184.534 289.465 184.799 289.557 185.028C289.65 185.256 289.786 185.435 289.966 185.563C290.149 185.691 290.373 185.755 290.64 185.755ZM294.837 183.828V186.57H293.938V181.952H294.801V182.704H294.858C294.965 182.459 295.131 182.263 295.357 182.114C295.586 181.966 295.874 181.892 296.22 181.892C296.535 181.892 296.811 181.958 297.047 182.09C297.284 182.221 297.467 182.415 297.597 182.674C297.728 182.932 297.793 183.252 297.793 183.633V186.57H296.894V183.741C296.894 183.406 296.807 183.145 296.632 182.956C296.458 182.766 296.218 182.671 295.914 182.671C295.705 182.671 295.52 182.716 295.357 182.806C295.197 182.896 295.07 183.028 294.976 183.203C294.883 183.375 294.837 183.584 294.837 183.828ZM300.989 186.664C300.534 186.664 300.142 186.566 299.813 186.372C299.487 186.175 299.234 185.9 299.056 185.545C298.879 185.188 298.791 184.77 298.791 184.291C298.791 183.818 298.879 183.401 299.056 183.04C299.234 182.68 299.483 182.398 299.801 182.196C300.122 181.993 300.497 181.892 300.926 181.892C301.186 181.892 301.439 181.935 301.684 182.021C301.928 182.107 302.148 182.243 302.342 182.427C302.536 182.611 302.69 182.851 302.802 183.146C302.914 183.438 302.97 183.794 302.97 184.213V184.532H299.299V183.858H302.089C302.089 183.622 302.041 183.412 301.945 183.23C301.849 183.045 301.714 182.9 301.539 182.794C301.367 182.688 301.164 182.635 300.932 182.635C300.679 182.635 300.459 182.697 300.27 182.821C300.084 182.943 299.94 183.104 299.837 183.302C299.737 183.498 299.687 183.712 299.687 183.942V184.469C299.687 184.777 299.741 185.04 299.849 185.256C299.96 185.473 300.113 185.638 300.309 185.752C300.506 185.865 300.735 185.921 300.998 185.921C301.168 185.921 301.324 185.897 301.464 185.849C301.604 185.799 301.726 185.724 301.828 185.626C301.93 185.528 302.008 185.407 302.062 185.262L302.913 185.416C302.845 185.666 302.723 185.886 302.546 186.074C302.372 186.261 302.153 186.406 301.888 186.51C301.625 186.612 301.326 186.664 300.989 186.664ZM303.968 186.57V181.952H304.837V182.686H304.885C304.969 182.437 305.117 182.242 305.33 182.099C305.544 181.955 305.787 181.883 306.058 181.883C306.114 181.883 306.18 181.885 306.256 181.889C306.334 181.893 306.395 181.898 306.439 181.904V182.764C306.403 182.754 306.339 182.743 306.247 182.731C306.155 182.717 306.063 182.71 305.97 182.71C305.758 182.71 305.568 182.755 305.402 182.845C305.238 182.933 305.107 183.056 305.011 183.215C304.915 183.371 304.867 183.55 304.867 183.75V186.57H303.968Z" fill="#134B93"/>
</g>
<defs>
<filter id="filter0_d_30_2895" x="-0.0078125" y="0.0234375" width="337" height="210.998" filterUnits="userSpaceOnUse" color-interpolation-filters="sRGB">
<feFlood flood-opacity="0" result="BackgroundImageFix"/>
<feColorMatrix in="SourceAlpha" type="matrix" values="0 0 0 0 0 0 0 0 0 0 0 0 0 0 0 0 0 0 127 0" result="hardAlpha"/>
<feOffset/>
<feGaussianBlur stdDeviation="2"/>
<feComposite in2="hardAlpha" operator="out"/>
<feColorMatrix type="matrix" values="0 0 0 0 0 0 0 0 0 0 0 0 0 0 0 0 0 0 0.25 0"/>
<feBlend mode="normal" in2="BackgroundImageFix" result="effect1_dropShadow_30_2895"/>
<feBlend mode="normal" in="SourceGraphic" in2="effect1_dropShadow_30_2895" result="shape"/>
</filter>
</defs>
</svg>
