<svg xmlns="http://www.w3.org/2000/svg" width="337" height="212" fill="none"><g filter="url(#a)"><rect width="329" height="202.999" x="3.992" y="4.979" fill="#fff" rx="3.024"/><path fill="#134B93" d="M115.515 105.392v1.238h-1.316v7.896c-.542.155-1.303.4-2.283.736-.981.309-1.561.49-1.742.541-1.703.413-3.626.62-5.767.62-3.226 0-6.038-1.342-8.438-4.026-2.27-2.735-3.393-6.089-3.367-10.063.025-4 1.186-7.316 3.483-9.948 2.27-2.503 5.045-3.754 8.322-3.754 2.219 0 3.961.155 5.225.464.516.104 1.471.426 2.864.968v6.077h-1.161c-.181-2.245-.8-3.884-1.858-4.916-1.058-1.032-2.683-1.496-4.877-1.393-5.031.31-7.547 4.541-7.547 12.695 0 3.69.658 6.696 1.974 9.019 1.316 2.296 3.07 3.458 5.264 3.483 1.29.026 2.696-.258 4.219-.851 1.341-.465 2.077-.929 2.206-1.394.129-.258.193-.774.193-1.548v-4.606h-4.373v-1.238h8.979Zm28.539 8.399-7.393-10.567H134.3l.077 11.457h3.6v1.2h-10.76v-1.2h3.599V90.412h-3.599v-1.2h11.727c3.123 0 5.497.62 7.122 1.858 1.626 1.239 2.439 2.89 2.439 4.955 0 2.064-.723 3.741-2.168 5.032-1.393 1.161-3.225 1.819-5.496 1.974l7.935 10.76c.413.516 1.329.838 2.748.967v1.162c-1.884-.078-4.864-.078-8.941 0l.039-1.239h1.083c.362-.077.542-.206.542-.387a.68.68 0 0 0-.193-.503Zm-6.387-11.689c4.696 0 6.993-2.026 6.89-6.077-.103-3.742-2.129-5.613-6.077-5.613h-4.103l-.077 11.69h3.367Zm50.287 12.579v1.2H177.89v-1.2h3.097l-2.632-7.625h-9.328l-1.471 3.483c-.465 1.187-.697 2.065-.697 2.632 0 .542.078.929.232 1.162.155.232.968.348 2.439.348v1.2h-8.438v-1.2c1.342.026 2.309-.142 2.903-.503.619-.387 1.29-1.6 2.013-3.639l8.399-22.062h1.548l9.135 26.204h2.864Zm-18.385-9.096h8.244l-3.832-11.34-4.412 11.34Zm46.797 1.781c0 2.993-1.2 5.276-3.6 6.851-2.064 1.367-4.657 2.051-7.78 2.051-1.883 0-3.986-.439-6.309-1.316l.039-6.154h1.161c.155 2.038.761 3.509 1.819 4.412.491.413 1.213.761 2.168 1.045.955.284 1.819.413 2.593.387 1.781-.026 3.342-.503 4.683-1.432 1.316-.955 2-2.232 2.052-3.832 0-1.677-.594-3.019-1.781-4.025-1.161-1.006-2.773-1.626-4.838-1.858-5.496-.671-8.244-2.967-8.244-6.89 0-2.735 1.045-4.812 3.135-6.231 1.781-1.239 3.948-1.858 6.503-1.858.748 0 1.638.116 2.67.348 1.032.207 1.69.31 1.974.31.31 0 .516-.194.62-.58h1.083v6.928h-1.161c-.18-1.91-.761-3.29-1.742-4.142-.954-.852-2.386-1.264-4.296-1.239-3.767.052-5.625 1.742-5.574 5.07.052 2.968 2.116 4.659 6.193 5.071 5.755.62 8.632 2.981 8.632 7.084Zm28.359 0c0 2.993-1.2 5.276-3.599 6.851-2.065 1.367-4.658 2.051-7.78 2.051-1.884 0-3.987-.439-6.309-1.316l.039-6.154h1.161c.155 2.038.761 3.509 1.819 4.412.49.413 1.213.761 2.167 1.045.955.284 1.82.413 2.594.387 1.78-.026 3.341-.503 4.683-1.432 1.316-.955 2-2.232 2.051-3.832 0-1.677-.593-3.019-1.78-4.025-1.161-1.006-2.774-1.626-4.838-1.858-5.496-.671-8.245-2.967-8.245-6.89 0-2.735 1.046-4.812 3.136-6.231 1.78-1.239 3.948-1.858 6.502-1.858.749 0 1.639.116 2.671.348 1.032.207 1.69.31 1.974.31.31 0 .516-.194.619-.58h1.084v6.928h-1.161c-.181-1.91-.761-3.29-1.742-4.142-.955-.852-2.387-1.264-4.296-1.239-3.768.052-5.626 1.742-5.574 5.07.052 2.968 2.116 4.659 6.193 5.071 5.754.62 8.631 2.981 8.631 7.084ZM119.895 131.241h2.942v.59h-2.942v-.59Zm.117 2.855h-.697v-5.467h3.861v.58h-3.164v4.887Zm4.846 0 2.526-5.467h.687l2.525 5.467h-.696l-2.294-5.09h.242l-2.303 5.09h-.687Zm1.065-1.413.203-.561h3.116l.203.561h-3.522Zm10.989-.077c0 .303-.084.57-.252.803-.161.232-.4.416-.716.551-.31.129-.693.194-1.151.194a3.8 3.8 0 0 1-1.21-.194c-.381-.129-.681-.293-.9-.493l.29-.542c.2.187.465.342.794.464.335.116.684.174 1.045.174.503 0 .861-.087 1.074-.261.219-.18.329-.393.329-.638 0-.207-.061-.368-.184-.484a1.267 1.267 0 0 0-.484-.291 4.484 4.484 0 0 0-.658-.193c-.238-.052-.477-.11-.716-.174a3.258 3.258 0 0 1-.667-.261c-.2-.11-.362-.255-.484-.436-.116-.181-.174-.419-.174-.716s.08-.561.241-.793c.162-.233.397-.417.707-.552.309-.135.69-.203 1.142-.203.322 0 .638.042.948.126.316.077.587.196.813.358l-.252.561a2.229 2.229 0 0 0-.745-.339 3.012 3.012 0 0 0-.784-.106c-.477 0-.829.09-1.054.271a.795.795 0 0 0-.329.648c0 .206.061.371.183.493.123.117.284.213.484.291.2.071.42.132.658.184.245.051.487.109.726.174.239.064.458.151.658.261.2.103.361.245.484.426.122.18.184.413.184.697Zm3.081 1.49v-5.467h.697v2.399h3.319v-2.399h.696v5.467h-.696v-2.477h-3.319v2.477h-.697Zm8.392 0v-5.467h.697v5.467h-.697Zm6.756.058a3.13 3.13 0 0 1-1.499-.358 2.796 2.796 0 0 1-1.055-.997 2.777 2.777 0 0 1-.378-1.442c0-.535.126-1.013.378-1.432a2.803 2.803 0 0 1 1.055-.997 3.056 3.056 0 0 1 1.499-.367c.562 0 1.062.122 1.5.367.445.246.794.578 1.045.997.258.419.387.897.387 1.432a2.727 2.727 0 0 1-1.432 2.439c-.438.238-.938.358-1.5.358Zm0-.6c.433 0 .816-.094 1.152-.281.335-.193.6-.455.793-.784.194-.335.291-.712.291-1.132 0-.419-.1-.793-.3-1.122a2.079 2.079 0 0 0-.794-.774 2.204 2.204 0 0 0-1.142-.291c-.425 0-.809.097-1.151.291-.336.187-.6.445-.794.774-.193.329-.29.703-.29 1.122 0 .42.097.797.29 1.132.194.329.458.591.794.784a2.36 2.36 0 0 0 1.151.281Zm6.059.542v-5.467h.571l3.716 4.605h-.271v-4.605h.697v5.467h-.581l-3.716-4.616h.281v4.616h-.697Zm13.15-2.855h2.942v.59h-2.942v-.59Zm.117 2.855h-.697v-5.467h3.861v.58h-3.164v4.887Zm8.459.058a3.13 3.13 0 0 1-1.499-.358 2.796 2.796 0 0 1-1.055-.997 2.777 2.777 0 0 1-.378-1.442c0-.535.126-1.013.378-1.432a2.803 2.803 0 0 1 1.055-.997 3.056 3.056 0 0 1 1.499-.367c.562 0 1.062.122 1.5.367.445.246.794.578 1.045.997.258.419.387.897.387 1.432a2.727 2.727 0 0 1-1.432 2.439c-.438.238-.938.358-1.5.358Zm0-.6c.433 0 .816-.094 1.152-.281.335-.193.6-.455.793-.784.194-.335.291-.712.291-1.132 0-.419-.1-.793-.3-1.122a2.079 2.079 0 0 0-.794-.774 2.204 2.204 0 0 0-1.142-.291c-.425 0-.809.097-1.151.291-.335.187-.6.445-.794.774-.193.329-.29.703-.29 1.122 0 .42.097.797.29 1.132.194.329.459.591.794.784a2.36 2.36 0 0 0 1.151.281Zm6.059.542v-5.467h2.119c.478 0 .884.074 1.22.222.342.148.606.365.793.648.187.278.281.616.281 1.016 0 .387-.094.723-.281 1.007-.187.284-.451.5-.793.648-.336.148-.742.223-1.22.223h-1.732l.31-.31v2.013h-.697Zm3.745 0-1.432-1.984h.764l1.423 1.984h-.755Zm-3.048-1.945-.271-.329h1.664c.529 0 .933-.113 1.21-.339.277-.232.416-.555.416-.968 0-.419-.139-.741-.416-.967-.277-.226-.681-.339-1.21-.339h-1.664l.271-.329v3.271Zm10.168 1.945 2.525-5.467h.687l2.526 5.467h-.697l-2.293-5.09h.242l-2.303 5.09h-.687Zm1.064-1.413.203-.561h3.116l.203.561h-3.522Zm7.36 1.413v-5.467h.697v4.886h3.048v.581h-3.745Zm6.484 0v-5.467h.696v4.886h3.048v.581h-3.744Z"/></g><defs><filter id="a" width="337" height="210.998" x="-.008" y=".979" color-interpolation-filters="sRGB" filterUnits="userSpaceOnUse"><feFlood flood-opacity="0" result="BackgroundImageFix"/><feColorMatrix in="SourceAlpha" result="hardAlpha" values="0 0 0 0 0 0 0 0 0 0 0 0 0 0 0 0 0 0 127 0"/><feOffset/><feGaussianBlur stdDeviation="2"/><feComposite in2="hardAlpha" operator="out"/><feColorMatrix values="0 0 0 0 0 0 0 0 0 0 0 0 0 0 0 0 0 0 0.25 0"/><feBlend in2="BackgroundImageFix" result="effect1_dropShadow_30_3606"/><feBlend in="SourceGraphic" in2="effect1_dropShadow_30_3606" result="shape"/></filter></defs></svg>