<svg xmlns="http://www.w3.org/2000/svg" width="364" height="281" fill="none"><rect width="364" height="281" fill="#2C2C2C" rx="15"/><rect width="195" height="120.319" x="77" y="20" fill="#fff" rx="3.585"/><path fill="#134B93" d="M143.101 79.476v.734h-.78v4.68c-.321.092-.773.237-1.354.436-.581.184-.925.29-1.032.322-1.01.244-2.149.367-3.418.367-1.912 0-3.579-.796-5.002-2.386-1.345-1.622-2.011-3.61-1.995-5.965.015-2.37.703-4.336 2.064-5.896 1.346-1.484 2.99-2.225 4.933-2.225 1.315 0 2.347.091 3.097.275.306.061.871.252 1.697.574v3.601h-.688c-.107-1.33-.474-2.301-1.101-2.913-.627-.612-1.591-.887-2.891-.826-2.982.183-4.473 2.692-4.473 7.525 0 2.187.39 3.969 1.17 5.345.78 1.361 1.82 2.05 3.12 2.065.765.015 1.598-.153 2.5-.505.796-.275 1.232-.55 1.308-.826.077-.153.115-.459.115-.918v-2.73h-2.593v-.734h5.323Zm16.915 4.978-4.382-6.262h-1.4l.046 6.79h2.134v.711h-6.378v-.71h2.134V70.597h-2.134v-.711h6.951c1.851 0 3.258.367 4.222 1.101.963.734 1.445 1.713 1.445 2.936 0 1.224-.428 2.218-1.285 2.983-.826.688-1.912 1.078-3.258 1.17l4.703 6.377c.245.306.788.498 1.629.574v.688c-1.116-.046-2.883-.046-5.299 0l.023-.734h.642c.214-.046.321-.122.321-.23a.405.405 0 0 0-.114-.297Zm-3.786-6.928c2.784 0 4.145-1.2 4.084-3.602-.061-2.217-1.262-3.326-3.602-3.326h-2.432l-.046 6.928h1.996Zm29.806 7.456v.711h-5.965v-.71h1.835l-1.56-4.52h-5.529l-.871 2.065c-.276.703-.413 1.223-.413 1.56 0 .32.045.55.137.688.092.137.574.206 1.446.206v.711h-5.002v-.71c.796.014 1.369-.085 1.721-.3.367-.229.765-.947 1.193-2.156l4.978-13.076h.918l5.414 15.531h1.698Zm-10.898-5.391h4.887l-2.271-6.722-2.616 6.722Zm27.737 1.055c0 1.774-.711 3.128-2.133 4.06-1.224.811-2.761 1.217-4.611 1.217-1.117 0-2.363-.26-3.74-.78l.023-3.648h.688c.092 1.208.452 2.08 1.079 2.615.29.245.719.452 1.284.62.566.168 1.079.245 1.537.23 1.056-.016 1.981-.299 2.776-.85.78-.566 1.186-1.323 1.216-2.27 0-.995-.352-1.79-1.055-2.387-.688-.596-1.644-.963-2.868-1.1-3.257-.398-4.886-1.76-4.886-4.084 0-1.622.619-2.853 1.858-3.694 1.055-.734 2.34-1.101 3.854-1.101.444 0 .971.069 1.583.206.612.123 1.002.184 1.17.184.184 0 .306-.115.367-.344h.643v4.106h-.689c-.107-1.132-.451-1.95-1.032-2.454-.566-.505-1.415-.75-2.547-.734-2.232.03-3.334 1.032-3.303 3.005.031 1.759 1.254 2.76 3.671 3.005 3.41.367 5.115 1.767 5.115 4.198Zm16.809 0c0 1.774-.711 3.128-2.133 4.06-1.224.811-2.761 1.217-4.611 1.217-1.117 0-2.363-.26-3.74-.78l.023-3.648h.688c.092 1.208.452 2.08 1.079 2.615.29.245.718.452 1.284.62.566.168 1.079.245 1.537.23 1.056-.016 1.981-.299 2.776-.85.78-.566 1.186-1.323 1.216-2.27 0-.995-.352-1.79-1.055-2.387-.688-.596-1.644-.963-2.868-1.1-3.257-.398-4.886-1.76-4.886-4.084 0-1.622.619-2.853 1.858-3.694 1.055-.734 2.34-1.101 3.854-1.101.444 0 .971.069 1.583.206.612.123 1.002.184 1.17.184.184 0 .306-.115.367-.344h.642v4.106h-.688c-.107-1.132-.451-1.95-1.032-2.454-.566-.505-1.415-.75-2.547-.734-2.233.03-3.334 1.032-3.303 3.005.03 1.759 1.254 2.76 3.67 3.005 3.411.367 5.116 1.767 5.116 4.198ZM145.696 95.132h1.744v.35h-1.744v-.35Zm.069 1.692h-.413v-3.24h2.289v.344h-1.876v2.896Zm2.873 0 1.497-3.24h.407l1.497 3.24h-.413l-1.359-3.016h.143l-1.365 3.016h-.407Zm.631-.837.12-.333h1.847l.12.333h-2.087Zm6.513-.046c0 .18-.05.338-.149.476a.96.96 0 0 1-.425.327 1.776 1.776 0 0 1-.682.115c-.249 0-.488-.039-.717-.115a1.488 1.488 0 0 1-.533-.293l.172-.32c.118.11.275.202.47.275.199.068.405.103.619.103.299 0 .511-.052.637-.155a.478.478 0 0 0 .195-.379.375.375 0 0 0-.109-.286.755.755 0 0 0-.287-.172 2.57 2.57 0 0 0-.39-.115 8.487 8.487 0 0 1-.424-.103 1.875 1.875 0 0 1-.396-.155.821.821 0 0 1-.287-.258.782.782 0 0 1-.103-.425c0-.176.048-.332.143-.47a.97.97 0 0 1 .419-.327c.184-.08.409-.12.677-.12.191 0 .378.025.562.074.187.046.348.117.482.212l-.149.333a1.32 1.32 0 0 0-.442-.2 1.79 1.79 0 0 0-.465-.064c-.282 0-.491.054-.625.16a.473.473 0 0 0-.195.385c0 .122.037.22.109.293a.877.877 0 0 0 .287.172c.119.042.249.078.39.109.145.03.289.065.43.103.142.038.272.09.39.155a.764.764 0 0 1 .287.252.718.718 0 0 1 .109.413Zm1.826.883v-3.24h.413v1.422h1.967v-1.422h.413v3.24h-.413v-1.468h-1.967v1.468h-.413Zm4.974 0v-3.24h.413v3.24h-.413Zm4.005.035a1.85 1.85 0 0 1-.889-.213 1.658 1.658 0 0 1-.625-.59 1.65 1.65 0 0 1-.224-.855c0-.317.075-.6.224-.849.153-.248.361-.445.625-.59.264-.146.56-.218.889-.218.332 0 .629.072.889.218a1.613 1.613 0 0 1 .849 1.44 1.616 1.616 0 0 1-.849 1.444c-.26.142-.557.213-.889.213Zm0-.356c.256 0 .483-.055.682-.166.199-.115.356-.27.471-.465.114-.199.172-.422.172-.67 0-.25-.06-.471-.178-.666a1.311 1.311 0 0 0-1.147-.63c-.253-.001-.48.056-.683.171-.199.11-.355.264-.47.459a1.285 1.285 0 0 0-.172.665c0 .249.057.472.172.671.115.195.271.35.47.465.203.11.43.166.683.166Zm3.591.321v-3.24h.338l2.203 2.73h-.161v-2.73h.413v3.24h-.344l-2.202-2.736h.166v2.736h-.413Zm7.794-1.692h1.744v.35h-1.744v-.35Zm.069 1.692h-.413v-3.24h2.288v.344h-1.875v2.896Zm5.014.035a1.85 1.85 0 0 1-.889-.213 1.658 1.658 0 0 1-.625-.59 1.65 1.65 0 0 1-.224-.855c0-.317.075-.6.224-.849.153-.248.361-.445.625-.59.264-.146.56-.218.889-.218.333 0 .629.072.889.218.264.145.47.342.62.59.153.249.229.532.229.85a1.615 1.615 0 0 1-.849 1.444c-.26.142-.556.213-.889.213Zm0-.356c.256 0 .484-.055.683-.166.199-.115.355-.27.47-.465.115-.199.172-.422.172-.67 0-.25-.059-.471-.178-.666a1.311 1.311 0 0 0-1.147-.63c-.252-.001-.48.056-.682.171-.199.11-.356.264-.471.459a1.294 1.294 0 0 0-.172.665c0 .249.058.472.172.671.115.195.272.35.471.465.202.11.43.166.682.166Zm3.591.321v-3.24h1.256c.283 0 .524.044.723.132.203.088.359.216.47.384.111.164.167.365.167.602 0 .23-.056.428-.167.597a1.042 1.042 0 0 1-.47.384c-.199.088-.44.132-.723.132h-1.026l.183-.184v1.193h-.413Zm2.22 0-.849-1.175h.453l.843 1.175h-.447Zm-1.807-1.153-.16-.195h.986c.314 0 .553-.067.717-.2.164-.138.247-.33.247-.574 0-.248-.083-.44-.247-.573-.164-.134-.403-.201-.717-.201h-.986l.16-.195v1.938Zm6.027 1.153 1.496-3.24h.408l1.497 3.24h-.413l-1.36-3.016h.144l-1.365 3.016h-.407Zm.63-.837.121-.333h1.847l.12.333h-2.088Zm4.363.837v-3.24h.413v2.896h1.807v.344h-2.22Zm3.843 0v-3.24h.413v2.896h1.806v.344h-2.219Z"/><g filter="url(#a)"><rect width="195" height="120.319" x="90.516" y="112.547" fill="#fff" rx="3.585" transform="rotate(11.18 90.516 112.547)"/><g clip-path="url(#b)"><rect width="51.618" height="51.618" x="108.461" y="151.17" fill="#fff" rx="3.585" transform="rotate(11.18 108.461 151.17)"/><path fill="#134B93" d="m111.147 155.18 2.093.414-.414 2.092-2.093-.413zM113.241 155.594l2.093.414-.414 2.092-2.093-.413z"/><path fill="#134B93" d="m115.332 156.006 2.093.414-.414 2.092-2.093-.413zM117.425 156.42l2.093.414-.414 2.092-2.093-.413zM119.519 156.834l2.093.414-.414 2.092-2.093-.413z"/><path fill="#134B93" d="m121.609 157.248 2.093.414-.414 2.092-2.093-.413z"/><path fill="#134B93" d="m123.702 157.66 2.093.414-.414 2.092-2.093-.413zM132.073 159.316l2.093.414-.414 2.092-2.093-.413z"/><path fill="#134B93" d="m134.164 159.729 2.093.414-.414 2.092-2.093-.413zM136.258 160.143l2.093.414-.414 2.092-2.093-.413zM140.441 160.969l2.093.414-.414 2.092-2.093-.413zM142.535 161.383l2.093.414-.414 2.092-2.093-.413z"/><path fill="#134B93" d="m144.626 161.797 2.093.414-.414 2.092-2.093-.413zM146.72 162.211l2.093.414-.414 2.092-2.093-.413z"/><path fill="#134B93" d="m148.812 162.623 2.093.414-.414 2.092-2.093-.413z"/><path fill="#134B93" d="m150.903 163.037 2.093.414-.414 2.092-2.093-.413zM152.997 163.451l2.093.414-.414 2.092-2.093-.413zM110.734 157.271l2.093.414-.414 2.092-2.093-.413zM123.289 159.754l2.093.414-.414 2.092-2.093-.413zM127.474 160.58l2.093.414-.414 2.092-2.093-.413z"/><path fill="#134B93" d="m129.566 160.994 2.093.414-.414 2.092-2.093-.413zM131.66 161.408l2.093.414-.414 2.092-2.093-.413zM135.844 162.234l2.093.414-.414 2.092-2.093-.413zM140.028 163.062l2.093.414-.414 2.092-2.093-.413zM152.583 165.543l2.093.414-.414 2.092-2.093-.413zM110.32 159.365l2.093.414-.414 2.092-2.093-.413zM114.505 160.191l2.093.414-.414 2.092-2.093-.413zM116.598 160.605l2.093.414-.414 2.092-2.093-.413zM118.691 161.02l2.093.414-.414 2.092-2.093-.413zM122.876 161.846l2.093.414-.414 2.092-2.093-.413z"/><path fill="#134B93" d="m131.246 163.5 2.093.414-.414 2.092-2.093-.413z"/><path fill="#134B93" d="m133.337 163.914 2.093.414-.414 2.092-2.093-.413zM135.431 164.328l2.093.414-.414 2.092-2.093-.413zM139.614 165.154l2.093.414-.414 2.092-2.093-.413zM143.799 165.98l2.093.414-.414 2.092-2.093-.413zM145.893 166.395l2.093.414-.414 2.092-2.093-.413z"/><path fill="#134B93" d="m147.985 166.809 2.093.414-.414 2.092-2.093-.413zM152.17 167.637l2.093.414-.414 2.092-2.093-.413zM109.907 161.457l2.093.414-.414 2.092-2.093-.413zM114.091 162.285l2.093.414-.414 2.092-2.093-.413zM116.185 162.697l2.093.414-.414 2.092-2.093-.413z"/><path fill="#134B93" d="m118.277 163.111 2.093.414-.414 2.092-2.093-.413zM122.462 163.939l2.093.414-.414 2.092-2.093-.413zM126.646 164.766l2.093.414-.414 2.092-2.093-.413zM128.739 165.18l2.093.414-.414 2.092-2.093-.413zM135.017 166.42l2.093.414-.414 2.092-2.093-.413zM139.201 167.246l2.093.414-.414 2.092-2.093-.413zM143.385 168.074l2.093.414-.414 2.092-2.093-.413zM145.479 168.488l2.093.414-.414 2.092-2.093-.413zM147.572 168.902l2.093.414-.414 2.092-2.093-.413zM151.756 169.729l2.093.414-.414 2.092-2.093-.413zM109.493 163.549l2.093.414-.414 2.092-2.093-.413zM113.678 164.377l2.093.414-.414 2.092-2.093-.413zM115.771 164.791l2.093.414-.414 2.092-2.093-.413zM117.864 165.205l2.093.414-.414 2.092-2.093-.413z"/><path fill="#134B93" d="m122.048 166.031 2.093.414-.414 2.092-2.093-.413zM128.326 167.271l2.093.414-.414 2.092-2.093-.413zM134.604 168.512l2.093.414-.414 2.092-2.093-.413zM138.787 169.34l2.093.414-.414 2.092-2.093-.413zM142.972 170.166l2.093.414-.414 2.092-2.093-.413zM145.065 170.58l2.093.414-.414 2.092-2.093-.413zM147.158 170.994l2.093.414-.414 2.092-2.093-.413zM151.343 171.82l2.093.414-.414 2.092-2.093-.413zM109.08 165.643l2.093.414-.414 2.092-2.093-.413z"/><path fill="#134B93" d="m121.635 168.123 2.093.414-.414 2.092-2.093-.413zM125.819 168.951l2.093.414-.414 2.092-2.093-.413zM132.097 170.191l2.093.414-.414 2.092-2.093-.413zM138.374 171.432l2.093.414-.414 2.092-2.093-.413zM150.929 173.914l2.093.414-.414 2.092-2.093-.413zM108.666 167.734l2.093.414-.414 2.092-2.093-.413zM110.76 168.148l2.093.414-.414 2.092-2.093-.413z"/><path fill="#134B93" d="m112.851 168.561 2.093.414-.414 2.092-2.093-.413z"/><path fill="#134B93" d="m114.943 168.975 2.093.414-.414 2.092-2.093-.413zM117.037 169.389l2.093.414-.414 2.092-2.093-.413z"/><path fill="#134B93" d="m119.128 169.803 2.093.414-.414 2.092-2.093-.413zM121.222 170.217l2.093.414-.414 2.092-2.093-.413zM125.405 171.043l2.093.414-.414 2.092-2.093-.413zM129.592 171.871l2.093.414-.414 2.092-2.093-.413zM133.776 172.697l2.093.414-.414 2.092-2.093-.413zM137.961 173.523l2.093.414-.414 2.092-2.093-.413zM140.054 173.938l2.093.414-.414 2.092-2.093-.413z"/><path fill="#134B93" d="m142.145 174.352 2.093.414-.414 2.092-2.093-.413zM144.238 174.766l2.093.414-.414 2.092-2.093-.413zM146.331 175.18l2.093.414-.414 2.092-2.093-.413z"/><path fill="#134B93" d="m148.422 175.592 2.093.414-.414 2.092-2.093-.413zM150.516 176.006l2.093.414-.414 2.092-2.093-.413zM127.085 173.549l2.093.414-.414 2.092-2.093-.413zM107.839 171.92l2.093.414-.414 2.092-2.093-.413zM109.933 172.334l2.093.414-.414 2.092-2.093-.413z"/><path fill="#134B93" d="m112.023 172.746 2.093.414-.414 2.092-2.093-.413zM114.116 173.16l2.093.414-.414 2.092-2.093-.413zM116.21 173.574l2.093.414-.414 2.092-2.093-.413zM120.395 174.4l2.093.414-.414 2.092-2.093-.413z"/><path fill="#134B93" d="m122.487 174.814 2.093.414-.414 2.092-2.093-.413z"/><path fill="#134B93" d="m124.578 175.229 2.093.414-.414 2.092-2.093-.413zM130.855 176.469l2.093.414-.414 2.092-2.093-.413zM135.04 177.295l2.093.414-.414 2.092-2.093-.413zM139.227 178.123l2.093.414-.414 2.092-2.093-.413zM143.411 178.949l2.093.414-.414 2.092-2.093-.413zM147.595 179.777l2.093.414-.414 2.092-2.093-.413zM107.426 174.012l2.093.414-.414 2.092-2.093-.413zM111.609 174.84l2.093.414-.414 2.092-2.093-.413z"/><path fill="#134B93" d="m124.165 177.32 2.093.414-.414 2.092-2.093-.413z"/><path fill="#134B93" d="m126.258 177.734 2.093.414-.414 2.092-2.093-.413zM130.442 178.561l2.093.414-.414 2.092-2.093-.413zM132.535 178.975l2.093.414-.414 2.092-2.093-.413z"/><path fill="#134B93" d="m134.626 179.389 2.093.414-.414 2.092-2.093-.413zM136.72 179.803l2.093.414-.414 2.092-2.093-.413zM142.997 181.043l2.093.414-.414 2.092-2.093-.413zM145.091 181.457l2.093.414-.414 2.092-2.093-.413zM149.274 182.283l2.093.414-.414 2.092-2.093-.413zM115.383 177.76l2.093.414-.414 2.092-2.093-.413zM119.567 178.586l2.093.414-.414 2.092-2.093-.413zM123.751 179.412l2.093.414-.414 2.092-2.093-.413zM125.845 179.826l2.093.414-.414 2.092-2.093-.413z"/><path fill="#134B93" d="m132.122 181.066 2.093.414-.414 2.092-2.093-.413zM136.307 181.895l2.093.414-.414 2.092-2.093-.413z"/><path fill="#134B93" d="m138.399 182.309 2.093.414-.414 2.092-2.093-.413zM142.584 183.135l2.093.414-.414 2.092-2.093-.413zM146.768 183.963l2.093.414-.414 2.092-2.093-.413zM106.599 178.197l2.093.414-.414 2.092-2.093-.413zM117.06 180.264l2.093.414-.414 2.092-2.093-.413zM121.247 181.092l2.093.414-.414 2.092-2.093-.413zM127.524 182.332l2.093.414-.414 2.092-2.093-.413z"/><path fill="#134B93" d="m129.615 182.746 2.093.414-.414 2.092-2.093-.413zM131.709 183.16l2.093.414-.414 2.092-2.093-.413z"/><path fill="#134B93" d="m133.799 183.572 2.093.414-.414 2.092-2.093-.413zM135.893 183.986l2.093.414-.414 2.092-2.093-.413zM142.17 185.227l2.093.414-.414 2.092-2.093-.413zM144.264 185.641l2.093.414-.414 2.092-2.093-.413z"/><path fill="#134B93" d="m146.354 186.055 2.093.414-.414 2.092-2.093-.413zM148.448 186.469l2.093.414-.414 2.092-2.093-.413zM106.185 180.289l2.093.414-.414 2.092-2.093-.413zM108.278 180.703l2.093.414-.414 2.092-2.093-.413zM118.74 182.771l2.093.414-.414 2.092-2.093-.413zM125.018 184.012l2.093.414-.414 2.092-2.093-.413zM131.295 185.252l2.093.414-.414 2.092-2.093-.413zM137.572 186.494l2.093.414-.414 2.092-2.093-.413z"/><path fill="#134B93" d="m145.94 188.146 2.093.414-.414 2.092-2.093-.413zM122.511 185.689l2.093.414-.414 2.092-2.093-.413zM126.697 186.518l2.093.414-.414 2.092-2.093-.413zM130.882 187.346l2.093.414-.414 2.092-2.093-.413zM137.159 188.586l2.093.414-.414 2.092-2.093-.413zM141.343 189.412l2.093.414-.414 2.092-2.093-.413zM143.437 189.826l2.093.414-.414 2.092-2.093-.413zM147.621 190.652l2.093.414-.414 2.092-2.093-.413zM105.357 184.475l2.093.414-.414 2.092-2.093-.413zM107.451 184.889l2.093.414-.414 2.092-2.093-.413z"/><path fill="#134B93" d="m109.542 185.301 2.093.414-.414 2.092-2.093-.413zM111.635 185.715l2.093.414-.414 2.092-2.093-.413zM113.729 186.129l2.093.414-.414 2.092-2.093-.413z"/><path fill="#134B93" d="m115.819 186.543 2.093.414-.414 2.092-2.093-.413zM117.913 186.955l2.093.414-.414 2.092-2.093-.413zM122.097 187.783l2.093.414-.414 2.092-2.093-.413zM124.19 188.197l2.093.414-.414 2.092-2.093-.413zM126.284 188.609l2.093.414-.414 2.092-2.093-.413z"/><path fill="#134B93" d="m128.374 189.023 2.093.414-.414 2.092-2.093-.413zM132.559 189.85l2.093.414-.414 2.092-2.093-.413zM138.836 191.092l2.093.414-.414 2.092-2.093-.413zM140.93 191.506l2.093.414-.414 2.092-2.093-.413zM145.113 192.332l2.093.414-.414 2.092-2.093-.413zM104.944 186.566l2.093.414-.414 2.092-2.093-.413zM117.499 189.049l2.093.414-.414 2.092-2.093-.413z"/><path fill="#134B93" d="m136.332 192.77 2.093.414-.414 2.092-2.093-.413z"/><path fill="#134B93" d="m138.423 193.184 2.093.414-.414 2.092-2.093-.413zM140.516 193.598l2.093.414-.414 2.092-2.093-.413zM142.609 194.012l2.093.414-.414 2.092-2.093-.413z"/><path fill="#134B93" d="m144.7 194.424 2.093.414-.414 2.092-2.093-.413zM104.53 188.66l2.093.414-.414 2.092-2.093-.413zM108.715 189.486l2.093.414-.414 2.092-2.093-.413zM110.808 189.9l2.093.414-.414 2.092-2.093-.413z"/><path fill="#134B93" d="m112.901 190.314 2.093.414-.414 2.092-2.093-.413zM117.086 191.141l2.093.414-.414 2.092-2.093-.413zM121.27 191.969l2.093.414-.414 2.092-2.093-.413z"/><path fill="#134B93" d="m123.363 192.381 2.093.414-.414 2.092-2.093-.413zM125.456 192.795l2.093.414-.414 2.092-2.093-.413z"/><path fill="#134B93" d="m127.547 193.209 2.093.414-.414 2.092-2.093-.413zM131.731 194.035l2.093.414-.414 2.092-2.093-.413zM138.009 195.275l2.093.414-.414 2.092-2.093-.413zM144.286 196.518l2.093.414-.414 2.092-2.093-.413zM104.117 190.752l2.093.414-.414 2.092-2.093-.413zM108.301 191.578l2.093.414-.414 2.092-2.093-.413zM110.395 191.992l2.093.414-.414 2.092-2.093-.413zM112.488 192.406l2.093.414-.414 2.092-2.093-.413zM116.672 193.234l2.093.414-.414 2.092-2.093-.413zM120.856 194.061l2.093.414-.414 2.092-2.093-.413zM122.949 194.475l2.093.414-.414 2.092-2.093-.413z"/><path fill="#134B93" d="m127.134 195.301 2.093.414-.414 2.092-2.093-.413zM129.228 195.715l2.093.414-.414 2.092-2.093-.413z"/><path fill="#134B93" d="m131.317 196.129 2.093.414-.414 2.092-2.093-.413zM133.411 196.541l2.093.414-.414 2.092-2.093-.413zM135.505 196.955l2.093.414-.414 2.092-2.093-.413zM139.688 197.783l2.093.414-.414 2.092-2.093-.413zM141.782 198.195l2.093.414-.414 2.092-2.093-.413zM103.703 192.844l2.093.414-.414 2.092-2.093-.413zM107.888 193.672l2.093.414-.414 2.092-2.093-.413z"/><path fill="#134B93" d="m109.98 194.086 2.093.414-.414 2.092-2.093-.413zM112.074 194.498l2.093.414-.414 2.092-2.093-.413zM116.259 195.326l2.093.414-.414 2.092-2.093-.413zM120.442 196.152l2.093.414-.414 2.092-2.093-.413zM124.63 196.98l2.093.414-.414 2.092-2.093-.413zM128.813 197.807l2.093.414-.414 2.092-2.093-.413zM132.998 198.635l2.093.414-.414 2.092-2.093-.413zM135.091 199.049l2.093.414-.414 2.092-2.093-.413zM139.275 199.875l2.093.414-.414 2.092-2.093-.413zM103.29 194.938l2.093.414-.414 2.092-2.093-.413z"/><path fill="#134B93" d="m115.845 197.418 2.093.414-.414 2.092-2.093-.413zM120.029 198.246l2.093.414-.414 2.092-2.093-.413zM126.307 199.486l2.093.414-.414 2.092-2.093-.413zM128.4 199.9l2.093.414-.414 2.092-2.093-.413z"/><path fill="#134B93" d="m130.49 200.312 2.093.414-.414 2.092-2.093-.413zM132.584 200.727l2.093.414-.414 2.092-2.093-.413zM136.769 201.553l2.093.414-.414 2.092-2.093-.413z"/><path fill="#134B93" d="m138.861 201.967 2.093.414-.414 2.092-2.093-.413zM140.955 202.381l2.093.414-.414 2.092-2.093-.413zM102.876 197.029l2.093.414-.414 2.092-2.093-.413zM104.97 197.443l2.093.414-.414 2.092-2.093-.413z"/><path fill="#134B93" d="m107.061 197.855 2.093.414-.414 2.092-2.093-.413z"/><path fill="#134B93" d="m109.153 198.27 2.093.414-.414 2.092-2.093-.413zM111.247 198.684l2.093.414-.414 2.092-2.093-.413z"/><path fill="#134B93" d="m113.338 199.098 2.093.414-.414 2.092-2.093-.413zM115.432 199.51l2.093.414-.414 2.092-2.093-.413zM119.615 200.338l2.093.414-.414 2.092-2.093-.413zM123.803 201.166l2.093.414-.414 2.092-2.093-.413zM127.986 201.992l2.093.414-.414 2.092-2.093-.413zM142.632 204.887l2.093.414-.414 2.092-2.093-.413z"/></g><path stroke="#134B93" stroke-linecap="round" stroke-width="1.368" d="M258.809 163.21c.843-.639 2.195-2.409.865-4.378m2.986-.974c1.084 1.399 2.305 4.863-1.487 7.525m4.653-8.32c1.581 1.781 3.385 6.355-2.055 10.397"/><path fill="#134B93" d="M209.268 236.862a.58.58 0 0 0-.148-.468c-.117-.128-.292-.214-.526-.261a1.092 1.092 0 0 0-.415-.012.575.575 0 0 0-.288.133.448.448 0 0 0-.138.248.391.391 0 0 0 .009.226c.027.069.07.133.128.191.059.057.129.11.211.161.083.049.172.094.268.137l.394.18c.192.085.364.181.517.29.153.108.28.229.382.362.101.134.17.282.209.443.039.162.041.339.004.531a1.299 1.299 0 0 1-.36.691 1.4 1.4 0 0 1-.706.357c-.288.06-.619.053-.993-.021a2.587 2.587 0 0 1-.938-.362 1.459 1.459 0 0 1-.543-.633c-.108-.255-.133-.549-.075-.882l.942.186a.717.717 0 0 0 .056.413.74.74 0 0 0 .271.294c.123.078.269.133.437.166.164.033.312.037.443.013a.662.662 0 0 0 .325-.144.472.472 0 0 0 .16-.274.396.396 0 0 0-.041-.279.711.711 0 0 0-.23-.232 2.764 2.764 0 0 0-.398-.219l-.476-.225c-.37-.171-.647-.379-.832-.624-.185-.246-.243-.538-.175-.878.054-.279.176-.508.367-.687.193-.178.432-.3.719-.364.287-.065.598-.064.934.002.342.068.628.185.86.352.233.168.4.37.501.606.102.236.127.492.078.767l-.933-.184Zm1.956 3.862a1.48 1.48 0 0 1-.566-.231.973.973 0 0 1-.342-.425 1.055 1.055 0 0 1-.035-.6c.038-.192.105-.346.201-.463a.87.87 0 0 1 .35-.257c.137-.056.287-.088.449-.098.164-.01.333-.006.507.011.205.019.371.031.497.038a.72.72 0 0 0 .284-.033.19.19 0 0 0 .116-.15l.003-.013a.423.423 0 0 0-.069-.357c-.073-.096-.192-.16-.355-.192a.686.686 0 0 0-.434.033.533.533 0 0 0-.258.244l-.872-.247a1.236 1.236 0 0 1 .954-.746c.226-.043.477-.037.753.018.192.038.371.097.537.176.168.08.311.181.429.302.119.122.203.265.254.429.05.162.055.346.014.551l-.46 2.329-.908-.179.095-.479-.027-.006a1 1 0 0 1-.279.242 1.054 1.054 0 0 1-.373.125 1.41 1.41 0 0 1-.465-.022Zm.405-.607c.14.028.27.025.389-.009a.681.681 0 0 0 .3-.179.608.608 0 0 0 .156-.308l.073-.366a.55.55 0 0 1-.135.029 2.353 2.353 0 0 1-.381.004l-.18-.01a1.21 1.21 0 0 0-.31.021.478.478 0 0 0-.225.107.366.366 0 0 0-.114.211.355.355 0 0 0 .082.327.63.63 0 0 0 .345.173Zm2.295 1.073.682-3.453.929.184-.119.602.036.007a.905.905 0 0 1 .412-.423.856.856 0 0 1 .546-.065 1.585 1.585 0 0 1 .294.094l-.168.849a1.705 1.705 0 0 0-.394-.131.786.786 0 0 0-.396.017.686.686 0 0 0-.31.2.73.73 0 0 0-.168.355l-.387 1.953-.957-.189Zm3.463.752a1.485 1.485 0 0 1-.567-.231.971.971 0 0 1-.341-.425 1.055 1.055 0 0 1-.035-.6c.038-.192.105-.346.201-.462a.863.863 0 0 1 .35-.258c.137-.056.287-.088.449-.098.164-.01.333-.006.507.011.205.019.371.031.497.038a.704.704 0 0 0 .284-.033.189.189 0 0 0 .116-.15l.003-.013c.028-.143.005-.262-.07-.357-.073-.096-.191-.16-.354-.192a.686.686 0 0 0-.434.033.533.533 0 0 0-.258.244l-.872-.247a1.236 1.236 0 0 1 .953-.746c.227-.043.478-.037.754.018.191.038.371.097.537.176.168.08.311.181.428.302.12.122.204.265.254.429.051.162.056.346.015.551l-.46 2.329-.908-.179.094-.479-.027-.005a.984.984 0 0 1-.651.366 1.409 1.409 0 0 1-.465-.022Zm.405-.607c.14.028.27.025.389-.009a.673.673 0 0 0 .299-.179.598.598 0 0 0 .157-.308l.072-.366a.53.53 0 0 1-.134.029 2.353 2.353 0 0 1-.381.004l-.181-.01a1.213 1.213 0 0 0-.31.021.479.479 0 0 0-.224.107.366.366 0 0 0-.114.211.355.355 0 0 0 .082.327.63.63 0 0 0 .345.173Zm3.647-.734-.395 1.996-.957-.189.91-4.604.93.184-.348 1.76.041.008a.995.995 0 0 1 .472-.404c.197-.082.427-.098.689-.046.24.048.438.141.596.281.159.139.269.316.33.53.062.214.065.455.011.724l-.435 2.199-.957-.19.4-2.027c.044-.213.023-.389-.063-.529-.085-.14-.225-.229-.419-.267a.712.712 0 0 0-.363.015.595.595 0 0 0-.282.196.842.842 0 0 0-.16.363Zm4.991-1.723 1.2.237.656 3.344.054.011 1.879-2.843 1.201.237-.91 4.604-.944-.187.592-2.996-.038-.007-1.779 2.738-.643-.127-.602-3.221-.038-.007-.594 3.007-.944-.186.91-4.604Zm5.835 6.005a1.48 1.48 0 0 1-.566-.231.964.964 0 0 1-.341-.425 1.048 1.048 0 0 1-.036-.6c.038-.192.105-.346.202-.463a.878.878 0 0 1 .349-.258c.138-.055.287-.088.45-.098.163-.009.332-.006.507.012.204.018.37.031.497.037a.71.71 0 0 0 .284-.032.194.194 0 0 0 .116-.15l.003-.014a.421.421 0 0 0-.07-.357c-.073-.095-.191-.159-.354-.191a.685.685 0 0 0-.434.033.543.543 0 0 0-.259.243l-.871-.247c.086-.201.211-.364.373-.491.162-.129.355-.213.58-.255.226-.042.478-.036.753.019.192.037.371.096.538.176.168.08.31.18.428.302.119.121.204.264.254.428.05.163.055.347.015.552l-.46 2.329-.909-.18.095-.479-.027-.005a1 1 0 0 1-.279.242 1.067 1.067 0 0 1-.373.125 1.438 1.438 0 0 1-.465-.022Zm.405-.607a.822.822 0 0 0 .39-.009.682.682 0 0 0 .299-.179.61.61 0 0 0 .157-.308l.072-.367a.504.504 0 0 1-.134.03 1.983 1.983 0 0 1-.182.008c-.067 0-.133-.002-.2-.004l-.18-.01a1.212 1.212 0 0 0-.31.02.485.485 0 0 0-.224.108.362.362 0 0 0-.115.211.356.356 0 0 0 .083.327.633.633 0 0 0 .344.173Zm4.814-2.017-.142.719-2.079-.411.142-.719 2.079.411Zm-1.443-1.145.957.189-.636 3.219a.429.429 0 0 0 0 .215.225.225 0 0 0 .092.123c.046.03.101.051.165.063a.898.898 0 0 0 .137.016h.107l.01.742a2.38 2.38 0 0 1-.212.012c-.091.004-.2-.004-.325-.024a1.48 1.48 0 0 1-.588-.213.861.861 0 0 1-.338-.407 1.014 1.014 0 0 1-.03-.59l.661-3.345Zm2.811 2.929-.395 1.996-.957-.19.91-4.603.93.184-.348 1.76.041.008a.995.995 0 0 1 .472-.404c.197-.083.427-.098.689-.046.24.047.438.141.596.281.159.139.269.316.33.53.062.213.065.454.011.724l-.435 2.198-.957-.189.4-2.028c.044-.212.023-.388-.063-.528-.085-.14-.224-.229-.419-.268a.734.734 0 0 0-.363.015.604.604 0 0 0-.282.197.842.842 0 0 0-.16.363Zm4.158 2.966c-.355-.071-.647-.203-.875-.397a1.511 1.511 0 0 1-.467-.733 2.076 2.076 0 0 1-.02-.987c.071-.355.201-.653.392-.894s.426-.412.706-.512c.282-.1.592-.117.93-.05.228.045.433.124.615.236a1.445 1.445 0 0 1 .69 1.045c.039.235.03.499-.028.793l-.052.263-2.916-.576.118-.594 2.014.398a.75.75 0 0 0-.018-.384.663.663 0 0 0-.2-.299.723.723 0 0 0-.348-.164.742.742 0 0 0-.89.592l-.112.565a.988.988 0 0 0 .007.461c.04.137.111.251.215.342.104.09.236.151.396.183a.937.937 0 0 0 .301.013.637.637 0 0 0 .254-.09.613.613 0 0 0 .187-.192l.874.233a1.23 1.23 0 0 1-.387.503c-.169.13-.371.218-.607.263a2.062 2.062 0 0 1-.779-.018Zm2.879.499-.257-3.639.969.192.076 2.425.032.006 1.016-2.209.95.188.111 2.418.029.006.982-2.203.967.191-1.62 3.268-1.014-.201-.164-2.288-.043-.009-1.022 2.054-1.012-.199ZM208.453 244.172c-.075.382-.21.697-.404.944-.194.247-.428.42-.701.519a1.592 1.592 0 0 1-.87.057 1.607 1.607 0 0 1-.787-.384 1.568 1.568 0 0 1-.448-.748c-.086-.303-.091-.645-.015-1.026.075-.382.21-.696.404-.943.194-.247.427-.42.699-.519.272-.1.564-.119.874-.058.309.061.57.189.783.385.214.195.365.444.45.747.086.302.091.643.015 1.026Zm-.535-.106a1.74 1.74 0 0 0 .004-.764 1.05 1.05 0 0 0-.295-.531 1.022 1.022 0 0 0-.52-.264 1.026 1.026 0 0 0-.583.046c-.182.071-.34.197-.474.379a1.767 1.767 0 0 0-.286.708 1.799 1.799 0 0 0-.006.766c.055.218.154.395.295.53.142.135.316.223.522.263.205.041.399.026.581-.045.184-.071.342-.197.475-.378.134-.182.23-.419.287-.71Zm1.395 2.136-.259-2.842.54.107.136 2.076.027.005.917-1.867.541.106.136 2.067.026.006.911-1.86.54.106-1.319 2.53-.533-.106-.162-2.046-.041-.008-.928 1.831-.532-.105Zm4.318-.803-.315 1.594-.522-.103.53-2.686.502.1-.086.437.033.006a.78.78 0 0 1 .358-.285.92.92 0 0 1 .527-.03.985.985 0 0 1 .458.21.784.784 0 0 1 .253.402c.046.166.047.359.003.581l-.337 1.708-.523-.104.325-1.645c.039-.194.018-.357-.062-.486a.548.548 0 0 0-.385-.249.665.665 0 0 0-.339.015.576.576 0 0 0-.267.187.774.774 0 0 0-.153.348Zm3.252 2.355a1.351 1.351 0 0 1-.651-.304 1.18 1.18 0 0 1-.345-.568 1.655 1.655 0 0 1-.01-.76 1.68 1.68 0 0 1 .298-.697c.145-.189.322-.324.53-.405.21-.081.44-.097.689-.048.152.03.294.084.426.163.132.078.244.182.336.311.092.13.154.287.185.471.032.183.023.396-.025.64l-.036.185-2.135-.422.077-.391 1.623.321a.788.788 0 0 0-.012-.382.65.65 0 0 0-.521-.463.7.7 0 0 0-.406.032.758.758 0 0 0-.307.23.829.829 0 0 0-.161.355l-.06.306a1.03 1.03 0 0 0 .004.477.691.691 0 0 0 .21.341.802.802 0 0 0 .381.177c.099.02.192.024.279.012a.57.57 0 0 0 .416-.272l.477.187a.926.926 0 0 1-.289.341 1.055 1.055 0 0 1-.433.177c-.165.03-.345.025-.54-.014Zm1.742.288.531-2.685.505.1-.084.426.028.006a.666.666 0 0 1 .326-.29.758.758 0 0 1 .448-.042c.033.006.071.015.115.026.045.012.08.021.105.03l-.099.5a.884.884 0 0 0-.108-.041.987.987 0 0 0-.159-.044.693.693 0 0 0-.346.013.593.593 0 0 0-.415.465l-.324 1.64-.523-.104Zm4.854-3.96-1.164 5.889-.468-.093 1.163-5.888.469.092Zm2.53 5.42-1.159-.229.708-3.581 1.196.236c.35.07.638.201.861.394.224.192.376.435.457.728.083.293.088.625.014.997-.074.373-.205.68-.394.921a1.463 1.463 0 0 1-.71.502c-.285.093-.609.104-.973.032Zm-.525-.595.589.117c.273.054.509.047.71-.02a.993.993 0 0 0 .495-.369c.128-.179.221-.41.277-.693.055-.281.057-.529.006-.742a.969.969 0 0 0-.308-.524c-.156-.137-.365-.23-.626-.282l-.622-.123-.521 2.636Zm4.024 1.342a1.334 1.334 0 0 1-.65-.304 1.17 1.17 0 0 1-.346-.568 1.669 1.669 0 0 1-.01-.76 1.67 1.67 0 0 1 .298-.696 1.21 1.21 0 0 1 .531-.406c.209-.081.439-.097.688-.047.152.03.294.084.426.162a1.085 1.085 0 0 1 .521.782c.032.183.024.397-.025.64l-.036.186-2.135-.422.078-.392 1.622.321a.788.788 0 0 0-.012-.382.632.632 0 0 0-.186-.3.67.67 0 0 0-.334-.163.696.696 0 0 0-.407.033.74.74 0 0 0-.307.23.835.835 0 0 0-.161.355l-.06.306c-.036.179-.034.338.004.476a.694.694 0 0 0 .21.342.831.831 0 0 0 .381.177.862.862 0 0 0 .28.011.604.604 0 0 0 .237-.087.584.584 0 0 0 .178-.185l.477.187a.917.917 0 0 1-.289.341 1.07 1.07 0 0 1-.433.178 1.46 1.46 0 0 1-.54-.015Zm4.156-1.343-.49-.01a.558.558 0 0 0-.061-.192.473.473 0 0 0-.144-.168.625.625 0 0 0-.261-.106.656.656 0 0 0-.39.026c-.112.046-.178.12-.199.224a.271.271 0 0 0 .057.237.814.814 0 0 0 .295.198l.407.182c.236.106.403.23.5.373a.633.633 0 0 1 .091.499.722.722 0 0 1-.225.403.936.936 0 0 1-.445.217 1.444 1.444 0 0 1-.592-.006c-.301-.06-.534-.172-.698-.338a.826.826 0 0 1-.241-.62l.52.023a.5.5 0 0 0 .135.338.689.689 0 0 0 .363.175.72.72 0 0 0 .432-.026c.117-.052.186-.129.206-.233a.28.28 0 0 0-.052-.23.623.623 0 0 0-.26-.186l-.434-.19c-.24-.106-.407-.234-.503-.382a.672.672 0 0 1-.084-.509.686.686 0 0 1 .215-.39.885.885 0 0 1 .422-.205c.169-.037.355-.036.557.004.29.058.506.166.648.325a.891.891 0 0 1 .231.567Zm.226 2.153.531-2.685.522.103-.53 2.686-.523-.104Zm.877-3.047a.344.344 0 0 1-.217-.137.302.302 0 0 1-.052-.24.297.297 0 0 1 .139-.201.336.336 0 0 1 .253-.046.33.33 0 0 1 .214.138.298.298 0 0 1 .055.24.3.3 0 0 1-.142.201.33.33 0 0 1-.25.045Zm1.265 4.575a1.622 1.622 0 0 1-.534-.193 1.08 1.08 0 0 1-.331-.296.972.972 0 0 1-.157-.345l.486-.096c.022.057.053.119.094.187a.653.653 0 0 0 .188.191.905.905 0 0 0 .342.132.815.815 0 0 0 .52-.048c.149-.07.243-.21.285-.42l.104-.528-.033-.006c-.043.05-.101.105-.174.163a.746.746 0 0 1-.277.134.909.909 0 0 1-.416-.002 1.14 1.14 0 0 1-.544-.262 1.078 1.078 0 0 1-.315-.522 1.643 1.643 0 0 1-.004-.751 1.73 1.73 0 0 1 .291-.705 1.12 1.12 0 0 1 .494-.389c.192-.076.396-.093.611-.05a.865.865 0 0 1 .388.163.749.749 0 0 1 .201.24c.044.085.076.159.096.221l.039.007.086-.435.512.101-.542 2.745c-.046.231-.137.41-.273.536a.969.969 0 0 1-.501.243c-.196.035-.408.03-.636-.015Zm.298-1.538a.68.68 0 0 0 .402-.029.672.672 0 0 0 .298-.257c.081-.123.14-.276.177-.462.035-.18.04-.345.013-.493a.713.713 0 0 0-.172-.368.63.63 0 0 0-.361-.193.64.64 0 0 0-.418.044.755.755 0 0 0-.303.282c-.08.128-.136.278-.17.45a1.238 1.238 0 0 0-.011.479.697.697 0 0 0 .176.358.667.667 0 0 0 .369.189Zm2.662-.638-.315 1.594-.523-.103.531-2.685.502.099-.086.437.033.007a.782.782 0 0 1 .358-.286.92.92 0 0 1 .527-.03.985.985 0 0 1 .458.21.787.787 0 0 1 .253.403c.046.165.047.359.003.58l-.337 1.708-.523-.103.325-1.645c.039-.195.018-.357-.062-.487a.55.55 0 0 0-.385-.248.676.676 0 0 0-.339.014.578.578 0 0 0-.267.187.774.774 0 0 0-.153.348Zm3.251 2.356a1.353 1.353 0 0 1-.65-.305 1.176 1.176 0 0 1-.345-.568 1.65 1.65 0 0 1-.01-.759c.054-.275.154-.508.298-.697.145-.19.322-.325.53-.406.21-.081.44-.096.689-.047.152.03.294.084.426.162a1.085 1.085 0 0 1 .521.782c.032.184.023.397-.025.64l-.036.186-2.135-.422.077-.392 1.623.321a.788.788 0 0 0-.012-.382.652.652 0 0 0-.521-.463.693.693 0 0 0-.406.033.734.734 0 0 0-.307.23.823.823 0 0 0-.161.355l-.06.306c-.036.179-.034.338.004.476a.694.694 0 0 0 .21.342.802.802 0 0 0 .381.177.857.857 0 0 0 .279.011.577.577 0 0 0 .416-.272l.477.187a.918.918 0 0 1-.289.341 1.056 1.056 0 0 1-.433.178 1.485 1.485 0 0 1-.541-.014Zm1.743.288.531-2.686.505.1-.084.427.028.005a.655.655 0 0 1 .326-.289.75.75 0 0 1 .448-.043 3.353 3.353 0 0 1 .22.056l-.099.5a1.096 1.096 0 0 0-.108-.041 1.102 1.102 0 0 0-.159-.044.704.704 0 0 0-.346.013.603.603 0 0 0-.415.465l-.324 1.64-.523-.103Z"/></g><defs><clipPath id="b"><rect width="51.618" height="51.618" x="108.461" y="151.17" fill="#fff" rx="3.585" transform="rotate(11.18 108.461 151.17)"/></clipPath><filter id="a" width="221.375" height="162.592" x="63.813" y="107.174" color-interpolation-filters="sRGB" filterUnits="userSpaceOnUse"><feFlood flood-opacity="0" result="BackgroundImageFix"/><feColorMatrix in="SourceAlpha" result="hardAlpha" values="0 0 0 0 0 0 0 0 0 0 0 0 0 0 0 0 0 0 127 0"/><feOffset dy="-2"/><feGaussianBlur stdDeviation="2"/><feComposite in2="hardAlpha" operator="out"/><feColorMatrix values="0 0 0 0 0 0 0 0 0 0 0 0 0 0 0 0 0 0 0.25 0"/><feBlend in2="BackgroundImageFix" result="effect1_dropShadow_451_3075"/><feBlend in="SourceGraphic" in2="effect1_dropShadow_451_3075" result="shape"/></filter></defs></svg>