<svg width="42" height="42" viewBox="0 0 42 42" fill="none" xmlns="http://www.w3.org/2000/svg">
<rect width="42.0011" height="42.0001" rx="21" fill="#FBFCFE"/>
<path d="M34.0008 21.0881C33.9533 28.1494 28.1933 33.9294 21.1333 33.9994C20.041 34.0109 18.9516 33.8849 17.8908 33.6244C17.8269 33.6084 17.7669 33.5801 17.7141 33.5409C17.6612 33.5017 17.6166 33.4525 17.5828 33.3961C17.549 33.3397 17.5267 33.2771 17.5171 33.212C17.5076 33.147 17.5109 33.0806 17.527 33.0169L18.607 28.6981C19.6604 29.226 20.8225 29.5008 22.0008 29.5006C26.6258 29.5006 30.3383 25.3194 29.977 20.3306C29.879 19.0358 29.502 17.7775 28.8718 16.6421C28.2416 15.5067 27.3732 14.5211 26.3262 13.753C25.2792 12.9849 24.0784 12.4525 22.8062 12.1923C21.534 11.9321 20.2205 11.9502 18.956 12.2455C17.6915 12.5408 16.5058 13.1063 15.4804 13.903C14.4551 14.6998 13.6143 15.709 13.0157 16.8614C12.4172 18.0138 12.0751 19.282 12.013 20.5791C11.9508 21.8761 12.1701 23.1713 12.6558 24.3756C12.7062 24.5012 12.7817 24.6153 12.8775 24.7109C12.9734 24.8066 13.0876 24.8817 13.2134 24.9319C13.3392 24.982 13.4738 25.0061 13.6091 25.0026C13.7445 24.9992 13.8777 24.9683 14.0008 24.9119C14.2354 24.7981 14.4179 24.5991 14.5108 24.3554C14.6037 24.1117 14.6001 23.8417 14.5008 23.6006C14.127 22.6633 13.9603 21.6563 14.0121 20.6486C14.0639 19.6409 14.3329 18.6563 14.8007 17.7623C15.2686 16.8682 15.9241 16.0859 16.7226 15.4689C17.521 14.8519 18.4434 14.4148 19.4265 14.1876C20.4096 13.9604 21.4302 13.9484 22.4184 14.1524C23.4066 14.3565 24.339 14.7717 25.1517 15.3698C25.9645 15.9679 26.6383 16.7346 27.127 17.6173C27.6157 18.5001 27.9078 19.4781 27.9833 20.4844C28.2508 24.3006 25.467 27.5006 22.0008 27.5006C20.9814 27.5001 19.9814 27.2218 19.1083 26.6956L20.9708 19.2431C21.03 18.9876 20.9865 18.7191 20.8497 18.4954C20.7128 18.2717 20.4936 18.1107 20.2391 18.0471C19.9847 17.9835 19.7155 18.0224 19.4895 18.1554C19.2635 18.2884 19.0987 18.5048 19.0308 18.7581L15.6733 32.1894C15.655 32.2625 15.6205 32.3306 15.5723 32.3885C15.524 32.4464 15.4633 32.4926 15.3947 32.5238C15.326 32.5549 15.2512 32.5701 15.1759 32.5683C15.1005 32.5664 15.0266 32.5476 14.9595 32.5131C12.8388 31.4003 11.0667 29.7233 9.83878 27.6671C8.61084 25.6109 7.97477 23.2554 8.00077 20.8606C8.07577 13.8156 13.8345 8.0656 20.8758 8.0006C22.6008 7.98398 24.3119 8.31086 25.9094 8.96222C27.5069 9.61357 28.9587 10.5764 30.1803 11.7945C31.4019 13.0126 32.3688 14.4617 33.0248 16.0572C33.6807 17.6528 34.0125 19.363 34.0008 21.0881Z" fill="#134386"/>
</svg>
