<svg width="90" height="90" fill="none" xmlns="http://www.w3.org/2000/svg"><circle cx="45" cy="45" r="45" fill="#71ACFF"/><path fill-rule="evenodd" clip-rule="evenodd" d="M48.625 36.813a1.687 1.687 0 0 0-1.688 1.687V52a1.687 1.687 0 0 0 1.688 1.688h6.75A1.687 1.687 0 0 0 57.063 52V38.5a1.687 1.687 0 0 0-1.688-1.688h-6.75Zm5.063 3.374h-3.376v10.126h3.376V40.187Z" fill="#000"/><path d="M35.125 36.813a1.687 1.687 0 1 0 0 3.374h6.75a1.687 1.687 0 1 0 0-3.374h-6.75Zm0 6.75a1.687 1.687 0 1 0 0 3.374h6.75a1.687 1.687 0 1 0 0-3.374h-6.75ZM33.437 52a1.687 1.687 0 0 1 1.688-1.688h6.75a1.687 1.687 0 1 1 0 3.376h-6.75A1.687 1.687 0 0 1 33.437 52Z" fill="#000"/><path fill-rule="evenodd" clip-rule="evenodd" d="M31.75 30.063a5.062 5.062 0 0 0-5.063 5.062v20.25a5.062 5.062 0 0 0 5.063 5.063h27a5.062 5.062 0 0 0 5.063-5.063v-20.25a5.062 5.062 0 0 0-5.063-5.063h-27Zm27 3.375h-27a1.687 1.687 0 0 0-1.688 1.687v20.25a1.687 1.687 0 0 0 1.688 1.688h27a1.687 1.687 0 0 0 1.688-1.688v-20.25a1.687 1.687 0 0 0-1.688-1.688Z" fill="#000"/></svg>