<svg width="90" height="90" fill="none" xmlns="http://www.w3.org/2000/svg"><circle cx="45" cy="45" r="45" fill="#FFE58B"/><path d="M68.625 58.5v-3.375H65.08a8.385 8.385 0 0 0-1.236-2.958l2.515-2.515-2.386-2.386-2.515 2.515a8.385 8.385 0 0 0-2.958-1.236V45h-3.375v3.545a8.385 8.385 0 0 0-2.958 1.236l-2.515-2.515-2.386 2.386 2.515 2.515a8.385 8.385 0 0 0-1.236 2.958H45V58.5h3.545a8.385 8.385 0 0 0 1.236 2.958l-2.515 2.515 2.386 2.386 2.515-2.515a8.385 8.385 0 0 0 2.958 1.236v3.545H58.5V65.08a8.385 8.385 0 0 0 2.958-1.236l2.515 2.515 2.386-2.386-2.515-2.515A8.385 8.385 0 0 0 65.08 58.5h3.545Zm-11.813 3.375a5.063 5.063 0 1 1 0-10.125 5.063 5.063 0 0 1 0 10.125Z" fill="#111827"/><path d="M65.25 24.75h-40.5a3.379 3.379 0 0 0-3.375 3.375v33.75a3.379 3.379 0 0 0 3.375 3.375h16.875v-3.375H24.75V38.25h40.5v5.063h3.375V28.124a3.379 3.379 0 0 0-3.375-3.375Zm0 10.125h-40.5v-6.75h40.5v6.75Z" fill="#111827"/><path d="M51.75 33.188a1.687 1.687 0 1 0 0-3.375 1.687 1.687 0 0 0 0 3.375ZM56.813 33.188a1.687 1.687 0 1 0 0-3.375 1.687 1.687 0 0 0 0 3.375ZM61.875 33.188a1.687 1.687 0 1 0 0-3.375 1.687 1.687 0 0 0 0 3.375Z" fill="#111827"/></svg>