<svg width="44" height="38" fill="none" xmlns="http://www.w3.org/2000/svg"><rect x=".001" width="44" height="38" rx="19" fill="#FBFCFE"/><path d="M35.292 11.69a3.001 3.001 0 0 0-1.811-2.05C29.196 7.985 22.376 8 22.001 8s-7.195-.015-11.48 1.64a3 3 0 0 0-1.811 2.05C8.386 12.938 8 15.217 8 19c0 3.782.385 6.063.709 7.31a3 3 0 0 0 1.811 2.051C14.626 29.945 21.051 30 21.919 30h.165c.867 0 7.296-.055 11.397-1.639a3 3 0 0 0 1.811-2.051c.324-1.25.709-3.527.709-7.31 0-3.783-.385-6.063-.709-7.31Zm-9.014 7.726-6 4a.5.5 0 0 1-.777-.416v-8a.5.5 0 0 1 .777-.416l6 4a.5.5 0 0 1 0 .832Z" fill="#134386"/></svg>