<svg width="42" height="43" viewBox="0 0 42 43" fill="none" xmlns="http://www.w3.org/2000/svg">
<rect x="0.000976562" width="42" height="43" rx="21" fill="#FBFCFE"/>
<path d="M34.001 16V21C34.001 21.2652 33.8956 21.5196 33.7081 21.7071C33.5205 21.8946 33.2662 22 33.001 22C30.912 22.0049 28.853 21.5026 27.001 20.5363V25.5C27.001 28.0196 26.0001 30.4359 24.2185 32.2175C22.4369 33.9991 20.0205 35 17.501 35C14.9814 35 12.5651 33.9991 10.7835 32.2175C9.00187 30.4359 8.00098 28.0196 8.00098 25.5C8.00098 20.8875 11.3647 16.81 15.826 16.015C15.9699 15.9894 16.1177 15.9957 16.2589 16.0334C16.4001 16.0711 16.5314 16.1393 16.6434 16.2332C16.7554 16.3271 16.8455 16.4445 16.9073 16.5769C16.9691 16.7094 17.001 16.8538 17.001 17V22.3363C17.001 22.5255 16.9474 22.7109 16.8463 22.8709C16.7451 23.0309 16.6007 23.1589 16.4297 23.24C16.0255 23.4317 15.6802 23.7283 15.4297 24.099C15.1792 24.4696 15.0327 24.9007 15.0056 25.3472C14.9784 25.7938 15.0716 26.2394 15.2754 26.6376C15.4792 27.0359 15.7861 27.3722 16.1641 27.6114C16.5421 27.8506 16.9774 27.984 17.4246 27.9977C17.8717 28.0114 18.3143 27.9048 18.7063 27.6891C19.0982 27.4735 19.4251 27.1566 19.6528 26.7715C19.8805 26.3865 20.0008 25.9474 20.001 25.5V9C20.001 8.73478 20.1063 8.48043 20.2939 8.29289C20.4814 8.10536 20.7358 8 21.001 8H26.001C26.2662 8 26.5205 8.10536 26.7081 8.29289C26.8956 8.48043 27.001 8.73478 27.001 9C27.0026 10.5908 27.6353 12.116 28.7602 13.2408C29.885 14.3657 31.4102 14.9983 33.001 15C33.2662 15 33.5205 15.1054 33.7081 15.2929C33.8956 15.4804 34.001 15.7348 34.001 16Z" fill="#134386"/>
</svg>
