<svg width="42" height="42" viewBox="0 0 42 42" fill="none" xmlns="http://www.w3.org/2000/svg">
<rect x="0.000976562" width="42" height="42" rx="21" fill="#FBFCFE"/>
<path d="M27.001 8H15.001C13.1451 8.00199 11.3657 8.74012 10.0534 10.0524C8.7411 11.3648 8.00296 13.1441 8.00098 15V27C8.00296 28.8559 8.7411 30.6352 10.0534 31.9476C11.3657 33.2599 13.1451 33.998 15.001 34H27.001C28.8569 33.998 30.6362 33.2599 31.9485 31.9476C33.2609 30.6352 33.999 28.8559 34.001 27V15C33.999 13.1441 33.2609 11.3648 31.9485 10.0524C30.6362 8.74012 28.8569 8.00199 27.001 8ZM21.001 27C19.8143 27 18.6542 26.6481 17.6676 25.9888C16.6809 25.3295 15.9118 24.3925 15.4577 23.2961C15.0036 22.1997 14.8848 20.9933 15.1163 19.8295C15.3478 18.6656 15.9192 17.5965 16.7583 16.7574C17.5975 15.9182 18.6665 15.3468 19.8304 15.1153C20.9943 14.8838 22.2007 15.0026 23.2971 15.4567C24.3934 15.9108 25.3305 16.6799 25.9898 17.6666C26.6491 18.6533 27.001 19.8133 27.001 21C26.9993 22.5908 26.3667 24.116 25.2418 25.2408C24.1169 26.3657 22.5918 26.9983 21.001 27ZM28.501 15C28.2043 15 27.9143 14.912 27.6676 14.7472C27.4209 14.5824 27.2287 14.3481 27.1152 14.074C27.0016 13.7999 26.9719 13.4983 27.0298 13.2074C27.0877 12.9164 27.2305 12.6491 27.4403 12.4393C27.6501 12.2296 27.9174 12.0867 28.2083 12.0288C28.4993 11.9709 28.8009 12.0006 29.075 12.1142C29.3491 12.2277 29.5834 12.42 29.7482 12.6666C29.913 12.9133 30.001 13.2033 30.001 13.5C30.001 13.8978 29.8429 14.2794 29.5616 14.5607C29.2803 14.842 28.8988 15 28.501 15ZM25.001 21C25.001 21.7911 24.7664 22.5645 24.3269 23.2223C23.8873 23.8801 23.2626 24.3928 22.5317 24.6955C21.8008 24.9983 20.9965 25.0775 20.2206 24.9231C19.4447 24.7688 18.732 24.3878 18.1725 23.8284C17.6131 23.269 17.2322 22.5563 17.0778 21.7804C16.9235 21.0044 17.0027 20.2002 17.3055 19.4693C17.6082 18.7384 18.1209 18.1136 18.7787 17.6741C19.4365 17.2346 20.2099 17 21.001 17C22.0618 17 23.0793 17.4214 23.8294 18.1716C24.5795 18.9217 25.001 19.9391 25.001 21Z" fill="#134386"/>
</svg>
