<svg width="42" height="42" fill="none" xmlns="http://www.w3.org/2000/svg"><rect width="42.001" height="42" rx="21" fill="#FBFCFE"/><path d="M34 21.088C33.954 28.15 28.194 33.93 21.134 34a13.022 13.022 0 0 1-3.242-.375.5.5 0 0 1-.364-.607l1.08-4.319a7.572 7.572 0 0 0 3.394.803c4.625 0 8.337-4.182 7.976-9.17a9 9 0 1 0-17.321 4.045 1 1 0 0 0 1.345.536 1.024 1.024 0 0 0 .5-1.311 6.999 6.999 0 1 1 13.482-3.117c.268 3.817-2.516 7.017-5.982 7.017-1.02 0-2.02-.28-2.893-.805l1.863-7.453a1 1 0 0 0-1.94-.485L15.673 32.19a.502.502 0 0 1-.713.324A13 13 0 0 1 8 20.861C8.077 13.816 13.836 8.066 20.877 8A13 13 0 0 1 34 21.088Z" fill="#134386"/></svg>