<svg width="236" height="62" fill="none" xmlns="http://www.w3.org/2000/svg"><g clip-path="url(#a)"><path d="M3.762 23.931A29.276 29.276 0 0 1 7.94 13.84C16.113 1.343 32.189-2.871 45.279 3.48l-4.064 6.384a21.778 21.778 0 0 0-13.191-1.346c-5.482 1.153-10.497 4.368-13.805 9.426a21.901 21.901 0 0 0-2.52 5.268l-7.935.72h-.002Z" fill="#9A1421"/><path d="M11.697 23.215a21.828 21.828 0 0 0-.578 11.16c1.152 5.482 4.37 10.498 9.427 13.807 5.06 3.305 10.944 4.242 16.428 3.096 5.483-1.152 10.497-4.37 13.805-9.426 3.305-5.06 4.24-10.943 3.097-16.428-1.152-5.483-4.37-10.497-9.426-13.805a21.99 21.99 0 0 0-3.237-1.75l4.063-6.385a29.528 29.528 0 0 1 3.28 1.858c13.561 8.87 17.366 27.049 8.501 40.613-8.871 13.563-27.05 17.369-40.613 8.504C6.05 47.662 1.387 35.399 3.763 23.935l7.937-.718-.002-.002Z" fill="#1970A0"/><path d="M28.669 11.62c-4.687.987-8.973 3.737-11.802 8.061-2.828 4.325-3.626 9.356-2.65 14.045.986 4.687 3.736 8.973 8.06 11.801a18.6 18.6 0 0 0 14.045 2.649c4.688-.986 8.975-3.735 11.803-8.06 2.826-4.325 3.626-9.354 2.648-14.043-.985-4.687-3.735-8.976-8.058-11.804-4.328-2.827-9.357-3.626-14.048-2.648h.002Z" fill="#26AB80"/><path d="m34.27 12.276 3.502 11.232 11.953-.062s-1.772-1.906-2.635-2.362c0 0 1.644-1.804 4.604-5.624 2.165-2.79 4.794-7.773-.216-11.475-2.14-1.582-4.696-1.928-7.381-2.311-1.589-.227-3.574-.842-5.166-.528 1.038.658 2.222 1.239 2.874 2.22.6.904.788 1.84.394 2.928-.606 1.669-1.34 2.633-2.047 3.626-.185.256-2.669 3.843-2.943 3.716-.004 0-2.94-1.36-2.94-1.36h.001Z" fill="#1970A0"/><path d="M35.534.707s9.439.57 8.845 5.694c-.181 1.562-1.25 3.231-2.524 4.93-2.183 2.912-3.386 4.647-3.386 4.647l-1.627-1.064 2.277 6.819 7.305.192-1.415-1.032s8.495-9.383 7.823-13.412c-.575-3.441-2.123-4.41-2.123-4.41S45.106-1.236 35.533.707Z" fill="#fff"/><path d="m45.36 42.032-11.205-3.585-6.815 9.82s2.577-.358 3.447-.8c0 0 .532 2.38 1.958 6.999 1.041 3.375 3.61 8.389 9.519 6.413 2.523-.843 4.274-2.736 6.131-4.714 1.097-1.17 2.742-2.441 3.399-3.925-1.136.471-2.291 1.106-3.47 1.076-1.084-.026-1.956-.41-2.62-1.36-1.02-1.452-1.387-2.608-1.793-3.756-.106-.298-1.614-4.393-1.354-4.544l2.805-1.626-.002.002Z" fill="#1970A0"/><path d="M54.107 49.706s-5.888 7.4-9.741 3.97c-1.175-1.046-1.928-2.88-2.586-4.898-1.131-3.462-1.86-5.442-1.86-5.442l1.806-.72-6.89-2.053-4.354 5.872 1.657-.567s2.802 12.343 6.486 14.108c3.149 1.508 4.83.796 4.83.796s7.066-2.435 10.65-11.064l.002-.002Z" fill="#fff"/><path d="m17.041 38.488 7.235-9.278-6.863-9.788s-.555 2.544-.438 3.513c0 0-2.42-.323-7.245-.58-3.527-.189-9.12.49-9.307 6.718-.08 2.659 1.093 4.956 2.307 7.381.719 1.435 1.344 3.417 2.51 4.546-.05-1.229-.247-2.533.186-3.628.401-1.008 1.064-1.694 2.182-1.99 1.716-.453 2.928-.4 4.146-.385.316.005 4.68.002 4.73.3l.557 3.19Z" fill="#1970A0"/><path d="M6.814 44.05s-4.91-8.083-.362-10.514c1.386-.742 3.369-.814 5.49-.736 3.637.135 5.747.135 5.747.135l.054 1.942 4.306-5.756-4.005-6.113-.04 1.75s-12.553-1.632-15.48 1.216C.021 28.407.108 30.232.108 30.232s-.468 8.442 6.705 13.817Z" fill="#fff"/><path d="M76.1 36.138c1.222.625 3.098 1.25 5.033 1.25 2.085 0 3.187-.863 3.187-2.173 0-1.25-.953-1.966-3.365-2.83-3.335-1.16-5.51-3.007-5.51-5.925 0-3.425 2.86-6.045 7.594-6.045 2.263 0 3.931.476 5.122 1.012l-1.012 3.663a9.543 9.543 0 0 0-4.2-.953c-1.965 0-2.918.893-2.918 1.936 0 1.28 1.132 1.846 3.723 2.828 3.543 1.31 5.211 3.157 5.211 5.986 0 3.365-2.59 6.254-8.1 6.254-2.293 0-4.556-.625-5.688-1.251l.924-3.752ZM92.032 20.741h4.497v8.875h.09c.446-.775.922-1.49 1.37-2.204l4.555-6.67h5.569l-6.641 8.546 6.998 11.524h-5.3l-4.914-8.665-1.727 2.114v6.551h-4.497v-20.07ZM114.872 20.741v20.071h-4.556v-20.07h4.556ZM118.802 20.742h4.557v16.26h7.98v3.811h-12.537V20.741v.001ZM134.017 20.742h4.556v16.26h7.981v3.811h-12.537V20.741v.001ZM149.383 36.138c1.22.625 3.097 1.25 5.032 1.25 2.085 0 3.187-.863 3.187-2.173 0-1.25-.953-1.966-3.365-2.83-3.336-1.16-5.51-3.007-5.51-5.925 0-3.425 2.859-6.045 7.594-6.045 2.263 0 3.931.476 5.122 1.012l-1.013 3.663a9.542 9.542 0 0 0-4.199-.953c-1.965 0-2.918.893-2.918 1.936 0 1.28 1.131 1.846 3.722 2.828 3.544 1.31 5.212 3.157 5.212 5.986 0 3.365-2.591 6.254-8.1 6.254-2.293 0-4.556-.625-5.688-1.251l.926-3.752h-.002ZM169.87 20.741v7.713h7.475v-7.713h4.526v20.071h-4.526v-8.397h-7.475v8.397h-4.556v-20.07h4.556ZM190.507 35.66l-1.429 5.152h-4.705l6.134-20.07h5.956l6.224 20.07h-4.884l-1.548-5.151h-5.748Zm5.094-3.395-1.251-4.259c-.357-1.191-.715-2.68-1.013-3.871h-.059c-.298 1.191-.596 2.71-.924 3.871l-1.191 4.259h4.438ZM205.365 21.012c1.46-.238 3.634-.417 6.045-.417 2.978 0 5.063.447 6.492 1.578 1.192.953 1.847 2.353 1.847 4.199 0 2.56-1.817 4.318-3.544 4.943v.09c1.4.566 2.174 1.905 2.68 3.752.625 2.263 1.251 4.884 1.638 5.658h-4.646c-.327-.596-.804-2.204-1.399-4.676-.537-2.501-1.4-3.186-3.246-3.216h-1.37v7.892h-4.497V21.012Zm4.496 8.635h1.787c2.263 0 3.603-1.131 3.603-2.888 0-1.846-1.25-2.77-3.335-2.8-1.102 0-1.727.09-2.055.15v5.54-.002ZM234.966 32.324h-7.385v4.765h8.248v3.722h-12.805v-20.07h12.389v3.723h-7.832v4.169h7.385v3.693-.002Z" fill="#000"/></g><defs><clipPath id="a"><path fill="#fff" d="M0 0h236v62H0z"/></clipPath></defs></svg>