<svg width="237" height="53" fill="none" xmlns="http://www.w3.org/2000/svg"><g clip-path="url(#a)"><path d="M73.96 8.302c-.838-3.229-3.422-5.748-6.651-6.651C61.432.034 37.917.034 37.917.034s-23.515 0-29.393 1.552c-3.164.839-5.748 3.487-6.65 6.652C.32 14.115.32 26.326.32 26.326s0 12.271 1.552 18.089c.838 3.229 3.423 5.748 6.651 6.651 5.943 1.617 29.393 1.617 29.393 1.617s23.514 0 29.392-1.552c3.229-.839 5.749-3.423 6.651-6.652 1.553-5.877 1.553-18.088 1.553-18.088s.06-12.207-1.553-18.089Z" fill="red"/><path d="M30.493 37.629 50 26.389 30.493 15.15V37.63Z" fill="#fff"/><path d="M109.488 47.969c-1.488-.968-2.52-2.52-3.165-4.717-.644-2.133-.902-4.975-.902-8.397v-4.781c0-3.552.387-6.394 1.031-8.526.71-2.198 1.875-3.68 3.358-4.717 1.553-.967 3.552-1.488 6.007-1.488 2.391 0 4.394.516 5.877 1.488 1.488.967 2.52 2.584 3.229 4.717.71 2.132 1.032 4.974 1.032 8.526v4.781c0 3.551-.322 6.329-.967 8.462-.709 2.132-1.746 3.68-3.229 4.716-1.488.968-3.551 1.488-6.071 1.488-2.584-.069-4.717-.52-6.2-1.552Zm8.333-5.168c.451-1.032.644-2.842.644-5.233V27.296c0-2.326-.193-4.067-.644-5.168-.452-1.1-1.097-1.617-2.198-1.617-.967 0-1.745.58-2.132 1.617-.452 1.096-.645 2.842-.645 5.168v10.272c0 2.39.193 4.2.645 5.233.387 1.032 1.096 1.616 2.197 1.616 1.032 0 1.746-.52 2.133-1.616ZM223.695 34.921v1.682c0 2.132.064 3.68.193 4.78.129 1.033.387 1.876.774 2.262.387.516.968.71 1.875.71 1.096 0 1.875-.452 2.262-1.29.451-.838.645-2.261.709-4.33l6.393.387c.065.323.065.71.065 1.161 0 3.035-.774 5.297-2.455 6.78-1.681 1.488-4.003 2.197-7.043 2.197-3.68 0-6.2-1.16-7.688-3.486-1.488-2.262-2.197-5.813-2.197-10.66v-5.748c0-4.974.709-8.526 2.262-10.852 1.552-2.262 4.136-3.422 7.816-3.422 2.52 0 4.524.515 5.878 1.423 1.354.907 2.262 2.39 2.842 4.33.58 2.003.774 4.716.774 8.139v5.62h-12.469l.009.317Zm.972-13.823c-.387.516-.645 1.225-.709 2.262-.065 1.032-.194 2.648-.194 4.846v2.326h5.426v-2.326c0-2.133-.064-3.68-.193-4.846-.129-1.161-.452-1.875-.774-2.262-.387-.451-.967-.71-1.746-.71-.907-.064-1.423.194-1.81.71ZM91.399 34.34 83.002 3.85h7.365l2.971 13.824c.71 3.422 1.29 6.329 1.681 8.72h.194c.258-1.746.774-4.588 1.681-8.656l3.1-13.887h7.301l-8.526 30.488v14.597h-7.301l-.07-14.597ZM149.928 15.984v33.008h-5.813l-.645-4.003h-.194c-1.552 3.036-3.938 4.588-7.107 4.588-2.197 0-3.745-.71-4.846-2.197-1.096-1.488-1.552-3.68-1.552-6.716v-24.61h7.43v24.223c0 1.488.193 2.52.516 3.165.322.645.838.902 1.616.902.645 0 1.226-.193 1.875-.644.645-.387 1.032-.839 1.29-1.488V16.048h7.43v-.064ZM187.974 15.984v33.008h-5.813l-.645-4.003h-.193c-1.552 3.036-3.939 4.588-7.108 4.588-2.197 0-3.744-.71-4.845-2.197-1.032-1.423-1.553-3.68-1.553-6.716v-24.61h7.43v24.223c0 1.488.194 2.52.516 3.165.323.645.838.902 1.617.902.645 0 1.225-.193 1.875-.644.644-.387 1.031-.839 1.289-1.488V16.048h7.43v-.064Z" fill="#282828"/><path d="M170.08 9.786h-7.365V48.93h-7.232V9.786h-7.365V3.78h21.962v6.006ZM212.507 21.224c-.451-2.132-1.16-3.615-2.197-4.523-.967-.903-2.39-1.423-4.136-1.423a6.788 6.788 0 0 0-3.81 1.16 7.27 7.27 0 0 0-2.713 3.036h-.064V2.1h-7.172v46.767h6.136l.709-3.1h.193a6.39 6.39 0 0 0 2.584 2.649c1.161.645 2.391.967 3.81.967 2.519 0 4.33-1.16 5.49-3.487 1.161-2.261 1.811-5.942 1.811-10.852v-5.168c.009-3.676-.185-6.582-.641-8.65Zm-6.78 13.437c0 2.39-.129 4.265-.322 5.62-.194 1.354-.581 2.326-.968 2.906-.516.58-1.096.838-1.874.838-.645 0-1.161-.129-1.682-.451a3.372 3.372 0 0 1-1.225-1.29V23.615c.258-.838.709-1.617 1.29-2.197.645-.58 1.289-.838 2.003-.838.714 0 1.355.322 1.746.838.452.645.71 1.617.839 2.971.193 1.423.257 3.422.257 5.942l-.064 4.33Z" fill="#282828"/></g><defs><clipPath id="a"><path fill="#fff" d="M0 0h237v53H0z"/></clipPath></defs></svg>