<svg width="237" height="46" fill="none" xmlns="http://www.w3.org/2000/svg"><g clip-path="url(#a)"><path d="M15.457 45.048H6.571V22.894H.517v-7.212h6.054V10.55C6.57 4.468 9.248.106 18.11.106c1.874 0 4.817.378 4.817.378V7.18h-3.091c-3.15 0-4.38.958-4.38 3.606v4.895h7.353l-.655 7.213h-6.697v22.153Zm20.391-29.943c-.13 0-.263.005-.395.008-8.24 0-12.01 6.199-12.01 14.997 0 11.084 4.89 15.52 12.075 15.52 4.11 0 6.81-1.73 8.452-4.958v4.379h8.453V15.685H43.97v4.516c-1.34-2.905-4.116-5.061-8.122-5.096Zm2.15 6.94c3.46 0 5.537 2.414 5.537 6.52l.008 4.194c0 2.767-1.715 6.005-5.546 6.005-5.889 0-5.731-6.359-5.731-8.476 0-7.124 3.137-8.243 5.731-8.243Zm17.838 8.324c0-3.568-.17-15.244 15.042-15.244 6.107 0 8.656 1.941 8.656 1.941l-2.049 6.357s-2.546-1.402-5.865-1.402c-4.25 0-6.962 2.463-6.962 6.798l.005 3.109c0 4.165 2.617 6.945 6.966 6.945 3.023 0 5.81-1.415 5.81-1.415l2.043 6.224s-2.331 1.954-8.561 1.954c-14.485 0-15.085-10.476-15.085-15.267Zm73.258-15.255c8.241 0 12.07 6.198 12.07 14.996 0 11.084-4.89 15.52-12.075 15.52-4.11 0-7.149-1.73-8.79-4.958v4.379l-8.346-.004V1l8.861-.773v19.577c1.279-3.425 5.482-4.69 8.28-4.69Zm-2.484 6.93c-3.461 0-5.796 2.415-5.796 6.52l-.008 4.195c-.005 2.767 1.617 6.005 5.804 6.005 5.889 0 5.731-6.359 5.731-8.476 0-7.124-3.137-8.243-5.731-8.243Zm-31.7-6.906c-9.347 0-14.28 5.096-14.28 14.151v1.683c0 11.753 6.928 14.78 15.19 14.78 8.029 0 11.663-2.247 11.663-2.247l-1.658-5.98s-4.275 1.819-8.943 1.819c-4.84 0-6.92-1.234-7.454-5.885h18.764v-4.798c0-9.823-5.538-13.523-13.282-13.523Zm.225 5.989c3.235 0 5.332 1.984 5.216 6.585H89.444c.19-4.843 2.45-6.585 5.69-6.585Zm63.698-6.03c-9.597 0-14.65 5.41-14.65 15.102 0 13.299 8.71 15.44 14.666 15.44 8.721 0 14.522-4.695 14.522-15.32 0-11.057-6.523-15.221-14.538-15.221Zm-.12 6.972c4.22 0 5.892 3.158 5.892 6.754v3.09c0 4.356-2.34 6.875-5.908 6.875-3.338 0-5.684-2.356-5.684-6.874v-3.091c0-4.82 2.792-6.754 5.7-6.754Zm32.312-6.971c-9.598 0-14.651 5.408-14.651 15.1 0 13.3 8.71 15.44 14.667 15.44 8.72 0 14.522-4.694 14.522-15.318 0-11.058-6.524-15.223-14.538-15.223Zm-.121 6.97c4.22 0 5.893 3.16 5.893 6.755v3.09c0 4.356-2.34 6.875-5.909 6.875-3.337 0-5.683-2.356-5.683-6.874v-3.091c0-4.82 2.791-6.754 5.699-6.754Zm18.008 22.98V.998l8.887-.772V29.75l8.817-14.068h9.385l-9.198 14.57 9.552 14.796h-9.412l-9.144-14.366v14.366h-8.887Z" fill="#1877F2"/></g><defs><clipPath id="a"><path fill="#fff" d="M0 0h237v46H0z"/></clipPath></defs></svg>