<svg width="212" height="71" fill="none" xmlns="http://www.w3.org/2000/svg"><g clip-path="url(#a)"><path d="M52.304 25.325H27.698v7.3H45.15c-.865 10.22-9.38 14.607-17.423 14.607A19.182 19.182 0 0 1 8.463 27.793C8.463 16.74 17.02 8.23 27.751 8.23c8.278 0 13.156 5.277 13.156 5.277l5.11-5.294S39.452.907 27.484.907C12.243.907.453 13.771.453 27.663c0 13.614 11.09 26.89 27.416 26.89 14.36 0 24.873-9.839 24.873-24.386 0-3.07-.446-4.842-.446-4.842h.008Z" fill="#4885ED"/><path d="M72.462 20.031c-10.098 0-17.334 7.895-17.334 17.098 0 9.343 7.016 17.384 17.452 17.384 9.445 0 17.183-7.22 17.183-17.183 0-11.4-9.002-17.3-17.301-17.3v.001Zm.098 6.773c4.965 0 9.67 4.015 9.67 10.482 0 6.329-4.686 10.46-9.693 10.46-5.503 0-9.827-4.406-9.827-10.51 0-5.975 4.284-10.432 9.866-10.432h-.016Z" fill="#DB3236"/><path d="M110.156 20.031c-10.097 0-17.334 7.895-17.334 17.098 0 9.343 7.016 17.384 17.452 17.384 9.446 0 17.183-7.22 17.183-17.183 0-11.4-9.001-17.3-17.301-17.3v.001Zm.099 6.773c4.964 0 9.669 4.015 9.669 10.482 0 6.329-4.685 10.46-9.693 10.46-5.503 0-9.827-4.406-9.827-10.51 0-5.975 4.285-10.432 9.866-10.432h-.015Z" fill="#F4C20D"/><path d="M147.129 20.054c-9.268 0-16.551 8.117-16.551 17.228 0 10.377 8.444 17.26 16.39 17.26 4.914 0 7.527-1.952 9.434-4.19v3.4c0 5.949-3.612 9.512-9.064 9.512-5.267 0-7.909-3.917-8.844-6.138l-6.627 2.752c2.35 4.972 7.083 10.154 15.526 10.154 9.237 0 16.237-5.803 16.237-17.976V21.09h-7.201v2.92c-2.22-2.397-5.263-3.956-9.296-3.956h-.004Zm.669 6.76c4.543 0 9.209 3.88 9.209 10.505 0 6.736-4.658 10.446-9.31 10.446-4.94 0-9.537-4.009-9.537-10.383 0-6.619 4.775-10.567 9.638-10.567Z" fill="#4885ED"/><path d="M195.823 20.008c-8.741 0-16.082 6.957-16.082 17.216 0 10.86 8.182 17.301 16.902 17.301 7.295 0 11.792-3.99 14.445-7.566l-5.961-3.966c-1.546 2.397-4.133 4.746-8.447 4.746-4.846 0-7.075-2.653-8.456-5.228l23.118-9.59-1.18-2.811c-2.232-5.503-7.444-10.102-14.339-10.102Zm.301 6.631c3.151 0 5.417 1.675 6.38 3.683l-15.44 6.452c-.668-4.995 4.068-10.135 9.04-10.135h.02Z" fill="#DB3236"/><path d="M168.701 53.505h7.594V2.688h-7.594v50.817Z" fill="#3CBA54"/></g><defs><clipPath id="a"><path fill="#fff" d="M0 0h212v71H0z"/></clipPath></defs></svg>