<svg width="237" height="94" fill="none" xmlns="http://www.w3.org/2000/svg"><path d="m37.474 21.17-18.32-10.585L.839 21.17V10.585L19.158 0l18.32 10.585V21.17h-.004Z" fill="#A435F0"/><path d="M10.435 34.962v23.33c0 6.028 4.498 8.967 8.722 8.967 4.26 0 8.726-3.016 8.726-9.047v-23.25h9.594v23.887c0 5.554-1.745 9.837-5.232 12.775-3.493 2.936-7.852 4.366-13.17 4.366-5.312 0-9.674-1.427-13.082-4.366-3.41-2.936-5.155-7.06-5.155-12.539V34.962h9.597ZM120.44 63.957l7.127 4.118c-4.348 4.958-10.146 7.835-17.432 7.835-6.267 0-11.422-1.904-15.307-5.633-3.885-3.731-5.866-8.734-5.866-15.003v-.313c0-6.352 1.98-11.43 5.866-15.319 3.967-3.888 8.966-5.792 15.071-5.792 5.792 0 10.547 1.904 14.193 5.792 3.729 3.888 5.553 8.652 5.553 14.367 0 1.842-.209 3.803-.209 3.803H98.431c.522 6.078 5.138 10.004 12.021 10.004 3.773 0 7.083-1.27 9.987-3.858Zm-18.234-19.472c-2.046 1.592-3.222 3.55-3.529 5.872h21.282c-.088-2.246-1.111-4.2-3.003-5.792-1.987-1.748-4.286-2.62-7.06-2.62-2.933 0-5.553.872-7.693 2.537l.003.003Zm114.831 36.816c-3.891 9.2-7.965 12.328-14.211 12.328h-4.33v-8.513h3.502c2.149 0 4.145-.808 6.049-5.203l1.904-4.4-16.419-40.552h9.757l11.658 29.206 11.976-29.206h9.754l-19.637 46.34h-.003Zm-142.2-61.653h9.518v55.31h-9.518v-3.681c-2.17 2-6.276 4.554-12.77 4.554-5.627 0-10.387-1.984-14.272-5.955-3.808-4.047-5.71-8.966-5.71-14.92 0-5.952 1.901-10.872 5.71-14.842 3.885-4.044 8.642-6.028 14.272-6.028 4.731 0 9.624 1.677 12.77 4.498V19.648Zm.716 35.313c0-3.496-1.194-6.431-3.573-8.73-2.299-2.303-5.232-3.494-8.645-3.494-3.41 0-6.184 1.191-8.483 3.493-2.22 2.3-3.331 5.235-3.331 8.731 0 3.49 1.114 6.426 3.33 8.728 2.3 2.302 5.073 3.493 8.484 3.493 3.413 0 6.346-1.19 8.645-3.493 2.38-2.302 3.573-5.238 3.573-8.728Zm103.185-20.79c8.277 0 13.881 5.598 13.881 16.027v24.76H183.1V51.545c0-5.474-2.618-8.887-7.139-8.887-4.678 0-7.927 3.811-7.927 9.285V74.96h-9.438v-23.41c0-5.477-2.615-8.89-7.139-8.89-4.436 0-7.77 3.888-7.77 9.285V74.96h-9.436V34.967h9.436v4.16c1.683-2.064 5.058-4.959 10.785-4.959 6.774 0 9.674 3.927 10.703 5.893 2.576-2.892 6.332-5.892 13.562-5.892v.003Z" fill="#000"/></svg>