<svg width="354" height="352" fill="none" xmlns="http://www.w3.org/2000/svg"><g filter="url(#a)"><path d="M344 172c0 94.993-77.007 172-172 172S0 266.993 0 172 77.007 0 172 0s172 77.007 172 172Zm-302.707 0c0 72.188 58.52 130.707 130.707 130.707 72.188 0 130.707-58.519 130.707-130.707 0-72.188-58.519-130.707-130.707-130.707-72.188 0-130.707 58.52-130.707 130.707Z" fill="#D9D9D9"/></g><path d="M344 172a171.999 171.999 0 0 1-225.25 163.549A172.002 172.002 0 0 1 0 171.826 172.001 172.001 0 0 1 225.415 8.504l-12.823 39.252A130.709 130.709 0 0 0 41.293 171.868 130.705 130.705 0 0 0 212.34 296.326 130.712 130.712 0 0 0 302.707 172H344Z" fill="#154992"/><defs><filter id="a" x="0" y="0" width="354" height="352" filterUnits="userSpaceOnUse" color-interpolation-filters="sRGB"><feFlood flood-opacity="0" result="BackgroundImageFix"/><feColorMatrix in="SourceAlpha" values="0 0 0 0 0 0 0 0 0 0 0 0 0 0 0 0 0 0 127 0" result="hardAlpha"/><feOffset dx="6" dy="4"/><feGaussianBlur stdDeviation="2"/><feComposite in2="hardAlpha" operator="out"/><feColorMatrix values="0 0 0 0 0 0 0 0 0 0 0 0 0 0 0 0 0 0 0.25 0"/><feBlend in2="BackgroundImageFix" result="effect1_dropShadow_436_1864"/><feBlend in="SourceGraphic" in2="effect1_dropShadow_436_1864" result="shape"/></filter></defs></svg>