<svg width="71" height="60" fill="none" xmlns="http://www.w3.org/2000/svg"><path d="M31.74 45.479c0-3.72-.972-6.84-2.917-9.373-1.378-1.742-3.247-2.888-5.61-3.433-2.325-.541-4.524-.58-6.511-.119-.677-4.016.423-8.27 3.213-12.776 2.79-4.503 6.405-7.893 10.815-10.16L24.046 0a45.148 45.148 0 0 0-9.555 6.363c-3.002 2.566-5.665 5.517-8.033 8.853-2.368 3.336-4.143 7.103-5.285 11.373A34.212 34.212 0 0 0 .26 39.695C.97 45.615 2.88 50.35 5.993 53.86 9.1 57.414 12.977 59.19 17.61 59.19c4.08 0 7.466-1.226 10.147-3.712 2.655-2.435 3.974-5.771 3.974-10.012l.009.013Zm38.575 0c0-3.72-.972-6.84-2.917-9.373-1.378-1.776-3.255-2.926-5.61-3.454-2.368-.525-4.537-.55-6.511-.093-.677-3.974.38-8.245 3.18-12.768 2.79-4.482 6.396-7.864 10.806-10.147L62.595 0c-3.382 1.674-6.574 3.797-9.555 6.363a47.736 47.736 0 0 0-8.007 8.853c-2.35 3.34-4.101 7.103-5.243 11.373a34 34 0 0 0-.917 13.106c.702 5.92 2.604 10.654 5.708 14.164 3.098 3.526 6.963 5.293 11.596 5.293 4.089 0 7.475-1.226 10.156-3.708 2.65-2.435 3.982-5.77 3.982-10.012v.047Z" fill="#FFDC60"/></svg>