<svg width="24" height="25" fill="none" xmlns="http://www.w3.org/2000/svg"><path d="M10.74 1.333c.13-.23.313-.422.534-.554a1.41 1.41 0 0 1 1.453 0c.22.132.405.323.533.554l3.26 5.848 6.332 1.433c.249.056.48.18.668.359.19.179.33.406.409.66.078.252.092.523.04.784-.053.26-.17.502-.34.7l-4.315 5.048.653 6.734c.026.265-.015.532-.12.776a1.512 1.512 0 0 1-.474.61 1.4 1.4 0 0 1-1.445.161L12 21.717l-5.927 2.73a1.4 1.4 0 0 1-1.446-.16 1.512 1.512 0 0 1-.474-.611 1.585 1.585 0 0 1-.12-.776l.654-6.734-4.316-5.046a1.55 1.55 0 0 1-.34-.701 1.59 1.59 0 0 1 .04-.785c.079-.254.22-.481.41-.66.188-.179.419-.303.668-.359l6.332-1.433 3.26-5.848Z" fill="#FFC800"/></svg>